M48
; DRILL file {KiCad 7.0.7} date 2023 September 29, Friday 07:28:51
; FORMAT={-:-/ absolute / metric / decimal}
; #@! TF.CreationDate,2023-09-29T07:28:51+02:00
; #@! TF.GenerationSoftware,Kicad,Pcbnew,7.0.7
; #@! TF.FileFunction,Plated,1,2,PTH
FMAT,2
METRIC
; #@! TA.AperFunction,Plated,PTH,ViaDrill
T1C0.300
; #@! TA.AperFunction,Plated,PTH,ViaDrill
T2C0.400
; #@! TA.AperFunction,Plated,PTH,ComponentDrill
T3C0.500
; #@! TA.AperFunction,Plated,PTH,ViaDrill
T4C0.600
; #@! TA.AperFunction,Plated,PTH,ComponentDrill
T5C1.300
; #@! TA.AperFunction,Plated,PTH,ComponentDrill
T6C3.000
%
G90
G05
T1
X46.355Y-82.067
X46.38Y-83.134
X46.38Y-84.277
X46.38Y-85.369
X47.625Y-83.083
X47.625Y-84.303
X47.625Y-85.369
X47.65Y-82.067
X77.038Y-80.899
X78.308Y-80.88
X80.391Y-81.28
X80.391Y-82.169
X80.747Y-76.937
X80.747Y-77.8
X80.747Y-78.664
X81.153Y-81.153
X81.28Y-82.169
X81.636Y-76.937
X81.636Y-77.8
X81.636Y-78.664
X82.499Y-76.962
X82.499Y-77.8
X82.499Y-78.664
X83.21Y-82.017
X84.836Y-78.384
X85.42Y-79.248
X87.376Y-84.582
X89.027Y-77.343
X89.027Y-78.359
X89.027Y-79.502
X90.17Y-80.899
X90.932Y-81.915
X91.059Y-80.01
X91.948Y-81.026
T2
X37.465Y-90.17
X37.465Y-92.075
X37.465Y-93.98
X39.37Y-90.17
X39.37Y-92.075
X39.37Y-93.98
X41.275Y-71.12
X41.275Y-73.66
X41.275Y-76.2
X41.275Y-78.74
X41.275Y-90.17
X41.275Y-92.075
X41.275Y-93.98
X43.18Y-93.98
X43.815Y-63.5
X43.815Y-66.04
X43.815Y-68.58
X43.815Y-71.12
X43.815Y-73.66
X43.815Y-76.2
X43.815Y-78.74
X45.085Y-93.98
X46.355Y-63.5
X46.355Y-66.04
X46.355Y-68.58
X46.355Y-71.12
X46.355Y-73.66
X46.355Y-76.2
X46.355Y-78.74
X46.355Y-86.995
X46.355Y-88.265
X46.99Y-93.98
X47.625Y-86.995
X48.895Y-63.5
X48.895Y-66.04
X48.895Y-68.58
X48.895Y-71.12
X48.895Y-73.66
X48.895Y-76.2
X48.895Y-78.105
X48.895Y-93.98
X50.8Y-93.98
X51.435Y-63.5
X51.435Y-66.04
X51.435Y-68.58
X51.435Y-71.12
X51.435Y-76.2
X51.435Y-78.105
X52.705Y-93.98
X53.34Y-76.2
X53.34Y-77.47
X53.975Y-63.5
X53.975Y-66.04
X53.975Y-68.58
X53.975Y-71.12
X54.61Y-93.98
X56.515Y-68.58
X56.515Y-71.12
X56.515Y-93.98
X58.42Y-93.98
X59.055Y-68.58
X59.055Y-71.12
X60.325Y-93.98
X62.23Y-93.98
X64.135Y-93.98
X64.77Y-66.04
X64.77Y-67.945
X66.675Y-67.945
X68.58Y-67.945
X69.85Y-66.04
X70.485Y-67.945
X70.485Y-73.025
X70.485Y-74.93
X70.485Y-76.835
X70.485Y-78.74
X70.485Y-81.915
X70.485Y-83.185
X70.485Y-85.09
X70.485Y-86.995
X70.485Y-88.9
X70.485Y-90.805
X72.39Y-86.995
X72.39Y-88.9
X72.39Y-90.805
X74.93Y-73.025
X74.93Y-74.93
X74.93Y-76.835
X76.2Y-64.135
X76.2Y-71.755
X76.835Y-73.025
X78.105Y-62.865
X78.105Y-71.755
X78.74Y-68.58
X80.645Y-62.865
X80.645Y-64.77
X80.645Y-66.675
X80.645Y-68.58
X82.55Y-62.865
X82.55Y-68.58
X84.455Y-68.58
X86.36Y-62.865
X86.36Y-66.675
X86.36Y-68.58
X88.265Y-69.215
X88.9Y-71.755
X89.535Y-70.485
X90.805Y-85.725
X90.805Y-87.63
X92.075Y-62.865
X92.075Y-67.31
X92.71Y-85.725
X92.71Y-87.63
X93.345Y-68.58
X93.98Y-62.865
X94.615Y-83.82
X94.615Y-85.725
X94.615Y-86.995
X95.504Y-71.12
X95.631Y-69.215
X95.885Y-62.865
X96.52Y-72.39
X96.52Y-74.295
X96.52Y-76.2
X96.52Y-78.105
X96.52Y-80.01
X96.52Y-81.915
X96.52Y-83.82
X96.52Y-85.725
X96.52Y-87.63
X97.155Y-68.58
X97.155Y-70.485
T3
X37.307Y-65.592
X37.966Y-64.001
X37.966Y-67.183
X39.557Y-63.342
X39.557Y-67.842
X41.148Y-64.001
X41.148Y-67.183
X41.807Y-65.592
X92.274Y-91.44
X92.933Y-89.849
X92.933Y-93.031
X94.524Y-89.19
X94.524Y-93.69
X96.115Y-89.849
X96.115Y-93.031
X96.774Y-91.44
T4
X85.852Y-74.524
X86.411Y-77.343
T5
X39.04Y-72.811
X39.04Y-77.811
X62.54Y-64.922
X67.54Y-64.922
X72.54Y-64.922
X84.315Y-64.922
X89.315Y-64.922
T6
X39.557Y-65.592
X94.524Y-91.44
T0
M30
