%TF.GenerationSoftware,KiCad,Pcbnew,7.0.7*%
%TF.CreationDate,2023-09-29T07:28:52+02:00*%
%TF.ProjectId,shmoergh-dual-rail-psu,73686d6f-6572-4676-982d-6475616c2d72,rev?*%
%TF.SameCoordinates,Original*%
%TF.FileFunction,Drillmap*%
%TF.FilePolarity,Positive*%
%FSLAX45Y45*%
G04 Gerber Fmt 4.5, Leading zero omitted, Abs format (unit mm)*
G04 Created by KiCad (PCBNEW 7.0.7) date 2023-09-29 07:28:52*
%MOMM*%
%LPD*%
G01*
G04 APERTURE LIST*
%ADD10C,0.100000*%
%ADD11C,0.200000*%
G04 APERTURE END LIST*
D10*
X3600000Y-6200000D02*
X9800000Y-6200000D01*
X9800000Y-9500000D01*
X3600000Y-9500000D01*
X3600000Y-6200000D01*
D11*
X3855777Y-9816484D02*
X3855777Y-9616484D01*
X3855777Y-9616484D02*
X3903396Y-9616484D01*
X3903396Y-9616484D02*
X3931967Y-9626008D01*
X3931967Y-9626008D02*
X3951015Y-9645055D01*
X3951015Y-9645055D02*
X3960539Y-9664103D01*
X3960539Y-9664103D02*
X3970062Y-9702198D01*
X3970062Y-9702198D02*
X3970062Y-9730770D01*
X3970062Y-9730770D02*
X3960539Y-9768865D01*
X3960539Y-9768865D02*
X3951015Y-9787912D01*
X3951015Y-9787912D02*
X3931967Y-9806960D01*
X3931967Y-9806960D02*
X3903396Y-9816484D01*
X3903396Y-9816484D02*
X3855777Y-9816484D01*
X4055777Y-9816484D02*
X4055777Y-9683150D01*
X4055777Y-9721246D02*
X4065301Y-9702198D01*
X4065301Y-9702198D02*
X4074824Y-9692674D01*
X4074824Y-9692674D02*
X4093872Y-9683150D01*
X4093872Y-9683150D02*
X4112920Y-9683150D01*
X4179586Y-9816484D02*
X4179586Y-9683150D01*
X4179586Y-9616484D02*
X4170062Y-9626008D01*
X4170062Y-9626008D02*
X4179586Y-9635531D01*
X4179586Y-9635531D02*
X4189110Y-9626008D01*
X4189110Y-9626008D02*
X4179586Y-9616484D01*
X4179586Y-9616484D02*
X4179586Y-9635531D01*
X4303396Y-9816484D02*
X4284348Y-9806960D01*
X4284348Y-9806960D02*
X4274824Y-9787912D01*
X4274824Y-9787912D02*
X4274824Y-9616484D01*
X4408158Y-9816484D02*
X4389110Y-9806960D01*
X4389110Y-9806960D02*
X4379586Y-9787912D01*
X4379586Y-9787912D02*
X4379586Y-9616484D01*
X4636729Y-9816484D02*
X4636729Y-9616484D01*
X4636729Y-9616484D02*
X4703396Y-9759341D01*
X4703396Y-9759341D02*
X4770063Y-9616484D01*
X4770063Y-9616484D02*
X4770063Y-9816484D01*
X4951015Y-9816484D02*
X4951015Y-9711722D01*
X4951015Y-9711722D02*
X4941491Y-9692674D01*
X4941491Y-9692674D02*
X4922444Y-9683150D01*
X4922444Y-9683150D02*
X4884348Y-9683150D01*
X4884348Y-9683150D02*
X4865301Y-9692674D01*
X4951015Y-9806960D02*
X4931967Y-9816484D01*
X4931967Y-9816484D02*
X4884348Y-9816484D01*
X4884348Y-9816484D02*
X4865301Y-9806960D01*
X4865301Y-9806960D02*
X4855777Y-9787912D01*
X4855777Y-9787912D02*
X4855777Y-9768865D01*
X4855777Y-9768865D02*
X4865301Y-9749817D01*
X4865301Y-9749817D02*
X4884348Y-9740293D01*
X4884348Y-9740293D02*
X4931967Y-9740293D01*
X4931967Y-9740293D02*
X4951015Y-9730770D01*
X5046253Y-9683150D02*
X5046253Y-9883150D01*
X5046253Y-9692674D02*
X5065301Y-9683150D01*
X5065301Y-9683150D02*
X5103396Y-9683150D01*
X5103396Y-9683150D02*
X5122444Y-9692674D01*
X5122444Y-9692674D02*
X5131967Y-9702198D01*
X5131967Y-9702198D02*
X5141491Y-9721246D01*
X5141491Y-9721246D02*
X5141491Y-9778389D01*
X5141491Y-9778389D02*
X5131967Y-9797436D01*
X5131967Y-9797436D02*
X5122444Y-9806960D01*
X5122444Y-9806960D02*
X5103396Y-9816484D01*
X5103396Y-9816484D02*
X5065301Y-9816484D01*
X5065301Y-9816484D02*
X5046253Y-9806960D01*
X5227205Y-9797436D02*
X5236729Y-9806960D01*
X5236729Y-9806960D02*
X5227205Y-9816484D01*
X5227205Y-9816484D02*
X5217682Y-9806960D01*
X5217682Y-9806960D02*
X5227205Y-9797436D01*
X5227205Y-9797436D02*
X5227205Y-9816484D01*
X5227205Y-9692674D02*
X5236729Y-9702198D01*
X5236729Y-9702198D02*
X5227205Y-9711722D01*
X5227205Y-9711722D02*
X5217682Y-9702198D01*
X5217682Y-9702198D02*
X5227205Y-9692674D01*
X5227205Y-9692674D02*
X5227205Y-9711722D01*
M02*
