G04 #@! TF.GenerationSoftware,KiCad,Pcbnew,7.0.7*
G04 #@! TF.CreationDate,2023-09-29T07:28:47+02:00*
G04 #@! TF.ProjectId,shmoergh-dual-rail-psu,73686d6f-6572-4676-982d-6475616c2d72,rev?*
G04 #@! TF.SameCoordinates,Original*
G04 #@! TF.FileFunction,Soldermask,Top*
G04 #@! TF.FilePolarity,Negative*
%FSLAX46Y46*%
G04 Gerber Fmt 4.6, Leading zero omitted, Abs format (unit mm)*
G04 Created by KiCad (PCBNEW 7.0.7) date 2023-09-29 07:28:47*
%MOMM*%
%LPD*%
G01*
G04 APERTURE LIST*
G04 Aperture macros list*
%AMRoundRect*
0 Rectangle with rounded corners*
0 $1 Rounding radius*
0 $2 $3 $4 $5 $6 $7 $8 $9 X,Y pos of 4 corners*
0 Add a 4 corners polygon primitive as box body*
4,1,4,$2,$3,$4,$5,$6,$7,$8,$9,$2,$3,0*
0 Add four circle primitives for the rounded corners*
1,1,$1+$1,$2,$3*
1,1,$1+$1,$4,$5*
1,1,$1+$1,$6,$7*
1,1,$1+$1,$8,$9*
0 Add four rect primitives between the rounded corners*
20,1,$1+$1,$2,$3,$4,$5,0*
20,1,$1+$1,$4,$5,$6,$7,0*
20,1,$1+$1,$6,$7,$8,$9,0*
20,1,$1+$1,$8,$9,$2,$3,0*%
G04 Aperture macros list end*
%ADD10R,2.600000X2.600000*%
%ADD11C,2.600000*%
%ADD12RoundRect,0.135000X0.135000X0.185000X-0.135000X0.185000X-0.135000X-0.185000X0.135000X-0.185000X0*%
%ADD13RoundRect,0.200000X0.200000X0.275000X-0.200000X0.275000X-0.200000X-0.275000X0.200000X-0.275000X0*%
%ADD14R,5.400000X2.900000*%
%ADD15R,2.500000X1.900000*%
%ADD16RoundRect,0.218750X0.218750X0.256250X-0.218750X0.256250X-0.218750X-0.256250X0.218750X-0.256250X0*%
%ADD17RoundRect,0.200000X-0.275000X0.200000X-0.275000X-0.200000X0.275000X-0.200000X0.275000X0.200000X0*%
%ADD18RoundRect,0.225000X0.250000X-0.225000X0.250000X0.225000X-0.250000X0.225000X-0.250000X-0.225000X0*%
%ADD19RoundRect,0.150000X0.587500X0.150000X-0.587500X0.150000X-0.587500X-0.150000X0.587500X-0.150000X0*%
%ADD20RoundRect,0.250000X0.650000X-0.325000X0.650000X0.325000X-0.650000X0.325000X-0.650000X-0.325000X0*%
%ADD21RoundRect,0.225000X-0.375000X0.225000X-0.375000X-0.225000X0.375000X-0.225000X0.375000X0.225000X0*%
%ADD22RoundRect,0.140000X-0.170000X0.140000X-0.170000X-0.140000X0.170000X-0.140000X0.170000X0.140000X0*%
%ADD23RoundRect,0.200000X0.275000X-0.200000X0.275000X0.200000X-0.275000X0.200000X-0.275000X-0.200000X0*%
%ADD24RoundRect,0.225000X0.225000X0.250000X-0.225000X0.250000X-0.225000X-0.250000X0.225000X-0.250000X0*%
%ADD25RoundRect,0.225000X-0.225000X-0.375000X0.225000X-0.375000X0.225000X0.375000X-0.225000X0.375000X0*%
%ADD26C,0.800000*%
%ADD27C,6.000000*%
%ADD28RoundRect,0.225000X-0.250000X0.225000X-0.250000X-0.225000X0.250000X-0.225000X0.250000X0.225000X0*%
%ADD29RoundRect,0.135000X-0.135000X-0.185000X0.135000X-0.185000X0.135000X0.185000X-0.135000X0.185000X0*%
%ADD30RoundRect,0.062500X0.062500X-0.350000X0.062500X0.350000X-0.062500X0.350000X-0.062500X-0.350000X0*%
%ADD31RoundRect,0.062500X0.350000X-0.062500X0.350000X0.062500X-0.350000X0.062500X-0.350000X-0.062500X0*%
%ADD32R,2.600000X3.100000*%
%ADD33R,1.550000X0.600000*%
%ADD34RoundRect,0.250000X-0.250000X-0.475000X0.250000X-0.475000X0.250000X0.475000X-0.250000X0.475000X0*%
%ADD35RoundRect,0.250000X1.412500X0.550000X-1.412500X0.550000X-1.412500X-0.550000X1.412500X-0.550000X0*%
%ADD36RoundRect,0.250000X0.250000X0.475000X-0.250000X0.475000X-0.250000X-0.475000X0.250000X-0.475000X0*%
G04 APERTURE END LIST*
D10*
X72540402Y-64922400D03*
D11*
X67540402Y-64922400D03*
X62540402Y-64922400D03*
D12*
X57527000Y-66675000D03*
X58547000Y-66675000D03*
D13*
X47993800Y-79956600D03*
X49643800Y-79956600D03*
D14*
X61137800Y-79959600D03*
X61137800Y-89859600D03*
D15*
X75873100Y-89493800D03*
X75873100Y-85393800D03*
D16*
X79400500Y-65000750D03*
X77825500Y-65000750D03*
D17*
X81588100Y-72031800D03*
X81588100Y-73681800D03*
D18*
X79937100Y-73631800D03*
X79937100Y-72081800D03*
D19*
X87544600Y-85496400D03*
X87544600Y-83596400D03*
X85669600Y-84546400D03*
D16*
X95529500Y-65278000D03*
X93954500Y-65278000D03*
D20*
X41452800Y-82115600D03*
X41452800Y-85065600D03*
D21*
X86922100Y-75794600D03*
X86922100Y-79094600D03*
D22*
X82321400Y-80977800D03*
X82321400Y-81937800D03*
D17*
X77778100Y-78699800D03*
X77778100Y-80349800D03*
D23*
X76127100Y-80349800D03*
X76127100Y-78699800D03*
D18*
X80445100Y-84934800D03*
X80445100Y-83384800D03*
D24*
X83646100Y-83397800D03*
X82096100Y-83397800D03*
D23*
X74476100Y-80348800D03*
X74476100Y-78698800D03*
D11*
X39039800Y-77811000D03*
D10*
X39039800Y-72811000D03*
D25*
X47674800Y-88338600D03*
X44374800Y-88338600D03*
D22*
X51485800Y-86659600D03*
X51485800Y-85699600D03*
D11*
X84315202Y-64922400D03*
D10*
X89315202Y-64922400D03*
D26*
X41807010Y-65592010D03*
X41148000Y-67183000D03*
X41148000Y-64001020D03*
X39557010Y-67842010D03*
D27*
X39557010Y-65592010D03*
D26*
X39557010Y-63342010D03*
X37966020Y-67183000D03*
X37966020Y-64001020D03*
X37307010Y-65592010D03*
D28*
X84890100Y-72081800D03*
X84890100Y-73631800D03*
D24*
X77804100Y-77047800D03*
X76254100Y-77047800D03*
D19*
X39573200Y-87833200D03*
X41448200Y-86883200D03*
X41448200Y-88783200D03*
D16*
X56661502Y-64955200D03*
X58236502Y-64955200D03*
D29*
X76807600Y-66677150D03*
X77827600Y-66677150D03*
D30*
X80370600Y-79727300D03*
X80870600Y-79727300D03*
X81370600Y-79727300D03*
X81870600Y-79727300D03*
X82370600Y-79727300D03*
X82870600Y-79727300D03*
D31*
X83558100Y-79039800D03*
X83558100Y-78539800D03*
X83558100Y-78039800D03*
X83558100Y-77539800D03*
X83558100Y-77039800D03*
X83558100Y-76539800D03*
D30*
X82870600Y-75852300D03*
X82370600Y-75852300D03*
X81870600Y-75852300D03*
X81370600Y-75852300D03*
X80870600Y-75852300D03*
X80370600Y-75852300D03*
D31*
X79683100Y-76539800D03*
X79683100Y-77039800D03*
X79683100Y-77539800D03*
X79683100Y-78039800D03*
X79683100Y-78539800D03*
X79683100Y-79039800D03*
D10*
X81620600Y-77789800D03*
D13*
X52311800Y-79956600D03*
X53961800Y-79956600D03*
D32*
X47005800Y-83801600D03*
D33*
X44305800Y-85706600D03*
X44305800Y-84436600D03*
X44305800Y-83166600D03*
X44305800Y-81896600D03*
X49705800Y-81896600D03*
X49705800Y-83166600D03*
X49705800Y-84436600D03*
X49705800Y-85706600D03*
D25*
X72571100Y-82762800D03*
X75871100Y-82762800D03*
D15*
X91494100Y-74616800D03*
X91494100Y-78716800D03*
D17*
X83239100Y-72031800D03*
X83239100Y-73681800D03*
D12*
X94972600Y-66725800D03*
X93952600Y-66725800D03*
D24*
X78092600Y-74625200D03*
X76542600Y-74625200D03*
D34*
X86934000Y-81102200D03*
X88834000Y-81102200D03*
D35*
X52250300Y-73987600D03*
X57325300Y-73987600D03*
D26*
X92274000Y-91440000D03*
X92933010Y-89849010D03*
X92933010Y-93030990D03*
X94524000Y-89190000D03*
D27*
X94524000Y-91440000D03*
D26*
X94524000Y-93690000D03*
X96114990Y-89849010D03*
X96114990Y-93030990D03*
X96774000Y-91440000D03*
D13*
X85229200Y-81238800D03*
X83579200Y-81238800D03*
D36*
X72571100Y-80349800D03*
X70671100Y-80349800D03*
M02*
