%TF.GenerationSoftware,KiCad,Pcbnew,7.0.7*%
%TF.CreationDate,2023-09-29T07:28:52+02:00*%
%TF.ProjectId,shmoergh-dual-rail-psu,73686d6f-6572-4676-982d-6475616c2d72,rev?*%
%TF.SameCoordinates,Original*%
%TF.FileFunction,Drillmap*%
%TF.FilePolarity,Positive*%
%FSLAX45Y45*%
G04 Gerber Fmt 4.5, Leading zero omitted, Abs format (unit mm)*
G04 Created by KiCad (PCBNEW 7.0.7) date 2023-09-29 07:28:52*
%MOMM*%
%LPD*%
G01*
G04 APERTURE LIST*
%ADD10C,0.100000*%
%ADD11C,0.200000*%
%ADD12C,0.030000*%
%ADD13C,0.040000*%
%ADD14C,0.050000*%
%ADD15C,0.060000*%
%ADD16C,0.130000*%
%ADD17C,0.300000*%
G04 APERTURE END LIST*
D10*
X3600000Y-6200000D02*
X9800000Y-6200000D01*
X9800000Y-9500000D01*
X3600000Y-9500000D01*
X3600000Y-6200000D01*
D11*
D12*
X4620500Y-8191740D02*
X4650500Y-8221740D01*
X4650500Y-8191740D02*
X4620500Y-8221740D01*
X4623040Y-8298420D02*
X4653040Y-8328420D01*
X4653040Y-8298420D02*
X4623040Y-8328420D01*
X4623040Y-8412720D02*
X4653040Y-8442720D01*
X4653040Y-8412720D02*
X4623040Y-8442720D01*
X4623040Y-8521940D02*
X4653040Y-8551940D01*
X4653040Y-8521940D02*
X4623040Y-8551940D01*
X4747500Y-8293340D02*
X4777500Y-8323340D01*
X4777500Y-8293340D02*
X4747500Y-8323340D01*
X4747500Y-8415260D02*
X4777500Y-8445260D01*
X4777500Y-8415260D02*
X4747500Y-8445260D01*
X4747500Y-8521940D02*
X4777500Y-8551940D01*
X4777500Y-8521940D02*
X4747500Y-8551940D01*
X4750040Y-8191740D02*
X4780040Y-8221740D01*
X4780040Y-8191740D02*
X4750040Y-8221740D01*
X7688820Y-8074900D02*
X7718820Y-8104900D01*
X7718820Y-8074900D02*
X7688820Y-8104900D01*
X7815820Y-8072990D02*
X7845820Y-8102990D01*
X7845820Y-8072990D02*
X7815820Y-8102990D01*
X8024100Y-8113000D02*
X8054100Y-8143000D01*
X8054100Y-8113000D02*
X8024100Y-8143000D01*
X8024100Y-8201900D02*
X8054100Y-8231900D01*
X8054100Y-8201900D02*
X8024100Y-8231900D01*
X8059660Y-7678660D02*
X8089660Y-7708660D01*
X8089660Y-7678660D02*
X8059660Y-7708660D01*
X8059660Y-7765020D02*
X8089660Y-7795020D01*
X8089660Y-7765020D02*
X8059660Y-7795020D01*
X8059660Y-7851380D02*
X8089660Y-7881380D01*
X8089660Y-7851380D02*
X8059660Y-7881380D01*
X8100300Y-8100300D02*
X8130300Y-8130300D01*
X8130300Y-8100300D02*
X8100300Y-8130300D01*
X8113000Y-8201900D02*
X8143000Y-8231900D01*
X8143000Y-8201900D02*
X8113000Y-8231900D01*
X8148560Y-7678660D02*
X8178560Y-7708660D01*
X8178560Y-7678660D02*
X8148560Y-7708660D01*
X8148560Y-7765020D02*
X8178560Y-7795020D01*
X8178560Y-7765020D02*
X8148560Y-7795020D01*
X8148560Y-7851380D02*
X8178560Y-7881380D01*
X8178560Y-7851380D02*
X8148560Y-7881380D01*
X8234920Y-7681200D02*
X8264920Y-7711200D01*
X8264920Y-7681200D02*
X8234920Y-7711200D01*
X8234920Y-7765020D02*
X8264920Y-7795020D01*
X8264920Y-7765020D02*
X8234920Y-7795020D01*
X8234920Y-7851380D02*
X8264920Y-7881380D01*
X8264920Y-7851380D02*
X8234920Y-7881380D01*
X8306040Y-8186660D02*
X8336040Y-8216660D01*
X8336040Y-8186660D02*
X8306040Y-8216660D01*
X8468600Y-7823440D02*
X8498600Y-7853440D01*
X8498600Y-7823440D02*
X8468600Y-7853440D01*
X8527020Y-7909800D02*
X8557020Y-7939800D01*
X8557020Y-7909800D02*
X8527020Y-7939800D01*
X8722600Y-8443200D02*
X8752600Y-8473200D01*
X8752600Y-8443200D02*
X8722600Y-8473200D01*
X8887700Y-7719300D02*
X8917700Y-7749300D01*
X8917700Y-7719300D02*
X8887700Y-7749300D01*
X8887700Y-7820900D02*
X8917700Y-7850900D01*
X8917700Y-7820900D02*
X8887700Y-7850900D01*
X8887700Y-7935200D02*
X8917700Y-7965200D01*
X8917700Y-7935200D02*
X8887700Y-7965200D01*
X9002000Y-8074900D02*
X9032000Y-8104900D01*
X9032000Y-8074900D02*
X9002000Y-8104900D01*
X9078200Y-8176500D02*
X9108200Y-8206500D01*
X9108200Y-8176500D02*
X9078200Y-8206500D01*
X9090900Y-7986000D02*
X9120900Y-8016000D01*
X9120900Y-7986000D02*
X9090900Y-8016000D01*
X9179800Y-8087600D02*
X9209800Y-8117600D01*
X9209800Y-8087600D02*
X9179800Y-8117600D01*
D13*
X3766500Y-9017000D02*
G75*
G03*
X3766500Y-9017000I-20000J0D01*
G01*
X3766500Y-9207500D02*
G75*
G03*
X3766500Y-9207500I-20000J0D01*
G01*
X3766500Y-9398000D02*
G75*
G03*
X3766500Y-9398000I-20000J0D01*
G01*
X3957000Y-9017000D02*
G75*
G03*
X3957000Y-9017000I-20000J0D01*
G01*
X3957000Y-9207500D02*
G75*
G03*
X3957000Y-9207500I-20000J0D01*
G01*
X3957000Y-9398000D02*
G75*
G03*
X3957000Y-9398000I-20000J0D01*
G01*
X4147500Y-7112000D02*
G75*
G03*
X4147500Y-7112000I-20000J0D01*
G01*
X4147500Y-7366000D02*
G75*
G03*
X4147500Y-7366000I-20000J0D01*
G01*
X4147500Y-7620000D02*
G75*
G03*
X4147500Y-7620000I-20000J0D01*
G01*
X4147500Y-7874000D02*
G75*
G03*
X4147500Y-7874000I-20000J0D01*
G01*
X4147500Y-9017000D02*
G75*
G03*
X4147500Y-9017000I-20000J0D01*
G01*
X4147500Y-9207500D02*
G75*
G03*
X4147500Y-9207500I-20000J0D01*
G01*
X4147500Y-9398000D02*
G75*
G03*
X4147500Y-9398000I-20000J0D01*
G01*
X4338000Y-9398000D02*
G75*
G03*
X4338000Y-9398000I-20000J0D01*
G01*
X4401500Y-6350000D02*
G75*
G03*
X4401500Y-6350000I-20000J0D01*
G01*
X4401500Y-6604000D02*
G75*
G03*
X4401500Y-6604000I-20000J0D01*
G01*
X4401500Y-6858000D02*
G75*
G03*
X4401500Y-6858000I-20000J0D01*
G01*
X4401500Y-7112000D02*
G75*
G03*
X4401500Y-7112000I-20000J0D01*
G01*
X4401500Y-7366000D02*
G75*
G03*
X4401500Y-7366000I-20000J0D01*
G01*
X4401500Y-7620000D02*
G75*
G03*
X4401500Y-7620000I-20000J0D01*
G01*
X4401500Y-7874000D02*
G75*
G03*
X4401500Y-7874000I-20000J0D01*
G01*
X4528500Y-9398000D02*
G75*
G03*
X4528500Y-9398000I-20000J0D01*
G01*
X4655500Y-6350000D02*
G75*
G03*
X4655500Y-6350000I-20000J0D01*
G01*
X4655500Y-6604000D02*
G75*
G03*
X4655500Y-6604000I-20000J0D01*
G01*
X4655500Y-6858000D02*
G75*
G03*
X4655500Y-6858000I-20000J0D01*
G01*
X4655500Y-7112000D02*
G75*
G03*
X4655500Y-7112000I-20000J0D01*
G01*
X4655500Y-7366000D02*
G75*
G03*
X4655500Y-7366000I-20000J0D01*
G01*
X4655500Y-7620000D02*
G75*
G03*
X4655500Y-7620000I-20000J0D01*
G01*
X4655500Y-7874000D02*
G75*
G03*
X4655500Y-7874000I-20000J0D01*
G01*
X4655500Y-8699500D02*
G75*
G03*
X4655500Y-8699500I-20000J0D01*
G01*
X4655500Y-8826500D02*
G75*
G03*
X4655500Y-8826500I-20000J0D01*
G01*
X4719000Y-9398000D02*
G75*
G03*
X4719000Y-9398000I-20000J0D01*
G01*
X4782500Y-8699500D02*
G75*
G03*
X4782500Y-8699500I-20000J0D01*
G01*
X4909500Y-6350000D02*
G75*
G03*
X4909500Y-6350000I-20000J0D01*
G01*
X4909500Y-6604000D02*
G75*
G03*
X4909500Y-6604000I-20000J0D01*
G01*
X4909500Y-6858000D02*
G75*
G03*
X4909500Y-6858000I-20000J0D01*
G01*
X4909500Y-7112000D02*
G75*
G03*
X4909500Y-7112000I-20000J0D01*
G01*
X4909500Y-7366000D02*
G75*
G03*
X4909500Y-7366000I-20000J0D01*
G01*
X4909500Y-7620000D02*
G75*
G03*
X4909500Y-7620000I-20000J0D01*
G01*
X4909500Y-7810500D02*
G75*
G03*
X4909500Y-7810500I-20000J0D01*
G01*
X4909500Y-9398000D02*
G75*
G03*
X4909500Y-9398000I-20000J0D01*
G01*
X5100000Y-9398000D02*
G75*
G03*
X5100000Y-9398000I-20000J0D01*
G01*
X5163500Y-6350000D02*
G75*
G03*
X5163500Y-6350000I-20000J0D01*
G01*
X5163500Y-6604000D02*
G75*
G03*
X5163500Y-6604000I-20000J0D01*
G01*
X5163500Y-6858000D02*
G75*
G03*
X5163500Y-6858000I-20000J0D01*
G01*
X5163500Y-7112000D02*
G75*
G03*
X5163500Y-7112000I-20000J0D01*
G01*
X5163500Y-7620000D02*
G75*
G03*
X5163500Y-7620000I-20000J0D01*
G01*
X5163500Y-7810500D02*
G75*
G03*
X5163500Y-7810500I-20000J0D01*
G01*
X5290500Y-9398000D02*
G75*
G03*
X5290500Y-9398000I-20000J0D01*
G01*
X5354000Y-7620000D02*
G75*
G03*
X5354000Y-7620000I-20000J0D01*
G01*
X5354000Y-7747000D02*
G75*
G03*
X5354000Y-7747000I-20000J0D01*
G01*
X5417500Y-6350000D02*
G75*
G03*
X5417500Y-6350000I-20000J0D01*
G01*
X5417500Y-6604000D02*
G75*
G03*
X5417500Y-6604000I-20000J0D01*
G01*
X5417500Y-6858000D02*
G75*
G03*
X5417500Y-6858000I-20000J0D01*
G01*
X5417500Y-7112000D02*
G75*
G03*
X5417500Y-7112000I-20000J0D01*
G01*
X5481000Y-9398000D02*
G75*
G03*
X5481000Y-9398000I-20000J0D01*
G01*
X5671500Y-6858000D02*
G75*
G03*
X5671500Y-6858000I-20000J0D01*
G01*
X5671500Y-7112000D02*
G75*
G03*
X5671500Y-7112000I-20000J0D01*
G01*
X5671500Y-9398000D02*
G75*
G03*
X5671500Y-9398000I-20000J0D01*
G01*
X5862000Y-9398000D02*
G75*
G03*
X5862000Y-9398000I-20000J0D01*
G01*
X5925500Y-6858000D02*
G75*
G03*
X5925500Y-6858000I-20000J0D01*
G01*
X5925500Y-7112000D02*
G75*
G03*
X5925500Y-7112000I-20000J0D01*
G01*
X6052500Y-9398000D02*
G75*
G03*
X6052500Y-9398000I-20000J0D01*
G01*
X6243000Y-9398000D02*
G75*
G03*
X6243000Y-9398000I-20000J0D01*
G01*
X6433500Y-9398000D02*
G75*
G03*
X6433500Y-9398000I-20000J0D01*
G01*
X6497000Y-6604000D02*
G75*
G03*
X6497000Y-6604000I-20000J0D01*
G01*
X6497000Y-6794500D02*
G75*
G03*
X6497000Y-6794500I-20000J0D01*
G01*
X6687500Y-6794500D02*
G75*
G03*
X6687500Y-6794500I-20000J0D01*
G01*
X6878000Y-6794500D02*
G75*
G03*
X6878000Y-6794500I-20000J0D01*
G01*
X7005000Y-6604000D02*
G75*
G03*
X7005000Y-6604000I-20000J0D01*
G01*
X7068500Y-6794500D02*
G75*
G03*
X7068500Y-6794500I-20000J0D01*
G01*
X7068500Y-7302500D02*
G75*
G03*
X7068500Y-7302500I-20000J0D01*
G01*
X7068500Y-7493000D02*
G75*
G03*
X7068500Y-7493000I-20000J0D01*
G01*
X7068500Y-7683500D02*
G75*
G03*
X7068500Y-7683500I-20000J0D01*
G01*
X7068500Y-7874000D02*
G75*
G03*
X7068500Y-7874000I-20000J0D01*
G01*
X7068500Y-8191500D02*
G75*
G03*
X7068500Y-8191500I-20000J0D01*
G01*
X7068500Y-8318500D02*
G75*
G03*
X7068500Y-8318500I-20000J0D01*
G01*
X7068500Y-8509000D02*
G75*
G03*
X7068500Y-8509000I-20000J0D01*
G01*
X7068500Y-8699500D02*
G75*
G03*
X7068500Y-8699500I-20000J0D01*
G01*
X7068500Y-8890000D02*
G75*
G03*
X7068500Y-8890000I-20000J0D01*
G01*
X7068500Y-9080500D02*
G75*
G03*
X7068500Y-9080500I-20000J0D01*
G01*
X7259000Y-8699500D02*
G75*
G03*
X7259000Y-8699500I-20000J0D01*
G01*
X7259000Y-8890000D02*
G75*
G03*
X7259000Y-8890000I-20000J0D01*
G01*
X7259000Y-9080500D02*
G75*
G03*
X7259000Y-9080500I-20000J0D01*
G01*
X7513000Y-7302500D02*
G75*
G03*
X7513000Y-7302500I-20000J0D01*
G01*
X7513000Y-7493000D02*
G75*
G03*
X7513000Y-7493000I-20000J0D01*
G01*
X7513000Y-7683500D02*
G75*
G03*
X7513000Y-7683500I-20000J0D01*
G01*
X7640000Y-6413500D02*
G75*
G03*
X7640000Y-6413500I-20000J0D01*
G01*
X7640000Y-7175500D02*
G75*
G03*
X7640000Y-7175500I-20000J0D01*
G01*
X7703500Y-7302500D02*
G75*
G03*
X7703500Y-7302500I-20000J0D01*
G01*
X7830500Y-6286500D02*
G75*
G03*
X7830500Y-6286500I-20000J0D01*
G01*
X7830500Y-7175500D02*
G75*
G03*
X7830500Y-7175500I-20000J0D01*
G01*
X7894000Y-6858000D02*
G75*
G03*
X7894000Y-6858000I-20000J0D01*
G01*
X8084500Y-6286500D02*
G75*
G03*
X8084500Y-6286500I-20000J0D01*
G01*
X8084500Y-6477000D02*
G75*
G03*
X8084500Y-6477000I-20000J0D01*
G01*
X8084500Y-6667500D02*
G75*
G03*
X8084500Y-6667500I-20000J0D01*
G01*
X8084500Y-6858000D02*
G75*
G03*
X8084500Y-6858000I-20000J0D01*
G01*
X8275000Y-6286500D02*
G75*
G03*
X8275000Y-6286500I-20000J0D01*
G01*
X8275000Y-6858000D02*
G75*
G03*
X8275000Y-6858000I-20000J0D01*
G01*
X8465500Y-6858000D02*
G75*
G03*
X8465500Y-6858000I-20000J0D01*
G01*
X8656000Y-6286500D02*
G75*
G03*
X8656000Y-6286500I-20000J0D01*
G01*
X8656000Y-6667500D02*
G75*
G03*
X8656000Y-6667500I-20000J0D01*
G01*
X8656000Y-6858000D02*
G75*
G03*
X8656000Y-6858000I-20000J0D01*
G01*
X8846500Y-6921500D02*
G75*
G03*
X8846500Y-6921500I-20000J0D01*
G01*
X8910000Y-7175500D02*
G75*
G03*
X8910000Y-7175500I-20000J0D01*
G01*
X8973500Y-7048500D02*
G75*
G03*
X8973500Y-7048500I-20000J0D01*
G01*
X9100500Y-8572500D02*
G75*
G03*
X9100500Y-8572500I-20000J0D01*
G01*
X9100500Y-8763000D02*
G75*
G03*
X9100500Y-8763000I-20000J0D01*
G01*
X9227500Y-6286500D02*
G75*
G03*
X9227500Y-6286500I-20000J0D01*
G01*
X9227500Y-6731000D02*
G75*
G03*
X9227500Y-6731000I-20000J0D01*
G01*
X9291000Y-8572500D02*
G75*
G03*
X9291000Y-8572500I-20000J0D01*
G01*
X9291000Y-8763000D02*
G75*
G03*
X9291000Y-8763000I-20000J0D01*
G01*
X9354500Y-6858000D02*
G75*
G03*
X9354500Y-6858000I-20000J0D01*
G01*
X9418000Y-6286500D02*
G75*
G03*
X9418000Y-6286500I-20000J0D01*
G01*
X9481500Y-8382000D02*
G75*
G03*
X9481500Y-8382000I-20000J0D01*
G01*
X9481500Y-8572500D02*
G75*
G03*
X9481500Y-8572500I-20000J0D01*
G01*
X9481500Y-8699500D02*
G75*
G03*
X9481500Y-8699500I-20000J0D01*
G01*
X9570400Y-7112000D02*
G75*
G03*
X9570400Y-7112000I-20000J0D01*
G01*
X9583100Y-6921500D02*
G75*
G03*
X9583100Y-6921500I-20000J0D01*
G01*
X9608500Y-6286500D02*
G75*
G03*
X9608500Y-6286500I-20000J0D01*
G01*
X9672000Y-7239000D02*
G75*
G03*
X9672000Y-7239000I-20000J0D01*
G01*
X9672000Y-7429500D02*
G75*
G03*
X9672000Y-7429500I-20000J0D01*
G01*
X9672000Y-7620000D02*
G75*
G03*
X9672000Y-7620000I-20000J0D01*
G01*
X9672000Y-7810500D02*
G75*
G03*
X9672000Y-7810500I-20000J0D01*
G01*
X9672000Y-8001000D02*
G75*
G03*
X9672000Y-8001000I-20000J0D01*
G01*
X9672000Y-8191500D02*
G75*
G03*
X9672000Y-8191500I-20000J0D01*
G01*
X9672000Y-8382000D02*
G75*
G03*
X9672000Y-8382000I-20000J0D01*
G01*
X9672000Y-8572500D02*
G75*
G03*
X9672000Y-8572500I-20000J0D01*
G01*
X9672000Y-8763000D02*
G75*
G03*
X9672000Y-8763000I-20000J0D01*
G01*
X9735500Y-6858000D02*
G75*
G03*
X9735500Y-6858000I-20000J0D01*
G01*
X9735500Y-7048500D02*
G75*
G03*
X9735500Y-7048500I-20000J0D01*
G01*
D14*
X3730701Y-6534201D02*
X3730701Y-6584201D01*
X3705701Y-6559201D02*
X3755701Y-6559201D01*
X3796602Y-6375102D02*
X3796602Y-6425102D01*
X3771602Y-6400102D02*
X3821602Y-6400102D01*
X3796602Y-6693300D02*
X3796602Y-6743300D01*
X3771602Y-6718300D02*
X3821602Y-6718300D01*
X3955701Y-6309201D02*
X3955701Y-6359201D01*
X3930701Y-6334201D02*
X3980701Y-6334201D01*
X3955701Y-6759201D02*
X3955701Y-6809201D01*
X3930701Y-6784201D02*
X3980701Y-6784201D01*
X4114800Y-6375102D02*
X4114800Y-6425102D01*
X4089800Y-6400102D02*
X4139800Y-6400102D01*
X4114800Y-6693300D02*
X4114800Y-6743300D01*
X4089800Y-6718300D02*
X4139800Y-6718300D01*
X4180701Y-6534201D02*
X4180701Y-6584201D01*
X4155701Y-6559201D02*
X4205701Y-6559201D01*
X9227400Y-9119000D02*
X9227400Y-9169000D01*
X9202400Y-9144000D02*
X9252400Y-9144000D01*
X9293301Y-8959901D02*
X9293301Y-9009901D01*
X9268301Y-8984901D02*
X9318301Y-8984901D01*
X9293301Y-9278099D02*
X9293301Y-9328099D01*
X9268301Y-9303099D02*
X9318301Y-9303099D01*
X9452400Y-8894000D02*
X9452400Y-8944000D01*
X9427400Y-8919000D02*
X9477400Y-8919000D01*
X9452400Y-9344000D02*
X9452400Y-9394000D01*
X9427400Y-9369000D02*
X9477400Y-9369000D01*
X9611499Y-8959901D02*
X9611499Y-9009901D01*
X9586499Y-8984901D02*
X9636499Y-8984901D01*
X9611499Y-9278099D02*
X9611499Y-9328099D01*
X9586499Y-9303099D02*
X9636499Y-9303099D01*
X9677400Y-9119000D02*
X9677400Y-9169000D01*
X9652400Y-9144000D02*
X9702400Y-9144000D01*
D15*
X8606413Y-7473573D02*
X8606413Y-7431147D01*
X8563987Y-7431147D01*
X8563987Y-7473573D01*
X8606413Y-7473573D01*
X8662293Y-7755513D02*
X8662293Y-7713087D01*
X8619867Y-7713087D01*
X8619867Y-7755513D01*
X8662293Y-7755513D01*
D16*
X3903980Y-7346100D02*
X3968980Y-7281100D01*
X3903980Y-7216100D01*
X3838980Y-7281100D01*
X3903980Y-7346100D01*
X3903980Y-7846100D02*
X3968980Y-7781100D01*
X3903980Y-7716100D01*
X3838980Y-7781100D01*
X3903980Y-7846100D01*
X6254040Y-6557240D02*
X6319040Y-6492240D01*
X6254040Y-6427240D01*
X6189040Y-6492240D01*
X6254040Y-6557240D01*
X6754040Y-6557240D02*
X6819040Y-6492240D01*
X6754040Y-6427240D01*
X6689040Y-6492240D01*
X6754040Y-6557240D01*
X7254040Y-6557240D02*
X7319040Y-6492240D01*
X7254040Y-6427240D01*
X7189040Y-6492240D01*
X7254040Y-6557240D01*
X8431520Y-6557240D02*
X8496520Y-6492240D01*
X8431520Y-6427240D01*
X8366520Y-6492240D01*
X8431520Y-6557240D01*
X8931520Y-6557240D02*
X8996520Y-6492240D01*
X8931520Y-6427240D01*
X8866520Y-6492240D01*
X8931520Y-6557240D01*
D17*
X3805701Y-6409201D02*
X4105701Y-6709201D01*
X4105701Y-6409201D02*
X3805701Y-6709201D01*
X4105701Y-6559201D02*
G75*
G03*
X4105701Y-6559201I-150000J0D01*
G01*
X9302400Y-8994000D02*
X9602400Y-9294000D01*
X9602400Y-8994000D02*
X9302400Y-9294000D01*
X9602400Y-9144000D02*
G75*
G03*
X9602400Y-9144000I-150000J0D01*
G01*
D11*
X3855777Y-9816484D02*
X3855777Y-9616484D01*
X3855777Y-9616484D02*
X3903396Y-9616484D01*
X3903396Y-9616484D02*
X3931967Y-9626008D01*
X3931967Y-9626008D02*
X3951015Y-9645055D01*
X3951015Y-9645055D02*
X3960539Y-9664103D01*
X3960539Y-9664103D02*
X3970062Y-9702198D01*
X3970062Y-9702198D02*
X3970062Y-9730770D01*
X3970062Y-9730770D02*
X3960539Y-9768865D01*
X3960539Y-9768865D02*
X3951015Y-9787912D01*
X3951015Y-9787912D02*
X3931967Y-9806960D01*
X3931967Y-9806960D02*
X3903396Y-9816484D01*
X3903396Y-9816484D02*
X3855777Y-9816484D01*
X4055777Y-9816484D02*
X4055777Y-9683150D01*
X4055777Y-9721246D02*
X4065301Y-9702198D01*
X4065301Y-9702198D02*
X4074824Y-9692674D01*
X4074824Y-9692674D02*
X4093872Y-9683150D01*
X4093872Y-9683150D02*
X4112920Y-9683150D01*
X4179586Y-9816484D02*
X4179586Y-9683150D01*
X4179586Y-9616484D02*
X4170062Y-9626008D01*
X4170062Y-9626008D02*
X4179586Y-9635531D01*
X4179586Y-9635531D02*
X4189110Y-9626008D01*
X4189110Y-9626008D02*
X4179586Y-9616484D01*
X4179586Y-9616484D02*
X4179586Y-9635531D01*
X4303396Y-9816484D02*
X4284348Y-9806960D01*
X4284348Y-9806960D02*
X4274824Y-9787912D01*
X4274824Y-9787912D02*
X4274824Y-9616484D01*
X4408158Y-9816484D02*
X4389110Y-9806960D01*
X4389110Y-9806960D02*
X4379586Y-9787912D01*
X4379586Y-9787912D02*
X4379586Y-9616484D01*
X4636729Y-9816484D02*
X4636729Y-9616484D01*
X4636729Y-9616484D02*
X4703396Y-9759341D01*
X4703396Y-9759341D02*
X4770063Y-9616484D01*
X4770063Y-9616484D02*
X4770063Y-9816484D01*
X4951015Y-9816484D02*
X4951015Y-9711722D01*
X4951015Y-9711722D02*
X4941491Y-9692674D01*
X4941491Y-9692674D02*
X4922444Y-9683150D01*
X4922444Y-9683150D02*
X4884348Y-9683150D01*
X4884348Y-9683150D02*
X4865301Y-9692674D01*
X4951015Y-9806960D02*
X4931967Y-9816484D01*
X4931967Y-9816484D02*
X4884348Y-9816484D01*
X4884348Y-9816484D02*
X4865301Y-9806960D01*
X4865301Y-9806960D02*
X4855777Y-9787912D01*
X4855777Y-9787912D02*
X4855777Y-9768865D01*
X4855777Y-9768865D02*
X4865301Y-9749817D01*
X4865301Y-9749817D02*
X4884348Y-9740293D01*
X4884348Y-9740293D02*
X4931967Y-9740293D01*
X4931967Y-9740293D02*
X4951015Y-9730770D01*
X5046253Y-9683150D02*
X5046253Y-9883150D01*
X5046253Y-9692674D02*
X5065301Y-9683150D01*
X5065301Y-9683150D02*
X5103396Y-9683150D01*
X5103396Y-9683150D02*
X5122444Y-9692674D01*
X5122444Y-9692674D02*
X5131967Y-9702198D01*
X5131967Y-9702198D02*
X5141491Y-9721246D01*
X5141491Y-9721246D02*
X5141491Y-9778389D01*
X5141491Y-9778389D02*
X5131967Y-9797436D01*
X5131967Y-9797436D02*
X5122444Y-9806960D01*
X5122444Y-9806960D02*
X5103396Y-9816484D01*
X5103396Y-9816484D02*
X5065301Y-9816484D01*
X5065301Y-9816484D02*
X5046253Y-9806960D01*
X5227205Y-9797436D02*
X5236729Y-9806960D01*
X5236729Y-9806960D02*
X5227205Y-9816484D01*
X5227205Y-9816484D02*
X5217682Y-9806960D01*
X5217682Y-9806960D02*
X5227205Y-9797436D01*
X5227205Y-9797436D02*
X5227205Y-9816484D01*
X5227205Y-9692674D02*
X5236729Y-9702198D01*
X5236729Y-9702198D02*
X5227205Y-9711722D01*
X5227205Y-9711722D02*
X5217682Y-9702198D01*
X5217682Y-9702198D02*
X5227205Y-9692674D01*
X5227205Y-9692674D02*
X5227205Y-9711722D01*
D12*
X3565000Y-10130000D02*
X3595000Y-10160000D01*
X3595000Y-10130000D02*
X3565000Y-10160000D01*
D11*
X3893872Y-10036484D02*
X3912920Y-10036484D01*
X3912920Y-10036484D02*
X3931967Y-10046008D01*
X3931967Y-10046008D02*
X3941491Y-10055531D01*
X3941491Y-10055531D02*
X3951015Y-10074579D01*
X3951015Y-10074579D02*
X3960539Y-10112674D01*
X3960539Y-10112674D02*
X3960539Y-10160293D01*
X3960539Y-10160293D02*
X3951015Y-10198389D01*
X3951015Y-10198389D02*
X3941491Y-10217436D01*
X3941491Y-10217436D02*
X3931967Y-10226960D01*
X3931967Y-10226960D02*
X3912920Y-10236484D01*
X3912920Y-10236484D02*
X3893872Y-10236484D01*
X3893872Y-10236484D02*
X3874824Y-10226960D01*
X3874824Y-10226960D02*
X3865301Y-10217436D01*
X3865301Y-10217436D02*
X3855777Y-10198389D01*
X3855777Y-10198389D02*
X3846253Y-10160293D01*
X3846253Y-10160293D02*
X3846253Y-10112674D01*
X3846253Y-10112674D02*
X3855777Y-10074579D01*
X3855777Y-10074579D02*
X3865301Y-10055531D01*
X3865301Y-10055531D02*
X3874824Y-10046008D01*
X3874824Y-10046008D02*
X3893872Y-10036484D01*
X4046253Y-10217436D02*
X4055777Y-10226960D01*
X4055777Y-10226960D02*
X4046253Y-10236484D01*
X4046253Y-10236484D02*
X4036729Y-10226960D01*
X4036729Y-10226960D02*
X4046253Y-10217436D01*
X4046253Y-10217436D02*
X4046253Y-10236484D01*
X4122443Y-10036484D02*
X4246253Y-10036484D01*
X4246253Y-10036484D02*
X4179586Y-10112674D01*
X4179586Y-10112674D02*
X4208158Y-10112674D01*
X4208158Y-10112674D02*
X4227205Y-10122198D01*
X4227205Y-10122198D02*
X4236729Y-10131722D01*
X4236729Y-10131722D02*
X4246253Y-10150770D01*
X4246253Y-10150770D02*
X4246253Y-10198389D01*
X4246253Y-10198389D02*
X4236729Y-10217436D01*
X4236729Y-10217436D02*
X4227205Y-10226960D01*
X4227205Y-10226960D02*
X4208158Y-10236484D01*
X4208158Y-10236484D02*
X4151015Y-10236484D01*
X4151015Y-10236484D02*
X4131967Y-10226960D01*
X4131967Y-10226960D02*
X4122443Y-10217436D01*
X4370063Y-10036484D02*
X4389110Y-10036484D01*
X4389110Y-10036484D02*
X4408158Y-10046008D01*
X4408158Y-10046008D02*
X4417682Y-10055531D01*
X4417682Y-10055531D02*
X4427205Y-10074579D01*
X4427205Y-10074579D02*
X4436729Y-10112674D01*
X4436729Y-10112674D02*
X4436729Y-10160293D01*
X4436729Y-10160293D02*
X4427205Y-10198389D01*
X4427205Y-10198389D02*
X4417682Y-10217436D01*
X4417682Y-10217436D02*
X4408158Y-10226960D01*
X4408158Y-10226960D02*
X4389110Y-10236484D01*
X4389110Y-10236484D02*
X4370063Y-10236484D01*
X4370063Y-10236484D02*
X4351015Y-10226960D01*
X4351015Y-10226960D02*
X4341491Y-10217436D01*
X4341491Y-10217436D02*
X4331967Y-10198389D01*
X4331967Y-10198389D02*
X4322444Y-10160293D01*
X4322444Y-10160293D02*
X4322444Y-10112674D01*
X4322444Y-10112674D02*
X4331967Y-10074579D01*
X4331967Y-10074579D02*
X4341491Y-10055531D01*
X4341491Y-10055531D02*
X4351015Y-10046008D01*
X4351015Y-10046008D02*
X4370063Y-10036484D01*
X4560539Y-10036484D02*
X4579586Y-10036484D01*
X4579586Y-10036484D02*
X4598634Y-10046008D01*
X4598634Y-10046008D02*
X4608158Y-10055531D01*
X4608158Y-10055531D02*
X4617682Y-10074579D01*
X4617682Y-10074579D02*
X4627205Y-10112674D01*
X4627205Y-10112674D02*
X4627205Y-10160293D01*
X4627205Y-10160293D02*
X4617682Y-10198389D01*
X4617682Y-10198389D02*
X4608158Y-10217436D01*
X4608158Y-10217436D02*
X4598634Y-10226960D01*
X4598634Y-10226960D02*
X4579586Y-10236484D01*
X4579586Y-10236484D02*
X4560539Y-10236484D01*
X4560539Y-10236484D02*
X4541491Y-10226960D01*
X4541491Y-10226960D02*
X4531967Y-10217436D01*
X4531967Y-10217436D02*
X4522444Y-10198389D01*
X4522444Y-10198389D02*
X4512920Y-10160293D01*
X4512920Y-10160293D02*
X4512920Y-10112674D01*
X4512920Y-10112674D02*
X4522444Y-10074579D01*
X4522444Y-10074579D02*
X4531967Y-10055531D01*
X4531967Y-10055531D02*
X4541491Y-10046008D01*
X4541491Y-10046008D02*
X4560539Y-10036484D01*
X4712920Y-10236484D02*
X4712920Y-10103150D01*
X4712920Y-10122198D02*
X4722444Y-10112674D01*
X4722444Y-10112674D02*
X4741491Y-10103150D01*
X4741491Y-10103150D02*
X4770063Y-10103150D01*
X4770063Y-10103150D02*
X4789110Y-10112674D01*
X4789110Y-10112674D02*
X4798634Y-10131722D01*
X4798634Y-10131722D02*
X4798634Y-10236484D01*
X4798634Y-10131722D02*
X4808158Y-10112674D01*
X4808158Y-10112674D02*
X4827205Y-10103150D01*
X4827205Y-10103150D02*
X4855777Y-10103150D01*
X4855777Y-10103150D02*
X4874825Y-10112674D01*
X4874825Y-10112674D02*
X4884348Y-10131722D01*
X4884348Y-10131722D02*
X4884348Y-10236484D01*
X4979586Y-10236484D02*
X4979586Y-10103150D01*
X4979586Y-10122198D02*
X4989110Y-10112674D01*
X4989110Y-10112674D02*
X5008158Y-10103150D01*
X5008158Y-10103150D02*
X5036729Y-10103150D01*
X5036729Y-10103150D02*
X5055777Y-10112674D01*
X5055777Y-10112674D02*
X5065301Y-10131722D01*
X5065301Y-10131722D02*
X5065301Y-10236484D01*
X5065301Y-10131722D02*
X5074825Y-10112674D01*
X5074825Y-10112674D02*
X5093872Y-10103150D01*
X5093872Y-10103150D02*
X5122444Y-10103150D01*
X5122444Y-10103150D02*
X5141491Y-10112674D01*
X5141491Y-10112674D02*
X5151015Y-10131722D01*
X5151015Y-10131722D02*
X5151015Y-10236484D01*
X5541491Y-10026960D02*
X5370063Y-10284103D01*
X5798634Y-10036484D02*
X5817682Y-10036484D01*
X5817682Y-10036484D02*
X5836729Y-10046008D01*
X5836729Y-10046008D02*
X5846253Y-10055531D01*
X5846253Y-10055531D02*
X5855777Y-10074579D01*
X5855777Y-10074579D02*
X5865301Y-10112674D01*
X5865301Y-10112674D02*
X5865301Y-10160293D01*
X5865301Y-10160293D02*
X5855777Y-10198389D01*
X5855777Y-10198389D02*
X5846253Y-10217436D01*
X5846253Y-10217436D02*
X5836729Y-10226960D01*
X5836729Y-10226960D02*
X5817682Y-10236484D01*
X5817682Y-10236484D02*
X5798634Y-10236484D01*
X5798634Y-10236484D02*
X5779586Y-10226960D01*
X5779586Y-10226960D02*
X5770063Y-10217436D01*
X5770063Y-10217436D02*
X5760539Y-10198389D01*
X5760539Y-10198389D02*
X5751015Y-10160293D01*
X5751015Y-10160293D02*
X5751015Y-10112674D01*
X5751015Y-10112674D02*
X5760539Y-10074579D01*
X5760539Y-10074579D02*
X5770063Y-10055531D01*
X5770063Y-10055531D02*
X5779586Y-10046008D01*
X5779586Y-10046008D02*
X5798634Y-10036484D01*
X5951015Y-10217436D02*
X5960539Y-10226960D01*
X5960539Y-10226960D02*
X5951015Y-10236484D01*
X5951015Y-10236484D02*
X5941491Y-10226960D01*
X5941491Y-10226960D02*
X5951015Y-10217436D01*
X5951015Y-10217436D02*
X5951015Y-10236484D01*
X6084348Y-10036484D02*
X6103396Y-10036484D01*
X6103396Y-10036484D02*
X6122444Y-10046008D01*
X6122444Y-10046008D02*
X6131967Y-10055531D01*
X6131967Y-10055531D02*
X6141491Y-10074579D01*
X6141491Y-10074579D02*
X6151015Y-10112674D01*
X6151015Y-10112674D02*
X6151015Y-10160293D01*
X6151015Y-10160293D02*
X6141491Y-10198389D01*
X6141491Y-10198389D02*
X6131967Y-10217436D01*
X6131967Y-10217436D02*
X6122444Y-10226960D01*
X6122444Y-10226960D02*
X6103396Y-10236484D01*
X6103396Y-10236484D02*
X6084348Y-10236484D01*
X6084348Y-10236484D02*
X6065301Y-10226960D01*
X6065301Y-10226960D02*
X6055777Y-10217436D01*
X6055777Y-10217436D02*
X6046253Y-10198389D01*
X6046253Y-10198389D02*
X6036729Y-10160293D01*
X6036729Y-10160293D02*
X6036729Y-10112674D01*
X6036729Y-10112674D02*
X6046253Y-10074579D01*
X6046253Y-10074579D02*
X6055777Y-10055531D01*
X6055777Y-10055531D02*
X6065301Y-10046008D01*
X6065301Y-10046008D02*
X6084348Y-10036484D01*
X6341491Y-10236484D02*
X6227206Y-10236484D01*
X6284348Y-10236484D02*
X6284348Y-10036484D01*
X6284348Y-10036484D02*
X6265301Y-10065055D01*
X6265301Y-10065055D02*
X6246253Y-10084103D01*
X6246253Y-10084103D02*
X6227206Y-10093627D01*
X6531967Y-10236484D02*
X6417682Y-10236484D01*
X6474825Y-10236484D02*
X6474825Y-10036484D01*
X6474825Y-10036484D02*
X6455777Y-10065055D01*
X6455777Y-10065055D02*
X6436729Y-10084103D01*
X6436729Y-10084103D02*
X6417682Y-10093627D01*
X6646253Y-10122198D02*
X6627206Y-10112674D01*
X6627206Y-10112674D02*
X6617682Y-10103150D01*
X6617682Y-10103150D02*
X6608158Y-10084103D01*
X6608158Y-10084103D02*
X6608158Y-10074579D01*
X6608158Y-10074579D02*
X6617682Y-10055531D01*
X6617682Y-10055531D02*
X6627206Y-10046008D01*
X6627206Y-10046008D02*
X6646253Y-10036484D01*
X6646253Y-10036484D02*
X6684348Y-10036484D01*
X6684348Y-10036484D02*
X6703396Y-10046008D01*
X6703396Y-10046008D02*
X6712920Y-10055531D01*
X6712920Y-10055531D02*
X6722444Y-10074579D01*
X6722444Y-10074579D02*
X6722444Y-10084103D01*
X6722444Y-10084103D02*
X6712920Y-10103150D01*
X6712920Y-10103150D02*
X6703396Y-10112674D01*
X6703396Y-10112674D02*
X6684348Y-10122198D01*
X6684348Y-10122198D02*
X6646253Y-10122198D01*
X6646253Y-10122198D02*
X6627206Y-10131722D01*
X6627206Y-10131722D02*
X6617682Y-10141246D01*
X6617682Y-10141246D02*
X6608158Y-10160293D01*
X6608158Y-10160293D02*
X6608158Y-10198389D01*
X6608158Y-10198389D02*
X6617682Y-10217436D01*
X6617682Y-10217436D02*
X6627206Y-10226960D01*
X6627206Y-10226960D02*
X6646253Y-10236484D01*
X6646253Y-10236484D02*
X6684348Y-10236484D01*
X6684348Y-10236484D02*
X6703396Y-10226960D01*
X6703396Y-10226960D02*
X6712920Y-10217436D01*
X6712920Y-10217436D02*
X6722444Y-10198389D01*
X6722444Y-10198389D02*
X6722444Y-10160293D01*
X6722444Y-10160293D02*
X6712920Y-10141246D01*
X6712920Y-10141246D02*
X6703396Y-10131722D01*
X6703396Y-10131722D02*
X6684348Y-10122198D01*
X6798634Y-10036484D02*
X6798634Y-10074579D01*
X6874825Y-10036484D02*
X6874825Y-10074579D01*
X7170063Y-10312674D02*
X7160539Y-10303150D01*
X7160539Y-10303150D02*
X7141491Y-10274579D01*
X7141491Y-10274579D02*
X7131968Y-10255531D01*
X7131968Y-10255531D02*
X7122444Y-10226960D01*
X7122444Y-10226960D02*
X7112920Y-10179341D01*
X7112920Y-10179341D02*
X7112920Y-10141246D01*
X7112920Y-10141246D02*
X7122444Y-10093627D01*
X7122444Y-10093627D02*
X7131968Y-10065055D01*
X7131968Y-10065055D02*
X7141491Y-10046008D01*
X7141491Y-10046008D02*
X7160539Y-10017436D01*
X7160539Y-10017436D02*
X7170063Y-10007912D01*
X7227206Y-10036484D02*
X7351015Y-10036484D01*
X7351015Y-10036484D02*
X7284348Y-10112674D01*
X7284348Y-10112674D02*
X7312920Y-10112674D01*
X7312920Y-10112674D02*
X7331968Y-10122198D01*
X7331968Y-10122198D02*
X7341491Y-10131722D01*
X7341491Y-10131722D02*
X7351015Y-10150770D01*
X7351015Y-10150770D02*
X7351015Y-10198389D01*
X7351015Y-10198389D02*
X7341491Y-10217436D01*
X7341491Y-10217436D02*
X7331968Y-10226960D01*
X7331968Y-10226960D02*
X7312920Y-10236484D01*
X7312920Y-10236484D02*
X7255777Y-10236484D01*
X7255777Y-10236484D02*
X7236729Y-10226960D01*
X7236729Y-10226960D02*
X7227206Y-10217436D01*
X7522444Y-10103150D02*
X7522444Y-10236484D01*
X7474825Y-10026960D02*
X7427206Y-10169817D01*
X7427206Y-10169817D02*
X7551015Y-10169817D01*
X7779587Y-10236484D02*
X7779587Y-10036484D01*
X7865301Y-10236484D02*
X7865301Y-10131722D01*
X7865301Y-10131722D02*
X7855777Y-10112674D01*
X7855777Y-10112674D02*
X7836730Y-10103150D01*
X7836730Y-10103150D02*
X7808158Y-10103150D01*
X7808158Y-10103150D02*
X7789110Y-10112674D01*
X7789110Y-10112674D02*
X7779587Y-10122198D01*
X7989110Y-10236484D02*
X7970063Y-10226960D01*
X7970063Y-10226960D02*
X7960539Y-10217436D01*
X7960539Y-10217436D02*
X7951015Y-10198389D01*
X7951015Y-10198389D02*
X7951015Y-10141246D01*
X7951015Y-10141246D02*
X7960539Y-10122198D01*
X7960539Y-10122198D02*
X7970063Y-10112674D01*
X7970063Y-10112674D02*
X7989110Y-10103150D01*
X7989110Y-10103150D02*
X8017682Y-10103150D01*
X8017682Y-10103150D02*
X8036730Y-10112674D01*
X8036730Y-10112674D02*
X8046253Y-10122198D01*
X8046253Y-10122198D02*
X8055777Y-10141246D01*
X8055777Y-10141246D02*
X8055777Y-10198389D01*
X8055777Y-10198389D02*
X8046253Y-10217436D01*
X8046253Y-10217436D02*
X8036730Y-10226960D01*
X8036730Y-10226960D02*
X8017682Y-10236484D01*
X8017682Y-10236484D02*
X7989110Y-10236484D01*
X8170063Y-10236484D02*
X8151015Y-10226960D01*
X8151015Y-10226960D02*
X8141491Y-10207912D01*
X8141491Y-10207912D02*
X8141491Y-10036484D01*
X8322444Y-10226960D02*
X8303396Y-10236484D01*
X8303396Y-10236484D02*
X8265301Y-10236484D01*
X8265301Y-10236484D02*
X8246253Y-10226960D01*
X8246253Y-10226960D02*
X8236730Y-10207912D01*
X8236730Y-10207912D02*
X8236730Y-10131722D01*
X8236730Y-10131722D02*
X8246253Y-10112674D01*
X8246253Y-10112674D02*
X8265301Y-10103150D01*
X8265301Y-10103150D02*
X8303396Y-10103150D01*
X8303396Y-10103150D02*
X8322444Y-10112674D01*
X8322444Y-10112674D02*
X8331968Y-10131722D01*
X8331968Y-10131722D02*
X8331968Y-10150770D01*
X8331968Y-10150770D02*
X8236730Y-10169817D01*
X8408158Y-10226960D02*
X8427206Y-10236484D01*
X8427206Y-10236484D02*
X8465301Y-10236484D01*
X8465301Y-10236484D02*
X8484349Y-10226960D01*
X8484349Y-10226960D02*
X8493873Y-10207912D01*
X8493873Y-10207912D02*
X8493873Y-10198389D01*
X8493873Y-10198389D02*
X8484349Y-10179341D01*
X8484349Y-10179341D02*
X8465301Y-10169817D01*
X8465301Y-10169817D02*
X8436730Y-10169817D01*
X8436730Y-10169817D02*
X8417682Y-10160293D01*
X8417682Y-10160293D02*
X8408158Y-10141246D01*
X8408158Y-10141246D02*
X8408158Y-10131722D01*
X8408158Y-10131722D02*
X8417682Y-10112674D01*
X8417682Y-10112674D02*
X8436730Y-10103150D01*
X8436730Y-10103150D02*
X8465301Y-10103150D01*
X8465301Y-10103150D02*
X8484349Y-10112674D01*
X8560539Y-10312674D02*
X8570063Y-10303150D01*
X8570063Y-10303150D02*
X8589111Y-10274579D01*
X8589111Y-10274579D02*
X8598634Y-10255531D01*
X8598634Y-10255531D02*
X8608158Y-10226960D01*
X8608158Y-10226960D02*
X8617682Y-10179341D01*
X8617682Y-10179341D02*
X8617682Y-10141246D01*
X8617682Y-10141246D02*
X8608158Y-10093627D01*
X8608158Y-10093627D02*
X8598634Y-10065055D01*
X8598634Y-10065055D02*
X8589111Y-10046008D01*
X8589111Y-10046008D02*
X8570063Y-10017436D01*
X8570063Y-10017436D02*
X8560539Y-10007912D01*
D13*
X3595000Y-10409000D02*
G75*
G03*
X3595000Y-10409000I-20000J0D01*
G01*
D11*
X3893872Y-10300484D02*
X3912920Y-10300484D01*
X3912920Y-10300484D02*
X3931967Y-10310008D01*
X3931967Y-10310008D02*
X3941491Y-10319531D01*
X3941491Y-10319531D02*
X3951015Y-10338579D01*
X3951015Y-10338579D02*
X3960539Y-10376674D01*
X3960539Y-10376674D02*
X3960539Y-10424293D01*
X3960539Y-10424293D02*
X3951015Y-10462389D01*
X3951015Y-10462389D02*
X3941491Y-10481436D01*
X3941491Y-10481436D02*
X3931967Y-10490960D01*
X3931967Y-10490960D02*
X3912920Y-10500484D01*
X3912920Y-10500484D02*
X3893872Y-10500484D01*
X3893872Y-10500484D02*
X3874824Y-10490960D01*
X3874824Y-10490960D02*
X3865301Y-10481436D01*
X3865301Y-10481436D02*
X3855777Y-10462389D01*
X3855777Y-10462389D02*
X3846253Y-10424293D01*
X3846253Y-10424293D02*
X3846253Y-10376674D01*
X3846253Y-10376674D02*
X3855777Y-10338579D01*
X3855777Y-10338579D02*
X3865301Y-10319531D01*
X3865301Y-10319531D02*
X3874824Y-10310008D01*
X3874824Y-10310008D02*
X3893872Y-10300484D01*
X4046253Y-10481436D02*
X4055777Y-10490960D01*
X4055777Y-10490960D02*
X4046253Y-10500484D01*
X4046253Y-10500484D02*
X4036729Y-10490960D01*
X4036729Y-10490960D02*
X4046253Y-10481436D01*
X4046253Y-10481436D02*
X4046253Y-10500484D01*
X4227205Y-10367150D02*
X4227205Y-10500484D01*
X4179586Y-10290960D02*
X4131967Y-10433817D01*
X4131967Y-10433817D02*
X4255777Y-10433817D01*
X4370063Y-10300484D02*
X4389110Y-10300484D01*
X4389110Y-10300484D02*
X4408158Y-10310008D01*
X4408158Y-10310008D02*
X4417682Y-10319531D01*
X4417682Y-10319531D02*
X4427205Y-10338579D01*
X4427205Y-10338579D02*
X4436729Y-10376674D01*
X4436729Y-10376674D02*
X4436729Y-10424293D01*
X4436729Y-10424293D02*
X4427205Y-10462389D01*
X4427205Y-10462389D02*
X4417682Y-10481436D01*
X4417682Y-10481436D02*
X4408158Y-10490960D01*
X4408158Y-10490960D02*
X4389110Y-10500484D01*
X4389110Y-10500484D02*
X4370063Y-10500484D01*
X4370063Y-10500484D02*
X4351015Y-10490960D01*
X4351015Y-10490960D02*
X4341491Y-10481436D01*
X4341491Y-10481436D02*
X4331967Y-10462389D01*
X4331967Y-10462389D02*
X4322444Y-10424293D01*
X4322444Y-10424293D02*
X4322444Y-10376674D01*
X4322444Y-10376674D02*
X4331967Y-10338579D01*
X4331967Y-10338579D02*
X4341491Y-10319531D01*
X4341491Y-10319531D02*
X4351015Y-10310008D01*
X4351015Y-10310008D02*
X4370063Y-10300484D01*
X4560539Y-10300484D02*
X4579586Y-10300484D01*
X4579586Y-10300484D02*
X4598634Y-10310008D01*
X4598634Y-10310008D02*
X4608158Y-10319531D01*
X4608158Y-10319531D02*
X4617682Y-10338579D01*
X4617682Y-10338579D02*
X4627205Y-10376674D01*
X4627205Y-10376674D02*
X4627205Y-10424293D01*
X4627205Y-10424293D02*
X4617682Y-10462389D01*
X4617682Y-10462389D02*
X4608158Y-10481436D01*
X4608158Y-10481436D02*
X4598634Y-10490960D01*
X4598634Y-10490960D02*
X4579586Y-10500484D01*
X4579586Y-10500484D02*
X4560539Y-10500484D01*
X4560539Y-10500484D02*
X4541491Y-10490960D01*
X4541491Y-10490960D02*
X4531967Y-10481436D01*
X4531967Y-10481436D02*
X4522444Y-10462389D01*
X4522444Y-10462389D02*
X4512920Y-10424293D01*
X4512920Y-10424293D02*
X4512920Y-10376674D01*
X4512920Y-10376674D02*
X4522444Y-10338579D01*
X4522444Y-10338579D02*
X4531967Y-10319531D01*
X4531967Y-10319531D02*
X4541491Y-10310008D01*
X4541491Y-10310008D02*
X4560539Y-10300484D01*
X4712920Y-10500484D02*
X4712920Y-10367150D01*
X4712920Y-10386198D02*
X4722444Y-10376674D01*
X4722444Y-10376674D02*
X4741491Y-10367150D01*
X4741491Y-10367150D02*
X4770063Y-10367150D01*
X4770063Y-10367150D02*
X4789110Y-10376674D01*
X4789110Y-10376674D02*
X4798634Y-10395722D01*
X4798634Y-10395722D02*
X4798634Y-10500484D01*
X4798634Y-10395722D02*
X4808158Y-10376674D01*
X4808158Y-10376674D02*
X4827205Y-10367150D01*
X4827205Y-10367150D02*
X4855777Y-10367150D01*
X4855777Y-10367150D02*
X4874825Y-10376674D01*
X4874825Y-10376674D02*
X4884348Y-10395722D01*
X4884348Y-10395722D02*
X4884348Y-10500484D01*
X4979586Y-10500484D02*
X4979586Y-10367150D01*
X4979586Y-10386198D02*
X4989110Y-10376674D01*
X4989110Y-10376674D02*
X5008158Y-10367150D01*
X5008158Y-10367150D02*
X5036729Y-10367150D01*
X5036729Y-10367150D02*
X5055777Y-10376674D01*
X5055777Y-10376674D02*
X5065301Y-10395722D01*
X5065301Y-10395722D02*
X5065301Y-10500484D01*
X5065301Y-10395722D02*
X5074825Y-10376674D01*
X5074825Y-10376674D02*
X5093872Y-10367150D01*
X5093872Y-10367150D02*
X5122444Y-10367150D01*
X5122444Y-10367150D02*
X5141491Y-10376674D01*
X5141491Y-10376674D02*
X5151015Y-10395722D01*
X5151015Y-10395722D02*
X5151015Y-10500484D01*
X5541491Y-10290960D02*
X5370063Y-10548103D01*
X5798634Y-10300484D02*
X5817682Y-10300484D01*
X5817682Y-10300484D02*
X5836729Y-10310008D01*
X5836729Y-10310008D02*
X5846253Y-10319531D01*
X5846253Y-10319531D02*
X5855777Y-10338579D01*
X5855777Y-10338579D02*
X5865301Y-10376674D01*
X5865301Y-10376674D02*
X5865301Y-10424293D01*
X5865301Y-10424293D02*
X5855777Y-10462389D01*
X5855777Y-10462389D02*
X5846253Y-10481436D01*
X5846253Y-10481436D02*
X5836729Y-10490960D01*
X5836729Y-10490960D02*
X5817682Y-10500484D01*
X5817682Y-10500484D02*
X5798634Y-10500484D01*
X5798634Y-10500484D02*
X5779586Y-10490960D01*
X5779586Y-10490960D02*
X5770063Y-10481436D01*
X5770063Y-10481436D02*
X5760539Y-10462389D01*
X5760539Y-10462389D02*
X5751015Y-10424293D01*
X5751015Y-10424293D02*
X5751015Y-10376674D01*
X5751015Y-10376674D02*
X5760539Y-10338579D01*
X5760539Y-10338579D02*
X5770063Y-10319531D01*
X5770063Y-10319531D02*
X5779586Y-10310008D01*
X5779586Y-10310008D02*
X5798634Y-10300484D01*
X5951015Y-10481436D02*
X5960539Y-10490960D01*
X5960539Y-10490960D02*
X5951015Y-10500484D01*
X5951015Y-10500484D02*
X5941491Y-10490960D01*
X5941491Y-10490960D02*
X5951015Y-10481436D01*
X5951015Y-10481436D02*
X5951015Y-10500484D01*
X6084348Y-10300484D02*
X6103396Y-10300484D01*
X6103396Y-10300484D02*
X6122444Y-10310008D01*
X6122444Y-10310008D02*
X6131967Y-10319531D01*
X6131967Y-10319531D02*
X6141491Y-10338579D01*
X6141491Y-10338579D02*
X6151015Y-10376674D01*
X6151015Y-10376674D02*
X6151015Y-10424293D01*
X6151015Y-10424293D02*
X6141491Y-10462389D01*
X6141491Y-10462389D02*
X6131967Y-10481436D01*
X6131967Y-10481436D02*
X6122444Y-10490960D01*
X6122444Y-10490960D02*
X6103396Y-10500484D01*
X6103396Y-10500484D02*
X6084348Y-10500484D01*
X6084348Y-10500484D02*
X6065301Y-10490960D01*
X6065301Y-10490960D02*
X6055777Y-10481436D01*
X6055777Y-10481436D02*
X6046253Y-10462389D01*
X6046253Y-10462389D02*
X6036729Y-10424293D01*
X6036729Y-10424293D02*
X6036729Y-10376674D01*
X6036729Y-10376674D02*
X6046253Y-10338579D01*
X6046253Y-10338579D02*
X6055777Y-10319531D01*
X6055777Y-10319531D02*
X6065301Y-10310008D01*
X6065301Y-10310008D02*
X6084348Y-10300484D01*
X6341491Y-10500484D02*
X6227206Y-10500484D01*
X6284348Y-10500484D02*
X6284348Y-10300484D01*
X6284348Y-10300484D02*
X6265301Y-10329055D01*
X6265301Y-10329055D02*
X6246253Y-10348103D01*
X6246253Y-10348103D02*
X6227206Y-10357627D01*
X6522444Y-10300484D02*
X6427206Y-10300484D01*
X6427206Y-10300484D02*
X6417682Y-10395722D01*
X6417682Y-10395722D02*
X6427206Y-10386198D01*
X6427206Y-10386198D02*
X6446253Y-10376674D01*
X6446253Y-10376674D02*
X6493872Y-10376674D01*
X6493872Y-10376674D02*
X6512920Y-10386198D01*
X6512920Y-10386198D02*
X6522444Y-10395722D01*
X6522444Y-10395722D02*
X6531967Y-10414770D01*
X6531967Y-10414770D02*
X6531967Y-10462389D01*
X6531967Y-10462389D02*
X6522444Y-10481436D01*
X6522444Y-10481436D02*
X6512920Y-10490960D01*
X6512920Y-10490960D02*
X6493872Y-10500484D01*
X6493872Y-10500484D02*
X6446253Y-10500484D01*
X6446253Y-10500484D02*
X6427206Y-10490960D01*
X6427206Y-10490960D02*
X6417682Y-10481436D01*
X6598634Y-10300484D02*
X6731967Y-10300484D01*
X6731967Y-10300484D02*
X6646253Y-10500484D01*
X6798634Y-10300484D02*
X6798634Y-10338579D01*
X6874825Y-10300484D02*
X6874825Y-10338579D01*
X7170063Y-10576674D02*
X7160539Y-10567150D01*
X7160539Y-10567150D02*
X7141491Y-10538579D01*
X7141491Y-10538579D02*
X7131968Y-10519531D01*
X7131968Y-10519531D02*
X7122444Y-10490960D01*
X7122444Y-10490960D02*
X7112920Y-10443341D01*
X7112920Y-10443341D02*
X7112920Y-10405246D01*
X7112920Y-10405246D02*
X7122444Y-10357627D01*
X7122444Y-10357627D02*
X7131968Y-10329055D01*
X7131968Y-10329055D02*
X7141491Y-10310008D01*
X7141491Y-10310008D02*
X7160539Y-10281436D01*
X7160539Y-10281436D02*
X7170063Y-10271912D01*
X7351015Y-10500484D02*
X7236729Y-10500484D01*
X7293872Y-10500484D02*
X7293872Y-10300484D01*
X7293872Y-10300484D02*
X7274825Y-10329055D01*
X7274825Y-10329055D02*
X7255777Y-10348103D01*
X7255777Y-10348103D02*
X7236729Y-10357627D01*
X7417682Y-10300484D02*
X7541491Y-10300484D01*
X7541491Y-10300484D02*
X7474825Y-10376674D01*
X7474825Y-10376674D02*
X7503396Y-10376674D01*
X7503396Y-10376674D02*
X7522444Y-10386198D01*
X7522444Y-10386198D02*
X7531968Y-10395722D01*
X7531968Y-10395722D02*
X7541491Y-10414770D01*
X7541491Y-10414770D02*
X7541491Y-10462389D01*
X7541491Y-10462389D02*
X7531968Y-10481436D01*
X7531968Y-10481436D02*
X7522444Y-10490960D01*
X7522444Y-10490960D02*
X7503396Y-10500484D01*
X7503396Y-10500484D02*
X7446253Y-10500484D01*
X7446253Y-10500484D02*
X7427206Y-10490960D01*
X7427206Y-10490960D02*
X7417682Y-10481436D01*
X7731968Y-10500484D02*
X7617682Y-10500484D01*
X7674825Y-10500484D02*
X7674825Y-10300484D01*
X7674825Y-10300484D02*
X7655777Y-10329055D01*
X7655777Y-10329055D02*
X7636729Y-10348103D01*
X7636729Y-10348103D02*
X7617682Y-10357627D01*
X7970063Y-10500484D02*
X7970063Y-10300484D01*
X8055777Y-10500484D02*
X8055777Y-10395722D01*
X8055777Y-10395722D02*
X8046253Y-10376674D01*
X8046253Y-10376674D02*
X8027206Y-10367150D01*
X8027206Y-10367150D02*
X7998634Y-10367150D01*
X7998634Y-10367150D02*
X7979587Y-10376674D01*
X7979587Y-10376674D02*
X7970063Y-10386198D01*
X8179587Y-10500484D02*
X8160539Y-10490960D01*
X8160539Y-10490960D02*
X8151015Y-10481436D01*
X8151015Y-10481436D02*
X8141491Y-10462389D01*
X8141491Y-10462389D02*
X8141491Y-10405246D01*
X8141491Y-10405246D02*
X8151015Y-10386198D01*
X8151015Y-10386198D02*
X8160539Y-10376674D01*
X8160539Y-10376674D02*
X8179587Y-10367150D01*
X8179587Y-10367150D02*
X8208158Y-10367150D01*
X8208158Y-10367150D02*
X8227206Y-10376674D01*
X8227206Y-10376674D02*
X8236730Y-10386198D01*
X8236730Y-10386198D02*
X8246253Y-10405246D01*
X8246253Y-10405246D02*
X8246253Y-10462389D01*
X8246253Y-10462389D02*
X8236730Y-10481436D01*
X8236730Y-10481436D02*
X8227206Y-10490960D01*
X8227206Y-10490960D02*
X8208158Y-10500484D01*
X8208158Y-10500484D02*
X8179587Y-10500484D01*
X8360539Y-10500484D02*
X8341491Y-10490960D01*
X8341491Y-10490960D02*
X8331968Y-10471912D01*
X8331968Y-10471912D02*
X8331968Y-10300484D01*
X8512920Y-10490960D02*
X8493873Y-10500484D01*
X8493873Y-10500484D02*
X8455777Y-10500484D01*
X8455777Y-10500484D02*
X8436730Y-10490960D01*
X8436730Y-10490960D02*
X8427206Y-10471912D01*
X8427206Y-10471912D02*
X8427206Y-10395722D01*
X8427206Y-10395722D02*
X8436730Y-10376674D01*
X8436730Y-10376674D02*
X8455777Y-10367150D01*
X8455777Y-10367150D02*
X8493873Y-10367150D01*
X8493873Y-10367150D02*
X8512920Y-10376674D01*
X8512920Y-10376674D02*
X8522444Y-10395722D01*
X8522444Y-10395722D02*
X8522444Y-10414770D01*
X8522444Y-10414770D02*
X8427206Y-10433817D01*
X8598634Y-10490960D02*
X8617682Y-10500484D01*
X8617682Y-10500484D02*
X8655777Y-10500484D01*
X8655777Y-10500484D02*
X8674825Y-10490960D01*
X8674825Y-10490960D02*
X8684349Y-10471912D01*
X8684349Y-10471912D02*
X8684349Y-10462389D01*
X8684349Y-10462389D02*
X8674825Y-10443341D01*
X8674825Y-10443341D02*
X8655777Y-10433817D01*
X8655777Y-10433817D02*
X8627206Y-10433817D01*
X8627206Y-10433817D02*
X8608158Y-10424293D01*
X8608158Y-10424293D02*
X8598634Y-10405246D01*
X8598634Y-10405246D02*
X8598634Y-10395722D01*
X8598634Y-10395722D02*
X8608158Y-10376674D01*
X8608158Y-10376674D02*
X8627206Y-10367150D01*
X8627206Y-10367150D02*
X8655777Y-10367150D01*
X8655777Y-10367150D02*
X8674825Y-10376674D01*
X8751015Y-10576674D02*
X8760539Y-10567150D01*
X8760539Y-10567150D02*
X8779587Y-10538579D01*
X8779587Y-10538579D02*
X8789111Y-10519531D01*
X8789111Y-10519531D02*
X8798634Y-10490960D01*
X8798634Y-10490960D02*
X8808158Y-10443341D01*
X8808158Y-10443341D02*
X8808158Y-10405246D01*
X8808158Y-10405246D02*
X8798634Y-10357627D01*
X8798634Y-10357627D02*
X8789111Y-10329055D01*
X8789111Y-10329055D02*
X8779587Y-10310008D01*
X8779587Y-10310008D02*
X8760539Y-10281436D01*
X8760539Y-10281436D02*
X8751015Y-10271912D01*
D14*
X3570000Y-10648000D02*
X3570000Y-10698000D01*
X3545000Y-10673000D02*
X3595000Y-10673000D01*
D11*
X3893872Y-10564484D02*
X3912920Y-10564484D01*
X3912920Y-10564484D02*
X3931967Y-10574008D01*
X3931967Y-10574008D02*
X3941491Y-10583531D01*
X3941491Y-10583531D02*
X3951015Y-10602579D01*
X3951015Y-10602579D02*
X3960539Y-10640674D01*
X3960539Y-10640674D02*
X3960539Y-10688293D01*
X3960539Y-10688293D02*
X3951015Y-10726389D01*
X3951015Y-10726389D02*
X3941491Y-10745436D01*
X3941491Y-10745436D02*
X3931967Y-10754960D01*
X3931967Y-10754960D02*
X3912920Y-10764484D01*
X3912920Y-10764484D02*
X3893872Y-10764484D01*
X3893872Y-10764484D02*
X3874824Y-10754960D01*
X3874824Y-10754960D02*
X3865301Y-10745436D01*
X3865301Y-10745436D02*
X3855777Y-10726389D01*
X3855777Y-10726389D02*
X3846253Y-10688293D01*
X3846253Y-10688293D02*
X3846253Y-10640674D01*
X3846253Y-10640674D02*
X3855777Y-10602579D01*
X3855777Y-10602579D02*
X3865301Y-10583531D01*
X3865301Y-10583531D02*
X3874824Y-10574008D01*
X3874824Y-10574008D02*
X3893872Y-10564484D01*
X4046253Y-10745436D02*
X4055777Y-10754960D01*
X4055777Y-10754960D02*
X4046253Y-10764484D01*
X4046253Y-10764484D02*
X4036729Y-10754960D01*
X4036729Y-10754960D02*
X4046253Y-10745436D01*
X4046253Y-10745436D02*
X4046253Y-10764484D01*
X4236729Y-10564484D02*
X4141491Y-10564484D01*
X4141491Y-10564484D02*
X4131967Y-10659722D01*
X4131967Y-10659722D02*
X4141491Y-10650198D01*
X4141491Y-10650198D02*
X4160539Y-10640674D01*
X4160539Y-10640674D02*
X4208158Y-10640674D01*
X4208158Y-10640674D02*
X4227205Y-10650198D01*
X4227205Y-10650198D02*
X4236729Y-10659722D01*
X4236729Y-10659722D02*
X4246253Y-10678770D01*
X4246253Y-10678770D02*
X4246253Y-10726389D01*
X4246253Y-10726389D02*
X4236729Y-10745436D01*
X4236729Y-10745436D02*
X4227205Y-10754960D01*
X4227205Y-10754960D02*
X4208158Y-10764484D01*
X4208158Y-10764484D02*
X4160539Y-10764484D01*
X4160539Y-10764484D02*
X4141491Y-10754960D01*
X4141491Y-10754960D02*
X4131967Y-10745436D01*
X4370063Y-10564484D02*
X4389110Y-10564484D01*
X4389110Y-10564484D02*
X4408158Y-10574008D01*
X4408158Y-10574008D02*
X4417682Y-10583531D01*
X4417682Y-10583531D02*
X4427205Y-10602579D01*
X4427205Y-10602579D02*
X4436729Y-10640674D01*
X4436729Y-10640674D02*
X4436729Y-10688293D01*
X4436729Y-10688293D02*
X4427205Y-10726389D01*
X4427205Y-10726389D02*
X4417682Y-10745436D01*
X4417682Y-10745436D02*
X4408158Y-10754960D01*
X4408158Y-10754960D02*
X4389110Y-10764484D01*
X4389110Y-10764484D02*
X4370063Y-10764484D01*
X4370063Y-10764484D02*
X4351015Y-10754960D01*
X4351015Y-10754960D02*
X4341491Y-10745436D01*
X4341491Y-10745436D02*
X4331967Y-10726389D01*
X4331967Y-10726389D02*
X4322444Y-10688293D01*
X4322444Y-10688293D02*
X4322444Y-10640674D01*
X4322444Y-10640674D02*
X4331967Y-10602579D01*
X4331967Y-10602579D02*
X4341491Y-10583531D01*
X4341491Y-10583531D02*
X4351015Y-10574008D01*
X4351015Y-10574008D02*
X4370063Y-10564484D01*
X4560539Y-10564484D02*
X4579586Y-10564484D01*
X4579586Y-10564484D02*
X4598634Y-10574008D01*
X4598634Y-10574008D02*
X4608158Y-10583531D01*
X4608158Y-10583531D02*
X4617682Y-10602579D01*
X4617682Y-10602579D02*
X4627205Y-10640674D01*
X4627205Y-10640674D02*
X4627205Y-10688293D01*
X4627205Y-10688293D02*
X4617682Y-10726389D01*
X4617682Y-10726389D02*
X4608158Y-10745436D01*
X4608158Y-10745436D02*
X4598634Y-10754960D01*
X4598634Y-10754960D02*
X4579586Y-10764484D01*
X4579586Y-10764484D02*
X4560539Y-10764484D01*
X4560539Y-10764484D02*
X4541491Y-10754960D01*
X4541491Y-10754960D02*
X4531967Y-10745436D01*
X4531967Y-10745436D02*
X4522444Y-10726389D01*
X4522444Y-10726389D02*
X4512920Y-10688293D01*
X4512920Y-10688293D02*
X4512920Y-10640674D01*
X4512920Y-10640674D02*
X4522444Y-10602579D01*
X4522444Y-10602579D02*
X4531967Y-10583531D01*
X4531967Y-10583531D02*
X4541491Y-10574008D01*
X4541491Y-10574008D02*
X4560539Y-10564484D01*
X4712920Y-10764484D02*
X4712920Y-10631150D01*
X4712920Y-10650198D02*
X4722444Y-10640674D01*
X4722444Y-10640674D02*
X4741491Y-10631150D01*
X4741491Y-10631150D02*
X4770063Y-10631150D01*
X4770063Y-10631150D02*
X4789110Y-10640674D01*
X4789110Y-10640674D02*
X4798634Y-10659722D01*
X4798634Y-10659722D02*
X4798634Y-10764484D01*
X4798634Y-10659722D02*
X4808158Y-10640674D01*
X4808158Y-10640674D02*
X4827205Y-10631150D01*
X4827205Y-10631150D02*
X4855777Y-10631150D01*
X4855777Y-10631150D02*
X4874825Y-10640674D01*
X4874825Y-10640674D02*
X4884348Y-10659722D01*
X4884348Y-10659722D02*
X4884348Y-10764484D01*
X4979586Y-10764484D02*
X4979586Y-10631150D01*
X4979586Y-10650198D02*
X4989110Y-10640674D01*
X4989110Y-10640674D02*
X5008158Y-10631150D01*
X5008158Y-10631150D02*
X5036729Y-10631150D01*
X5036729Y-10631150D02*
X5055777Y-10640674D01*
X5055777Y-10640674D02*
X5065301Y-10659722D01*
X5065301Y-10659722D02*
X5065301Y-10764484D01*
X5065301Y-10659722D02*
X5074825Y-10640674D01*
X5074825Y-10640674D02*
X5093872Y-10631150D01*
X5093872Y-10631150D02*
X5122444Y-10631150D01*
X5122444Y-10631150D02*
X5141491Y-10640674D01*
X5141491Y-10640674D02*
X5151015Y-10659722D01*
X5151015Y-10659722D02*
X5151015Y-10764484D01*
X5541491Y-10554960D02*
X5370063Y-10812103D01*
X5798634Y-10564484D02*
X5817682Y-10564484D01*
X5817682Y-10564484D02*
X5836729Y-10574008D01*
X5836729Y-10574008D02*
X5846253Y-10583531D01*
X5846253Y-10583531D02*
X5855777Y-10602579D01*
X5855777Y-10602579D02*
X5865301Y-10640674D01*
X5865301Y-10640674D02*
X5865301Y-10688293D01*
X5865301Y-10688293D02*
X5855777Y-10726389D01*
X5855777Y-10726389D02*
X5846253Y-10745436D01*
X5846253Y-10745436D02*
X5836729Y-10754960D01*
X5836729Y-10754960D02*
X5817682Y-10764484D01*
X5817682Y-10764484D02*
X5798634Y-10764484D01*
X5798634Y-10764484D02*
X5779586Y-10754960D01*
X5779586Y-10754960D02*
X5770063Y-10745436D01*
X5770063Y-10745436D02*
X5760539Y-10726389D01*
X5760539Y-10726389D02*
X5751015Y-10688293D01*
X5751015Y-10688293D02*
X5751015Y-10640674D01*
X5751015Y-10640674D02*
X5760539Y-10602579D01*
X5760539Y-10602579D02*
X5770063Y-10583531D01*
X5770063Y-10583531D02*
X5779586Y-10574008D01*
X5779586Y-10574008D02*
X5798634Y-10564484D01*
X5951015Y-10745436D02*
X5960539Y-10754960D01*
X5960539Y-10754960D02*
X5951015Y-10764484D01*
X5951015Y-10764484D02*
X5941491Y-10754960D01*
X5941491Y-10754960D02*
X5951015Y-10745436D01*
X5951015Y-10745436D02*
X5951015Y-10764484D01*
X6084348Y-10564484D02*
X6103396Y-10564484D01*
X6103396Y-10564484D02*
X6122444Y-10574008D01*
X6122444Y-10574008D02*
X6131967Y-10583531D01*
X6131967Y-10583531D02*
X6141491Y-10602579D01*
X6141491Y-10602579D02*
X6151015Y-10640674D01*
X6151015Y-10640674D02*
X6151015Y-10688293D01*
X6151015Y-10688293D02*
X6141491Y-10726389D01*
X6141491Y-10726389D02*
X6131967Y-10745436D01*
X6131967Y-10745436D02*
X6122444Y-10754960D01*
X6122444Y-10754960D02*
X6103396Y-10764484D01*
X6103396Y-10764484D02*
X6084348Y-10764484D01*
X6084348Y-10764484D02*
X6065301Y-10754960D01*
X6065301Y-10754960D02*
X6055777Y-10745436D01*
X6055777Y-10745436D02*
X6046253Y-10726389D01*
X6046253Y-10726389D02*
X6036729Y-10688293D01*
X6036729Y-10688293D02*
X6036729Y-10640674D01*
X6036729Y-10640674D02*
X6046253Y-10602579D01*
X6046253Y-10602579D02*
X6055777Y-10583531D01*
X6055777Y-10583531D02*
X6065301Y-10574008D01*
X6065301Y-10574008D02*
X6084348Y-10564484D01*
X6341491Y-10764484D02*
X6227206Y-10764484D01*
X6284348Y-10764484D02*
X6284348Y-10564484D01*
X6284348Y-10564484D02*
X6265301Y-10593055D01*
X6265301Y-10593055D02*
X6246253Y-10612103D01*
X6246253Y-10612103D02*
X6227206Y-10621627D01*
X6436729Y-10764484D02*
X6474825Y-10764484D01*
X6474825Y-10764484D02*
X6493872Y-10754960D01*
X6493872Y-10754960D02*
X6503396Y-10745436D01*
X6503396Y-10745436D02*
X6522444Y-10716865D01*
X6522444Y-10716865D02*
X6531967Y-10678770D01*
X6531967Y-10678770D02*
X6531967Y-10602579D01*
X6531967Y-10602579D02*
X6522444Y-10583531D01*
X6522444Y-10583531D02*
X6512920Y-10574008D01*
X6512920Y-10574008D02*
X6493872Y-10564484D01*
X6493872Y-10564484D02*
X6455777Y-10564484D01*
X6455777Y-10564484D02*
X6436729Y-10574008D01*
X6436729Y-10574008D02*
X6427206Y-10583531D01*
X6427206Y-10583531D02*
X6417682Y-10602579D01*
X6417682Y-10602579D02*
X6417682Y-10650198D01*
X6417682Y-10650198D02*
X6427206Y-10669246D01*
X6427206Y-10669246D02*
X6436729Y-10678770D01*
X6436729Y-10678770D02*
X6455777Y-10688293D01*
X6455777Y-10688293D02*
X6493872Y-10688293D01*
X6493872Y-10688293D02*
X6512920Y-10678770D01*
X6512920Y-10678770D02*
X6522444Y-10669246D01*
X6522444Y-10669246D02*
X6531967Y-10650198D01*
X6598634Y-10564484D02*
X6731967Y-10564484D01*
X6731967Y-10564484D02*
X6646253Y-10764484D01*
X6798634Y-10564484D02*
X6798634Y-10602579D01*
X6874825Y-10564484D02*
X6874825Y-10602579D01*
X7170063Y-10840674D02*
X7160539Y-10831150D01*
X7160539Y-10831150D02*
X7141491Y-10802579D01*
X7141491Y-10802579D02*
X7131968Y-10783531D01*
X7131968Y-10783531D02*
X7122444Y-10754960D01*
X7122444Y-10754960D02*
X7112920Y-10707341D01*
X7112920Y-10707341D02*
X7112920Y-10669246D01*
X7112920Y-10669246D02*
X7122444Y-10621627D01*
X7122444Y-10621627D02*
X7131968Y-10593055D01*
X7131968Y-10593055D02*
X7141491Y-10574008D01*
X7141491Y-10574008D02*
X7160539Y-10545436D01*
X7160539Y-10545436D02*
X7170063Y-10535912D01*
X7351015Y-10764484D02*
X7236729Y-10764484D01*
X7293872Y-10764484D02*
X7293872Y-10564484D01*
X7293872Y-10564484D02*
X7274825Y-10593055D01*
X7274825Y-10593055D02*
X7255777Y-10612103D01*
X7255777Y-10612103D02*
X7236729Y-10621627D01*
X7522444Y-10564484D02*
X7484348Y-10564484D01*
X7484348Y-10564484D02*
X7465301Y-10574008D01*
X7465301Y-10574008D02*
X7455777Y-10583531D01*
X7455777Y-10583531D02*
X7436729Y-10612103D01*
X7436729Y-10612103D02*
X7427206Y-10650198D01*
X7427206Y-10650198D02*
X7427206Y-10726389D01*
X7427206Y-10726389D02*
X7436729Y-10745436D01*
X7436729Y-10745436D02*
X7446253Y-10754960D01*
X7446253Y-10754960D02*
X7465301Y-10764484D01*
X7465301Y-10764484D02*
X7503396Y-10764484D01*
X7503396Y-10764484D02*
X7522444Y-10754960D01*
X7522444Y-10754960D02*
X7531968Y-10745436D01*
X7531968Y-10745436D02*
X7541491Y-10726389D01*
X7541491Y-10726389D02*
X7541491Y-10678770D01*
X7541491Y-10678770D02*
X7531968Y-10659722D01*
X7531968Y-10659722D02*
X7522444Y-10650198D01*
X7522444Y-10650198D02*
X7503396Y-10640674D01*
X7503396Y-10640674D02*
X7465301Y-10640674D01*
X7465301Y-10640674D02*
X7446253Y-10650198D01*
X7446253Y-10650198D02*
X7436729Y-10659722D01*
X7436729Y-10659722D02*
X7427206Y-10678770D01*
X7779587Y-10764484D02*
X7779587Y-10564484D01*
X7865301Y-10764484D02*
X7865301Y-10659722D01*
X7865301Y-10659722D02*
X7855777Y-10640674D01*
X7855777Y-10640674D02*
X7836730Y-10631150D01*
X7836730Y-10631150D02*
X7808158Y-10631150D01*
X7808158Y-10631150D02*
X7789110Y-10640674D01*
X7789110Y-10640674D02*
X7779587Y-10650198D01*
X7989110Y-10764484D02*
X7970063Y-10754960D01*
X7970063Y-10754960D02*
X7960539Y-10745436D01*
X7960539Y-10745436D02*
X7951015Y-10726389D01*
X7951015Y-10726389D02*
X7951015Y-10669246D01*
X7951015Y-10669246D02*
X7960539Y-10650198D01*
X7960539Y-10650198D02*
X7970063Y-10640674D01*
X7970063Y-10640674D02*
X7989110Y-10631150D01*
X7989110Y-10631150D02*
X8017682Y-10631150D01*
X8017682Y-10631150D02*
X8036730Y-10640674D01*
X8036730Y-10640674D02*
X8046253Y-10650198D01*
X8046253Y-10650198D02*
X8055777Y-10669246D01*
X8055777Y-10669246D02*
X8055777Y-10726389D01*
X8055777Y-10726389D02*
X8046253Y-10745436D01*
X8046253Y-10745436D02*
X8036730Y-10754960D01*
X8036730Y-10754960D02*
X8017682Y-10764484D01*
X8017682Y-10764484D02*
X7989110Y-10764484D01*
X8170063Y-10764484D02*
X8151015Y-10754960D01*
X8151015Y-10754960D02*
X8141491Y-10735912D01*
X8141491Y-10735912D02*
X8141491Y-10564484D01*
X8322444Y-10754960D02*
X8303396Y-10764484D01*
X8303396Y-10764484D02*
X8265301Y-10764484D01*
X8265301Y-10764484D02*
X8246253Y-10754960D01*
X8246253Y-10754960D02*
X8236730Y-10735912D01*
X8236730Y-10735912D02*
X8236730Y-10659722D01*
X8236730Y-10659722D02*
X8246253Y-10640674D01*
X8246253Y-10640674D02*
X8265301Y-10631150D01*
X8265301Y-10631150D02*
X8303396Y-10631150D01*
X8303396Y-10631150D02*
X8322444Y-10640674D01*
X8322444Y-10640674D02*
X8331968Y-10659722D01*
X8331968Y-10659722D02*
X8331968Y-10678770D01*
X8331968Y-10678770D02*
X8236730Y-10697817D01*
X8408158Y-10754960D02*
X8427206Y-10764484D01*
X8427206Y-10764484D02*
X8465301Y-10764484D01*
X8465301Y-10764484D02*
X8484349Y-10754960D01*
X8484349Y-10754960D02*
X8493873Y-10735912D01*
X8493873Y-10735912D02*
X8493873Y-10726389D01*
X8493873Y-10726389D02*
X8484349Y-10707341D01*
X8484349Y-10707341D02*
X8465301Y-10697817D01*
X8465301Y-10697817D02*
X8436730Y-10697817D01*
X8436730Y-10697817D02*
X8417682Y-10688293D01*
X8417682Y-10688293D02*
X8408158Y-10669246D01*
X8408158Y-10669246D02*
X8408158Y-10659722D01*
X8408158Y-10659722D02*
X8417682Y-10640674D01*
X8417682Y-10640674D02*
X8436730Y-10631150D01*
X8436730Y-10631150D02*
X8465301Y-10631150D01*
X8465301Y-10631150D02*
X8484349Y-10640674D01*
X8560539Y-10840674D02*
X8570063Y-10831150D01*
X8570063Y-10831150D02*
X8589111Y-10802579D01*
X8589111Y-10802579D02*
X8598634Y-10783531D01*
X8598634Y-10783531D02*
X8608158Y-10754960D01*
X8608158Y-10754960D02*
X8617682Y-10707341D01*
X8617682Y-10707341D02*
X8617682Y-10669246D01*
X8617682Y-10669246D02*
X8608158Y-10621627D01*
X8608158Y-10621627D02*
X8598634Y-10593055D01*
X8598634Y-10593055D02*
X8589111Y-10574008D01*
X8589111Y-10574008D02*
X8570063Y-10545436D01*
X8570063Y-10545436D02*
X8560539Y-10535912D01*
D15*
X3586213Y-10958213D02*
X3586213Y-10915787D01*
X3543787Y-10915787D01*
X3543787Y-10958213D01*
X3586213Y-10958213D01*
D11*
X3893872Y-10828484D02*
X3912920Y-10828484D01*
X3912920Y-10828484D02*
X3931967Y-10838008D01*
X3931967Y-10838008D02*
X3941491Y-10847531D01*
X3941491Y-10847531D02*
X3951015Y-10866579D01*
X3951015Y-10866579D02*
X3960539Y-10904674D01*
X3960539Y-10904674D02*
X3960539Y-10952293D01*
X3960539Y-10952293D02*
X3951015Y-10990389D01*
X3951015Y-10990389D02*
X3941491Y-11009436D01*
X3941491Y-11009436D02*
X3931967Y-11018960D01*
X3931967Y-11018960D02*
X3912920Y-11028484D01*
X3912920Y-11028484D02*
X3893872Y-11028484D01*
X3893872Y-11028484D02*
X3874824Y-11018960D01*
X3874824Y-11018960D02*
X3865301Y-11009436D01*
X3865301Y-11009436D02*
X3855777Y-10990389D01*
X3855777Y-10990389D02*
X3846253Y-10952293D01*
X3846253Y-10952293D02*
X3846253Y-10904674D01*
X3846253Y-10904674D02*
X3855777Y-10866579D01*
X3855777Y-10866579D02*
X3865301Y-10847531D01*
X3865301Y-10847531D02*
X3874824Y-10838008D01*
X3874824Y-10838008D02*
X3893872Y-10828484D01*
X4046253Y-11009436D02*
X4055777Y-11018960D01*
X4055777Y-11018960D02*
X4046253Y-11028484D01*
X4046253Y-11028484D02*
X4036729Y-11018960D01*
X4036729Y-11018960D02*
X4046253Y-11009436D01*
X4046253Y-11009436D02*
X4046253Y-11028484D01*
X4227205Y-10828484D02*
X4189110Y-10828484D01*
X4189110Y-10828484D02*
X4170062Y-10838008D01*
X4170062Y-10838008D02*
X4160539Y-10847531D01*
X4160539Y-10847531D02*
X4141491Y-10876103D01*
X4141491Y-10876103D02*
X4131967Y-10914198D01*
X4131967Y-10914198D02*
X4131967Y-10990389D01*
X4131967Y-10990389D02*
X4141491Y-11009436D01*
X4141491Y-11009436D02*
X4151015Y-11018960D01*
X4151015Y-11018960D02*
X4170062Y-11028484D01*
X4170062Y-11028484D02*
X4208158Y-11028484D01*
X4208158Y-11028484D02*
X4227205Y-11018960D01*
X4227205Y-11018960D02*
X4236729Y-11009436D01*
X4236729Y-11009436D02*
X4246253Y-10990389D01*
X4246253Y-10990389D02*
X4246253Y-10942770D01*
X4246253Y-10942770D02*
X4236729Y-10923722D01*
X4236729Y-10923722D02*
X4227205Y-10914198D01*
X4227205Y-10914198D02*
X4208158Y-10904674D01*
X4208158Y-10904674D02*
X4170062Y-10904674D01*
X4170062Y-10904674D02*
X4151015Y-10914198D01*
X4151015Y-10914198D02*
X4141491Y-10923722D01*
X4141491Y-10923722D02*
X4131967Y-10942770D01*
X4370063Y-10828484D02*
X4389110Y-10828484D01*
X4389110Y-10828484D02*
X4408158Y-10838008D01*
X4408158Y-10838008D02*
X4417682Y-10847531D01*
X4417682Y-10847531D02*
X4427205Y-10866579D01*
X4427205Y-10866579D02*
X4436729Y-10904674D01*
X4436729Y-10904674D02*
X4436729Y-10952293D01*
X4436729Y-10952293D02*
X4427205Y-10990389D01*
X4427205Y-10990389D02*
X4417682Y-11009436D01*
X4417682Y-11009436D02*
X4408158Y-11018960D01*
X4408158Y-11018960D02*
X4389110Y-11028484D01*
X4389110Y-11028484D02*
X4370063Y-11028484D01*
X4370063Y-11028484D02*
X4351015Y-11018960D01*
X4351015Y-11018960D02*
X4341491Y-11009436D01*
X4341491Y-11009436D02*
X4331967Y-10990389D01*
X4331967Y-10990389D02*
X4322444Y-10952293D01*
X4322444Y-10952293D02*
X4322444Y-10904674D01*
X4322444Y-10904674D02*
X4331967Y-10866579D01*
X4331967Y-10866579D02*
X4341491Y-10847531D01*
X4341491Y-10847531D02*
X4351015Y-10838008D01*
X4351015Y-10838008D02*
X4370063Y-10828484D01*
X4560539Y-10828484D02*
X4579586Y-10828484D01*
X4579586Y-10828484D02*
X4598634Y-10838008D01*
X4598634Y-10838008D02*
X4608158Y-10847531D01*
X4608158Y-10847531D02*
X4617682Y-10866579D01*
X4617682Y-10866579D02*
X4627205Y-10904674D01*
X4627205Y-10904674D02*
X4627205Y-10952293D01*
X4627205Y-10952293D02*
X4617682Y-10990389D01*
X4617682Y-10990389D02*
X4608158Y-11009436D01*
X4608158Y-11009436D02*
X4598634Y-11018960D01*
X4598634Y-11018960D02*
X4579586Y-11028484D01*
X4579586Y-11028484D02*
X4560539Y-11028484D01*
X4560539Y-11028484D02*
X4541491Y-11018960D01*
X4541491Y-11018960D02*
X4531967Y-11009436D01*
X4531967Y-11009436D02*
X4522444Y-10990389D01*
X4522444Y-10990389D02*
X4512920Y-10952293D01*
X4512920Y-10952293D02*
X4512920Y-10904674D01*
X4512920Y-10904674D02*
X4522444Y-10866579D01*
X4522444Y-10866579D02*
X4531967Y-10847531D01*
X4531967Y-10847531D02*
X4541491Y-10838008D01*
X4541491Y-10838008D02*
X4560539Y-10828484D01*
X4712920Y-11028484D02*
X4712920Y-10895150D01*
X4712920Y-10914198D02*
X4722444Y-10904674D01*
X4722444Y-10904674D02*
X4741491Y-10895150D01*
X4741491Y-10895150D02*
X4770063Y-10895150D01*
X4770063Y-10895150D02*
X4789110Y-10904674D01*
X4789110Y-10904674D02*
X4798634Y-10923722D01*
X4798634Y-10923722D02*
X4798634Y-11028484D01*
X4798634Y-10923722D02*
X4808158Y-10904674D01*
X4808158Y-10904674D02*
X4827205Y-10895150D01*
X4827205Y-10895150D02*
X4855777Y-10895150D01*
X4855777Y-10895150D02*
X4874825Y-10904674D01*
X4874825Y-10904674D02*
X4884348Y-10923722D01*
X4884348Y-10923722D02*
X4884348Y-11028484D01*
X4979586Y-11028484D02*
X4979586Y-10895150D01*
X4979586Y-10914198D02*
X4989110Y-10904674D01*
X4989110Y-10904674D02*
X5008158Y-10895150D01*
X5008158Y-10895150D02*
X5036729Y-10895150D01*
X5036729Y-10895150D02*
X5055777Y-10904674D01*
X5055777Y-10904674D02*
X5065301Y-10923722D01*
X5065301Y-10923722D02*
X5065301Y-11028484D01*
X5065301Y-10923722D02*
X5074825Y-10904674D01*
X5074825Y-10904674D02*
X5093872Y-10895150D01*
X5093872Y-10895150D02*
X5122444Y-10895150D01*
X5122444Y-10895150D02*
X5141491Y-10904674D01*
X5141491Y-10904674D02*
X5151015Y-10923722D01*
X5151015Y-10923722D02*
X5151015Y-11028484D01*
X5541491Y-10818960D02*
X5370063Y-11076103D01*
X5798634Y-10828484D02*
X5817682Y-10828484D01*
X5817682Y-10828484D02*
X5836729Y-10838008D01*
X5836729Y-10838008D02*
X5846253Y-10847531D01*
X5846253Y-10847531D02*
X5855777Y-10866579D01*
X5855777Y-10866579D02*
X5865301Y-10904674D01*
X5865301Y-10904674D02*
X5865301Y-10952293D01*
X5865301Y-10952293D02*
X5855777Y-10990389D01*
X5855777Y-10990389D02*
X5846253Y-11009436D01*
X5846253Y-11009436D02*
X5836729Y-11018960D01*
X5836729Y-11018960D02*
X5817682Y-11028484D01*
X5817682Y-11028484D02*
X5798634Y-11028484D01*
X5798634Y-11028484D02*
X5779586Y-11018960D01*
X5779586Y-11018960D02*
X5770063Y-11009436D01*
X5770063Y-11009436D02*
X5760539Y-10990389D01*
X5760539Y-10990389D02*
X5751015Y-10952293D01*
X5751015Y-10952293D02*
X5751015Y-10904674D01*
X5751015Y-10904674D02*
X5760539Y-10866579D01*
X5760539Y-10866579D02*
X5770063Y-10847531D01*
X5770063Y-10847531D02*
X5779586Y-10838008D01*
X5779586Y-10838008D02*
X5798634Y-10828484D01*
X5951015Y-11009436D02*
X5960539Y-11018960D01*
X5960539Y-11018960D02*
X5951015Y-11028484D01*
X5951015Y-11028484D02*
X5941491Y-11018960D01*
X5941491Y-11018960D02*
X5951015Y-11009436D01*
X5951015Y-11009436D02*
X5951015Y-11028484D01*
X6084348Y-10828484D02*
X6103396Y-10828484D01*
X6103396Y-10828484D02*
X6122444Y-10838008D01*
X6122444Y-10838008D02*
X6131967Y-10847531D01*
X6131967Y-10847531D02*
X6141491Y-10866579D01*
X6141491Y-10866579D02*
X6151015Y-10904674D01*
X6151015Y-10904674D02*
X6151015Y-10952293D01*
X6151015Y-10952293D02*
X6141491Y-10990389D01*
X6141491Y-10990389D02*
X6131967Y-11009436D01*
X6131967Y-11009436D02*
X6122444Y-11018960D01*
X6122444Y-11018960D02*
X6103396Y-11028484D01*
X6103396Y-11028484D02*
X6084348Y-11028484D01*
X6084348Y-11028484D02*
X6065301Y-11018960D01*
X6065301Y-11018960D02*
X6055777Y-11009436D01*
X6055777Y-11009436D02*
X6046253Y-10990389D01*
X6046253Y-10990389D02*
X6036729Y-10952293D01*
X6036729Y-10952293D02*
X6036729Y-10904674D01*
X6036729Y-10904674D02*
X6046253Y-10866579D01*
X6046253Y-10866579D02*
X6055777Y-10847531D01*
X6055777Y-10847531D02*
X6065301Y-10838008D01*
X6065301Y-10838008D02*
X6084348Y-10828484D01*
X6227206Y-10847531D02*
X6236729Y-10838008D01*
X6236729Y-10838008D02*
X6255777Y-10828484D01*
X6255777Y-10828484D02*
X6303396Y-10828484D01*
X6303396Y-10828484D02*
X6322444Y-10838008D01*
X6322444Y-10838008D02*
X6331967Y-10847531D01*
X6331967Y-10847531D02*
X6341491Y-10866579D01*
X6341491Y-10866579D02*
X6341491Y-10885627D01*
X6341491Y-10885627D02*
X6331967Y-10914198D01*
X6331967Y-10914198D02*
X6217682Y-11028484D01*
X6217682Y-11028484D02*
X6341491Y-11028484D01*
X6408158Y-10828484D02*
X6531967Y-10828484D01*
X6531967Y-10828484D02*
X6465301Y-10904674D01*
X6465301Y-10904674D02*
X6493872Y-10904674D01*
X6493872Y-10904674D02*
X6512920Y-10914198D01*
X6512920Y-10914198D02*
X6522444Y-10923722D01*
X6522444Y-10923722D02*
X6531967Y-10942770D01*
X6531967Y-10942770D02*
X6531967Y-10990389D01*
X6531967Y-10990389D02*
X6522444Y-11009436D01*
X6522444Y-11009436D02*
X6512920Y-11018960D01*
X6512920Y-11018960D02*
X6493872Y-11028484D01*
X6493872Y-11028484D02*
X6436729Y-11028484D01*
X6436729Y-11028484D02*
X6417682Y-11018960D01*
X6417682Y-11018960D02*
X6408158Y-11009436D01*
X6703396Y-10828484D02*
X6665301Y-10828484D01*
X6665301Y-10828484D02*
X6646253Y-10838008D01*
X6646253Y-10838008D02*
X6636729Y-10847531D01*
X6636729Y-10847531D02*
X6617682Y-10876103D01*
X6617682Y-10876103D02*
X6608158Y-10914198D01*
X6608158Y-10914198D02*
X6608158Y-10990389D01*
X6608158Y-10990389D02*
X6617682Y-11009436D01*
X6617682Y-11009436D02*
X6627206Y-11018960D01*
X6627206Y-11018960D02*
X6646253Y-11028484D01*
X6646253Y-11028484D02*
X6684348Y-11028484D01*
X6684348Y-11028484D02*
X6703396Y-11018960D01*
X6703396Y-11018960D02*
X6712920Y-11009436D01*
X6712920Y-11009436D02*
X6722444Y-10990389D01*
X6722444Y-10990389D02*
X6722444Y-10942770D01*
X6722444Y-10942770D02*
X6712920Y-10923722D01*
X6712920Y-10923722D02*
X6703396Y-10914198D01*
X6703396Y-10914198D02*
X6684348Y-10904674D01*
X6684348Y-10904674D02*
X6646253Y-10904674D01*
X6646253Y-10904674D02*
X6627206Y-10914198D01*
X6627206Y-10914198D02*
X6617682Y-10923722D01*
X6617682Y-10923722D02*
X6608158Y-10942770D01*
X6798634Y-10828484D02*
X6798634Y-10866579D01*
X6874825Y-10828484D02*
X6874825Y-10866579D01*
X7170063Y-11104674D02*
X7160539Y-11095150D01*
X7160539Y-11095150D02*
X7141491Y-11066579D01*
X7141491Y-11066579D02*
X7131968Y-11047531D01*
X7131968Y-11047531D02*
X7122444Y-11018960D01*
X7122444Y-11018960D02*
X7112920Y-10971341D01*
X7112920Y-10971341D02*
X7112920Y-10933246D01*
X7112920Y-10933246D02*
X7122444Y-10885627D01*
X7122444Y-10885627D02*
X7131968Y-10857055D01*
X7131968Y-10857055D02*
X7141491Y-10838008D01*
X7141491Y-10838008D02*
X7160539Y-10809436D01*
X7160539Y-10809436D02*
X7170063Y-10799912D01*
X7236729Y-10847531D02*
X7246253Y-10838008D01*
X7246253Y-10838008D02*
X7265301Y-10828484D01*
X7265301Y-10828484D02*
X7312920Y-10828484D01*
X7312920Y-10828484D02*
X7331968Y-10838008D01*
X7331968Y-10838008D02*
X7341491Y-10847531D01*
X7341491Y-10847531D02*
X7351015Y-10866579D01*
X7351015Y-10866579D02*
X7351015Y-10885627D01*
X7351015Y-10885627D02*
X7341491Y-10914198D01*
X7341491Y-10914198D02*
X7227206Y-11028484D01*
X7227206Y-11028484D02*
X7351015Y-11028484D01*
X7589110Y-11028484D02*
X7589110Y-10828484D01*
X7674825Y-11028484D02*
X7674825Y-10923722D01*
X7674825Y-10923722D02*
X7665301Y-10904674D01*
X7665301Y-10904674D02*
X7646253Y-10895150D01*
X7646253Y-10895150D02*
X7617682Y-10895150D01*
X7617682Y-10895150D02*
X7598634Y-10904674D01*
X7598634Y-10904674D02*
X7589110Y-10914198D01*
X7798634Y-11028484D02*
X7779587Y-11018960D01*
X7779587Y-11018960D02*
X7770063Y-11009436D01*
X7770063Y-11009436D02*
X7760539Y-10990389D01*
X7760539Y-10990389D02*
X7760539Y-10933246D01*
X7760539Y-10933246D02*
X7770063Y-10914198D01*
X7770063Y-10914198D02*
X7779587Y-10904674D01*
X7779587Y-10904674D02*
X7798634Y-10895150D01*
X7798634Y-10895150D02*
X7827206Y-10895150D01*
X7827206Y-10895150D02*
X7846253Y-10904674D01*
X7846253Y-10904674D02*
X7855777Y-10914198D01*
X7855777Y-10914198D02*
X7865301Y-10933246D01*
X7865301Y-10933246D02*
X7865301Y-10990389D01*
X7865301Y-10990389D02*
X7855777Y-11009436D01*
X7855777Y-11009436D02*
X7846253Y-11018960D01*
X7846253Y-11018960D02*
X7827206Y-11028484D01*
X7827206Y-11028484D02*
X7798634Y-11028484D01*
X7979587Y-11028484D02*
X7960539Y-11018960D01*
X7960539Y-11018960D02*
X7951015Y-10999912D01*
X7951015Y-10999912D02*
X7951015Y-10828484D01*
X8131968Y-11018960D02*
X8112920Y-11028484D01*
X8112920Y-11028484D02*
X8074825Y-11028484D01*
X8074825Y-11028484D02*
X8055777Y-11018960D01*
X8055777Y-11018960D02*
X8046253Y-10999912D01*
X8046253Y-10999912D02*
X8046253Y-10923722D01*
X8046253Y-10923722D02*
X8055777Y-10904674D01*
X8055777Y-10904674D02*
X8074825Y-10895150D01*
X8074825Y-10895150D02*
X8112920Y-10895150D01*
X8112920Y-10895150D02*
X8131968Y-10904674D01*
X8131968Y-10904674D02*
X8141491Y-10923722D01*
X8141491Y-10923722D02*
X8141491Y-10942770D01*
X8141491Y-10942770D02*
X8046253Y-10961817D01*
X8217682Y-11018960D02*
X8236730Y-11028484D01*
X8236730Y-11028484D02*
X8274825Y-11028484D01*
X8274825Y-11028484D02*
X8293872Y-11018960D01*
X8293872Y-11018960D02*
X8303396Y-10999912D01*
X8303396Y-10999912D02*
X8303396Y-10990389D01*
X8303396Y-10990389D02*
X8293872Y-10971341D01*
X8293872Y-10971341D02*
X8274825Y-10961817D01*
X8274825Y-10961817D02*
X8246253Y-10961817D01*
X8246253Y-10961817D02*
X8227206Y-10952293D01*
X8227206Y-10952293D02*
X8217682Y-10933246D01*
X8217682Y-10933246D02*
X8217682Y-10923722D01*
X8217682Y-10923722D02*
X8227206Y-10904674D01*
X8227206Y-10904674D02*
X8246253Y-10895150D01*
X8246253Y-10895150D02*
X8274825Y-10895150D01*
X8274825Y-10895150D02*
X8293872Y-10904674D01*
X8370063Y-11104674D02*
X8379587Y-11095150D01*
X8379587Y-11095150D02*
X8398634Y-11066579D01*
X8398634Y-11066579D02*
X8408158Y-11047531D01*
X8408158Y-11047531D02*
X8417682Y-11018960D01*
X8417682Y-11018960D02*
X8427206Y-10971341D01*
X8427206Y-10971341D02*
X8427206Y-10933246D01*
X8427206Y-10933246D02*
X8417682Y-10885627D01*
X8417682Y-10885627D02*
X8408158Y-10857055D01*
X8408158Y-10857055D02*
X8398634Y-10838008D01*
X8398634Y-10838008D02*
X8379587Y-10809436D01*
X8379587Y-10809436D02*
X8370063Y-10799912D01*
D16*
X3530000Y-11266000D02*
X3595000Y-11201000D01*
X3530000Y-11136000D01*
X3465000Y-11201000D01*
X3530000Y-11266000D01*
D11*
X3960539Y-11292484D02*
X3846253Y-11292484D01*
X3903396Y-11292484D02*
X3903396Y-11092484D01*
X3903396Y-11092484D02*
X3884348Y-11121055D01*
X3884348Y-11121055D02*
X3865301Y-11140103D01*
X3865301Y-11140103D02*
X3846253Y-11149627D01*
X4046253Y-11273436D02*
X4055777Y-11282960D01*
X4055777Y-11282960D02*
X4046253Y-11292484D01*
X4046253Y-11292484D02*
X4036729Y-11282960D01*
X4036729Y-11282960D02*
X4046253Y-11273436D01*
X4046253Y-11273436D02*
X4046253Y-11292484D01*
X4122443Y-11092484D02*
X4246253Y-11092484D01*
X4246253Y-11092484D02*
X4179586Y-11168674D01*
X4179586Y-11168674D02*
X4208158Y-11168674D01*
X4208158Y-11168674D02*
X4227205Y-11178198D01*
X4227205Y-11178198D02*
X4236729Y-11187722D01*
X4236729Y-11187722D02*
X4246253Y-11206769D01*
X4246253Y-11206769D02*
X4246253Y-11254388D01*
X4246253Y-11254388D02*
X4236729Y-11273436D01*
X4236729Y-11273436D02*
X4227205Y-11282960D01*
X4227205Y-11282960D02*
X4208158Y-11292484D01*
X4208158Y-11292484D02*
X4151015Y-11292484D01*
X4151015Y-11292484D02*
X4131967Y-11282960D01*
X4131967Y-11282960D02*
X4122443Y-11273436D01*
X4370063Y-11092484D02*
X4389110Y-11092484D01*
X4389110Y-11092484D02*
X4408158Y-11102008D01*
X4408158Y-11102008D02*
X4417682Y-11111531D01*
X4417682Y-11111531D02*
X4427205Y-11130579D01*
X4427205Y-11130579D02*
X4436729Y-11168674D01*
X4436729Y-11168674D02*
X4436729Y-11216293D01*
X4436729Y-11216293D02*
X4427205Y-11254388D01*
X4427205Y-11254388D02*
X4417682Y-11273436D01*
X4417682Y-11273436D02*
X4408158Y-11282960D01*
X4408158Y-11282960D02*
X4389110Y-11292484D01*
X4389110Y-11292484D02*
X4370063Y-11292484D01*
X4370063Y-11292484D02*
X4351015Y-11282960D01*
X4351015Y-11282960D02*
X4341491Y-11273436D01*
X4341491Y-11273436D02*
X4331967Y-11254388D01*
X4331967Y-11254388D02*
X4322444Y-11216293D01*
X4322444Y-11216293D02*
X4322444Y-11168674D01*
X4322444Y-11168674D02*
X4331967Y-11130579D01*
X4331967Y-11130579D02*
X4341491Y-11111531D01*
X4341491Y-11111531D02*
X4351015Y-11102008D01*
X4351015Y-11102008D02*
X4370063Y-11092484D01*
X4560539Y-11092484D02*
X4579586Y-11092484D01*
X4579586Y-11092484D02*
X4598634Y-11102008D01*
X4598634Y-11102008D02*
X4608158Y-11111531D01*
X4608158Y-11111531D02*
X4617682Y-11130579D01*
X4617682Y-11130579D02*
X4627205Y-11168674D01*
X4627205Y-11168674D02*
X4627205Y-11216293D01*
X4627205Y-11216293D02*
X4617682Y-11254388D01*
X4617682Y-11254388D02*
X4608158Y-11273436D01*
X4608158Y-11273436D02*
X4598634Y-11282960D01*
X4598634Y-11282960D02*
X4579586Y-11292484D01*
X4579586Y-11292484D02*
X4560539Y-11292484D01*
X4560539Y-11292484D02*
X4541491Y-11282960D01*
X4541491Y-11282960D02*
X4531967Y-11273436D01*
X4531967Y-11273436D02*
X4522444Y-11254388D01*
X4522444Y-11254388D02*
X4512920Y-11216293D01*
X4512920Y-11216293D02*
X4512920Y-11168674D01*
X4512920Y-11168674D02*
X4522444Y-11130579D01*
X4522444Y-11130579D02*
X4531967Y-11111531D01*
X4531967Y-11111531D02*
X4541491Y-11102008D01*
X4541491Y-11102008D02*
X4560539Y-11092484D01*
X4712920Y-11292484D02*
X4712920Y-11159150D01*
X4712920Y-11178198D02*
X4722444Y-11168674D01*
X4722444Y-11168674D02*
X4741491Y-11159150D01*
X4741491Y-11159150D02*
X4770063Y-11159150D01*
X4770063Y-11159150D02*
X4789110Y-11168674D01*
X4789110Y-11168674D02*
X4798634Y-11187722D01*
X4798634Y-11187722D02*
X4798634Y-11292484D01*
X4798634Y-11187722D02*
X4808158Y-11168674D01*
X4808158Y-11168674D02*
X4827205Y-11159150D01*
X4827205Y-11159150D02*
X4855777Y-11159150D01*
X4855777Y-11159150D02*
X4874825Y-11168674D01*
X4874825Y-11168674D02*
X4884348Y-11187722D01*
X4884348Y-11187722D02*
X4884348Y-11292484D01*
X4979586Y-11292484D02*
X4979586Y-11159150D01*
X4979586Y-11178198D02*
X4989110Y-11168674D01*
X4989110Y-11168674D02*
X5008158Y-11159150D01*
X5008158Y-11159150D02*
X5036729Y-11159150D01*
X5036729Y-11159150D02*
X5055777Y-11168674D01*
X5055777Y-11168674D02*
X5065301Y-11187722D01*
X5065301Y-11187722D02*
X5065301Y-11292484D01*
X5065301Y-11187722D02*
X5074825Y-11168674D01*
X5074825Y-11168674D02*
X5093872Y-11159150D01*
X5093872Y-11159150D02*
X5122444Y-11159150D01*
X5122444Y-11159150D02*
X5141491Y-11168674D01*
X5141491Y-11168674D02*
X5151015Y-11187722D01*
X5151015Y-11187722D02*
X5151015Y-11292484D01*
X5541491Y-11082960D02*
X5370063Y-11340103D01*
X5798634Y-11092484D02*
X5817682Y-11092484D01*
X5817682Y-11092484D02*
X5836729Y-11102008D01*
X5836729Y-11102008D02*
X5846253Y-11111531D01*
X5846253Y-11111531D02*
X5855777Y-11130579D01*
X5855777Y-11130579D02*
X5865301Y-11168674D01*
X5865301Y-11168674D02*
X5865301Y-11216293D01*
X5865301Y-11216293D02*
X5855777Y-11254388D01*
X5855777Y-11254388D02*
X5846253Y-11273436D01*
X5846253Y-11273436D02*
X5836729Y-11282960D01*
X5836729Y-11282960D02*
X5817682Y-11292484D01*
X5817682Y-11292484D02*
X5798634Y-11292484D01*
X5798634Y-11292484D02*
X5779586Y-11282960D01*
X5779586Y-11282960D02*
X5770063Y-11273436D01*
X5770063Y-11273436D02*
X5760539Y-11254388D01*
X5760539Y-11254388D02*
X5751015Y-11216293D01*
X5751015Y-11216293D02*
X5751015Y-11168674D01*
X5751015Y-11168674D02*
X5760539Y-11130579D01*
X5760539Y-11130579D02*
X5770063Y-11111531D01*
X5770063Y-11111531D02*
X5779586Y-11102008D01*
X5779586Y-11102008D02*
X5798634Y-11092484D01*
X5951015Y-11273436D02*
X5960539Y-11282960D01*
X5960539Y-11282960D02*
X5951015Y-11292484D01*
X5951015Y-11292484D02*
X5941491Y-11282960D01*
X5941491Y-11282960D02*
X5951015Y-11273436D01*
X5951015Y-11273436D02*
X5951015Y-11292484D01*
X6084348Y-11092484D02*
X6103396Y-11092484D01*
X6103396Y-11092484D02*
X6122444Y-11102008D01*
X6122444Y-11102008D02*
X6131967Y-11111531D01*
X6131967Y-11111531D02*
X6141491Y-11130579D01*
X6141491Y-11130579D02*
X6151015Y-11168674D01*
X6151015Y-11168674D02*
X6151015Y-11216293D01*
X6151015Y-11216293D02*
X6141491Y-11254388D01*
X6141491Y-11254388D02*
X6131967Y-11273436D01*
X6131967Y-11273436D02*
X6122444Y-11282960D01*
X6122444Y-11282960D02*
X6103396Y-11292484D01*
X6103396Y-11292484D02*
X6084348Y-11292484D01*
X6084348Y-11292484D02*
X6065301Y-11282960D01*
X6065301Y-11282960D02*
X6055777Y-11273436D01*
X6055777Y-11273436D02*
X6046253Y-11254388D01*
X6046253Y-11254388D02*
X6036729Y-11216293D01*
X6036729Y-11216293D02*
X6036729Y-11168674D01*
X6036729Y-11168674D02*
X6046253Y-11130579D01*
X6046253Y-11130579D02*
X6055777Y-11111531D01*
X6055777Y-11111531D02*
X6065301Y-11102008D01*
X6065301Y-11102008D02*
X6084348Y-11092484D01*
X6331967Y-11092484D02*
X6236729Y-11092484D01*
X6236729Y-11092484D02*
X6227206Y-11187722D01*
X6227206Y-11187722D02*
X6236729Y-11178198D01*
X6236729Y-11178198D02*
X6255777Y-11168674D01*
X6255777Y-11168674D02*
X6303396Y-11168674D01*
X6303396Y-11168674D02*
X6322444Y-11178198D01*
X6322444Y-11178198D02*
X6331967Y-11187722D01*
X6331967Y-11187722D02*
X6341491Y-11206769D01*
X6341491Y-11206769D02*
X6341491Y-11254388D01*
X6341491Y-11254388D02*
X6331967Y-11273436D01*
X6331967Y-11273436D02*
X6322444Y-11282960D01*
X6322444Y-11282960D02*
X6303396Y-11292484D01*
X6303396Y-11292484D02*
X6255777Y-11292484D01*
X6255777Y-11292484D02*
X6236729Y-11282960D01*
X6236729Y-11282960D02*
X6227206Y-11273436D01*
X6531967Y-11292484D02*
X6417682Y-11292484D01*
X6474825Y-11292484D02*
X6474825Y-11092484D01*
X6474825Y-11092484D02*
X6455777Y-11121055D01*
X6455777Y-11121055D02*
X6436729Y-11140103D01*
X6436729Y-11140103D02*
X6417682Y-11149627D01*
X6608158Y-11111531D02*
X6617682Y-11102008D01*
X6617682Y-11102008D02*
X6636729Y-11092484D01*
X6636729Y-11092484D02*
X6684348Y-11092484D01*
X6684348Y-11092484D02*
X6703396Y-11102008D01*
X6703396Y-11102008D02*
X6712920Y-11111531D01*
X6712920Y-11111531D02*
X6722444Y-11130579D01*
X6722444Y-11130579D02*
X6722444Y-11149627D01*
X6722444Y-11149627D02*
X6712920Y-11178198D01*
X6712920Y-11178198D02*
X6598634Y-11292484D01*
X6598634Y-11292484D02*
X6722444Y-11292484D01*
X6798634Y-11092484D02*
X6798634Y-11130579D01*
X6874825Y-11092484D02*
X6874825Y-11130579D01*
X7170063Y-11368674D02*
X7160539Y-11359150D01*
X7160539Y-11359150D02*
X7141491Y-11330579D01*
X7141491Y-11330579D02*
X7131968Y-11311531D01*
X7131968Y-11311531D02*
X7122444Y-11282960D01*
X7122444Y-11282960D02*
X7112920Y-11235341D01*
X7112920Y-11235341D02*
X7112920Y-11197246D01*
X7112920Y-11197246D02*
X7122444Y-11149627D01*
X7122444Y-11149627D02*
X7131968Y-11121055D01*
X7131968Y-11121055D02*
X7141491Y-11102008D01*
X7141491Y-11102008D02*
X7160539Y-11073436D01*
X7160539Y-11073436D02*
X7170063Y-11063912D01*
X7227206Y-11092484D02*
X7360539Y-11092484D01*
X7360539Y-11092484D02*
X7274825Y-11292484D01*
X7589110Y-11292484D02*
X7589110Y-11092484D01*
X7674825Y-11292484D02*
X7674825Y-11187722D01*
X7674825Y-11187722D02*
X7665301Y-11168674D01*
X7665301Y-11168674D02*
X7646253Y-11159150D01*
X7646253Y-11159150D02*
X7617682Y-11159150D01*
X7617682Y-11159150D02*
X7598634Y-11168674D01*
X7598634Y-11168674D02*
X7589110Y-11178198D01*
X7798634Y-11292484D02*
X7779587Y-11282960D01*
X7779587Y-11282960D02*
X7770063Y-11273436D01*
X7770063Y-11273436D02*
X7760539Y-11254388D01*
X7760539Y-11254388D02*
X7760539Y-11197246D01*
X7760539Y-11197246D02*
X7770063Y-11178198D01*
X7770063Y-11178198D02*
X7779587Y-11168674D01*
X7779587Y-11168674D02*
X7798634Y-11159150D01*
X7798634Y-11159150D02*
X7827206Y-11159150D01*
X7827206Y-11159150D02*
X7846253Y-11168674D01*
X7846253Y-11168674D02*
X7855777Y-11178198D01*
X7855777Y-11178198D02*
X7865301Y-11197246D01*
X7865301Y-11197246D02*
X7865301Y-11254388D01*
X7865301Y-11254388D02*
X7855777Y-11273436D01*
X7855777Y-11273436D02*
X7846253Y-11282960D01*
X7846253Y-11282960D02*
X7827206Y-11292484D01*
X7827206Y-11292484D02*
X7798634Y-11292484D01*
X7979587Y-11292484D02*
X7960539Y-11282960D01*
X7960539Y-11282960D02*
X7951015Y-11263912D01*
X7951015Y-11263912D02*
X7951015Y-11092484D01*
X8131968Y-11282960D02*
X8112920Y-11292484D01*
X8112920Y-11292484D02*
X8074825Y-11292484D01*
X8074825Y-11292484D02*
X8055777Y-11282960D01*
X8055777Y-11282960D02*
X8046253Y-11263912D01*
X8046253Y-11263912D02*
X8046253Y-11187722D01*
X8046253Y-11187722D02*
X8055777Y-11168674D01*
X8055777Y-11168674D02*
X8074825Y-11159150D01*
X8074825Y-11159150D02*
X8112920Y-11159150D01*
X8112920Y-11159150D02*
X8131968Y-11168674D01*
X8131968Y-11168674D02*
X8141491Y-11187722D01*
X8141491Y-11187722D02*
X8141491Y-11206769D01*
X8141491Y-11206769D02*
X8046253Y-11225817D01*
X8217682Y-11282960D02*
X8236730Y-11292484D01*
X8236730Y-11292484D02*
X8274825Y-11292484D01*
X8274825Y-11292484D02*
X8293872Y-11282960D01*
X8293872Y-11282960D02*
X8303396Y-11263912D01*
X8303396Y-11263912D02*
X8303396Y-11254388D01*
X8303396Y-11254388D02*
X8293872Y-11235341D01*
X8293872Y-11235341D02*
X8274825Y-11225817D01*
X8274825Y-11225817D02*
X8246253Y-11225817D01*
X8246253Y-11225817D02*
X8227206Y-11216293D01*
X8227206Y-11216293D02*
X8217682Y-11197246D01*
X8217682Y-11197246D02*
X8217682Y-11187722D01*
X8217682Y-11187722D02*
X8227206Y-11168674D01*
X8227206Y-11168674D02*
X8246253Y-11159150D01*
X8246253Y-11159150D02*
X8274825Y-11159150D01*
X8274825Y-11159150D02*
X8293872Y-11168674D01*
X8370063Y-11368674D02*
X8379587Y-11359150D01*
X8379587Y-11359150D02*
X8398634Y-11330579D01*
X8398634Y-11330579D02*
X8408158Y-11311531D01*
X8408158Y-11311531D02*
X8417682Y-11282960D01*
X8417682Y-11282960D02*
X8427206Y-11235341D01*
X8427206Y-11235341D02*
X8427206Y-11197246D01*
X8427206Y-11197246D02*
X8417682Y-11149627D01*
X8417682Y-11149627D02*
X8408158Y-11121055D01*
X8408158Y-11121055D02*
X8398634Y-11102008D01*
X8398634Y-11102008D02*
X8379587Y-11073436D01*
X8379587Y-11073436D02*
X8370063Y-11063912D01*
X3395000Y-11365000D02*
X3595000Y-11565000D01*
X3595000Y-11365000D02*
X3395000Y-11565000D01*
X3595000Y-11465000D02*
G75*
G03*
X3595000Y-11465000I-100000J0D01*
G01*
X3836729Y-11356484D02*
X3960539Y-11356484D01*
X3960539Y-11356484D02*
X3893872Y-11432674D01*
X3893872Y-11432674D02*
X3922443Y-11432674D01*
X3922443Y-11432674D02*
X3941491Y-11442198D01*
X3941491Y-11442198D02*
X3951015Y-11451722D01*
X3951015Y-11451722D02*
X3960539Y-11470769D01*
X3960539Y-11470769D02*
X3960539Y-11518388D01*
X3960539Y-11518388D02*
X3951015Y-11537436D01*
X3951015Y-11537436D02*
X3941491Y-11546960D01*
X3941491Y-11546960D02*
X3922443Y-11556484D01*
X3922443Y-11556484D02*
X3865301Y-11556484D01*
X3865301Y-11556484D02*
X3846253Y-11546960D01*
X3846253Y-11546960D02*
X3836729Y-11537436D01*
X4046253Y-11537436D02*
X4055777Y-11546960D01*
X4055777Y-11546960D02*
X4046253Y-11556484D01*
X4046253Y-11556484D02*
X4036729Y-11546960D01*
X4036729Y-11546960D02*
X4046253Y-11537436D01*
X4046253Y-11537436D02*
X4046253Y-11556484D01*
X4179586Y-11356484D02*
X4198634Y-11356484D01*
X4198634Y-11356484D02*
X4217682Y-11366008D01*
X4217682Y-11366008D02*
X4227205Y-11375531D01*
X4227205Y-11375531D02*
X4236729Y-11394579D01*
X4236729Y-11394579D02*
X4246253Y-11432674D01*
X4246253Y-11432674D02*
X4246253Y-11480293D01*
X4246253Y-11480293D02*
X4236729Y-11518388D01*
X4236729Y-11518388D02*
X4227205Y-11537436D01*
X4227205Y-11537436D02*
X4217682Y-11546960D01*
X4217682Y-11546960D02*
X4198634Y-11556484D01*
X4198634Y-11556484D02*
X4179586Y-11556484D01*
X4179586Y-11556484D02*
X4160539Y-11546960D01*
X4160539Y-11546960D02*
X4151015Y-11537436D01*
X4151015Y-11537436D02*
X4141491Y-11518388D01*
X4141491Y-11518388D02*
X4131967Y-11480293D01*
X4131967Y-11480293D02*
X4131967Y-11432674D01*
X4131967Y-11432674D02*
X4141491Y-11394579D01*
X4141491Y-11394579D02*
X4151015Y-11375531D01*
X4151015Y-11375531D02*
X4160539Y-11366008D01*
X4160539Y-11366008D02*
X4179586Y-11356484D01*
X4370063Y-11356484D02*
X4389110Y-11356484D01*
X4389110Y-11356484D02*
X4408158Y-11366008D01*
X4408158Y-11366008D02*
X4417682Y-11375531D01*
X4417682Y-11375531D02*
X4427205Y-11394579D01*
X4427205Y-11394579D02*
X4436729Y-11432674D01*
X4436729Y-11432674D02*
X4436729Y-11480293D01*
X4436729Y-11480293D02*
X4427205Y-11518388D01*
X4427205Y-11518388D02*
X4417682Y-11537436D01*
X4417682Y-11537436D02*
X4408158Y-11546960D01*
X4408158Y-11546960D02*
X4389110Y-11556484D01*
X4389110Y-11556484D02*
X4370063Y-11556484D01*
X4370063Y-11556484D02*
X4351015Y-11546960D01*
X4351015Y-11546960D02*
X4341491Y-11537436D01*
X4341491Y-11537436D02*
X4331967Y-11518388D01*
X4331967Y-11518388D02*
X4322444Y-11480293D01*
X4322444Y-11480293D02*
X4322444Y-11432674D01*
X4322444Y-11432674D02*
X4331967Y-11394579D01*
X4331967Y-11394579D02*
X4341491Y-11375531D01*
X4341491Y-11375531D02*
X4351015Y-11366008D01*
X4351015Y-11366008D02*
X4370063Y-11356484D01*
X4560539Y-11356484D02*
X4579586Y-11356484D01*
X4579586Y-11356484D02*
X4598634Y-11366008D01*
X4598634Y-11366008D02*
X4608158Y-11375531D01*
X4608158Y-11375531D02*
X4617682Y-11394579D01*
X4617682Y-11394579D02*
X4627205Y-11432674D01*
X4627205Y-11432674D02*
X4627205Y-11480293D01*
X4627205Y-11480293D02*
X4617682Y-11518388D01*
X4617682Y-11518388D02*
X4608158Y-11537436D01*
X4608158Y-11537436D02*
X4598634Y-11546960D01*
X4598634Y-11546960D02*
X4579586Y-11556484D01*
X4579586Y-11556484D02*
X4560539Y-11556484D01*
X4560539Y-11556484D02*
X4541491Y-11546960D01*
X4541491Y-11546960D02*
X4531967Y-11537436D01*
X4531967Y-11537436D02*
X4522444Y-11518388D01*
X4522444Y-11518388D02*
X4512920Y-11480293D01*
X4512920Y-11480293D02*
X4512920Y-11432674D01*
X4512920Y-11432674D02*
X4522444Y-11394579D01*
X4522444Y-11394579D02*
X4531967Y-11375531D01*
X4531967Y-11375531D02*
X4541491Y-11366008D01*
X4541491Y-11366008D02*
X4560539Y-11356484D01*
X4712920Y-11556484D02*
X4712920Y-11423150D01*
X4712920Y-11442198D02*
X4722444Y-11432674D01*
X4722444Y-11432674D02*
X4741491Y-11423150D01*
X4741491Y-11423150D02*
X4770063Y-11423150D01*
X4770063Y-11423150D02*
X4789110Y-11432674D01*
X4789110Y-11432674D02*
X4798634Y-11451722D01*
X4798634Y-11451722D02*
X4798634Y-11556484D01*
X4798634Y-11451722D02*
X4808158Y-11432674D01*
X4808158Y-11432674D02*
X4827205Y-11423150D01*
X4827205Y-11423150D02*
X4855777Y-11423150D01*
X4855777Y-11423150D02*
X4874825Y-11432674D01*
X4874825Y-11432674D02*
X4884348Y-11451722D01*
X4884348Y-11451722D02*
X4884348Y-11556484D01*
X4979586Y-11556484D02*
X4979586Y-11423150D01*
X4979586Y-11442198D02*
X4989110Y-11432674D01*
X4989110Y-11432674D02*
X5008158Y-11423150D01*
X5008158Y-11423150D02*
X5036729Y-11423150D01*
X5036729Y-11423150D02*
X5055777Y-11432674D01*
X5055777Y-11432674D02*
X5065301Y-11451722D01*
X5065301Y-11451722D02*
X5065301Y-11556484D01*
X5065301Y-11451722D02*
X5074825Y-11432674D01*
X5074825Y-11432674D02*
X5093872Y-11423150D01*
X5093872Y-11423150D02*
X5122444Y-11423150D01*
X5122444Y-11423150D02*
X5141491Y-11432674D01*
X5141491Y-11432674D02*
X5151015Y-11451722D01*
X5151015Y-11451722D02*
X5151015Y-11556484D01*
X5541491Y-11346960D02*
X5370063Y-11604103D01*
X5798634Y-11356484D02*
X5817682Y-11356484D01*
X5817682Y-11356484D02*
X5836729Y-11366008D01*
X5836729Y-11366008D02*
X5846253Y-11375531D01*
X5846253Y-11375531D02*
X5855777Y-11394579D01*
X5855777Y-11394579D02*
X5865301Y-11432674D01*
X5865301Y-11432674D02*
X5865301Y-11480293D01*
X5865301Y-11480293D02*
X5855777Y-11518388D01*
X5855777Y-11518388D02*
X5846253Y-11537436D01*
X5846253Y-11537436D02*
X5836729Y-11546960D01*
X5836729Y-11546960D02*
X5817682Y-11556484D01*
X5817682Y-11556484D02*
X5798634Y-11556484D01*
X5798634Y-11556484D02*
X5779586Y-11546960D01*
X5779586Y-11546960D02*
X5770063Y-11537436D01*
X5770063Y-11537436D02*
X5760539Y-11518388D01*
X5760539Y-11518388D02*
X5751015Y-11480293D01*
X5751015Y-11480293D02*
X5751015Y-11432674D01*
X5751015Y-11432674D02*
X5760539Y-11394579D01*
X5760539Y-11394579D02*
X5770063Y-11375531D01*
X5770063Y-11375531D02*
X5779586Y-11366008D01*
X5779586Y-11366008D02*
X5798634Y-11356484D01*
X5951015Y-11537436D02*
X5960539Y-11546960D01*
X5960539Y-11546960D02*
X5951015Y-11556484D01*
X5951015Y-11556484D02*
X5941491Y-11546960D01*
X5941491Y-11546960D02*
X5951015Y-11537436D01*
X5951015Y-11537436D02*
X5951015Y-11556484D01*
X6151015Y-11556484D02*
X6036729Y-11556484D01*
X6093872Y-11556484D02*
X6093872Y-11356484D01*
X6093872Y-11356484D02*
X6074825Y-11385055D01*
X6074825Y-11385055D02*
X6055777Y-11404103D01*
X6055777Y-11404103D02*
X6036729Y-11413627D01*
X6341491Y-11556484D02*
X6227206Y-11556484D01*
X6284348Y-11556484D02*
X6284348Y-11356484D01*
X6284348Y-11356484D02*
X6265301Y-11385055D01*
X6265301Y-11385055D02*
X6246253Y-11404103D01*
X6246253Y-11404103D02*
X6227206Y-11413627D01*
X6455777Y-11442198D02*
X6436729Y-11432674D01*
X6436729Y-11432674D02*
X6427206Y-11423150D01*
X6427206Y-11423150D02*
X6417682Y-11404103D01*
X6417682Y-11404103D02*
X6417682Y-11394579D01*
X6417682Y-11394579D02*
X6427206Y-11375531D01*
X6427206Y-11375531D02*
X6436729Y-11366008D01*
X6436729Y-11366008D02*
X6455777Y-11356484D01*
X6455777Y-11356484D02*
X6493872Y-11356484D01*
X6493872Y-11356484D02*
X6512920Y-11366008D01*
X6512920Y-11366008D02*
X6522444Y-11375531D01*
X6522444Y-11375531D02*
X6531967Y-11394579D01*
X6531967Y-11394579D02*
X6531967Y-11404103D01*
X6531967Y-11404103D02*
X6522444Y-11423150D01*
X6522444Y-11423150D02*
X6512920Y-11432674D01*
X6512920Y-11432674D02*
X6493872Y-11442198D01*
X6493872Y-11442198D02*
X6455777Y-11442198D01*
X6455777Y-11442198D02*
X6436729Y-11451722D01*
X6436729Y-11451722D02*
X6427206Y-11461246D01*
X6427206Y-11461246D02*
X6417682Y-11480293D01*
X6417682Y-11480293D02*
X6417682Y-11518388D01*
X6417682Y-11518388D02*
X6427206Y-11537436D01*
X6427206Y-11537436D02*
X6436729Y-11546960D01*
X6436729Y-11546960D02*
X6455777Y-11556484D01*
X6455777Y-11556484D02*
X6493872Y-11556484D01*
X6493872Y-11556484D02*
X6512920Y-11546960D01*
X6512920Y-11546960D02*
X6522444Y-11537436D01*
X6522444Y-11537436D02*
X6531967Y-11518388D01*
X6531967Y-11518388D02*
X6531967Y-11480293D01*
X6531967Y-11480293D02*
X6522444Y-11461246D01*
X6522444Y-11461246D02*
X6512920Y-11451722D01*
X6512920Y-11451722D02*
X6493872Y-11442198D01*
X6722444Y-11556484D02*
X6608158Y-11556484D01*
X6665301Y-11556484D02*
X6665301Y-11356484D01*
X6665301Y-11356484D02*
X6646253Y-11385055D01*
X6646253Y-11385055D02*
X6627206Y-11404103D01*
X6627206Y-11404103D02*
X6608158Y-11413627D01*
X6798634Y-11356484D02*
X6798634Y-11394579D01*
X6874825Y-11356484D02*
X6874825Y-11394579D01*
X7170063Y-11632674D02*
X7160539Y-11623150D01*
X7160539Y-11623150D02*
X7141491Y-11594579D01*
X7141491Y-11594579D02*
X7131968Y-11575531D01*
X7131968Y-11575531D02*
X7122444Y-11546960D01*
X7122444Y-11546960D02*
X7112920Y-11499341D01*
X7112920Y-11499341D02*
X7112920Y-11461246D01*
X7112920Y-11461246D02*
X7122444Y-11413627D01*
X7122444Y-11413627D02*
X7131968Y-11385055D01*
X7131968Y-11385055D02*
X7141491Y-11366008D01*
X7141491Y-11366008D02*
X7160539Y-11337436D01*
X7160539Y-11337436D02*
X7170063Y-11327912D01*
X7236729Y-11375531D02*
X7246253Y-11366008D01*
X7246253Y-11366008D02*
X7265301Y-11356484D01*
X7265301Y-11356484D02*
X7312920Y-11356484D01*
X7312920Y-11356484D02*
X7331968Y-11366008D01*
X7331968Y-11366008D02*
X7341491Y-11375531D01*
X7341491Y-11375531D02*
X7351015Y-11394579D01*
X7351015Y-11394579D02*
X7351015Y-11413627D01*
X7351015Y-11413627D02*
X7341491Y-11442198D01*
X7341491Y-11442198D02*
X7227206Y-11556484D01*
X7227206Y-11556484D02*
X7351015Y-11556484D01*
X7589110Y-11556484D02*
X7589110Y-11356484D01*
X7674825Y-11556484D02*
X7674825Y-11451722D01*
X7674825Y-11451722D02*
X7665301Y-11432674D01*
X7665301Y-11432674D02*
X7646253Y-11423150D01*
X7646253Y-11423150D02*
X7617682Y-11423150D01*
X7617682Y-11423150D02*
X7598634Y-11432674D01*
X7598634Y-11432674D02*
X7589110Y-11442198D01*
X7798634Y-11556484D02*
X7779587Y-11546960D01*
X7779587Y-11546960D02*
X7770063Y-11537436D01*
X7770063Y-11537436D02*
X7760539Y-11518388D01*
X7760539Y-11518388D02*
X7760539Y-11461246D01*
X7760539Y-11461246D02*
X7770063Y-11442198D01*
X7770063Y-11442198D02*
X7779587Y-11432674D01*
X7779587Y-11432674D02*
X7798634Y-11423150D01*
X7798634Y-11423150D02*
X7827206Y-11423150D01*
X7827206Y-11423150D02*
X7846253Y-11432674D01*
X7846253Y-11432674D02*
X7855777Y-11442198D01*
X7855777Y-11442198D02*
X7865301Y-11461246D01*
X7865301Y-11461246D02*
X7865301Y-11518388D01*
X7865301Y-11518388D02*
X7855777Y-11537436D01*
X7855777Y-11537436D02*
X7846253Y-11546960D01*
X7846253Y-11546960D02*
X7827206Y-11556484D01*
X7827206Y-11556484D02*
X7798634Y-11556484D01*
X7979587Y-11556484D02*
X7960539Y-11546960D01*
X7960539Y-11546960D02*
X7951015Y-11527912D01*
X7951015Y-11527912D02*
X7951015Y-11356484D01*
X8131968Y-11546960D02*
X8112920Y-11556484D01*
X8112920Y-11556484D02*
X8074825Y-11556484D01*
X8074825Y-11556484D02*
X8055777Y-11546960D01*
X8055777Y-11546960D02*
X8046253Y-11527912D01*
X8046253Y-11527912D02*
X8046253Y-11451722D01*
X8046253Y-11451722D02*
X8055777Y-11432674D01*
X8055777Y-11432674D02*
X8074825Y-11423150D01*
X8074825Y-11423150D02*
X8112920Y-11423150D01*
X8112920Y-11423150D02*
X8131968Y-11432674D01*
X8131968Y-11432674D02*
X8141491Y-11451722D01*
X8141491Y-11451722D02*
X8141491Y-11470769D01*
X8141491Y-11470769D02*
X8046253Y-11489817D01*
X8217682Y-11546960D02*
X8236730Y-11556484D01*
X8236730Y-11556484D02*
X8274825Y-11556484D01*
X8274825Y-11556484D02*
X8293872Y-11546960D01*
X8293872Y-11546960D02*
X8303396Y-11527912D01*
X8303396Y-11527912D02*
X8303396Y-11518388D01*
X8303396Y-11518388D02*
X8293872Y-11499341D01*
X8293872Y-11499341D02*
X8274825Y-11489817D01*
X8274825Y-11489817D02*
X8246253Y-11489817D01*
X8246253Y-11489817D02*
X8227206Y-11480293D01*
X8227206Y-11480293D02*
X8217682Y-11461246D01*
X8217682Y-11461246D02*
X8217682Y-11451722D01*
X8217682Y-11451722D02*
X8227206Y-11432674D01*
X8227206Y-11432674D02*
X8246253Y-11423150D01*
X8246253Y-11423150D02*
X8274825Y-11423150D01*
X8274825Y-11423150D02*
X8293872Y-11432674D01*
X8370063Y-11632674D02*
X8379587Y-11623150D01*
X8379587Y-11623150D02*
X8398634Y-11594579D01*
X8398634Y-11594579D02*
X8408158Y-11575531D01*
X8408158Y-11575531D02*
X8417682Y-11546960D01*
X8417682Y-11546960D02*
X8427206Y-11499341D01*
X8427206Y-11499341D02*
X8427206Y-11461246D01*
X8427206Y-11461246D02*
X8417682Y-11413627D01*
X8417682Y-11413627D02*
X8408158Y-11385055D01*
X8408158Y-11385055D02*
X8398634Y-11366008D01*
X8398634Y-11366008D02*
X8379587Y-11337436D01*
X8379587Y-11337436D02*
X8370063Y-11327912D01*
M02*
