G04 #@! TF.GenerationSoftware,KiCad,Pcbnew,7.0.7*
G04 #@! TF.CreationDate,2023-09-29T07:28:47+02:00*
G04 #@! TF.ProjectId,shmoergh-dual-rail-psu,73686d6f-6572-4676-982d-6475616c2d72,rev?*
G04 #@! TF.SameCoordinates,Original*
G04 #@! TF.FileFunction,Copper,L1,Top*
G04 #@! TF.FilePolarity,Positive*
%FSLAX46Y46*%
G04 Gerber Fmt 4.6, Leading zero omitted, Abs format (unit mm)*
G04 Created by KiCad (PCBNEW 7.0.7) date 2023-09-29 07:28:47*
%MOMM*%
%LPD*%
G01*
G04 APERTURE LIST*
G04 Aperture macros list*
%AMRoundRect*
0 Rectangle with rounded corners*
0 $1 Rounding radius*
0 $2 $3 $4 $5 $6 $7 $8 $9 X,Y pos of 4 corners*
0 Add a 4 corners polygon primitive as box body*
4,1,4,$2,$3,$4,$5,$6,$7,$8,$9,$2,$3,0*
0 Add four circle primitives for the rounded corners*
1,1,$1+$1,$2,$3*
1,1,$1+$1,$4,$5*
1,1,$1+$1,$6,$7*
1,1,$1+$1,$8,$9*
0 Add four rect primitives between the rounded corners*
20,1,$1+$1,$2,$3,$4,$5,0*
20,1,$1+$1,$4,$5,$6,$7,0*
20,1,$1+$1,$6,$7,$8,$9,0*
20,1,$1+$1,$8,$9,$2,$3,0*%
G04 Aperture macros list end*
G04 #@! TA.AperFunction,ComponentPad*
%ADD10R,2.600000X2.600000*%
G04 #@! TD*
G04 #@! TA.AperFunction,ComponentPad*
%ADD11C,2.600000*%
G04 #@! TD*
G04 #@! TA.AperFunction,SMDPad,CuDef*
%ADD12RoundRect,0.135000X0.135000X0.185000X-0.135000X0.185000X-0.135000X-0.185000X0.135000X-0.185000X0*%
G04 #@! TD*
G04 #@! TA.AperFunction,SMDPad,CuDef*
%ADD13RoundRect,0.200000X0.200000X0.275000X-0.200000X0.275000X-0.200000X-0.275000X0.200000X-0.275000X0*%
G04 #@! TD*
G04 #@! TA.AperFunction,SMDPad,CuDef*
%ADD14R,5.400000X2.900000*%
G04 #@! TD*
G04 #@! TA.AperFunction,SMDPad,CuDef*
%ADD15R,2.500000X1.900000*%
G04 #@! TD*
G04 #@! TA.AperFunction,SMDPad,CuDef*
%ADD16RoundRect,0.218750X0.218750X0.256250X-0.218750X0.256250X-0.218750X-0.256250X0.218750X-0.256250X0*%
G04 #@! TD*
G04 #@! TA.AperFunction,SMDPad,CuDef*
%ADD17RoundRect,0.200000X-0.275000X0.200000X-0.275000X-0.200000X0.275000X-0.200000X0.275000X0.200000X0*%
G04 #@! TD*
G04 #@! TA.AperFunction,SMDPad,CuDef*
%ADD18RoundRect,0.225000X0.250000X-0.225000X0.250000X0.225000X-0.250000X0.225000X-0.250000X-0.225000X0*%
G04 #@! TD*
G04 #@! TA.AperFunction,SMDPad,CuDef*
%ADD19RoundRect,0.150000X0.587500X0.150000X-0.587500X0.150000X-0.587500X-0.150000X0.587500X-0.150000X0*%
G04 #@! TD*
G04 #@! TA.AperFunction,SMDPad,CuDef*
%ADD20RoundRect,0.250000X0.650000X-0.325000X0.650000X0.325000X-0.650000X0.325000X-0.650000X-0.325000X0*%
G04 #@! TD*
G04 #@! TA.AperFunction,SMDPad,CuDef*
%ADD21RoundRect,0.225000X-0.375000X0.225000X-0.375000X-0.225000X0.375000X-0.225000X0.375000X0.225000X0*%
G04 #@! TD*
G04 #@! TA.AperFunction,SMDPad,CuDef*
%ADD22RoundRect,0.140000X-0.170000X0.140000X-0.170000X-0.140000X0.170000X-0.140000X0.170000X0.140000X0*%
G04 #@! TD*
G04 #@! TA.AperFunction,SMDPad,CuDef*
%ADD23RoundRect,0.200000X0.275000X-0.200000X0.275000X0.200000X-0.275000X0.200000X-0.275000X-0.200000X0*%
G04 #@! TD*
G04 #@! TA.AperFunction,SMDPad,CuDef*
%ADD24RoundRect,0.225000X0.225000X0.250000X-0.225000X0.250000X-0.225000X-0.250000X0.225000X-0.250000X0*%
G04 #@! TD*
G04 #@! TA.AperFunction,SMDPad,CuDef*
%ADD25RoundRect,0.225000X-0.225000X-0.375000X0.225000X-0.375000X0.225000X0.375000X-0.225000X0.375000X0*%
G04 #@! TD*
G04 #@! TA.AperFunction,ComponentPad*
%ADD26C,0.800000*%
G04 #@! TD*
G04 #@! TA.AperFunction,ComponentPad*
%ADD27C,6.000000*%
G04 #@! TD*
G04 #@! TA.AperFunction,SMDPad,CuDef*
%ADD28RoundRect,0.225000X-0.250000X0.225000X-0.250000X-0.225000X0.250000X-0.225000X0.250000X0.225000X0*%
G04 #@! TD*
G04 #@! TA.AperFunction,SMDPad,CuDef*
%ADD29RoundRect,0.135000X-0.135000X-0.185000X0.135000X-0.185000X0.135000X0.185000X-0.135000X0.185000X0*%
G04 #@! TD*
G04 #@! TA.AperFunction,SMDPad,CuDef*
%ADD30RoundRect,0.062500X0.062500X-0.350000X0.062500X0.350000X-0.062500X0.350000X-0.062500X-0.350000X0*%
G04 #@! TD*
G04 #@! TA.AperFunction,SMDPad,CuDef*
%ADD31RoundRect,0.062500X0.350000X-0.062500X0.350000X0.062500X-0.350000X0.062500X-0.350000X-0.062500X0*%
G04 #@! TD*
G04 #@! TA.AperFunction,SMDPad,CuDef*
%ADD32R,2.600000X2.600000*%
G04 #@! TD*
G04 #@! TA.AperFunction,SMDPad,CuDef*
%ADD33R,2.950000X4.500000*%
G04 #@! TD*
G04 #@! TA.AperFunction,SMDPad,CuDef*
%ADD34R,2.600000X3.100000*%
G04 #@! TD*
G04 #@! TA.AperFunction,SMDPad,CuDef*
%ADD35R,1.550000X0.600000*%
G04 #@! TD*
G04 #@! TA.AperFunction,SMDPad,CuDef*
%ADD36RoundRect,0.250000X-0.250000X-0.475000X0.250000X-0.475000X0.250000X0.475000X-0.250000X0.475000X0*%
G04 #@! TD*
G04 #@! TA.AperFunction,SMDPad,CuDef*
%ADD37RoundRect,0.250000X1.412500X0.550000X-1.412500X0.550000X-1.412500X-0.550000X1.412500X-0.550000X0*%
G04 #@! TD*
G04 #@! TA.AperFunction,SMDPad,CuDef*
%ADD38RoundRect,0.250000X0.250000X0.475000X-0.250000X0.475000X-0.250000X-0.475000X0.250000X-0.475000X0*%
G04 #@! TD*
G04 #@! TA.AperFunction,ViaPad*
%ADD39C,0.800000*%
G04 #@! TD*
G04 #@! TA.AperFunction,ViaPad*
%ADD40C,0.600000*%
G04 #@! TD*
G04 #@! TA.AperFunction,ViaPad*
%ADD41C,1.000000*%
G04 #@! TD*
G04 #@! TA.AperFunction,Conductor*
%ADD42C,0.300000*%
G04 #@! TD*
G04 #@! TA.AperFunction,Conductor*
%ADD43C,1.000000*%
G04 #@! TD*
G04 #@! TA.AperFunction,Conductor*
%ADD44C,0.500000*%
G04 #@! TD*
G04 #@! TA.AperFunction,Conductor*
%ADD45C,1.500000*%
G04 #@! TD*
G04 #@! TA.AperFunction,Conductor*
%ADD46C,0.750000*%
G04 #@! TD*
G04 #@! TA.AperFunction,Conductor*
%ADD47C,0.250000*%
G04 #@! TD*
G04 APERTURE END LIST*
D10*
X72540402Y-64922400D03*
D11*
X67540402Y-64922400D03*
X62540402Y-64922400D03*
D12*
X57527000Y-66675000D03*
X58547000Y-66675000D03*
D13*
X47993800Y-79956600D03*
X49643800Y-79956600D03*
D14*
X61137800Y-79959600D03*
X61137800Y-89859600D03*
D15*
X75873100Y-89493800D03*
X75873100Y-85393800D03*
D16*
X79400500Y-65000750D03*
X77825500Y-65000750D03*
D17*
X81588100Y-72031800D03*
X81588100Y-73681800D03*
D18*
X79937100Y-73631800D03*
X79937100Y-72081800D03*
D19*
X87544600Y-85496400D03*
X87544600Y-83596400D03*
X85669600Y-84546400D03*
D16*
X95529500Y-65278000D03*
X93954500Y-65278000D03*
D20*
X41452800Y-82115600D03*
X41452800Y-85065600D03*
D21*
X86922100Y-75794600D03*
X86922100Y-79094600D03*
D22*
X82321400Y-80977800D03*
X82321400Y-81937800D03*
D17*
X77778100Y-78699800D03*
X77778100Y-80349800D03*
D23*
X76127100Y-80349800D03*
X76127100Y-78699800D03*
D18*
X80445100Y-84934800D03*
X80445100Y-83384800D03*
D24*
X83646100Y-83397800D03*
X82096100Y-83397800D03*
D23*
X74476100Y-80348800D03*
X74476100Y-78698800D03*
D11*
X39039800Y-77811000D03*
D10*
X39039800Y-72811000D03*
D25*
X47674800Y-88338600D03*
X44374800Y-88338600D03*
D22*
X51485800Y-86659600D03*
X51485800Y-85699600D03*
D11*
X84315202Y-64922400D03*
D10*
X89315202Y-64922400D03*
D26*
X41807010Y-65592010D03*
X41148000Y-67183000D03*
X41148000Y-64001020D03*
X39557010Y-67842010D03*
D27*
X39557010Y-65592010D03*
D26*
X39557010Y-63342010D03*
X37966020Y-67183000D03*
X37966020Y-64001020D03*
X37307010Y-65592010D03*
D28*
X84890100Y-72081800D03*
X84890100Y-73631800D03*
D24*
X77804100Y-77047800D03*
X76254100Y-77047800D03*
D19*
X39573200Y-87833200D03*
X41448200Y-86883200D03*
X41448200Y-88783200D03*
D16*
X56661502Y-64955200D03*
X58236502Y-64955200D03*
D29*
X76807600Y-66677150D03*
X77827600Y-66677150D03*
D30*
X80370600Y-79727300D03*
X80870600Y-79727300D03*
X81370600Y-79727300D03*
X81870600Y-79727300D03*
X82370600Y-79727300D03*
X82870600Y-79727300D03*
D31*
X83558100Y-79039800D03*
X83558100Y-78539800D03*
X83558100Y-78039800D03*
X83558100Y-77539800D03*
X83558100Y-77039800D03*
X83558100Y-76539800D03*
D30*
X82870600Y-75852300D03*
X82370600Y-75852300D03*
X81870600Y-75852300D03*
X81370600Y-75852300D03*
X80870600Y-75852300D03*
X80370600Y-75852300D03*
D31*
X79683100Y-76539800D03*
X79683100Y-77039800D03*
X79683100Y-77539800D03*
X79683100Y-78039800D03*
X79683100Y-78539800D03*
X79683100Y-79039800D03*
D32*
X81620600Y-77789800D03*
D13*
X52311800Y-79956600D03*
X53961800Y-79956600D03*
D33*
X47005800Y-83801600D03*
D34*
X47005800Y-83801600D03*
D35*
X44305800Y-85706600D03*
X44305800Y-84436600D03*
X44305800Y-83166600D03*
X44305800Y-81896600D03*
X49705800Y-81896600D03*
X49705800Y-83166600D03*
X49705800Y-84436600D03*
X49705800Y-85706600D03*
D25*
X72571100Y-82762800D03*
X75871100Y-82762800D03*
D15*
X91494100Y-74616800D03*
X91494100Y-78716800D03*
D17*
X83239100Y-72031800D03*
X83239100Y-73681800D03*
D12*
X94972600Y-66725800D03*
X93952600Y-66725800D03*
D24*
X78092600Y-74625200D03*
X76542600Y-74625200D03*
D36*
X86934000Y-81102200D03*
X88834000Y-81102200D03*
D37*
X52250300Y-73987600D03*
X57325300Y-73987600D03*
D26*
X92274000Y-91440000D03*
X92933010Y-89849010D03*
X92933010Y-93030990D03*
X94524000Y-89190000D03*
D27*
X94524000Y-91440000D03*
D26*
X94524000Y-93690000D03*
X96114990Y-89849010D03*
X96114990Y-93030990D03*
X96774000Y-91440000D03*
D13*
X85229200Y-81238800D03*
X83579200Y-81238800D03*
D38*
X72571100Y-80349800D03*
X70671100Y-80349800D03*
D39*
X90805000Y-87630000D03*
X90805000Y-85725000D03*
X94615000Y-86995000D03*
X92710000Y-87630000D03*
X92710000Y-85725000D03*
X94615000Y-83820000D03*
X94615000Y-85725000D03*
X96520000Y-87630000D03*
X96520000Y-85725000D03*
X96520000Y-83820000D03*
X96520000Y-81915000D03*
X96520000Y-80010000D03*
X96520000Y-78105000D03*
X96520000Y-76200000D03*
X96520000Y-74295000D03*
X96520000Y-72390000D03*
X95504000Y-71120000D03*
X97155000Y-70485000D03*
X97155000Y-68580000D03*
X95631000Y-69215000D03*
X93345000Y-68580000D03*
X92075000Y-67310000D03*
X95885000Y-62865000D03*
X93980000Y-62865000D03*
X92075000Y-62865000D03*
D40*
X89027000Y-77343000D03*
X89027000Y-78359000D03*
X89027000Y-79502000D03*
X91059000Y-80010000D03*
X90170000Y-80899000D03*
X91948000Y-81026000D03*
X90932000Y-81915000D03*
X80391000Y-81280000D03*
X81153000Y-81153000D03*
X81280000Y-82169000D03*
X80391000Y-82169000D03*
D39*
X82550000Y-62865000D03*
X86360000Y-62865000D03*
X86360000Y-66675000D03*
X88900000Y-71755000D03*
X89535000Y-70485000D03*
X88265000Y-69215000D03*
X86360000Y-68580000D03*
X84455000Y-68580000D03*
X82550000Y-68580000D03*
X80645000Y-68580000D03*
X78740000Y-68580000D03*
X80645000Y-66675000D03*
X80645000Y-64770000D03*
X80645000Y-62865000D03*
X78105000Y-62865000D03*
X76200000Y-64135000D03*
X69850000Y-66040000D03*
X64770000Y-66040000D03*
X64770000Y-67945000D03*
X66675000Y-67945000D03*
X68580000Y-67945000D03*
X70485000Y-67945000D03*
X76200000Y-71755000D03*
X78105000Y-71755000D03*
X76835000Y-73025000D03*
X74930000Y-73025000D03*
X74930000Y-74930000D03*
X74930000Y-76835000D03*
X70485000Y-73025000D03*
X70485000Y-74930000D03*
X70485000Y-76835000D03*
X70485000Y-78740000D03*
X70485000Y-81915000D03*
X70485000Y-83185000D03*
X70485000Y-85090000D03*
X72390000Y-86995000D03*
X70485000Y-86995000D03*
X70485000Y-88900000D03*
X72390000Y-88900000D03*
X72390000Y-90805000D03*
X70485000Y-90805000D03*
X47625000Y-86995000D03*
X46355000Y-86995000D03*
X46355000Y-88265000D03*
X64135000Y-93980000D03*
X62230000Y-93980000D03*
X60325000Y-93980000D03*
X58420000Y-93980000D03*
X56515000Y-93980000D03*
X54610000Y-93980000D03*
X52705000Y-93980000D03*
X50800000Y-93980000D03*
X48895000Y-93980000D03*
X46990000Y-93980000D03*
X45085000Y-93980000D03*
X43180000Y-93980000D03*
X41275000Y-93980000D03*
X39370000Y-93980000D03*
X37465000Y-93980000D03*
X37465000Y-92075000D03*
X39370000Y-92075000D03*
X41275000Y-92075000D03*
X41275000Y-90170000D03*
X39370000Y-90170000D03*
X37465000Y-90170000D03*
X53340000Y-77470000D03*
X53340000Y-76200000D03*
X51435000Y-78105000D03*
X48895000Y-78105000D03*
X51435000Y-76200000D03*
X46355000Y-78740000D03*
X43815000Y-78740000D03*
X41275000Y-78740000D03*
X41275000Y-76200000D03*
X43815000Y-76200000D03*
X46355000Y-76200000D03*
X48895000Y-76200000D03*
X48895000Y-73660000D03*
X46355000Y-73660000D03*
X43815000Y-73660000D03*
X41275000Y-73660000D03*
X41275000Y-71120000D03*
X43815000Y-71120000D03*
X46355000Y-71120000D03*
X48895000Y-71120000D03*
X51435000Y-71120000D03*
X53975000Y-71120000D03*
X56515000Y-71120000D03*
X59055000Y-71120000D03*
X59055000Y-68580000D03*
X56515000Y-68580000D03*
X53975000Y-68580000D03*
X51435000Y-68580000D03*
X48895000Y-68580000D03*
X46355000Y-68580000D03*
X43815000Y-68580000D03*
X43815000Y-66040000D03*
X46355000Y-66040000D03*
X48895000Y-66040000D03*
X51435000Y-66040000D03*
X53975000Y-66040000D03*
X53975000Y-63500000D03*
X51435000Y-63500000D03*
X48895000Y-63500000D03*
X46355000Y-63500000D03*
X43815000Y-63500000D03*
D40*
X81635600Y-77800200D03*
X82499200Y-76962000D03*
X82499200Y-77800200D03*
X82499200Y-78663800D03*
X80746600Y-78663800D03*
X46355000Y-82067400D03*
X80746600Y-77800200D03*
X46380400Y-85369400D03*
X47625000Y-84302600D03*
X78308200Y-80879900D03*
X46380400Y-83134200D03*
X80746600Y-76936600D03*
X81635600Y-76936600D03*
X47650400Y-82067400D03*
X77038200Y-80899000D03*
X47625000Y-85369400D03*
X81635600Y-78663800D03*
X47625000Y-83083400D03*
X46380400Y-84277200D03*
X84836000Y-78384400D03*
X83210400Y-82016600D03*
D41*
X86410800Y-77343000D03*
X85852000Y-74523600D03*
D40*
X85420200Y-79248000D03*
X87376000Y-84582000D03*
D42*
X93345000Y-71501000D02*
X94500000Y-70346000D01*
X94500000Y-70346000D02*
X94500000Y-68269339D01*
X94500000Y-68269339D02*
X94996000Y-67773339D01*
X94996000Y-67773339D02*
X94996000Y-66749200D01*
X94996000Y-66749200D02*
X94972600Y-66725800D01*
D43*
X89315202Y-67471202D02*
X93345000Y-71501000D01*
X93345000Y-71501000D02*
X94234000Y-72390000D01*
X85598000Y-70231000D02*
X79629000Y-70231000D01*
X79629000Y-70231000D02*
X76708000Y-70231000D01*
D42*
X79400500Y-65000750D02*
X79629000Y-65229250D01*
X79629000Y-65229250D02*
X79629000Y-70231000D01*
X60831202Y-66631600D02*
X58590400Y-66631600D01*
X58590400Y-66631600D02*
X58547000Y-66675000D01*
D44*
X56661502Y-64955200D02*
X57527000Y-65820698D01*
X57527000Y-65820698D02*
X57527000Y-66675000D01*
D42*
X60831202Y-66631600D02*
X62540402Y-64922400D01*
D43*
X76708000Y-70231000D02*
X75311000Y-70231000D01*
X89315202Y-64922400D02*
X89315202Y-67471202D01*
X94234000Y-72390000D02*
X94234000Y-81026000D01*
X91821000Y-83439000D02*
X89154000Y-83439000D01*
X94234000Y-81026000D02*
X91821000Y-83439000D01*
X85852000Y-74523600D02*
X85852000Y-73914000D01*
X86741000Y-71374000D02*
X85598000Y-70231000D01*
X86741000Y-73025000D02*
X86741000Y-71374000D01*
X85852000Y-73914000D02*
X86741000Y-73025000D01*
X72540402Y-67460402D02*
X72540402Y-64922400D01*
X75311000Y-70231000D02*
X72540402Y-67460402D01*
D45*
X72571100Y-80349800D02*
X72571100Y-72317100D01*
X70866000Y-70612000D02*
X64262000Y-70612000D01*
X72571100Y-72317100D02*
X70866000Y-70612000D01*
X64262000Y-70612000D02*
X62540402Y-68890402D01*
X62540402Y-68890402D02*
X62540402Y-64922400D01*
X39039800Y-79324200D02*
X38481000Y-79883000D01*
D44*
X43350800Y-84436600D02*
X42721800Y-85065600D01*
X44305800Y-84436600D02*
X43350800Y-84436600D01*
X42721800Y-85065600D02*
X41452800Y-85065600D01*
X77587400Y-80349800D02*
X77038200Y-80899000D01*
X42602800Y-83166600D02*
X41551800Y-82115600D01*
X77778100Y-80349800D02*
X77587400Y-80349800D01*
X44305800Y-83166600D02*
X42602800Y-83166600D01*
X78308200Y-80879900D02*
X77778100Y-80349800D01*
D42*
X79683100Y-76539800D02*
X79683100Y-75923900D01*
D46*
X44305800Y-83166600D02*
X46370800Y-83166600D01*
D44*
X41551800Y-82115600D02*
X41452800Y-82115600D01*
X46380400Y-83134200D02*
X46888400Y-82880200D01*
D46*
X46370800Y-83166600D02*
X47005800Y-83801600D01*
D42*
X79683100Y-75923900D02*
X79451200Y-75692000D01*
D44*
X46340800Y-83166600D02*
X46380400Y-83134200D01*
X46888400Y-82880200D02*
X46405800Y-83101600D01*
X45999400Y-82804000D02*
X46340800Y-83166600D01*
D46*
X49705800Y-85706600D02*
X51478800Y-85706600D01*
X51478800Y-85706600D02*
X51485800Y-85699600D01*
D47*
X83388200Y-81304800D02*
X83322200Y-81238800D01*
D42*
X84836000Y-77139800D02*
X84836000Y-77520800D01*
X84836000Y-78054200D02*
X84836000Y-78384400D01*
X84836000Y-77520800D02*
X84836000Y-78054200D01*
X83558100Y-78039800D02*
X84821600Y-78039800D01*
X82321400Y-80977800D02*
X81870600Y-80527000D01*
X84836000Y-78384400D02*
X84680600Y-78539800D01*
D47*
X83388200Y-81838800D02*
X83388200Y-81304800D01*
D42*
X83558100Y-77539800D02*
X84817000Y-77539800D01*
X84736000Y-77039800D02*
X84836000Y-77139800D01*
D47*
X83210400Y-82016600D02*
X83388200Y-81838800D01*
D42*
X84817000Y-77539800D02*
X84836000Y-77520800D01*
X82552600Y-80977800D02*
X82321400Y-80977800D01*
X83558100Y-77039800D02*
X84736000Y-77039800D01*
X84680600Y-78539800D02*
X83558100Y-78539800D01*
X84821600Y-78039800D02*
X84836000Y-78054200D01*
D47*
X83195200Y-82001400D02*
X83210400Y-82016600D01*
D42*
X82813600Y-81238800D02*
X82552600Y-80977800D01*
X83195200Y-81238800D02*
X82813600Y-81238800D01*
X81870600Y-80527000D02*
X81870600Y-79727300D01*
X79683100Y-78539800D02*
X78940200Y-78539800D01*
X76454000Y-79502000D02*
X76127100Y-79828900D01*
X76127100Y-80349800D02*
X74477100Y-80349800D01*
X78333600Y-79502000D02*
X76454000Y-79502000D01*
X78689200Y-78790800D02*
X78689200Y-79146400D01*
X76127100Y-79828900D02*
X76127100Y-80349800D01*
X78689200Y-79146400D02*
X78333600Y-79502000D01*
X78940200Y-78539800D02*
X78689200Y-78790800D01*
X74477100Y-80349800D02*
X74476100Y-80348800D01*
X78438100Y-78039800D02*
X77778100Y-78699800D01*
X76127100Y-78699800D02*
X74477100Y-78699800D01*
X74477100Y-78699800D02*
X74476100Y-78698800D01*
X77778100Y-78699800D02*
X76127100Y-78699800D01*
X79683100Y-78039800D02*
X78438100Y-78039800D01*
X79683100Y-77539800D02*
X78296100Y-77539800D01*
X78296100Y-77539800D02*
X77804100Y-77047800D01*
X80370600Y-75138200D02*
X79857600Y-74625200D01*
X80370600Y-75852300D02*
X80370600Y-75138200D01*
X79857600Y-74625200D02*
X78092600Y-74625200D01*
D44*
X83289100Y-73631800D02*
X83239100Y-73681800D01*
X84890100Y-73631800D02*
X83289100Y-73631800D01*
D42*
X81870600Y-75852300D02*
X81870600Y-75050300D01*
D46*
X86922100Y-77854300D02*
X86410800Y-77343000D01*
X85852000Y-74523600D02*
X85781900Y-74523600D01*
X85781900Y-74523600D02*
X84890100Y-73631800D01*
X86934000Y-81102200D02*
X86934000Y-79106500D01*
D42*
X81870600Y-75050300D02*
X83239100Y-73681800D01*
D46*
X86922100Y-79094600D02*
X86922100Y-77854300D01*
X86934000Y-79106500D02*
X86922100Y-79094600D01*
D42*
X81370600Y-73899300D02*
X81588100Y-73681800D01*
X81370600Y-75852300D02*
X81370600Y-73899300D01*
D44*
X81589100Y-73681800D02*
X83239100Y-72031800D01*
X83289100Y-72081800D02*
X83239100Y-72031800D01*
X81588100Y-73681800D02*
X81589100Y-73681800D01*
X84890100Y-72081800D02*
X83289100Y-72081800D01*
D42*
X80870600Y-74565300D02*
X79937100Y-73631800D01*
D44*
X79937100Y-73631800D02*
X79988100Y-73631800D01*
D42*
X80870600Y-75852300D02*
X80870600Y-74565300D01*
D44*
X79988100Y-73631800D02*
X81588100Y-72031800D01*
X93954500Y-65278000D02*
X93954500Y-66723900D01*
X93954500Y-66723900D02*
X93952600Y-66725800D01*
X77825500Y-65000750D02*
X77825500Y-66675050D01*
X87544600Y-84750600D02*
X87376000Y-84582000D01*
D42*
X83558100Y-79039800D02*
X85212000Y-79039800D01*
D44*
X87544600Y-85496400D02*
X87544600Y-84750600D01*
D42*
X85212000Y-79039800D02*
X85420200Y-79248000D01*
D46*
X50462800Y-81896600D02*
X50977800Y-81381600D01*
X50977800Y-81381600D02*
X50977800Y-79956600D01*
D43*
X50977800Y-79956600D02*
X52311800Y-79956600D01*
D46*
X49705800Y-81896600D02*
X50462800Y-81896600D01*
D43*
X49643800Y-79956600D02*
X50977800Y-79956600D01*
G04 #@! TA.AperFunction,Conductor*
G36*
X68954839Y-72257285D02*
G01*
X69000594Y-72310089D01*
X69011800Y-72361600D01*
X69011800Y-82930437D01*
X68992115Y-82997476D01*
X68975482Y-83018117D01*
X68961000Y-83032598D01*
X68961000Y-82169000D01*
X65532000Y-82169000D01*
X65532000Y-83032600D01*
X53387800Y-83032600D01*
X53320761Y-83012915D01*
X53275006Y-82960111D01*
X53263800Y-82908600D01*
X53263800Y-82908599D01*
X53263800Y-80287126D01*
X53267757Y-80256059D01*
X53292107Y-80162010D01*
X53305862Y-80108891D01*
X53305862Y-80108889D01*
X53305862Y-80108888D01*
X53305863Y-80108885D01*
X53316169Y-79905664D01*
X53285356Y-79704529D01*
X53279047Y-79687494D01*
X53271518Y-79667163D01*
X53263800Y-79624100D01*
X53263800Y-78838600D01*
X53283485Y-78771561D01*
X53336289Y-78725806D01*
X53387800Y-78714600D01*
X55041800Y-78714600D01*
X55041800Y-72361600D01*
X55061485Y-72294561D01*
X55114289Y-72248806D01*
X55165800Y-72237600D01*
X68887800Y-72237600D01*
X68954839Y-72257285D01*
G37*
G04 #@! TD.AperFunction*
G04 #@! TA.AperFunction,Conductor*
G36*
X44973339Y-85256784D02*
G01*
X45019094Y-85309588D01*
X45030300Y-85361099D01*
X45030300Y-86099470D01*
X45030301Y-86099476D01*
X45036708Y-86159083D01*
X45087002Y-86293928D01*
X45087006Y-86293935D01*
X45173251Y-86409143D01*
X45173252Y-86409144D01*
X45173254Y-86409146D01*
X45213112Y-86438984D01*
X45254982Y-86494916D01*
X45262800Y-86538249D01*
X45262800Y-89636600D01*
X49199800Y-89636600D01*
X49199800Y-86631152D01*
X49219485Y-86564113D01*
X49272289Y-86518358D01*
X49341447Y-86508414D01*
X49375865Y-86518613D01*
X49424603Y-86541162D01*
X49610584Y-86582100D01*
X51440698Y-86582100D01*
X51445732Y-86582305D01*
X51502644Y-86586939D01*
X51502645Y-86586938D01*
X51502648Y-86586939D01*
X51585241Y-86575685D01*
X51668116Y-86566673D01*
X51668281Y-86566617D01*
X51691157Y-86561255D01*
X51691337Y-86561231D01*
X51769593Y-86532480D01*
X51848580Y-86505867D01*
X51848727Y-86505778D01*
X51869916Y-86495624D01*
X51870088Y-86495561D01*
X51940336Y-86450659D01*
X52011754Y-86407689D01*
X52011883Y-86407566D01*
X52030397Y-86393094D01*
X52030407Y-86393087D01*
X52030544Y-86393000D01*
X52052624Y-86370919D01*
X52113946Y-86337434D01*
X52140306Y-86334600D01*
X64188800Y-86334600D01*
X64255839Y-86354285D01*
X64301594Y-86407089D01*
X64312800Y-86458600D01*
X64312800Y-91671600D01*
X64293115Y-91738639D01*
X64240311Y-91784394D01*
X64188800Y-91795600D01*
X43354800Y-91795600D01*
X43287761Y-91775915D01*
X43242006Y-91723111D01*
X43230800Y-91671600D01*
X43230800Y-85669328D01*
X43250485Y-85602289D01*
X43267114Y-85581652D01*
X43575348Y-85273417D01*
X43636671Y-85239933D01*
X43663029Y-85237099D01*
X44906300Y-85237099D01*
X44973339Y-85256784D01*
G37*
G04 #@! TD.AperFunction*
G04 #@! TA.AperFunction,Conductor*
G36*
X92982321Y-73146602D02*
G01*
X93028814Y-73200258D01*
X93040200Y-73252600D01*
X93040200Y-76175600D01*
X93020198Y-76243721D01*
X92966542Y-76290214D01*
X92914200Y-76301600D01*
X84227240Y-76301600D01*
X84159119Y-76281598D01*
X84138145Y-76264695D01*
X84090400Y-76216950D01*
X83990358Y-76170300D01*
X83954972Y-76165642D01*
X83944779Y-76164300D01*
X83944777Y-76164300D01*
X83171423Y-76164300D01*
X83171412Y-76164301D01*
X83125841Y-76170300D01*
X83125840Y-76170300D01*
X83056275Y-76202739D01*
X83025801Y-76216950D01*
X83025800Y-76216950D01*
X83015811Y-76221609D01*
X83015248Y-76220402D01*
X82958816Y-76239433D01*
X82951464Y-76239218D01*
X82951464Y-76239300D01*
X82372099Y-76239300D01*
X82303978Y-76219298D01*
X82257485Y-76165642D01*
X82246099Y-76113300D01*
X82246099Y-76027769D01*
X82255685Y-75987853D01*
X82253180Y-75987039D01*
X82256243Y-75977609D01*
X82256246Y-75977604D01*
X82271100Y-75883819D01*
X82271100Y-75411600D01*
X82291102Y-75343479D01*
X82344758Y-75296986D01*
X82397100Y-75285600D01*
X89687399Y-75285600D01*
X89687400Y-75285600D01*
X89663499Y-73254082D01*
X89682699Y-73185731D01*
X89735804Y-73138610D01*
X89789491Y-73126600D01*
X92914200Y-73126600D01*
X92982321Y-73146602D01*
G37*
G04 #@! TD.AperFunction*
G04 #@! TA.AperFunction,Conductor*
G36*
X84966176Y-79572802D02*
G01*
X84998017Y-79602096D01*
X85027578Y-79640621D01*
X85142575Y-79728862D01*
X85227021Y-79763839D01*
X85276491Y-79784330D01*
X85420200Y-79803250D01*
X85557154Y-79785219D01*
X85627302Y-79796158D01*
X85680401Y-79843286D01*
X85699600Y-79910141D01*
X85699600Y-82600800D01*
X88646000Y-82600800D01*
X88646000Y-83997800D01*
X86310532Y-83997800D01*
X86290826Y-83996249D01*
X86288622Y-83995900D01*
X85050582Y-83995900D01*
X85048385Y-83996249D01*
X85028677Y-83997800D01*
X83158600Y-83997800D01*
X83090479Y-83977798D01*
X83043986Y-83924142D01*
X83032600Y-83871800D01*
X83032600Y-82726800D01*
X83052602Y-82658679D01*
X83106258Y-82612186D01*
X83158600Y-82600800D01*
X84683600Y-82600800D01*
X84683600Y-80314800D01*
X82397100Y-80314800D01*
X82328979Y-80294798D01*
X82282486Y-80241142D01*
X82271100Y-80188800D01*
X82271100Y-79695777D01*
X82270712Y-79690849D01*
X82272539Y-79690705D01*
X82280634Y-79628094D01*
X82326359Y-79573782D01*
X82394188Y-79552813D01*
X82395981Y-79552800D01*
X84898055Y-79552800D01*
X84966176Y-79572802D01*
G37*
G04 #@! TD.AperFunction*
G04 #@! TA.AperFunction,Conductor*
G36*
X75126121Y-79395002D02*
G01*
X75172614Y-79448658D01*
X75184000Y-79501000D01*
X75184000Y-81128600D01*
X75163998Y-81196721D01*
X75110342Y-81243214D01*
X75058000Y-81254600D01*
X73609200Y-81254600D01*
X73609200Y-84659200D01*
X73589198Y-84727321D01*
X73535542Y-84773814D01*
X73483200Y-84785200D01*
X72008000Y-84785200D01*
X71939879Y-84765198D01*
X71893386Y-84711542D01*
X71882000Y-84659200D01*
X71882000Y-79501000D01*
X71902002Y-79432879D01*
X71955658Y-79386386D01*
X72008000Y-79375000D01*
X75058000Y-79375000D01*
X75126121Y-79395002D01*
G37*
G04 #@! TD.AperFunction*
G04 #@! TA.AperFunction,Conductor*
G36*
X80012221Y-78935301D02*
G01*
X80058714Y-78988957D01*
X80070100Y-79041299D01*
X80070100Y-79114477D01*
X80084633Y-79187539D01*
X80084634Y-79187540D01*
X80139999Y-79270401D01*
X80222860Y-79325766D01*
X80295926Y-79340300D01*
X80369100Y-79340300D01*
X80437221Y-79360302D01*
X80483714Y-79413958D01*
X80495100Y-79466300D01*
X80495100Y-80113976D01*
X80495101Y-80113987D01*
X80501100Y-80159558D01*
X80501100Y-80159559D01*
X80537282Y-80237150D01*
X80547943Y-80307342D01*
X80518963Y-80372154D01*
X80459543Y-80411011D01*
X80423087Y-80416400D01*
X79578200Y-80416400D01*
X79578200Y-83186000D01*
X79558198Y-83254121D01*
X79504542Y-83300614D01*
X79452200Y-83312000D01*
X77901800Y-83312000D01*
X77901800Y-86665800D01*
X77881798Y-86733921D01*
X77828142Y-86780414D01*
X77775800Y-86791800D01*
X74370200Y-86791800D01*
X74302079Y-86771798D01*
X74255586Y-86718142D01*
X74244200Y-86665800D01*
X74244200Y-81636100D01*
X74264202Y-81567979D01*
X74317858Y-81521486D01*
X74370200Y-81510100D01*
X75057995Y-81510100D01*
X75058000Y-81510100D01*
X75112309Y-81504261D01*
X75153265Y-81495351D01*
X75164652Y-81492875D01*
X75164651Y-81492875D01*
X75191028Y-81485639D01*
X75255531Y-81448908D01*
X75317882Y-81432400D01*
X76866968Y-81432400D01*
X76886214Y-81434933D01*
X76886304Y-81434252D01*
X76894490Y-81435329D01*
X76894491Y-81435330D01*
X77038200Y-81454250D01*
X77181909Y-81435330D01*
X77181909Y-81435329D01*
X77190096Y-81434252D01*
X77190185Y-81434933D01*
X77209432Y-81432400D01*
X78283178Y-81432400D01*
X78291410Y-81432940D01*
X78308199Y-81435150D01*
X78308200Y-81435150D01*
X78308201Y-81435150D01*
X78324990Y-81432940D01*
X78333222Y-81432400D01*
X78968600Y-81432400D01*
X78968600Y-79485582D01*
X78988602Y-79417461D01*
X79005511Y-79396480D01*
X79017250Y-79384742D01*
X79027233Y-79365145D01*
X79037567Y-79348283D01*
X79050496Y-79330490D01*
X79057294Y-79309565D01*
X79064861Y-79291299D01*
X79074845Y-79271706D01*
X79074845Y-79271705D01*
X79074846Y-79271704D01*
X79078287Y-79249970D01*
X79082901Y-79230752D01*
X79089699Y-79209833D01*
X79089699Y-79180517D01*
X79089700Y-79180492D01*
X79089700Y-79066300D01*
X79109702Y-78998179D01*
X79163358Y-78951686D01*
X79215700Y-78940300D01*
X79714616Y-78940300D01*
X79714619Y-78940300D01*
X79808404Y-78925446D01*
X79808409Y-78925443D01*
X79817839Y-78922380D01*
X79818651Y-78924881D01*
X79858570Y-78915299D01*
X79944100Y-78915299D01*
X80012221Y-78935301D01*
G37*
G04 #@! TD.AperFunction*
G04 #@! TA.AperFunction,Conductor*
G36*
X81559400Y-79183349D02*
G01*
X81547750Y-79194999D01*
X81501100Y-79295041D01*
X81495100Y-79340616D01*
X81495100Y-79551833D01*
X81485517Y-79591752D01*
X81488018Y-79592565D01*
X81484953Y-79601995D01*
X81470100Y-79695782D01*
X81470100Y-80590434D01*
X81476898Y-80611358D01*
X81481512Y-80630577D01*
X81484953Y-80652300D01*
X81484955Y-80652306D01*
X81494941Y-80671906D01*
X81502506Y-80690169D01*
X81509303Y-80711089D01*
X81509304Y-80711091D01*
X81522231Y-80728883D01*
X81532560Y-80745738D01*
X81542548Y-80765340D01*
X81542549Y-80765341D01*
X81542550Y-80765342D01*
X81559400Y-80782192D01*
X81559400Y-81534000D01*
X82539707Y-81534000D01*
X82546585Y-81539543D01*
X82546708Y-81539391D01*
X82549441Y-81541577D01*
X82552436Y-81544258D01*
X82553610Y-81545204D01*
X82554608Y-81546202D01*
X82554627Y-81546219D01*
X82572526Y-81564118D01*
X82575258Y-81566850D01*
X82594860Y-81576838D01*
X82611718Y-81587169D01*
X82629509Y-81600095D01*
X82629510Y-81600095D01*
X82629511Y-81600096D01*
X82638736Y-81603093D01*
X82697342Y-81643163D01*
X82702400Y-81655130D01*
X82702400Y-81804493D01*
X82674069Y-81872892D01*
X82655150Y-82016599D01*
X82655150Y-82016600D01*
X82674070Y-82160309D01*
X82702400Y-82228706D01*
X82702400Y-83947000D01*
X79908400Y-83947000D01*
X79908400Y-80683059D01*
X79959700Y-80671900D01*
X80423082Y-80671900D01*
X80423087Y-80671900D01*
X80460450Y-80669153D01*
X80460452Y-80669152D01*
X80460461Y-80669152D01*
X80485214Y-80665492D01*
X80496906Y-80663764D01*
X80506903Y-80662083D01*
X80599379Y-80624848D01*
X80646246Y-80594200D01*
X80695800Y-80594200D01*
X80695800Y-80555992D01*
X80752208Y-80476447D01*
X80772233Y-80431661D01*
X80781188Y-80411636D01*
X80781187Y-80411637D01*
X80781188Y-80411635D01*
X80796000Y-80368563D01*
X80800546Y-80268976D01*
X80789885Y-80198784D01*
X80768843Y-80129169D01*
X80762405Y-80115363D01*
X80750600Y-80062113D01*
X80750600Y-79466304D01*
X80750599Y-79466292D01*
X80746460Y-79427795D01*
X80746099Y-79421056D01*
X80746099Y-79340623D01*
X80746098Y-79340612D01*
X80740099Y-79295041D01*
X80740099Y-79295040D01*
X80695800Y-79200040D01*
X80695800Y-78994000D01*
X81559400Y-78994000D01*
X81559400Y-79183349D01*
G37*
G04 #@! TD.AperFunction*
G04 #@! TA.AperFunction,Conductor*
G36*
X86387103Y-84276503D02*
G01*
X86455109Y-84296883D01*
X86501303Y-84350796D01*
X86512400Y-84402501D01*
X86512400Y-91491539D01*
X86492398Y-91559660D01*
X86438742Y-91606153D01*
X86386140Y-91617539D01*
X74319140Y-91592659D01*
X74251061Y-91572516D01*
X74204679Y-91518765D01*
X74193400Y-91466659D01*
X74193400Y-87552800D01*
X74213402Y-87484679D01*
X74267058Y-87438186D01*
X74319400Y-87426800D01*
X78917800Y-87426800D01*
X78942200Y-84376792D01*
X78962746Y-84308833D01*
X79016772Y-84262771D01*
X79068196Y-84251800D01*
X81940400Y-84251800D01*
X86387103Y-84276503D01*
G37*
G04 #@! TD.AperFunction*
G04 #@! TA.AperFunction,Conductor*
G36*
X70360808Y-71882462D02*
G01*
X70391667Y-71906141D01*
X71276959Y-72791433D01*
X71315523Y-72858228D01*
X71320600Y-72896792D01*
X71320600Y-80405958D01*
X71335723Y-80573986D01*
X71335724Y-80573993D01*
X71346112Y-80611631D01*
X71370541Y-80700148D01*
X71371130Y-80702279D01*
X71376500Y-80741920D01*
X71376500Y-84659194D01*
X71376501Y-84659214D01*
X71388049Y-84766634D01*
X71388053Y-84766654D01*
X71399433Y-84818971D01*
X71399436Y-84818982D01*
X71399438Y-84818991D01*
X71407790Y-84844084D01*
X71433567Y-84921533D01*
X71511352Y-85042571D01*
X71556531Y-85094711D01*
X71557605Y-85096021D01*
X71621067Y-85151010D01*
X71666586Y-85190452D01*
X71797464Y-85250222D01*
X71829380Y-85259593D01*
X71865580Y-85270223D01*
X71865583Y-85270223D01*
X71865585Y-85270224D01*
X72008000Y-85290700D01*
X72008004Y-85290700D01*
X73483195Y-85290700D01*
X73483200Y-85290700D01*
X73573773Y-85280962D01*
X73649978Y-85292845D01*
X73710034Y-85341240D01*
X73737846Y-85413179D01*
X73738700Y-85429108D01*
X73738700Y-86665794D01*
X73738701Y-86665814D01*
X73750249Y-86773234D01*
X73750253Y-86773254D01*
X73761633Y-86825571D01*
X73761636Y-86825582D01*
X73761638Y-86825591D01*
X73793493Y-86921300D01*
X73795767Y-86928133D01*
X73836737Y-86991884D01*
X73860221Y-87065350D01*
X73843826Y-87140715D01*
X73823998Y-87170012D01*
X73788150Y-87211383D01*
X73788148Y-87211386D01*
X73728378Y-87342261D01*
X73728378Y-87342263D01*
X73708376Y-87410380D01*
X73708375Y-87410387D01*
X73687901Y-87552787D01*
X73687900Y-87552804D01*
X73687900Y-91466650D01*
X73687901Y-91466674D01*
X73694853Y-91531648D01*
X73682930Y-91607849D01*
X73634504Y-91667880D01*
X73562551Y-91695654D01*
X73546699Y-91696500D01*
X69615500Y-91696500D01*
X69541000Y-91676538D01*
X69486462Y-91622000D01*
X69466500Y-91547500D01*
X69466500Y-83195300D01*
X69475897Y-83143222D01*
X69477132Y-83139909D01*
X69477138Y-83139896D01*
X69496823Y-83072857D01*
X69496824Y-83072855D01*
X69496824Y-83072854D01*
X69496826Y-83072843D01*
X69517298Y-82930451D01*
X69517300Y-82930433D01*
X69517300Y-72361605D01*
X69517298Y-72361584D01*
X69515544Y-72345273D01*
X69512143Y-72313637D01*
X69505748Y-72254147D01*
X69505747Y-72254143D01*
X69501990Y-72236874D01*
X69494541Y-72202633D01*
X69460413Y-72100096D01*
X69460411Y-72100092D01*
X69455246Y-72092055D01*
X69431762Y-72018589D01*
X69448157Y-71943224D01*
X69500038Y-71886153D01*
X69573504Y-71862669D01*
X69580593Y-71862500D01*
X70286308Y-71862500D01*
X70360808Y-71882462D01*
G37*
G04 #@! TD.AperFunction*
G04 #@! TA.AperFunction,Conductor*
G36*
X93129868Y-76792435D02*
G01*
X93194753Y-76834134D01*
X93230095Y-76902688D01*
X93233500Y-76934360D01*
X93233500Y-80549861D01*
X93213538Y-80624361D01*
X93189859Y-80655220D01*
X91450221Y-82394859D01*
X91383426Y-82433423D01*
X91344862Y-82438500D01*
X90335685Y-82438500D01*
X90261185Y-82418538D01*
X90210339Y-82370057D01*
X90167939Y-82304083D01*
X90159825Y-82291457D01*
X90114070Y-82238653D01*
X90064680Y-82195855D01*
X90005334Y-82144431D01*
X89874461Y-82084663D01*
X89874459Y-82084662D01*
X89874454Y-82084660D01*
X89874447Y-82084658D01*
X89807418Y-82064976D01*
X89807417Y-82064975D01*
X89807406Y-82064973D01*
X89665014Y-82044501D01*
X89665002Y-82044500D01*
X89665000Y-82044500D01*
X88734623Y-82044500D01*
X88727019Y-82044907D01*
X88707595Y-82045948D01*
X88707589Y-82045948D01*
X88707584Y-82045949D01*
X88696032Y-82047191D01*
X88667776Y-82050229D01*
X88614353Y-82058885D01*
X88570243Y-82075338D01*
X88545243Y-82084663D01*
X88541913Y-82085905D01*
X88489842Y-82095300D01*
X88009290Y-82095300D01*
X87934790Y-82075338D01*
X87880252Y-82020800D01*
X87860290Y-81946300D01*
X87867853Y-81899432D01*
X87868812Y-81896536D01*
X87868814Y-81896534D01*
X87923999Y-81729997D01*
X87934500Y-81627209D01*
X87934499Y-80577192D01*
X87923999Y-80474403D01*
X87868814Y-80307866D01*
X87831683Y-80247666D01*
X87809563Y-80173778D01*
X87809500Y-80169445D01*
X87809500Y-79894930D01*
X87829462Y-79820430D01*
X87853141Y-79789571D01*
X87853141Y-79789570D01*
X87870068Y-79772644D01*
X87959103Y-79628297D01*
X88012449Y-79467308D01*
X88022600Y-79367945D01*
X88022599Y-78821256D01*
X88012449Y-78721892D01*
X87959103Y-78560903D01*
X87870068Y-78416556D01*
X87841241Y-78387729D01*
X87802677Y-78320934D01*
X87797600Y-78282370D01*
X87797600Y-77892900D01*
X87797846Y-77886850D01*
X87800414Y-77855324D01*
X87802439Y-77830452D01*
X87791185Y-77747858D01*
X87782173Y-77664984D01*
X87782171Y-77664977D01*
X87780436Y-77657091D01*
X87780531Y-77657069D01*
X87778777Y-77649582D01*
X87778682Y-77649606D01*
X87776732Y-77641765D01*
X87747985Y-77563520D01*
X87740699Y-77541897D01*
X87721367Y-77484520D01*
X87721362Y-77484512D01*
X87717975Y-77477189D01*
X87718063Y-77477148D01*
X87714736Y-77470204D01*
X87714649Y-77470248D01*
X87711058Y-77463008D01*
X87666169Y-77392778D01*
X87628588Y-77330320D01*
X87623189Y-77321346D01*
X87623186Y-77321343D01*
X87623185Y-77321341D01*
X87618299Y-77314913D01*
X87618377Y-77314853D01*
X87613640Y-77308792D01*
X87613563Y-77308855D01*
X87608502Y-77302559D01*
X87608500Y-77302556D01*
X87549547Y-77243603D01*
X87549546Y-77243602D01*
X87492232Y-77183095D01*
X87486076Y-77177867D01*
X87486139Y-77177792D01*
X87472300Y-77166356D01*
X87398834Y-77092890D01*
X87361609Y-77030783D01*
X87352073Y-76999348D01*
X87349552Y-76922264D01*
X87385911Y-76854243D01*
X87451409Y-76813515D01*
X87494659Y-76807100D01*
X92914195Y-76807100D01*
X92914200Y-76807100D01*
X92974469Y-76800620D01*
X93021634Y-76795550D01*
X93021639Y-76795549D01*
X93021649Y-76795548D01*
X93052830Y-76788765D01*
X93129868Y-76792435D01*
G37*
G04 #@! TD.AperFunction*
G04 #@! TA.AperFunction,Conductor*
G36*
X81641283Y-81513487D02*
G01*
X81661796Y-81534000D01*
X81559400Y-81534000D01*
X81559400Y-81375030D01*
X81641283Y-81513487D01*
G37*
G04 #@! TD.AperFunction*
G04 #@! TA.AperFunction,Conductor*
G36*
X78262512Y-80154396D02*
G01*
X78262561Y-80153878D01*
X78271895Y-80154759D01*
X78271896Y-80154760D01*
X78271896Y-80154759D01*
X78271897Y-80154760D01*
X78309419Y-80153581D01*
X78384509Y-80171192D01*
X78440733Y-80223990D01*
X78463026Y-80297826D01*
X78463100Y-80302507D01*
X78463100Y-80778175D01*
X78443138Y-80852675D01*
X78388600Y-80907213D01*
X78318967Y-80927095D01*
X78310628Y-80927368D01*
X78305756Y-80927368D01*
X78291458Y-80926900D01*
X78291457Y-80926900D01*
X77220810Y-80926900D01*
X77146310Y-80906938D01*
X77091772Y-80852400D01*
X77071810Y-80777900D01*
X77078556Y-80733573D01*
X77082244Y-80721738D01*
X77096186Y-80676996D01*
X77102600Y-80606416D01*
X77102600Y-80301499D01*
X77122562Y-80227000D01*
X77177100Y-80172462D01*
X77251600Y-80152500D01*
X78245334Y-80152500D01*
X78262512Y-80154396D01*
G37*
G04 #@! TD.AperFunction*
G04 #@! TA.AperFunction,Conductor*
G36*
X82089854Y-76750285D02*
G01*
X82151347Y-76750278D01*
X82151445Y-76749535D01*
X82157090Y-76750278D01*
X82159149Y-76750278D01*
X82159174Y-76750285D01*
X82161122Y-76750806D01*
X82161128Y-76750809D01*
X82161134Y-76750809D01*
X82161135Y-76750810D01*
X82173766Y-76752472D01*
X82271199Y-76765300D01*
X82470000Y-76765299D01*
X82479126Y-76764097D01*
X82555591Y-76774162D01*
X82616783Y-76821113D01*
X82646301Y-76892369D01*
X82646302Y-76931265D01*
X82645100Y-76940396D01*
X82645100Y-77139195D01*
X82659593Y-77249284D01*
X82660119Y-77251248D01*
X82660119Y-77253279D01*
X82660866Y-77258954D01*
X82660119Y-77259052D01*
X82660119Y-77320546D01*
X82660865Y-77320645D01*
X82660119Y-77326311D01*
X82660119Y-77328350D01*
X82659591Y-77330320D01*
X82645100Y-77440394D01*
X82645100Y-77639196D01*
X82659591Y-77749277D01*
X82660116Y-77751233D01*
X82660116Y-77753258D01*
X82660866Y-77758956D01*
X82660116Y-77759054D01*
X82660117Y-77820547D01*
X82660865Y-77820646D01*
X82660117Y-77826320D01*
X82660118Y-77828359D01*
X82659590Y-77830328D01*
X82645100Y-77940394D01*
X82645100Y-78139196D01*
X82659591Y-78249277D01*
X82660116Y-78251233D01*
X82660116Y-78253258D01*
X82660866Y-78258956D01*
X82660116Y-78259054D01*
X82660117Y-78320547D01*
X82660865Y-78320646D01*
X82660117Y-78326320D01*
X82660118Y-78328359D01*
X82659590Y-78330328D01*
X82645100Y-78440394D01*
X82645100Y-78639198D01*
X82645101Y-78639202D01*
X82646303Y-78648333D01*
X82636233Y-78724801D01*
X82589278Y-78785989D01*
X82518020Y-78815502D01*
X82479133Y-78815502D01*
X82470001Y-78814300D01*
X82271204Y-78814300D01*
X82212092Y-78822082D01*
X82161128Y-78828791D01*
X82161126Y-78828791D01*
X82161115Y-78828793D01*
X82159148Y-78829320D01*
X82157113Y-78829319D01*
X82151446Y-78830066D01*
X82151347Y-78829319D01*
X82089853Y-78829319D01*
X82089755Y-78830065D01*
X82084088Y-78829319D01*
X82082046Y-78829319D01*
X82080072Y-78828790D01*
X81970003Y-78814300D01*
X81771203Y-78814300D01*
X81661128Y-78828791D01*
X81524172Y-78885519D01*
X81406564Y-78975764D01*
X81392571Y-78994000D01*
X80848629Y-78994000D01*
X80834636Y-78975764D01*
X80717029Y-78885521D01*
X80717028Y-78885520D01*
X80717026Y-78885519D01*
X80677230Y-78869035D01*
X80616040Y-78822082D01*
X80586525Y-78750825D01*
X80586525Y-78711928D01*
X80596100Y-78639201D01*
X80596099Y-78440400D01*
X80581609Y-78330328D01*
X80581608Y-78330327D01*
X80581608Y-78330322D01*
X80581082Y-78328359D01*
X80581082Y-78326326D01*
X80580334Y-78320644D01*
X80581082Y-78320545D01*
X80581083Y-78259053D01*
X80580335Y-78258955D01*
X80581083Y-78253265D01*
X80581084Y-78251231D01*
X80581084Y-78251230D01*
X80581607Y-78249277D01*
X80581609Y-78249272D01*
X80596100Y-78139201D01*
X80596099Y-77940400D01*
X80581609Y-77830328D01*
X80581607Y-77830324D01*
X80581085Y-77828375D01*
X80581084Y-77826347D01*
X80580334Y-77820644D01*
X80581084Y-77820545D01*
X80581079Y-77759053D01*
X80580334Y-77758955D01*
X80581079Y-77753295D01*
X80581079Y-77751247D01*
X80581083Y-77751231D01*
X80581603Y-77749284D01*
X80581609Y-77749272D01*
X80596100Y-77639201D01*
X80596099Y-77440400D01*
X80581609Y-77330328D01*
X80581606Y-77330320D01*
X80581085Y-77328375D01*
X80581084Y-77326347D01*
X80580334Y-77320644D01*
X80581084Y-77320545D01*
X80581079Y-77259053D01*
X80580335Y-77258955D01*
X80581079Y-77253302D01*
X80581079Y-77251247D01*
X80581086Y-77251222D01*
X80581605Y-77249279D01*
X80581609Y-77249272D01*
X80596100Y-77139201D01*
X80596099Y-76940400D01*
X80594897Y-76931272D01*
X80604963Y-76854806D01*
X80651914Y-76793616D01*
X80723170Y-76764098D01*
X80762069Y-76764098D01*
X80771199Y-76765300D01*
X80970000Y-76765299D01*
X81080072Y-76750809D01*
X81080077Y-76750806D01*
X81082021Y-76750286D01*
X81084044Y-76750285D01*
X81089756Y-76749534D01*
X81089854Y-76750285D01*
X81151347Y-76750278D01*
X81151445Y-76749535D01*
X81157090Y-76750278D01*
X81159149Y-76750278D01*
X81159174Y-76750285D01*
X81161122Y-76750806D01*
X81161128Y-76750809D01*
X81161134Y-76750809D01*
X81161135Y-76750810D01*
X81173766Y-76752472D01*
X81271199Y-76765300D01*
X81470000Y-76765299D01*
X81580072Y-76750809D01*
X81580075Y-76750807D01*
X81582022Y-76750286D01*
X81584045Y-76750285D01*
X81589757Y-76749534D01*
X81589855Y-76750285D01*
X81651347Y-76750278D01*
X81651445Y-76749535D01*
X81657090Y-76750278D01*
X81659150Y-76750278D01*
X81659178Y-76750286D01*
X81661122Y-76750806D01*
X81661128Y-76750809D01*
X81661134Y-76750809D01*
X81661135Y-76750810D01*
X81673766Y-76752472D01*
X81771199Y-76765300D01*
X81970000Y-76765299D01*
X82080072Y-76750809D01*
X82080077Y-76750806D01*
X82082021Y-76750286D01*
X82084044Y-76750285D01*
X82089756Y-76749534D01*
X82089854Y-76750285D01*
G37*
G04 #@! TD.AperFunction*
G04 #@! TA.AperFunction,Conductor*
G36*
X97900000Y-62045462D02*
G01*
X97954538Y-62100000D01*
X97974500Y-62174500D01*
X97974500Y-89880843D01*
X97954538Y-89955343D01*
X97900000Y-90009881D01*
X97825500Y-90029843D01*
X97751000Y-90009881D01*
X97696462Y-89955343D01*
X97692740Y-89948488D01*
X97559685Y-89687354D01*
X97559678Y-89687341D01*
X97359851Y-89379634D01*
X97128949Y-89094494D01*
X96869506Y-88835051D01*
X96584366Y-88604149D01*
X96584367Y-88604149D01*
X96584365Y-88604148D01*
X96276658Y-88404321D01*
X96276645Y-88404314D01*
X95949738Y-88237746D01*
X95949722Y-88237739D01*
X95607215Y-88106263D01*
X95607194Y-88106256D01*
X95252802Y-88011297D01*
X95252800Y-88011296D01*
X94890398Y-87953897D01*
X94550018Y-87936059D01*
X94524000Y-87934696D01*
X94523999Y-87934696D01*
X94157601Y-87953897D01*
X93795199Y-88011296D01*
X93795197Y-88011297D01*
X93440805Y-88106256D01*
X93440784Y-88106263D01*
X93098277Y-88237739D01*
X93098261Y-88237746D01*
X92771354Y-88404314D01*
X92771341Y-88404321D01*
X92463634Y-88604148D01*
X92178490Y-88835054D01*
X91919054Y-89094490D01*
X91688148Y-89379634D01*
X91488321Y-89687341D01*
X91488314Y-89687354D01*
X91321746Y-90014261D01*
X91321739Y-90014277D01*
X91190263Y-90356784D01*
X91190256Y-90356805D01*
X91095297Y-90711197D01*
X91095296Y-90711199D01*
X91037897Y-91073601D01*
X91018696Y-91440000D01*
X91037897Y-91806398D01*
X91095296Y-92168800D01*
X91095297Y-92168802D01*
X91190256Y-92523194D01*
X91190263Y-92523215D01*
X91321739Y-92865722D01*
X91321746Y-92865738D01*
X91488314Y-93192645D01*
X91488321Y-93192658D01*
X91688148Y-93500365D01*
X91688149Y-93500366D01*
X91919051Y-93785506D01*
X92178494Y-94044949D01*
X92442290Y-94258567D01*
X92463634Y-94275851D01*
X92771341Y-94475678D01*
X92771345Y-94475680D01*
X92771348Y-94475682D01*
X93098264Y-94642255D01*
X93213260Y-94686397D01*
X93275656Y-94731731D01*
X93307027Y-94802191D01*
X93298965Y-94878897D01*
X93253630Y-94941295D01*
X93183170Y-94972666D01*
X93159861Y-94974500D01*
X36174500Y-94974500D01*
X36100000Y-94954538D01*
X36045462Y-94900000D01*
X36025500Y-94825500D01*
X36025500Y-88267994D01*
X36832500Y-88267994D01*
X36832501Y-88268015D01*
X36844051Y-88375452D01*
X36844052Y-88375456D01*
X36855258Y-88426963D01*
X36889387Y-88529505D01*
X36967175Y-88650543D01*
X37012929Y-88703346D01*
X37012931Y-88703348D01*
X37121665Y-88797568D01*
X37182270Y-88825245D01*
X37252541Y-88857338D01*
X37276537Y-88864384D01*
X37319582Y-88877024D01*
X37319593Y-88877026D01*
X37461985Y-88897498D01*
X37461989Y-88897498D01*
X37462000Y-88897500D01*
X37462004Y-88897500D01*
X40176877Y-88897500D01*
X40201676Y-88894600D01*
X40293481Y-88883867D01*
X40349144Y-88870671D01*
X40459452Y-88830512D01*
X40577521Y-88748285D01*
X40625686Y-88703313D01*
X40626434Y-88702686D01*
X40628557Y-88700632D01*
X40628590Y-88700602D01*
X40628594Y-88700599D01*
X40718713Y-88588438D01*
X40752291Y-88531658D01*
X40757203Y-88524371D01*
X40759904Y-88520832D01*
X40759922Y-88520811D01*
X40791567Y-88476927D01*
X40851338Y-88346050D01*
X40871023Y-88279011D01*
X40871024Y-88279009D01*
X40871024Y-88279008D01*
X40871026Y-88278997D01*
X40891498Y-88136605D01*
X40891500Y-88136587D01*
X40891500Y-87903500D01*
X40911462Y-87829000D01*
X40966000Y-87774462D01*
X41040500Y-87754500D01*
X42293994Y-87754500D01*
X42294000Y-87754500D01*
X42337483Y-87749824D01*
X42401452Y-87742948D01*
X42401456Y-87742947D01*
X42452967Y-87731741D01*
X42529244Y-87706352D01*
X42606236Y-87701765D01*
X42675206Y-87736288D01*
X42717674Y-87800671D01*
X42725300Y-87847727D01*
X42725300Y-91671594D01*
X42725301Y-91671615D01*
X42736851Y-91779052D01*
X42736852Y-91779056D01*
X42748058Y-91830563D01*
X42782187Y-91933105D01*
X42859975Y-92054143D01*
X42905729Y-92106946D01*
X42905731Y-92106948D01*
X43014465Y-92201168D01*
X43075070Y-92228845D01*
X43145341Y-92260938D01*
X43169337Y-92267984D01*
X43212382Y-92280624D01*
X43212393Y-92280626D01*
X43354785Y-92301098D01*
X43354789Y-92301098D01*
X43354800Y-92301100D01*
X43354804Y-92301100D01*
X64188794Y-92301100D01*
X64188800Y-92301100D01*
X64232283Y-92296424D01*
X64296252Y-92289548D01*
X64296256Y-92289547D01*
X64347767Y-92278341D01*
X64450304Y-92244213D01*
X64571343Y-92166425D01*
X64624147Y-92120670D01*
X64718367Y-92011936D01*
X64741964Y-91960265D01*
X64791072Y-91900790D01*
X64863337Y-91873837D01*
X64939397Y-91886627D01*
X64998872Y-91935734D01*
X65025825Y-92007999D01*
X65026500Y-92022162D01*
X65026500Y-93728994D01*
X65026501Y-93729015D01*
X65038051Y-93836452D01*
X65038052Y-93836456D01*
X65049258Y-93887963D01*
X65083387Y-93990505D01*
X65161175Y-94111543D01*
X65206929Y-94164346D01*
X65206931Y-94164348D01*
X65315665Y-94258568D01*
X65376270Y-94286245D01*
X65446541Y-94318338D01*
X65470537Y-94325384D01*
X65513582Y-94338024D01*
X65513593Y-94338026D01*
X65655985Y-94358498D01*
X65655989Y-94358498D01*
X65656000Y-94358500D01*
X65656004Y-94358500D01*
X89664994Y-94358500D01*
X89665000Y-94358500D01*
X89708483Y-94353824D01*
X89772452Y-94346948D01*
X89772456Y-94346947D01*
X89823967Y-94335741D01*
X89926504Y-94301613D01*
X90047543Y-94223825D01*
X90100347Y-94178070D01*
X90194567Y-94069336D01*
X90254338Y-93938459D01*
X90269164Y-93887967D01*
X90274024Y-93871418D01*
X90274024Y-93871417D01*
X90274026Y-93871406D01*
X90294498Y-93729014D01*
X90294500Y-93728996D01*
X90294500Y-84588500D01*
X90314462Y-84514000D01*
X90369000Y-84459462D01*
X90443500Y-84439500D01*
X91808284Y-84439500D01*
X91818181Y-84439750D01*
X91897355Y-84441757D01*
X91897357Y-84441756D01*
X91897363Y-84441757D01*
X91897367Y-84441756D01*
X91897370Y-84441756D01*
X91919484Y-84437791D01*
X91957286Y-84431016D01*
X91962873Y-84430232D01*
X92023438Y-84424074D01*
X92055459Y-84414026D01*
X92064622Y-84411778D01*
X92097647Y-84405859D01*
X92097646Y-84405859D01*
X92097653Y-84405858D01*
X92154190Y-84383273D01*
X92159479Y-84381390D01*
X92217588Y-84363159D01*
X92246935Y-84346869D01*
X92255451Y-84342825D01*
X92286617Y-84330377D01*
X92337462Y-84296866D01*
X92342252Y-84293964D01*
X92395502Y-84264409D01*
X92420965Y-84242548D01*
X92428500Y-84236867D01*
X92456519Y-84218402D01*
X92499569Y-84175350D01*
X92503711Y-84171513D01*
X92549895Y-84131866D01*
X92570435Y-84105328D01*
X92576672Y-84098248D01*
X94932487Y-81742433D01*
X94997050Y-81681062D01*
X94997050Y-81681061D01*
X94997053Y-81681059D01*
X95031842Y-81631074D01*
X95035214Y-81626602D01*
X95073698Y-81579407D01*
X95089232Y-81549668D01*
X95094125Y-81541591D01*
X95098072Y-81535919D01*
X95113295Y-81514049D01*
X95137309Y-81458088D01*
X95139720Y-81453012D01*
X95167909Y-81399049D01*
X95177141Y-81366778D01*
X95180297Y-81357914D01*
X95193540Y-81327058D01*
X95205794Y-81267422D01*
X95207134Y-81261958D01*
X95223886Y-81203418D01*
X95226434Y-81169947D01*
X95227745Y-81160610D01*
X95234500Y-81127739D01*
X95234500Y-81066875D01*
X95234715Y-81061216D01*
X95239337Y-81000523D01*
X95235097Y-80967233D01*
X95234499Y-80957810D01*
X95234500Y-72402714D01*
X95236757Y-72313640D01*
X95236756Y-72313639D01*
X95236757Y-72313637D01*
X95227313Y-72260945D01*
X95226019Y-72253725D01*
X95225232Y-72248117D01*
X95220607Y-72202636D01*
X95219074Y-72187562D01*
X95209023Y-72155528D01*
X95206780Y-72146389D01*
X95200858Y-72113347D01*
X95178275Y-72056812D01*
X95176383Y-72051497D01*
X95158161Y-71993417D01*
X95158157Y-71993408D01*
X95141873Y-71964071D01*
X95137822Y-71955541D01*
X95132902Y-71943224D01*
X95125377Y-71924383D01*
X95117565Y-71912529D01*
X95091884Y-71873563D01*
X95088949Y-71868719D01*
X95059411Y-71815501D01*
X95059408Y-71815497D01*
X95037539Y-71790022D01*
X95031870Y-71782503D01*
X95013402Y-71754482D01*
X94970368Y-71711448D01*
X94966519Y-71707294D01*
X94926867Y-71661106D01*
X94900326Y-71640561D01*
X94893242Y-71634321D01*
X94617791Y-71358871D01*
X94579227Y-71292076D01*
X94579227Y-71214948D01*
X94617788Y-71148157D01*
X94897563Y-70868381D01*
X94911051Y-70857579D01*
X94910718Y-70857176D01*
X94917933Y-70851205D01*
X94917940Y-70851202D01*
X94967190Y-70798755D01*
X94988912Y-70777034D01*
X94993049Y-70771699D01*
X94997591Y-70766380D01*
X95030448Y-70731393D01*
X95039721Y-70714523D01*
X95052562Y-70694974D01*
X95064363Y-70679763D01*
X95083428Y-70635704D01*
X95086502Y-70629430D01*
X95109627Y-70587368D01*
X95114413Y-70568722D01*
X95121986Y-70546600D01*
X95129636Y-70528926D01*
X95137143Y-70481526D01*
X95138562Y-70474668D01*
X95150500Y-70428177D01*
X95150500Y-70408921D01*
X95152335Y-70385610D01*
X95155347Y-70366595D01*
X95150831Y-70318815D01*
X95150500Y-70311800D01*
X95150500Y-68600502D01*
X95170462Y-68526002D01*
X95194138Y-68495146D01*
X95393563Y-68295720D01*
X95407051Y-68284918D01*
X95406718Y-68284515D01*
X95413933Y-68278544D01*
X95413940Y-68278541D01*
X95463190Y-68226094D01*
X95484911Y-68204374D01*
X95489045Y-68199043D01*
X95493600Y-68193710D01*
X95526448Y-68158732D01*
X95535724Y-68141856D01*
X95548559Y-68122317D01*
X95560362Y-68107103D01*
X95579425Y-68063047D01*
X95582508Y-68056758D01*
X95605627Y-68014707D01*
X95610416Y-67996053D01*
X95617989Y-67973935D01*
X95625636Y-67956265D01*
X95633143Y-67908865D01*
X95634563Y-67902003D01*
X95646500Y-67855516D01*
X95646500Y-67836260D01*
X95648335Y-67812949D01*
X95649276Y-67807008D01*
X95651347Y-67793934D01*
X95648530Y-67764137D01*
X95646831Y-67746156D01*
X95646500Y-67739141D01*
X95646500Y-67288756D01*
X95666462Y-67214256D01*
X95667182Y-67213023D01*
X95695469Y-67165193D01*
X95740265Y-67011004D01*
X95743100Y-66974981D01*
X95743099Y-66476620D01*
X95740265Y-66440596D01*
X95695469Y-66286407D01*
X95613735Y-66148202D01*
X95500198Y-66034665D01*
X95413491Y-65983387D01*
X95361995Y-65952932D01*
X95361994Y-65952931D01*
X95361993Y-65952931D01*
X95297398Y-65934164D01*
X95207806Y-65908135D01*
X95195796Y-65907190D01*
X95171781Y-65905300D01*
X95171777Y-65905300D01*
X95014347Y-65905300D01*
X94939847Y-65885338D01*
X94885309Y-65830800D01*
X94865347Y-65756300D01*
X94872910Y-65709431D01*
X94873613Y-65707310D01*
X94882436Y-65680685D01*
X94892500Y-65582174D01*
X94892500Y-64973826D01*
X94882436Y-64875315D01*
X94829549Y-64715713D01*
X94741281Y-64572609D01*
X94622391Y-64453719D01*
X94479287Y-64365451D01*
X94319686Y-64312564D01*
X94319687Y-64312564D01*
X94286848Y-64309209D01*
X94221174Y-64302500D01*
X93687826Y-64302500D01*
X93622152Y-64309209D01*
X93589313Y-64312564D01*
X93429713Y-64365451D01*
X93429712Y-64365451D01*
X93286610Y-64453718D01*
X93167718Y-64572610D01*
X93079451Y-64715712D01*
X93079451Y-64715713D01*
X93026564Y-64875313D01*
X93026563Y-64875315D01*
X93026564Y-64875315D01*
X93016500Y-64973826D01*
X93016500Y-65582174D01*
X93024390Y-65659402D01*
X93026564Y-65680686D01*
X93036741Y-65711397D01*
X93076307Y-65830800D01*
X93079451Y-65840286D01*
X93079451Y-65840287D01*
X93167716Y-65983387D01*
X93171876Y-65988647D01*
X93202426Y-66059467D01*
X93204000Y-66081065D01*
X93204000Y-66353767D01*
X93198084Y-66395336D01*
X93184935Y-66440593D01*
X93183517Y-66458607D01*
X93183036Y-66464733D01*
X93182100Y-66476622D01*
X93182101Y-66974974D01*
X93182101Y-66974975D01*
X93184934Y-67010999D01*
X93184934Y-67011002D01*
X93184935Y-67011004D01*
X93229731Y-67165193D01*
X93311465Y-67303398D01*
X93425002Y-67416935D01*
X93563207Y-67498669D01*
X93717396Y-67543465D01*
X93753419Y-67546300D01*
X93942303Y-67546299D01*
X94016802Y-67566261D01*
X94071340Y-67620798D01*
X94091303Y-67695298D01*
X94071341Y-67769798D01*
X94050921Y-67797294D01*
X94032811Y-67816580D01*
X94011095Y-67838297D01*
X94011080Y-67838314D01*
X94006944Y-67843644D01*
X94002395Y-67848970D01*
X93969551Y-67883946D01*
X93960273Y-67900823D01*
X93947444Y-67920353D01*
X93935638Y-67935574D01*
X93935636Y-67935578D01*
X93916581Y-67979609D01*
X93913494Y-67985911D01*
X93890374Y-68027968D01*
X93890373Y-68027969D01*
X93885581Y-68046633D01*
X93878011Y-68068742D01*
X93870364Y-68086414D01*
X93862859Y-68133799D01*
X93861436Y-68140673D01*
X93849500Y-68187162D01*
X93849500Y-68187163D01*
X93849500Y-68187164D01*
X93849500Y-68206417D01*
X93847665Y-68229728D01*
X93844653Y-68248742D01*
X93849169Y-68296519D01*
X93849500Y-68303535D01*
X93849500Y-70014835D01*
X93829538Y-70089335D01*
X93805859Y-70120194D01*
X93697846Y-70228207D01*
X93631051Y-70266771D01*
X93553923Y-70266771D01*
X93487128Y-70228207D01*
X90359343Y-67100422D01*
X90320779Y-67033627D01*
X90315702Y-66995063D01*
X90315702Y-66871899D01*
X90335664Y-66797399D01*
X90390202Y-66742861D01*
X90464702Y-66722899D01*
X90663066Y-66722899D01*
X90663074Y-66722899D01*
X90722685Y-66716491D01*
X90833368Y-66675209D01*
X90857531Y-66666197D01*
X90857535Y-66666195D01*
X90915140Y-66623071D01*
X90972748Y-66579946D01*
X91035219Y-66496496D01*
X91058997Y-66464733D01*
X91058999Y-66464729D01*
X91086948Y-66389792D01*
X91109293Y-66329883D01*
X91112030Y-66304429D01*
X91115701Y-66270285D01*
X91115701Y-66270282D01*
X91115702Y-66270273D01*
X91115701Y-63574528D01*
X91109293Y-63514917D01*
X91094790Y-63476033D01*
X91058999Y-63380070D01*
X91058997Y-63380066D01*
X90972749Y-63264855D01*
X90972746Y-63264852D01*
X90857535Y-63178604D01*
X90857531Y-63178602D01*
X90722684Y-63128308D01*
X90663078Y-63121900D01*
X87967338Y-63121900D01*
X87967313Y-63121902D01*
X87907723Y-63128308D01*
X87907717Y-63128309D01*
X87772872Y-63178602D01*
X87772868Y-63178604D01*
X87657657Y-63264852D01*
X87657654Y-63264855D01*
X87571406Y-63380066D01*
X87571404Y-63380070D01*
X87521110Y-63514917D01*
X87514702Y-63574514D01*
X87514702Y-66270263D01*
X87514704Y-66270288D01*
X87521110Y-66329878D01*
X87521111Y-66329884D01*
X87571404Y-66464729D01*
X87571406Y-66464733D01*
X87657654Y-66579944D01*
X87657657Y-66579947D01*
X87772868Y-66666195D01*
X87772872Y-66666197D01*
X87907719Y-66716491D01*
X87967316Y-66722899D01*
X87967320Y-66722899D01*
X87967329Y-66722900D01*
X88165702Y-66722899D01*
X88240201Y-66742861D01*
X88294739Y-66797398D01*
X88314702Y-66871898D01*
X88314702Y-67458487D01*
X88312444Y-67547561D01*
X88312445Y-67547565D01*
X88323186Y-67607498D01*
X88323970Y-67613088D01*
X88330126Y-67673632D01*
X88330129Y-67673643D01*
X88340173Y-67705659D01*
X88342422Y-67714823D01*
X88348344Y-67747855D01*
X88370923Y-67804384D01*
X88372822Y-67809717D01*
X88391043Y-67867790D01*
X88391044Y-67867792D01*
X88407330Y-67897134D01*
X88411376Y-67905653D01*
X88423825Y-67936818D01*
X88423828Y-67936825D01*
X88457317Y-67987638D01*
X88460251Y-67992481D01*
X88483796Y-68034901D01*
X88489793Y-68045704D01*
X88508846Y-68067898D01*
X88511647Y-68071160D01*
X88517331Y-68078698D01*
X88535796Y-68106717D01*
X88578838Y-68149759D01*
X88582687Y-68153912D01*
X88622331Y-68200092D01*
X88622333Y-68200093D01*
X88622336Y-68200097D01*
X88648873Y-68220638D01*
X88655951Y-68226872D01*
X92565596Y-72136516D01*
X92565598Y-72136519D01*
X92795822Y-72366743D01*
X92834385Y-72433536D01*
X92834385Y-72510664D01*
X92795821Y-72577459D01*
X92729026Y-72616023D01*
X92690462Y-72621100D01*
X89789491Y-72621100D01*
X89765106Y-72623794D01*
X89679138Y-72633292D01*
X89625453Y-72645301D01*
X89625441Y-72645305D01*
X89520418Y-72681291D01*
X89400294Y-72760504D01*
X89347201Y-72807614D01*
X89347185Y-72807630D01*
X89254264Y-72917450D01*
X89254262Y-72917454D01*
X89196035Y-73049024D01*
X89177914Y-73113535D01*
X89177584Y-73114505D01*
X89176833Y-73117376D01*
X89158034Y-73260026D01*
X89174144Y-74629347D01*
X89155059Y-74704077D01*
X89101167Y-74759252D01*
X89026907Y-74780090D01*
X89025154Y-74780100D01*
X87001500Y-74780100D01*
X86927000Y-74760138D01*
X86872462Y-74705600D01*
X86852500Y-74631100D01*
X86852500Y-74576418D01*
X86852859Y-74569111D01*
X86854091Y-74556600D01*
X86857341Y-74523600D01*
X86854650Y-74496286D01*
X86852859Y-74478086D01*
X86852500Y-74470780D01*
X86852500Y-74390137D01*
X86872462Y-74315637D01*
X86896137Y-74284781D01*
X87439468Y-73741451D01*
X87504053Y-73680059D01*
X87538844Y-73630071D01*
X87542219Y-73625596D01*
X87580698Y-73578407D01*
X87596232Y-73548668D01*
X87601125Y-73540591D01*
X87605072Y-73534919D01*
X87620295Y-73513049D01*
X87644309Y-73457088D01*
X87646720Y-73452012D01*
X87674909Y-73398049D01*
X87684141Y-73365779D01*
X87687297Y-73356915D01*
X87700540Y-73326058D01*
X87712793Y-73266430D01*
X87714134Y-73260963D01*
X87730887Y-73202418D01*
X87733435Y-73168944D01*
X87734746Y-73159606D01*
X87736807Y-73149572D01*
X87741500Y-73126741D01*
X87741500Y-73065878D01*
X87741715Y-73060219D01*
X87742568Y-73049024D01*
X87746337Y-72999524D01*
X87742098Y-72966235D01*
X87741500Y-72956813D01*
X87741500Y-71386698D01*
X87743757Y-71297645D01*
X87743756Y-71297643D01*
X87743757Y-71297637D01*
X87737956Y-71265273D01*
X87733019Y-71237725D01*
X87732232Y-71232117D01*
X87726074Y-71171564D01*
X87726074Y-71171562D01*
X87716023Y-71139528D01*
X87713780Y-71130389D01*
X87707858Y-71097347D01*
X87685275Y-71040812D01*
X87683383Y-71035497D01*
X87665161Y-70977417D01*
X87665157Y-70977408D01*
X87648873Y-70948071D01*
X87644822Y-70939541D01*
X87640806Y-70929487D01*
X87632377Y-70908383D01*
X87598886Y-70857566D01*
X87595952Y-70852724D01*
X87593869Y-70848972D01*
X87566409Y-70799498D01*
X87544548Y-70774033D01*
X87538869Y-70766502D01*
X87520402Y-70738481D01*
X87477362Y-70695441D01*
X87473513Y-70691287D01*
X87433867Y-70645106D01*
X87407330Y-70624564D01*
X87400246Y-70618325D01*
X87148516Y-70366595D01*
X86314451Y-69532531D01*
X86253059Y-69467947D01*
X86222165Y-69446444D01*
X86203098Y-69433173D01*
X86198576Y-69429763D01*
X86151406Y-69391301D01*
X86139979Y-69385332D01*
X86121652Y-69375759D01*
X86113594Y-69370877D01*
X86086049Y-69351705D01*
X86086045Y-69351703D01*
X86086040Y-69351700D01*
X86030117Y-69327702D01*
X86025001Y-69325273D01*
X86010980Y-69317949D01*
X85971049Y-69297091D01*
X85971047Y-69297090D01*
X85971045Y-69297089D01*
X85938787Y-69287858D01*
X85929897Y-69284693D01*
X85899062Y-69271461D01*
X85899059Y-69271460D01*
X85839428Y-69259205D01*
X85833935Y-69257856D01*
X85819615Y-69253759D01*
X85775421Y-69241113D01*
X85775416Y-69241112D01*
X85741945Y-69238563D01*
X85732602Y-69237252D01*
X85699741Y-69230500D01*
X85638879Y-69230500D01*
X85633223Y-69230285D01*
X85626333Y-69229760D01*
X85572523Y-69225662D01*
X85539238Y-69229902D01*
X85529816Y-69230500D01*
X80428500Y-69230500D01*
X80354000Y-69210538D01*
X80299462Y-69156000D01*
X80279500Y-69081500D01*
X80279500Y-66495916D01*
X83802345Y-66495916D01*
X83803746Y-66496495D01*
X84056279Y-66557123D01*
X84315202Y-66577501D01*
X84574124Y-66557123D01*
X84826654Y-66496496D01*
X84826659Y-66496495D01*
X84828056Y-66495916D01*
X84315202Y-65983060D01*
X83802345Y-66495916D01*
X80279500Y-66495916D01*
X80279500Y-65575157D01*
X80287063Y-65528289D01*
X80328436Y-65403435D01*
X80338500Y-65304924D01*
X80338500Y-64922400D01*
X82660100Y-64922400D01*
X82680478Y-65181322D01*
X82741105Y-65433853D01*
X82741108Y-65433862D01*
X82741684Y-65435254D01*
X82741685Y-65435254D01*
X83254540Y-64922399D01*
X83213403Y-64881262D01*
X83661329Y-64881262D01*
X83671641Y-65045166D01*
X83715881Y-65181322D01*
X83722390Y-65201356D01*
X83810386Y-65340017D01*
X83810387Y-65340017D01*
X83810388Y-65340019D01*
X83930105Y-65452440D01*
X83983105Y-65481577D01*
X84074018Y-65531558D01*
X84128968Y-65545666D01*
X84233088Y-65572400D01*
X84233090Y-65572400D01*
X84356097Y-65572400D01*
X84356096Y-65572399D01*
X84478135Y-65556983D01*
X84630831Y-65496526D01*
X84763694Y-65399995D01*
X84868377Y-65273455D01*
X84938302Y-65124857D01*
X84969075Y-64963538D01*
X84966487Y-64922398D01*
X85375862Y-64922398D01*
X85888718Y-65435254D01*
X85889297Y-65433857D01*
X85889298Y-65433852D01*
X85949925Y-65181322D01*
X85970303Y-64922400D01*
X85949925Y-64663477D01*
X85889297Y-64410944D01*
X85888717Y-64409543D01*
X85375862Y-64922398D01*
X84966487Y-64922398D01*
X84958763Y-64799634D01*
X84908014Y-64643444D01*
X84820016Y-64504781D01*
X84700299Y-64392360D01*
X84696379Y-64390205D01*
X84556385Y-64313241D01*
X84397317Y-64272400D01*
X84397316Y-64272400D01*
X84274308Y-64272400D01*
X84274307Y-64272400D01*
X84152268Y-64287817D01*
X83999573Y-64348274D01*
X83866713Y-64444802D01*
X83866706Y-64444809D01*
X83762028Y-64571341D01*
X83762025Y-64571347D01*
X83692103Y-64719938D01*
X83692102Y-64719940D01*
X83676900Y-64799634D01*
X83661329Y-64881262D01*
X83213403Y-64881262D01*
X82741685Y-64409544D01*
X82741103Y-64410953D01*
X82680478Y-64663477D01*
X82660100Y-64922400D01*
X80338500Y-64922400D01*
X80338500Y-64696576D01*
X80328436Y-64598065D01*
X80275549Y-64438463D01*
X80187281Y-64295359D01*
X80068391Y-64176469D01*
X79925287Y-64088201D01*
X79787827Y-64042651D01*
X79765686Y-64035314D01*
X79765687Y-64035314D01*
X79732848Y-64031959D01*
X79667174Y-64025250D01*
X79133826Y-64025250D01*
X79068152Y-64031959D01*
X79035313Y-64035314D01*
X78875713Y-64088201D01*
X78875712Y-64088201D01*
X78732608Y-64176469D01*
X78718356Y-64190721D01*
X78651561Y-64229284D01*
X78574432Y-64229282D01*
X78507644Y-64190721D01*
X78493392Y-64176470D01*
X78493391Y-64176469D01*
X78350287Y-64088201D01*
X78190686Y-64035314D01*
X78190687Y-64035314D01*
X78157848Y-64031959D01*
X78092174Y-64025250D01*
X77558826Y-64025250D01*
X77493152Y-64031959D01*
X77460313Y-64035314D01*
X77300713Y-64088201D01*
X77300712Y-64088201D01*
X77157610Y-64176468D01*
X77038718Y-64295360D01*
X76950451Y-64438462D01*
X76950451Y-64438463D01*
X76897564Y-64598063D01*
X76897563Y-64598065D01*
X76897564Y-64598065D01*
X76887500Y-64696576D01*
X76887500Y-65304924D01*
X76891600Y-65345057D01*
X76897564Y-65403436D01*
X76950451Y-65563036D01*
X76950451Y-65563037D01*
X77038716Y-65706137D01*
X77042876Y-65711397D01*
X77073426Y-65782217D01*
X77075000Y-65803815D01*
X77075000Y-66318885D01*
X77069084Y-66360454D01*
X77059935Y-66391943D01*
X77057100Y-66427972D01*
X77057101Y-66926324D01*
X77057101Y-66926325D01*
X77059934Y-66962349D01*
X77059934Y-66962352D01*
X77059935Y-66962354D01*
X77104731Y-67116543D01*
X77186465Y-67254748D01*
X77300002Y-67368285D01*
X77438207Y-67450019D01*
X77592396Y-67494815D01*
X77628419Y-67497650D01*
X78026780Y-67497649D01*
X78062804Y-67494815D01*
X78216993Y-67450019D01*
X78355198Y-67368285D01*
X78468735Y-67254748D01*
X78550469Y-67116543D01*
X78595265Y-66962354D01*
X78598100Y-66926331D01*
X78598099Y-66427970D01*
X78595265Y-66391946D01*
X78581916Y-66345998D01*
X78576000Y-66304429D01*
X78576000Y-65995401D01*
X78595962Y-65920901D01*
X78650500Y-65866363D01*
X78725000Y-65846401D01*
X78799500Y-65866363D01*
X78803180Y-65868560D01*
X78875713Y-65913299D01*
X78876361Y-65913513D01*
X78876815Y-65913812D01*
X78883578Y-65916966D01*
X78883116Y-65917956D01*
X78940802Y-65955892D01*
X78975420Y-66024814D01*
X78978500Y-66054952D01*
X78978500Y-69081500D01*
X78958538Y-69156000D01*
X78904000Y-69210538D01*
X78829500Y-69230500D01*
X75787139Y-69230500D01*
X75712639Y-69210538D01*
X75681780Y-69186859D01*
X73584543Y-67089622D01*
X73545979Y-67022827D01*
X73540902Y-66984263D01*
X73540902Y-66871899D01*
X73560864Y-66797399D01*
X73615402Y-66742861D01*
X73689902Y-66722899D01*
X73888266Y-66722899D01*
X73888274Y-66722899D01*
X73947885Y-66716491D01*
X74058568Y-66675209D01*
X74082731Y-66666197D01*
X74082735Y-66666195D01*
X74140340Y-66623071D01*
X74197948Y-66579946D01*
X74260419Y-66496496D01*
X74284197Y-66464733D01*
X74284199Y-66464729D01*
X74312148Y-66389792D01*
X74334493Y-66329883D01*
X74337230Y-66304429D01*
X74340901Y-66270285D01*
X74340901Y-66270282D01*
X74340902Y-66270273D01*
X74340901Y-63574528D01*
X74334493Y-63514917D01*
X74319990Y-63476033D01*
X74284199Y-63380070D01*
X74284197Y-63380066D01*
X74260853Y-63348883D01*
X83802346Y-63348883D01*
X84315201Y-63861738D01*
X84828056Y-63348883D01*
X84828056Y-63348882D01*
X84826664Y-63348306D01*
X84826655Y-63348303D01*
X84574124Y-63287676D01*
X84315202Y-63267298D01*
X84056279Y-63287676D01*
X83803755Y-63348301D01*
X83802346Y-63348883D01*
X74260853Y-63348883D01*
X74197949Y-63264855D01*
X74197946Y-63264852D01*
X74082735Y-63178604D01*
X74082731Y-63178602D01*
X73947884Y-63128308D01*
X73888278Y-63121900D01*
X71192538Y-63121900D01*
X71192513Y-63121902D01*
X71132923Y-63128308D01*
X71132917Y-63128309D01*
X70998072Y-63178602D01*
X70998068Y-63178604D01*
X70882857Y-63264852D01*
X70882854Y-63264855D01*
X70796606Y-63380066D01*
X70796604Y-63380070D01*
X70746310Y-63514917D01*
X70739902Y-63574514D01*
X70739902Y-66270263D01*
X70739904Y-66270288D01*
X70746310Y-66329878D01*
X70746311Y-66329884D01*
X70796604Y-66464729D01*
X70796606Y-66464733D01*
X70882854Y-66579944D01*
X70882857Y-66579947D01*
X70998068Y-66666195D01*
X70998072Y-66666197D01*
X71132919Y-66716491D01*
X71192516Y-66722899D01*
X71192520Y-66722899D01*
X71192529Y-66722900D01*
X71390902Y-66722899D01*
X71465401Y-66742861D01*
X71519939Y-66797398D01*
X71539902Y-66871898D01*
X71539902Y-67447687D01*
X71537644Y-67536761D01*
X71540821Y-67554489D01*
X71548386Y-67596698D01*
X71549170Y-67602288D01*
X71555326Y-67662832D01*
X71555329Y-67662843D01*
X71565373Y-67694859D01*
X71567622Y-67704023D01*
X71573544Y-67737055D01*
X71596123Y-67793584D01*
X71598022Y-67798917D01*
X71616243Y-67856990D01*
X71616244Y-67856992D01*
X71632530Y-67886334D01*
X71636576Y-67894853D01*
X71642173Y-67908865D01*
X71649025Y-67926018D01*
X71649028Y-67926025D01*
X71682517Y-67976838D01*
X71685451Y-67981681D01*
X71711144Y-68027971D01*
X71714993Y-68034904D01*
X71736400Y-68059840D01*
X71736847Y-68060360D01*
X71742531Y-68067898D01*
X71760996Y-68095917D01*
X71804038Y-68138959D01*
X71807887Y-68143112D01*
X71847532Y-68189293D01*
X71847534Y-68189295D01*
X71847536Y-68189297D01*
X71857435Y-68196959D01*
X71874071Y-68209837D01*
X71881155Y-68216076D01*
X74594566Y-70929487D01*
X74655941Y-70994053D01*
X74692083Y-71019208D01*
X74705898Y-71028824D01*
X74710420Y-71032234D01*
X74757591Y-71070696D01*
X74757591Y-71070697D01*
X74787333Y-71086233D01*
X74795408Y-71091125D01*
X74822947Y-71110293D01*
X74822949Y-71110294D01*
X74822951Y-71110295D01*
X74869736Y-71130372D01*
X74878892Y-71134301D01*
X74883991Y-71136722D01*
X74937951Y-71164909D01*
X74970207Y-71174138D01*
X74979102Y-71177305D01*
X74990594Y-71182236D01*
X75009942Y-71190540D01*
X75069557Y-71202790D01*
X75075060Y-71204140D01*
X75133573Y-71220884D01*
X75133576Y-71220884D01*
X75133582Y-71220886D01*
X75167053Y-71223434D01*
X75176385Y-71224744D01*
X75209259Y-71231500D01*
X75270123Y-71231500D01*
X75275782Y-71231715D01*
X75336476Y-71236337D01*
X75369762Y-71232098D01*
X75379184Y-71231500D01*
X76606259Y-71231500D01*
X79527259Y-71231500D01*
X80593260Y-71231500D01*
X80667760Y-71251462D01*
X80722298Y-71306000D01*
X80742260Y-71380500D01*
X80722298Y-71455000D01*
X80720780Y-71457567D01*
X80707422Y-71479666D01*
X80669625Y-71542189D01*
X80669621Y-71542196D01*
X80619014Y-71704603D01*
X80618574Y-71709443D01*
X80612600Y-71775184D01*
X80612600Y-71775189D01*
X80612600Y-71775190D01*
X80612600Y-71884213D01*
X80592638Y-71958713D01*
X80568959Y-71989572D01*
X79920871Y-72637659D01*
X79854076Y-72676223D01*
X79815513Y-72681300D01*
X79638759Y-72681300D01*
X79539392Y-72691451D01*
X79539391Y-72691451D01*
X79378400Y-72744798D01*
X79234055Y-72833832D01*
X79114132Y-72953755D01*
X79025098Y-73098100D01*
X78971751Y-73259091D01*
X78969720Y-73278964D01*
X78963380Y-73341039D01*
X78961600Y-73358459D01*
X78961600Y-73653047D01*
X78941638Y-73727547D01*
X78887100Y-73782085D01*
X78812600Y-73802047D01*
X78738100Y-73782085D01*
X78734393Y-73779872D01*
X78626297Y-73713197D01*
X78465308Y-73659851D01*
X78365945Y-73649700D01*
X78365940Y-73649700D01*
X77819260Y-73649700D01*
X77719891Y-73659851D01*
X77558900Y-73713198D01*
X77414555Y-73802232D01*
X77294632Y-73922155D01*
X77205598Y-74066500D01*
X77152251Y-74227491D01*
X77142100Y-74326859D01*
X77142100Y-74923539D01*
X77142101Y-74923544D01*
X77152251Y-75022908D01*
X77205597Y-75183897D01*
X77294632Y-75328244D01*
X77414556Y-75448168D01*
X77558903Y-75537203D01*
X77719892Y-75590549D01*
X77819255Y-75600700D01*
X78365944Y-75600699D01*
X78465308Y-75590549D01*
X78626297Y-75537203D01*
X78770644Y-75448168D01*
X78890568Y-75328244D01*
X78890568Y-75328243D01*
X78896704Y-75322108D01*
X78898555Y-75323959D01*
X78949244Y-75286226D01*
X79004251Y-75275700D01*
X79526436Y-75275700D01*
X79600936Y-75295662D01*
X79631795Y-75319341D01*
X79676458Y-75364004D01*
X79715022Y-75430799D01*
X79720099Y-75469363D01*
X79720099Y-75893224D01*
X79720100Y-75893225D01*
X79735529Y-76015359D01*
X79737860Y-76024437D01*
X79736849Y-76024696D01*
X79745100Y-76067953D01*
X79745100Y-76239198D01*
X79745101Y-76239206D01*
X79745977Y-76245859D01*
X79735906Y-76322326D01*
X79688951Y-76383514D01*
X79617692Y-76413026D01*
X79598251Y-76414300D01*
X79296203Y-76414300D01*
X79186128Y-76428791D01*
X79049170Y-76485520D01*
X78928978Y-76577747D01*
X78857721Y-76607262D01*
X78781253Y-76597195D01*
X78720063Y-76550242D01*
X78696837Y-76506409D01*
X78691103Y-76489103D01*
X78602068Y-76344756D01*
X78482144Y-76224832D01*
X78337797Y-76135797D01*
X78176808Y-76082451D01*
X78077445Y-76072300D01*
X78077440Y-76072300D01*
X77530760Y-76072300D01*
X77431391Y-76082451D01*
X77270400Y-76135798D01*
X77126055Y-76224832D01*
X77006132Y-76344755D01*
X76917098Y-76489100D01*
X76863751Y-76650091D01*
X76853600Y-76749459D01*
X76853600Y-77346139D01*
X76863751Y-77445508D01*
X76917098Y-77606499D01*
X76938851Y-77641765D01*
X76962951Y-77680838D01*
X76973242Y-77697521D01*
X76995363Y-77771408D01*
X76977576Y-77846458D01*
X76924648Y-77902559D01*
X76850761Y-77924680D01*
X76775711Y-77906893D01*
X76769344Y-77903255D01*
X76691712Y-77856325D01*
X76691708Y-77856323D01*
X76691706Y-77856322D01*
X76529296Y-77805714D01*
X76458716Y-77799300D01*
X75795484Y-77799300D01*
X75735908Y-77804714D01*
X75724903Y-77805714D01*
X75562496Y-77856321D01*
X75562491Y-77856324D01*
X75416914Y-77944327D01*
X75407456Y-77953786D01*
X75340659Y-77992348D01*
X75263531Y-77992346D01*
X75196744Y-77953786D01*
X75186285Y-77943327D01*
X75092859Y-77886850D01*
X75040706Y-77855322D01*
X74947633Y-77826320D01*
X74878296Y-77804714D01*
X74878295Y-77804714D01*
X74807716Y-77798300D01*
X74144484Y-77798300D01*
X74082726Y-77803912D01*
X74073903Y-77804714D01*
X74053750Y-77810994D01*
X74014925Y-77823092D01*
X73937861Y-77826197D01*
X73869568Y-77790353D01*
X73828346Y-77725165D01*
X73821600Y-77680838D01*
X73821600Y-72391510D01*
X73822069Y-72383162D01*
X73823919Y-72366741D01*
X73826338Y-72345273D01*
X73823770Y-72307186D01*
X73821769Y-72277490D01*
X73821600Y-72272478D01*
X73821600Y-72260943D01*
X73821599Y-72260942D01*
X73817825Y-72219001D01*
X73811197Y-72120688D01*
X73810607Y-72118348D01*
X73806691Y-72095290D01*
X73806477Y-72092915D01*
X73806477Y-72092912D01*
X73780269Y-71997952D01*
X73756196Y-71902417D01*
X73755203Y-71900231D01*
X73747233Y-71878249D01*
X73746593Y-71875930D01*
X73703841Y-71787155D01*
X73663107Y-71697475D01*
X73661745Y-71695509D01*
X73649971Y-71675290D01*
X73648931Y-71673131D01*
X73648929Y-71673127D01*
X73591014Y-71593414D01*
X73534920Y-71512446D01*
X73533218Y-71510744D01*
X73518030Y-71492960D01*
X73516622Y-71491022D01*
X73502760Y-71477769D01*
X73445420Y-71422946D01*
X71802850Y-69780376D01*
X71797278Y-69774141D01*
X71773508Y-69744334D01*
X71722341Y-69699630D01*
X71718698Y-69696224D01*
X71710526Y-69688052D01*
X71678181Y-69661049D01*
X71603997Y-69596236D01*
X71603996Y-69596235D01*
X71601922Y-69594996D01*
X71582861Y-69581469D01*
X71581019Y-69579932D01*
X71495340Y-69531316D01*
X71410764Y-69480785D01*
X71410763Y-69480784D01*
X71410762Y-69480784D01*
X71409937Y-69480474D01*
X71408509Y-69479938D01*
X71387341Y-69470036D01*
X71385245Y-69468847D01*
X71385243Y-69468846D01*
X71385241Y-69468845D01*
X71385239Y-69468844D01*
X71292253Y-69436307D01*
X71200021Y-69401691D01*
X71197653Y-69401262D01*
X71175058Y-69395298D01*
X71172783Y-69394502D01*
X71075472Y-69379089D01*
X70978547Y-69361500D01*
X70978544Y-69361500D01*
X70976140Y-69361500D01*
X70952842Y-69359667D01*
X70950460Y-69359290D01*
X70950458Y-69359290D01*
X70950452Y-69359289D01*
X70851978Y-69361500D01*
X64841692Y-69361500D01*
X64767192Y-69341538D01*
X64736333Y-69317859D01*
X63834543Y-68416069D01*
X63795979Y-68349274D01*
X63790902Y-68310710D01*
X63790902Y-66495916D01*
X67027545Y-66495916D01*
X67028946Y-66496495D01*
X67281479Y-66557123D01*
X67540402Y-66577501D01*
X67799324Y-66557123D01*
X68051854Y-66496496D01*
X68051859Y-66496495D01*
X68053256Y-66495916D01*
X67540402Y-65983060D01*
X67027545Y-66495916D01*
X63790902Y-66495916D01*
X63790902Y-66283283D01*
X63810864Y-66208783D01*
X63838553Y-66174061D01*
X63863963Y-66150485D01*
X64032217Y-65939502D01*
X64167145Y-65705798D01*
X64265736Y-65454595D01*
X64266229Y-65452437D01*
X64325783Y-65191513D01*
X64325783Y-65191510D01*
X64325785Y-65191503D01*
X64336751Y-65045165D01*
X64345951Y-64922405D01*
X64345951Y-64922400D01*
X65885300Y-64922400D01*
X65905678Y-65181322D01*
X65966305Y-65433853D01*
X65966308Y-65433862D01*
X65966884Y-65435254D01*
X65966885Y-65435254D01*
X66479740Y-64922399D01*
X66438603Y-64881262D01*
X66886529Y-64881262D01*
X66896841Y-65045166D01*
X66941081Y-65181322D01*
X66947590Y-65201356D01*
X67035586Y-65340017D01*
X67035587Y-65340017D01*
X67035588Y-65340019D01*
X67155305Y-65452440D01*
X67208305Y-65481577D01*
X67299218Y-65531558D01*
X67354168Y-65545666D01*
X67458288Y-65572400D01*
X67458290Y-65572400D01*
X67581297Y-65572400D01*
X67581296Y-65572399D01*
X67703335Y-65556983D01*
X67856031Y-65496526D01*
X67988894Y-65399995D01*
X68093577Y-65273455D01*
X68163502Y-65124857D01*
X68194275Y-64963538D01*
X68191687Y-64922399D01*
X68601062Y-64922399D01*
X69113918Y-65435254D01*
X69114497Y-65433857D01*
X69114498Y-65433852D01*
X69175125Y-65181322D01*
X69195503Y-64922400D01*
X69175125Y-64663477D01*
X69114497Y-64410944D01*
X69113917Y-64409543D01*
X68601062Y-64922399D01*
X68191687Y-64922399D01*
X68183963Y-64799634D01*
X68133214Y-64643444D01*
X68045216Y-64504781D01*
X67925499Y-64392360D01*
X67921579Y-64390205D01*
X67781585Y-64313241D01*
X67622517Y-64272400D01*
X67622516Y-64272400D01*
X67499508Y-64272400D01*
X67499507Y-64272400D01*
X67377468Y-64287817D01*
X67224773Y-64348274D01*
X67091913Y-64444802D01*
X67091906Y-64444809D01*
X66987228Y-64571341D01*
X66987225Y-64571347D01*
X66917303Y-64719938D01*
X66917302Y-64719940D01*
X66902100Y-64799634D01*
X66886529Y-64881262D01*
X66438603Y-64881262D01*
X65966885Y-64409544D01*
X65966303Y-64410953D01*
X65905678Y-64663477D01*
X65885300Y-64922400D01*
X64345951Y-64922400D01*
X64345951Y-64922394D01*
X64325786Y-64653309D01*
X64325785Y-64653307D01*
X64325785Y-64653297D01*
X64325783Y-64653291D01*
X64325783Y-64653286D01*
X64265738Y-64390212D01*
X64265736Y-64390205D01*
X64265735Y-64390204D01*
X64167145Y-64139002D01*
X64032217Y-63905298D01*
X63863963Y-63694315D01*
X63666143Y-63510765D01*
X63443177Y-63358749D01*
X63443174Y-63358748D01*
X63443172Y-63358746D01*
X63422691Y-63348883D01*
X67027546Y-63348883D01*
X67540401Y-63861738D01*
X68053256Y-63348883D01*
X68053256Y-63348882D01*
X68051864Y-63348306D01*
X68051855Y-63348303D01*
X67799324Y-63287676D01*
X67540402Y-63267298D01*
X67281479Y-63287676D01*
X67028955Y-63348301D01*
X67027546Y-63348883D01*
X63422691Y-63348883D01*
X63200052Y-63241666D01*
X63200048Y-63241664D01*
X63200043Y-63241662D01*
X63200035Y-63241659D01*
X63200031Y-63241658D01*
X62942179Y-63162121D01*
X62942175Y-63162120D01*
X62675334Y-63121900D01*
X62675331Y-63121900D01*
X62405473Y-63121900D01*
X62405469Y-63121900D01*
X62138628Y-63162120D01*
X62138624Y-63162121D01*
X61880772Y-63241658D01*
X61880751Y-63241666D01*
X61637629Y-63358748D01*
X61414661Y-63510764D01*
X61216840Y-63694315D01*
X61048591Y-63905292D01*
X61048586Y-63905300D01*
X60913659Y-64139001D01*
X60913657Y-64139006D01*
X60815067Y-64390205D01*
X60815065Y-64390212D01*
X60755020Y-64653286D01*
X60755017Y-64653309D01*
X60734853Y-64922394D01*
X60734853Y-64922405D01*
X60755017Y-65191490D01*
X60755020Y-65191513D01*
X60815065Y-65454587D01*
X60815067Y-65454594D01*
X60856426Y-65559974D01*
X60865062Y-65636617D01*
X60834219Y-65707310D01*
X60823085Y-65719768D01*
X60605397Y-65937458D01*
X60538603Y-65976023D01*
X60500038Y-65981100D01*
X59110685Y-65981100D01*
X59036185Y-65961138D01*
X59034838Y-65960351D01*
X59022291Y-65952931D01*
X58968132Y-65920901D01*
X58936395Y-65902132D01*
X58936394Y-65902131D01*
X58936393Y-65902131D01*
X58871798Y-65883364D01*
X58782206Y-65857335D01*
X58770196Y-65856390D01*
X58746181Y-65854500D01*
X58746177Y-65854500D01*
X58419857Y-65854500D01*
X58345357Y-65834538D01*
X58290819Y-65780000D01*
X58271424Y-65718484D01*
X58266999Y-65667904D01*
X58266999Y-65667901D01*
X58266997Y-65667896D01*
X58265244Y-65659402D01*
X58265536Y-65659341D01*
X58264534Y-65654821D01*
X58264243Y-65654891D01*
X58262241Y-65646447D01*
X58262241Y-65646443D01*
X58235974Y-65574274D01*
X58211814Y-65501364D01*
X58211812Y-65501361D01*
X58208147Y-65493499D01*
X58208416Y-65493373D01*
X58206396Y-65489201D01*
X58206131Y-65489335D01*
X58202239Y-65481588D01*
X58202237Y-65481581D01*
X58184488Y-65454595D01*
X58160034Y-65417413D01*
X58137092Y-65380219D01*
X58119712Y-65352042D01*
X58119706Y-65352036D01*
X58114335Y-65345243D01*
X58114569Y-65345057D01*
X58111634Y-65341455D01*
X58111406Y-65341647D01*
X58105833Y-65335004D01*
X58073944Y-65304919D01*
X58049982Y-65282312D01*
X57643140Y-64875470D01*
X57604578Y-64808678D01*
X57599501Y-64770120D01*
X57599502Y-64651026D01*
X57589438Y-64552515D01*
X57536551Y-64392913D01*
X57448283Y-64249809D01*
X57329393Y-64130919D01*
X57186289Y-64042651D01*
X57186288Y-64042651D01*
X57026688Y-63989764D01*
X57026689Y-63989764D01*
X56993850Y-63986409D01*
X56928176Y-63979700D01*
X56394828Y-63979700D01*
X56329153Y-63986409D01*
X56296315Y-63989764D01*
X56136715Y-64042651D01*
X56136714Y-64042651D01*
X55993612Y-64130918D01*
X55874720Y-64249810D01*
X55786453Y-64392912D01*
X55786453Y-64392913D01*
X55733566Y-64552513D01*
X55733565Y-64552515D01*
X55733566Y-64552515D01*
X55723502Y-64651026D01*
X55723502Y-65259374D01*
X55731228Y-65335002D01*
X55733566Y-65357886D01*
X55748660Y-65403435D01*
X55786453Y-65517487D01*
X55874721Y-65660591D01*
X55993611Y-65779481D01*
X56136715Y-65867749D01*
X56296317Y-65920636D01*
X56394828Y-65930700D01*
X56513916Y-65930700D01*
X56588416Y-65950662D01*
X56619275Y-65974341D01*
X56732858Y-66087924D01*
X56771422Y-66154719D01*
X56776499Y-66193283D01*
X56776499Y-66309507D01*
X56770584Y-66351072D01*
X56767859Y-66360454D01*
X56759335Y-66389796D01*
X56756500Y-66425819D01*
X56756501Y-66924180D01*
X56757615Y-66938345D01*
X56759334Y-66960199D01*
X56759334Y-66960202D01*
X56759335Y-66960204D01*
X56796934Y-67089622D01*
X56804132Y-67114395D01*
X56805404Y-67116545D01*
X56885865Y-67252598D01*
X56999402Y-67366135D01*
X57137607Y-67447869D01*
X57291796Y-67492665D01*
X57327819Y-67495500D01*
X57726180Y-67495499D01*
X57762204Y-67492665D01*
X57916393Y-67447869D01*
X57961154Y-67421397D01*
X58035438Y-67400655D01*
X58110143Y-67419835D01*
X58112768Y-67421351D01*
X58157607Y-67447869D01*
X58311796Y-67492665D01*
X58347819Y-67495500D01*
X58746180Y-67495499D01*
X58782204Y-67492665D01*
X58936393Y-67447869D01*
X59074598Y-67366135D01*
X59114991Y-67325741D01*
X59181787Y-67287177D01*
X59220351Y-67282100D01*
X60742936Y-67282100D01*
X60760114Y-67283996D01*
X60760163Y-67283478D01*
X60769497Y-67284359D01*
X60769498Y-67284360D01*
X60769498Y-67284359D01*
X60769499Y-67284360D01*
X60841405Y-67282100D01*
X60872125Y-67282100D01*
X60872127Y-67282100D01*
X60876865Y-67281501D01*
X60878805Y-67281256D01*
X60885812Y-67280704D01*
X60917387Y-67279711D01*
X60933771Y-67279197D01*
X60952265Y-67273823D01*
X60975142Y-67269085D01*
X60994260Y-67266671D01*
X61038883Y-67249002D01*
X61045504Y-67246735D01*
X61091600Y-67233344D01*
X61091600Y-67233343D01*
X61099335Y-67231097D01*
X61176446Y-67229483D01*
X61244033Y-67266640D01*
X61283986Y-67332614D01*
X61289902Y-67374181D01*
X61289902Y-68815991D01*
X61289433Y-68824339D01*
X61285163Y-68862233D01*
X61288710Y-68914829D01*
X61289446Y-68925746D01*
X61289733Y-68929990D01*
X61289902Y-68935004D01*
X61289902Y-68946561D01*
X61293679Y-68988525D01*
X61300306Y-69086816D01*
X61300893Y-69089146D01*
X61304809Y-69112187D01*
X61305025Y-69114595D01*
X61331237Y-69209567D01*
X61355305Y-69305084D01*
X61356299Y-69307271D01*
X61364268Y-69329251D01*
X61364908Y-69331570D01*
X61407655Y-69420337D01*
X61448393Y-69510025D01*
X61449760Y-69511998D01*
X61461528Y-69532206D01*
X61462569Y-69534369D01*
X61462572Y-69534373D01*
X61462573Y-69534375D01*
X61507517Y-69596236D01*
X61520480Y-69614078D01*
X61576580Y-69695054D01*
X61578282Y-69696756D01*
X61593464Y-69714531D01*
X61594878Y-69716478D01*
X61594885Y-69716485D01*
X61666081Y-69784555D01*
X63325148Y-71443622D01*
X63330720Y-71449857D01*
X63354489Y-71479663D01*
X63354930Y-71480124D01*
X63355090Y-71480416D01*
X63358664Y-71484898D01*
X63357885Y-71485518D01*
X63391990Y-71547764D01*
X63390266Y-71624873D01*
X63350217Y-71690789D01*
X63282577Y-71727849D01*
X63247241Y-71732100D01*
X55165800Y-71732100D01*
X55165795Y-71732100D01*
X55165784Y-71732101D01*
X55058347Y-71743651D01*
X55058343Y-71743652D01*
X55006836Y-71754858D01*
X54904294Y-71788987D01*
X54783256Y-71866775D01*
X54730453Y-71912529D01*
X54730451Y-71912531D01*
X54636231Y-72021265D01*
X54576463Y-72152138D01*
X54576458Y-72152152D01*
X54556775Y-72219182D01*
X54556773Y-72219193D01*
X54536301Y-72361585D01*
X54536300Y-72361603D01*
X54536300Y-78060100D01*
X54516338Y-78134600D01*
X54461800Y-78189138D01*
X54387300Y-78209100D01*
X53387800Y-78209100D01*
X53387795Y-78209100D01*
X53387784Y-78209101D01*
X53280347Y-78220651D01*
X53280343Y-78220652D01*
X53228836Y-78231858D01*
X53126294Y-78265987D01*
X53005256Y-78343775D01*
X52952453Y-78389529D01*
X52952451Y-78389531D01*
X52858231Y-78498265D01*
X52798463Y-78629138D01*
X52798458Y-78629152D01*
X52778775Y-78696182D01*
X52778773Y-78696193D01*
X52758301Y-78838585D01*
X52757921Y-78843905D01*
X52756004Y-78843767D01*
X52738338Y-78909701D01*
X52683800Y-78964239D01*
X52609300Y-78984201D01*
X52595818Y-78983590D01*
X52585169Y-78982622D01*
X52568416Y-78981100D01*
X52568413Y-78981100D01*
X52550345Y-78981100D01*
X52520352Y-78978050D01*
X52509228Y-78975764D01*
X52413541Y-78956100D01*
X51079541Y-78956100D01*
X49593058Y-78956100D01*
X49593049Y-78956100D01*
X49441365Y-78971525D01*
X49441361Y-78971526D01*
X49432625Y-78974267D01*
X49390549Y-78980712D01*
X49390560Y-78980947D01*
X49388371Y-78981046D01*
X49388021Y-78981100D01*
X49387184Y-78981100D01*
X49325426Y-78986712D01*
X49316603Y-78987514D01*
X49154196Y-79038121D01*
X49154194Y-79038121D01*
X49154194Y-79038122D01*
X49131316Y-79051952D01*
X49008615Y-79126127D01*
X48888325Y-79246417D01*
X48888324Y-79246419D01*
X48800324Y-79391987D01*
X48800321Y-79391994D01*
X48793210Y-79414813D01*
X48784732Y-79436096D01*
X48700740Y-79607327D01*
X48649737Y-79804313D01*
X48639431Y-80007538D01*
X48670244Y-80208673D01*
X48740911Y-80399481D01*
X48740913Y-80399484D01*
X48740914Y-80399487D01*
X48773750Y-80452167D01*
X48789555Y-80486654D01*
X48800322Y-80521206D01*
X48854955Y-80611579D01*
X48888327Y-80666784D01*
X49008616Y-80787073D01*
X49062403Y-80819588D01*
X49115832Y-80875212D01*
X49134291Y-80950099D01*
X49112833Y-81024182D01*
X49057209Y-81077611D01*
X48985322Y-81096100D01*
X48882937Y-81096100D01*
X48882911Y-81096102D01*
X48823321Y-81102508D01*
X48823315Y-81102509D01*
X48688470Y-81152802D01*
X48688466Y-81152804D01*
X48573255Y-81239052D01*
X48573252Y-81239055D01*
X48487004Y-81354266D01*
X48487002Y-81354270D01*
X48436708Y-81489117D01*
X48430300Y-81548714D01*
X48430300Y-82244463D01*
X48430302Y-82244488D01*
X48436708Y-82304078D01*
X48436709Y-82304084D01*
X48487002Y-82438929D01*
X48487006Y-82438935D01*
X48489533Y-82442311D01*
X48491410Y-82447001D01*
X48492111Y-82448284D01*
X48491957Y-82448367D01*
X48518197Y-82513915D01*
X48507218Y-82590257D01*
X48489533Y-82620889D01*
X48487006Y-82624264D01*
X48487002Y-82624270D01*
X48436708Y-82759117D01*
X48430300Y-82818714D01*
X48430300Y-83514463D01*
X48430302Y-83514488D01*
X48436708Y-83574078D01*
X48436709Y-83574084D01*
X48487002Y-83708929D01*
X48487006Y-83708935D01*
X48489533Y-83712311D01*
X48491410Y-83717001D01*
X48492111Y-83718284D01*
X48491957Y-83718367D01*
X48518197Y-83783915D01*
X48507218Y-83860257D01*
X48489533Y-83890889D01*
X48487006Y-83894264D01*
X48487002Y-83894270D01*
X48436708Y-84029117D01*
X48430300Y-84088714D01*
X48430300Y-84784463D01*
X48430302Y-84784488D01*
X48436708Y-84844078D01*
X48436709Y-84844084D01*
X48487002Y-84978929D01*
X48487006Y-84978935D01*
X48489533Y-84982311D01*
X48491410Y-84987001D01*
X48492111Y-84988284D01*
X48491957Y-84988367D01*
X48518197Y-85053915D01*
X48507218Y-85130257D01*
X48489533Y-85160889D01*
X48487006Y-85164264D01*
X48487002Y-85164270D01*
X48436708Y-85299117D01*
X48430300Y-85358714D01*
X48430300Y-86054463D01*
X48430302Y-86054488D01*
X48436708Y-86114078D01*
X48436709Y-86114084D01*
X48487002Y-86248929D01*
X48487004Y-86248933D01*
X48573252Y-86364144D01*
X48573255Y-86364147D01*
X48646424Y-86418921D01*
X48694101Y-86479548D01*
X48705077Y-86555891D01*
X48704615Y-86559404D01*
X48694300Y-86631149D01*
X48694300Y-88982100D01*
X48674338Y-89056600D01*
X48619800Y-89111138D01*
X48545300Y-89131100D01*
X45917300Y-89131100D01*
X45842800Y-89111138D01*
X45788262Y-89056600D01*
X45768300Y-88982100D01*
X45768300Y-86538252D01*
X45760269Y-86448501D01*
X45760269Y-86448502D01*
X45752449Y-86405158D01*
X45752448Y-86405157D01*
X45743187Y-86371400D01*
X45728610Y-86318263D01*
X45728609Y-86318262D01*
X45728609Y-86318260D01*
X45659656Y-86191982D01*
X45659655Y-86191981D01*
X45652698Y-86182688D01*
X45617786Y-86136050D01*
X45617784Y-86136047D01*
X45617697Y-86135947D01*
X45617675Y-86135901D01*
X45614597Y-86131790D01*
X45615389Y-86131196D01*
X45583993Y-86066573D01*
X45581299Y-86038378D01*
X45581299Y-85358728D01*
X45574891Y-85299117D01*
X45534361Y-85190451D01*
X45524597Y-85164271D01*
X45524596Y-85164270D01*
X45524596Y-85164269D01*
X45522070Y-85160894D01*
X45520192Y-85156205D01*
X45519489Y-85154917D01*
X45519642Y-85154832D01*
X45493402Y-85089295D01*
X45504376Y-85012952D01*
X45522071Y-84982302D01*
X45524596Y-84978931D01*
X45574891Y-84844083D01*
X45578433Y-84811138D01*
X45581299Y-84784485D01*
X45581299Y-84784482D01*
X45581300Y-84784473D01*
X45581299Y-84088728D01*
X45574891Y-84029117D01*
X45552833Y-83969976D01*
X45524597Y-83894270D01*
X45524595Y-83894266D01*
X45438347Y-83779055D01*
X45438344Y-83779052D01*
X45323133Y-83692804D01*
X45323129Y-83692802D01*
X45188282Y-83642508D01*
X45128676Y-83636100D01*
X43482936Y-83636100D01*
X43482911Y-83636102D01*
X43423321Y-83642508D01*
X43423312Y-83642510D01*
X43323025Y-83679914D01*
X43288264Y-83688299D01*
X43279232Y-83689355D01*
X43274507Y-83689908D01*
X43253753Y-83691723D01*
X43198000Y-83696601D01*
X43189511Y-83698355D01*
X43189451Y-83698065D01*
X43184920Y-83699069D01*
X43184989Y-83699357D01*
X43176545Y-83701358D01*
X43104373Y-83727626D01*
X43031466Y-83751784D01*
X43023604Y-83755451D01*
X43023479Y-83755184D01*
X43019301Y-83757206D01*
X43019434Y-83757470D01*
X43011685Y-83761361D01*
X42947523Y-83803561D01*
X42882146Y-83843886D01*
X42875336Y-83849271D01*
X42875153Y-83849040D01*
X42871563Y-83851965D01*
X42871752Y-83852191D01*
X42865106Y-83857767D01*
X42812413Y-83913618D01*
X42736499Y-83989531D01*
X42669704Y-84028094D01*
X42592576Y-84028094D01*
X42569250Y-84019708D01*
X42503459Y-83989662D01*
X42503456Y-83989661D01*
X42503447Y-83989658D01*
X42436418Y-83969976D01*
X42436417Y-83969975D01*
X42436406Y-83969973D01*
X42294014Y-83949501D01*
X42294002Y-83949500D01*
X42294000Y-83949500D01*
X40764000Y-83949500D01*
X40763995Y-83949500D01*
X40763984Y-83949501D01*
X40656547Y-83961051D01*
X40656543Y-83961052D01*
X40605034Y-83972258D01*
X40605031Y-83972259D01*
X40579554Y-83980739D01*
X40502563Y-83985325D01*
X40433593Y-83950802D01*
X40391125Y-83886418D01*
X40383500Y-83839364D01*
X40383500Y-82244463D01*
X43030300Y-82244463D01*
X43030302Y-82244488D01*
X43036708Y-82304078D01*
X43036709Y-82304084D01*
X43087002Y-82438929D01*
X43087004Y-82438933D01*
X43173252Y-82554144D01*
X43173255Y-82554147D01*
X43288466Y-82640395D01*
X43288470Y-82640397D01*
X43423317Y-82690691D01*
X43482914Y-82697099D01*
X43482918Y-82697099D01*
X43482927Y-82697100D01*
X45128672Y-82697099D01*
X45188283Y-82690691D01*
X45284247Y-82654898D01*
X45323129Y-82640397D01*
X45323133Y-82640395D01*
X45419397Y-82568331D01*
X45438346Y-82554146D01*
X45503784Y-82466732D01*
X45524595Y-82438933D01*
X45524597Y-82438929D01*
X45551752Y-82366122D01*
X45574891Y-82304083D01*
X45576623Y-82287970D01*
X45581299Y-82244485D01*
X45581299Y-82244482D01*
X45581300Y-82244473D01*
X45581299Y-81548728D01*
X45574891Y-81489117D01*
X45532028Y-81374194D01*
X45524597Y-81354270D01*
X45524595Y-81354266D01*
X45438347Y-81239055D01*
X45438344Y-81239052D01*
X45323133Y-81152804D01*
X45323129Y-81152802D01*
X45188282Y-81102508D01*
X45128676Y-81096100D01*
X43482936Y-81096100D01*
X43482911Y-81096102D01*
X43423321Y-81102508D01*
X43423315Y-81102509D01*
X43288470Y-81152802D01*
X43288466Y-81152804D01*
X43173255Y-81239052D01*
X43173252Y-81239055D01*
X43087004Y-81354266D01*
X43087002Y-81354270D01*
X43036708Y-81489117D01*
X43030300Y-81548714D01*
X43030300Y-82244463D01*
X40383500Y-82244463D01*
X40383500Y-79753005D01*
X40383498Y-79752984D01*
X40371948Y-79645547D01*
X40371947Y-79645543D01*
X40368195Y-79628297D01*
X40360741Y-79594033D01*
X40326613Y-79491496D01*
X40315878Y-79474793D01*
X40292394Y-79401329D01*
X40292263Y-79397581D01*
X40287334Y-79178014D01*
X40305619Y-79103085D01*
X40334952Y-79065444D01*
X40363361Y-79039085D01*
X40531615Y-78828102D01*
X40666543Y-78594398D01*
X40765134Y-78343195D01*
X40786124Y-78251231D01*
X40825181Y-78080113D01*
X40825181Y-78080110D01*
X40825183Y-78080103D01*
X40835652Y-77940399D01*
X40845349Y-77811005D01*
X40845349Y-77810994D01*
X40825184Y-77541909D01*
X40825183Y-77541907D01*
X40825183Y-77541897D01*
X40825181Y-77541891D01*
X40825181Y-77541886D01*
X40765136Y-77278812D01*
X40765134Y-77278805D01*
X40755116Y-77253279D01*
X40666543Y-77027602D01*
X40531615Y-76793898D01*
X40363361Y-76582915D01*
X40165541Y-76399365D01*
X39942575Y-76247349D01*
X39942572Y-76247348D01*
X39942570Y-76247346D01*
X39699450Y-76130266D01*
X39699446Y-76130264D01*
X39699441Y-76130262D01*
X39699433Y-76130259D01*
X39699429Y-76130258D01*
X39441577Y-76050721D01*
X39441573Y-76050720D01*
X39174732Y-76010500D01*
X39174729Y-76010500D01*
X38904871Y-76010500D01*
X38904867Y-76010500D01*
X38638026Y-76050720D01*
X38638022Y-76050721D01*
X38380170Y-76130258D01*
X38380149Y-76130266D01*
X38137027Y-76247348D01*
X37914059Y-76399364D01*
X37716238Y-76582915D01*
X37547989Y-76793892D01*
X37547986Y-76793896D01*
X37547985Y-76793898D01*
X37547031Y-76795550D01*
X37413057Y-77027601D01*
X37413055Y-77027606D01*
X37314465Y-77278805D01*
X37314463Y-77278812D01*
X37254418Y-77541886D01*
X37254415Y-77541909D01*
X37234251Y-77810994D01*
X37234251Y-77811005D01*
X37254415Y-78080090D01*
X37254418Y-78080113D01*
X37314463Y-78343187D01*
X37314465Y-78343194D01*
X37365741Y-78473840D01*
X37413057Y-78594398D01*
X37547985Y-78828102D01*
X37549551Y-78830066D01*
X37562461Y-78846254D01*
X37593305Y-78916947D01*
X37584670Y-78993590D01*
X37555983Y-79039644D01*
X37557070Y-79038453D01*
X37527026Y-79074439D01*
X37463956Y-79118834D01*
X37428578Y-79127092D01*
X37354544Y-79135052D01*
X37354543Y-79135052D01*
X37303036Y-79146258D01*
X37200494Y-79180387D01*
X37079456Y-79258175D01*
X37026653Y-79303929D01*
X37026651Y-79303931D01*
X36932431Y-79412665D01*
X36872663Y-79543538D01*
X36872658Y-79543552D01*
X36852975Y-79610582D01*
X36852973Y-79610593D01*
X36832501Y-79752985D01*
X36832500Y-79753003D01*
X36832500Y-88267994D01*
X36025500Y-88267994D01*
X36025500Y-73561000D01*
X37389801Y-73561000D01*
X37389801Y-74144214D01*
X37389802Y-74144230D01*
X37399712Y-74212250D01*
X37451012Y-74317187D01*
X37533612Y-74399787D01*
X37638549Y-74451087D01*
X37638553Y-74451088D01*
X37706577Y-74460999D01*
X38289800Y-74460999D01*
X38289800Y-73561000D01*
X39789800Y-73561000D01*
X39789800Y-74460999D01*
X40373014Y-74460999D01*
X40373030Y-74460997D01*
X40441050Y-74451087D01*
X40545987Y-74399787D01*
X40628587Y-74317187D01*
X40679887Y-74212250D01*
X40679888Y-74212246D01*
X40689799Y-74144227D01*
X40689800Y-74144217D01*
X40689800Y-73561000D01*
X39789800Y-73561000D01*
X38289800Y-73561000D01*
X37389801Y-73561000D01*
X36025500Y-73561000D01*
X36025500Y-72769862D01*
X38385927Y-72769862D01*
X38396239Y-72933766D01*
X38433689Y-73049026D01*
X38446988Y-73089956D01*
X38534984Y-73228617D01*
X38534985Y-73228617D01*
X38534986Y-73228619D01*
X38654703Y-73341040D01*
X38686381Y-73358455D01*
X38798616Y-73420158D01*
X38853566Y-73434266D01*
X38957686Y-73461000D01*
X38957688Y-73461000D01*
X39080695Y-73461000D01*
X39080694Y-73460999D01*
X39202733Y-73445583D01*
X39355429Y-73385126D01*
X39488292Y-73288595D01*
X39592975Y-73162055D01*
X39662900Y-73013457D01*
X39693673Y-72852138D01*
X39683361Y-72688234D01*
X39632612Y-72532044D01*
X39544614Y-72393381D01*
X39424897Y-72280960D01*
X39414045Y-72274994D01*
X39280983Y-72201841D01*
X39121915Y-72161000D01*
X39121914Y-72161000D01*
X38998906Y-72161000D01*
X38998905Y-72161000D01*
X38876866Y-72176417D01*
X38724171Y-72236874D01*
X38591311Y-72333402D01*
X38591304Y-72333409D01*
X38486626Y-72459941D01*
X38486623Y-72459947D01*
X38416701Y-72608538D01*
X38416700Y-72608540D01*
X38390708Y-72744797D01*
X38385927Y-72769862D01*
X36025500Y-72769862D01*
X36025500Y-72061000D01*
X37389800Y-72061000D01*
X38289800Y-72061000D01*
X38289800Y-71161000D01*
X39789800Y-71161000D01*
X39789800Y-72061000D01*
X40689799Y-72061000D01*
X40689799Y-71477785D01*
X40689797Y-71477769D01*
X40679887Y-71409749D01*
X40628587Y-71304812D01*
X40545987Y-71222212D01*
X40441050Y-71170912D01*
X40441046Y-71170911D01*
X40373027Y-71161000D01*
X39789800Y-71161000D01*
X38289800Y-71161000D01*
X37706586Y-71161000D01*
X37706569Y-71161002D01*
X37638549Y-71170912D01*
X37533612Y-71222212D01*
X37451012Y-71304812D01*
X37399712Y-71409749D01*
X37399711Y-71409753D01*
X37389800Y-71477772D01*
X37389800Y-72061000D01*
X36025500Y-72061000D01*
X36025500Y-66963938D01*
X36045462Y-66889438D01*
X36100000Y-66834900D01*
X36174500Y-66814938D01*
X36249000Y-66834900D01*
X36303538Y-66889438D01*
X36313599Y-66910530D01*
X36354755Y-67017746D01*
X36456572Y-67217572D01*
X36521324Y-67344655D01*
X36521331Y-67344668D01*
X36721158Y-67652375D01*
X36771728Y-67714823D01*
X36952061Y-67937516D01*
X37211504Y-68196959D01*
X37428190Y-68372428D01*
X37496644Y-68427861D01*
X37804351Y-68627688D01*
X37804355Y-68627690D01*
X37804358Y-68627692D01*
X38131274Y-68794265D01*
X38131286Y-68794269D01*
X38131287Y-68794270D01*
X38473794Y-68925746D01*
X38473804Y-68925749D01*
X38473811Y-68925752D01*
X38828216Y-69020715D01*
X39190606Y-69078112D01*
X39557010Y-69097314D01*
X39923414Y-69078112D01*
X40285804Y-69020715D01*
X40640209Y-68925752D01*
X40982746Y-68794265D01*
X41309662Y-68627692D01*
X41617376Y-68427861D01*
X41902516Y-68196959D01*
X42161959Y-67937516D01*
X42392861Y-67652376D01*
X42592692Y-67344662D01*
X42759265Y-67017746D01*
X42890752Y-66675209D01*
X42985715Y-66320804D01*
X43043112Y-65958414D01*
X43062314Y-65592010D01*
X43043112Y-65225606D01*
X42985715Y-64863216D01*
X42890752Y-64508811D01*
X42890749Y-64508804D01*
X42890746Y-64508794D01*
X42759270Y-64166287D01*
X42759269Y-64166286D01*
X42759265Y-64166274D01*
X42592692Y-63839358D01*
X42592690Y-63839355D01*
X42592688Y-63839351D01*
X42392861Y-63531644D01*
X42375955Y-63510767D01*
X42161959Y-63246504D01*
X41902516Y-62987061D01*
X41617376Y-62756159D01*
X41617377Y-62756159D01*
X41617375Y-62756158D01*
X41309668Y-62556331D01*
X41309655Y-62556324D01*
X41209496Y-62505290D01*
X40982746Y-62389755D01*
X40784360Y-62313602D01*
X40721965Y-62268269D01*
X40690594Y-62197809D01*
X40698656Y-62121103D01*
X40743991Y-62058705D01*
X40814451Y-62027334D01*
X40837760Y-62025500D01*
X97825500Y-62025500D01*
X97900000Y-62045462D01*
G37*
G04 #@! TD.AperFunction*
G04 #@! TA.AperFunction,Conductor*
G36*
X39821039Y-79648685D02*
G01*
X39866794Y-79701489D01*
X39878000Y-79753000D01*
X39878000Y-87249000D01*
X40056204Y-87249000D01*
X40123243Y-87268685D01*
X40168998Y-87321489D01*
X40173858Y-87333841D01*
X40191383Y-87386497D01*
X40191386Y-87386503D01*
X40269171Y-87507537D01*
X40269179Y-87507548D01*
X40314926Y-87560344D01*
X40343203Y-87584846D01*
X40380977Y-87643624D01*
X40386000Y-87678559D01*
X40386000Y-88136591D01*
X40366315Y-88203630D01*
X40349681Y-88224272D01*
X40342623Y-88231329D01*
X40342617Y-88231337D01*
X40283606Y-88331121D01*
X40232537Y-88378804D01*
X40176874Y-88392000D01*
X37462000Y-88392000D01*
X37394961Y-88372315D01*
X37349206Y-88319511D01*
X37338000Y-88268000D01*
X37338000Y-79753000D01*
X37357685Y-79685961D01*
X37410489Y-79640206D01*
X37462000Y-79629000D01*
X39754000Y-79629000D01*
X39821039Y-79648685D01*
G37*
G04 #@! TD.AperFunction*
G04 #@! TA.AperFunction,Conductor*
G36*
X42361039Y-84474685D02*
G01*
X42406794Y-84527489D01*
X42418000Y-84579000D01*
X42418000Y-87125000D01*
X42398315Y-87192039D01*
X42345511Y-87237794D01*
X42294000Y-87249000D01*
X40764000Y-87249000D01*
X40696961Y-87229315D01*
X40651206Y-87176511D01*
X40640000Y-87125000D01*
X40640000Y-84579000D01*
X40659685Y-84511961D01*
X40712489Y-84466206D01*
X40764000Y-84455000D01*
X42294000Y-84455000D01*
X42361039Y-84474685D01*
G37*
G04 #@! TD.AperFunction*
G04 #@! TA.AperFunction,Conductor*
G36*
X68961000Y-92202000D02*
G01*
X88646000Y-92202000D01*
X88646000Y-86089256D01*
X88663267Y-86026136D01*
X88733844Y-85906798D01*
X88779698Y-85748969D01*
X88782600Y-85712094D01*
X88782600Y-85280706D01*
X88779698Y-85243831D01*
X88733844Y-85086002D01*
X88722534Y-85066877D01*
X88663268Y-84966662D01*
X88646000Y-84903542D01*
X88646000Y-83997800D01*
X88646000Y-82600800D01*
X88660481Y-82586319D01*
X88721804Y-82552834D01*
X88748162Y-82550000D01*
X89665000Y-82550000D01*
X89732039Y-82569685D01*
X89777794Y-82622489D01*
X89789000Y-82674000D01*
X89789000Y-93729000D01*
X89769315Y-93796039D01*
X89716511Y-93841794D01*
X89665000Y-93853000D01*
X65656000Y-93853000D01*
X65588961Y-93833315D01*
X65543206Y-93780511D01*
X65532000Y-93729000D01*
X65532000Y-83032600D01*
X65532000Y-82169000D01*
X68961000Y-82169000D01*
X68961000Y-92202000D01*
G37*
G04 #@! TD.AperFunction*
M02*
