G04 #@! TF.GenerationSoftware,KiCad,Pcbnew,7.0.7*
G04 #@! TF.CreationDate,2023-09-29T07:28:47+02:00*
G04 #@! TF.ProjectId,shmoergh-dual-rail-psu,73686d6f-6572-4676-982d-6475616c2d72,rev?*
G04 #@! TF.SameCoordinates,Original*
G04 #@! TF.FileFunction,Legend,Top*
G04 #@! TF.FilePolarity,Positive*
%FSLAX46Y46*%
G04 Gerber Fmt 4.6, Leading zero omitted, Abs format (unit mm)*
G04 Created by KiCad (PCBNEW 7.0.7) date 2023-09-29 07:28:47*
%MOMM*%
%LPD*%
G01*
G04 APERTURE LIST*
G04 Aperture macros list*
%AMRoundRect*
0 Rectangle with rounded corners*
0 $1 Rounding radius*
0 $2 $3 $4 $5 $6 $7 $8 $9 X,Y pos of 4 corners*
0 Add a 4 corners polygon primitive as box body*
4,1,4,$2,$3,$4,$5,$6,$7,$8,$9,$2,$3,0*
0 Add four circle primitives for the rounded corners*
1,1,$1+$1,$2,$3*
1,1,$1+$1,$4,$5*
1,1,$1+$1,$6,$7*
1,1,$1+$1,$8,$9*
0 Add four rect primitives between the rounded corners*
20,1,$1+$1,$2,$3,$4,$5,0*
20,1,$1+$1,$4,$5,$6,$7,0*
20,1,$1+$1,$6,$7,$8,$9,0*
20,1,$1+$1,$8,$9,$2,$3,0*%
G04 Aperture macros list end*
%ADD10C,0.150000*%
%ADD11C,0.202000*%
%ADD12C,0.237639*%
%ADD13C,0.120000*%
%ADD14R,2.600000X2.600000*%
%ADD15C,2.600000*%
%ADD16RoundRect,0.135000X0.135000X0.185000X-0.135000X0.185000X-0.135000X-0.185000X0.135000X-0.185000X0*%
%ADD17RoundRect,0.200000X0.200000X0.275000X-0.200000X0.275000X-0.200000X-0.275000X0.200000X-0.275000X0*%
%ADD18R,5.400000X2.900000*%
%ADD19R,2.500000X1.900000*%
%ADD20RoundRect,0.218750X0.218750X0.256250X-0.218750X0.256250X-0.218750X-0.256250X0.218750X-0.256250X0*%
%ADD21RoundRect,0.200000X-0.275000X0.200000X-0.275000X-0.200000X0.275000X-0.200000X0.275000X0.200000X0*%
%ADD22RoundRect,0.225000X0.250000X-0.225000X0.250000X0.225000X-0.250000X0.225000X-0.250000X-0.225000X0*%
%ADD23RoundRect,0.150000X0.587500X0.150000X-0.587500X0.150000X-0.587500X-0.150000X0.587500X-0.150000X0*%
%ADD24RoundRect,0.250000X0.650000X-0.325000X0.650000X0.325000X-0.650000X0.325000X-0.650000X-0.325000X0*%
%ADD25RoundRect,0.225000X-0.375000X0.225000X-0.375000X-0.225000X0.375000X-0.225000X0.375000X0.225000X0*%
%ADD26RoundRect,0.140000X-0.170000X0.140000X-0.170000X-0.140000X0.170000X-0.140000X0.170000X0.140000X0*%
%ADD27RoundRect,0.200000X0.275000X-0.200000X0.275000X0.200000X-0.275000X0.200000X-0.275000X-0.200000X0*%
%ADD28RoundRect,0.225000X0.225000X0.250000X-0.225000X0.250000X-0.225000X-0.250000X0.225000X-0.250000X0*%
%ADD29RoundRect,0.225000X-0.225000X-0.375000X0.225000X-0.375000X0.225000X0.375000X-0.225000X0.375000X0*%
%ADD30C,0.800000*%
%ADD31C,6.000000*%
%ADD32RoundRect,0.225000X-0.250000X0.225000X-0.250000X-0.225000X0.250000X-0.225000X0.250000X0.225000X0*%
%ADD33RoundRect,0.135000X-0.135000X-0.185000X0.135000X-0.185000X0.135000X0.185000X-0.135000X0.185000X0*%
%ADD34RoundRect,0.062500X0.062500X-0.350000X0.062500X0.350000X-0.062500X0.350000X-0.062500X-0.350000X0*%
%ADD35RoundRect,0.062500X0.350000X-0.062500X0.350000X0.062500X-0.350000X0.062500X-0.350000X-0.062500X0*%
%ADD36R,2.600000X3.100000*%
%ADD37R,1.550000X0.600000*%
%ADD38RoundRect,0.250000X-0.250000X-0.475000X0.250000X-0.475000X0.250000X0.475000X-0.250000X0.475000X0*%
%ADD39RoundRect,0.250000X1.412500X0.550000X-1.412500X0.550000X-1.412500X-0.550000X1.412500X-0.550000X0*%
%ADD40RoundRect,0.250000X0.250000X0.475000X-0.250000X0.475000X-0.250000X-0.475000X0.250000X-0.475000X0*%
G04 APERTURE END LIST*
D10*
X89038255Y-71386819D02*
X88419207Y-71386819D01*
X88419207Y-71386819D02*
X88357303Y-71863009D01*
X88357303Y-71863009D02*
X88419207Y-71815390D01*
X88419207Y-71815390D02*
X88543017Y-71767771D01*
X88543017Y-71767771D02*
X88852541Y-71767771D01*
X88852541Y-71767771D02*
X88976350Y-71815390D01*
X88976350Y-71815390D02*
X89038255Y-71863009D01*
X89038255Y-71863009D02*
X89100160Y-71958247D01*
X89100160Y-71958247D02*
X89100160Y-72196342D01*
X89100160Y-72196342D02*
X89038255Y-72291580D01*
X89038255Y-72291580D02*
X88976350Y-72339200D01*
X88976350Y-72339200D02*
X88852541Y-72386819D01*
X88852541Y-72386819D02*
X88543017Y-72386819D01*
X88543017Y-72386819D02*
X88419207Y-72339200D01*
X88419207Y-72339200D02*
X88357303Y-72291580D01*
X89471588Y-71386819D02*
X89904921Y-72386819D01*
X89904921Y-72386819D02*
X90338255Y-71386819D01*
X46421561Y-71701160D02*
X46469180Y-71577350D01*
X46469180Y-71577350D02*
X46469180Y-71391636D01*
X46469180Y-71391636D02*
X46421561Y-71205922D01*
X46421561Y-71205922D02*
X46326323Y-71082112D01*
X46326323Y-71082112D02*
X46231085Y-71020207D01*
X46231085Y-71020207D02*
X46040609Y-70958303D01*
X46040609Y-70958303D02*
X45897752Y-70958303D01*
X45897752Y-70958303D02*
X45707276Y-71020207D01*
X45707276Y-71020207D02*
X45612038Y-71082112D01*
X45612038Y-71082112D02*
X45516800Y-71205922D01*
X45516800Y-71205922D02*
X45469180Y-71391636D01*
X45469180Y-71391636D02*
X45469180Y-71515445D01*
X45469180Y-71515445D02*
X45516800Y-71701160D01*
X45516800Y-71701160D02*
X45564419Y-71763064D01*
X45564419Y-71763064D02*
X45897752Y-71763064D01*
X45897752Y-71763064D02*
X45897752Y-71515445D01*
X45469180Y-72320207D02*
X46469180Y-72320207D01*
X46469180Y-72320207D02*
X45469180Y-73063064D01*
X45469180Y-73063064D02*
X46469180Y-73063064D01*
X45469180Y-73682112D02*
X46469180Y-73682112D01*
X46469180Y-73682112D02*
X46469180Y-73991636D01*
X46469180Y-73991636D02*
X46421561Y-74177350D01*
X46421561Y-74177350D02*
X46326323Y-74301160D01*
X46326323Y-74301160D02*
X46231085Y-74363065D01*
X46231085Y-74363065D02*
X46040609Y-74424969D01*
X46040609Y-74424969D02*
X45897752Y-74424969D01*
X45897752Y-74424969D02*
X45707276Y-74363065D01*
X45707276Y-74363065D02*
X45612038Y-74301160D01*
X45612038Y-74301160D02*
X45516800Y-74177350D01*
X45516800Y-74177350D02*
X45469180Y-73991636D01*
X45469180Y-73991636D02*
X45469180Y-73682112D01*
X38443180Y-81688207D02*
X39443180Y-81688207D01*
X38443180Y-82307255D02*
X39443180Y-82307255D01*
X39443180Y-82307255D02*
X38443180Y-83050112D01*
X38443180Y-83050112D02*
X39443180Y-83050112D01*
X36833180Y-82369160D02*
X36833180Y-81626303D01*
X36833180Y-81997731D02*
X37833180Y-81997731D01*
X37833180Y-81997731D02*
X37690323Y-81873922D01*
X37690323Y-81873922D02*
X37595085Y-81750112D01*
X37595085Y-81750112D02*
X37547466Y-81626303D01*
X37737942Y-82864398D02*
X37785561Y-82926302D01*
X37785561Y-82926302D02*
X37833180Y-83050112D01*
X37833180Y-83050112D02*
X37833180Y-83359636D01*
X37833180Y-83359636D02*
X37785561Y-83483445D01*
X37785561Y-83483445D02*
X37737942Y-83545350D01*
X37737942Y-83545350D02*
X37642704Y-83607255D01*
X37642704Y-83607255D02*
X37547466Y-83607255D01*
X37547466Y-83607255D02*
X37404609Y-83545350D01*
X37404609Y-83545350D02*
X36833180Y-82802493D01*
X36833180Y-82802493D02*
X36833180Y-83607255D01*
X37833180Y-83978683D02*
X36833180Y-84412016D01*
X36833180Y-84412016D02*
X37833180Y-84845350D01*
X36833180Y-86269159D02*
X37833180Y-86269159D01*
X37833180Y-86269159D02*
X37833180Y-86578683D01*
X37833180Y-86578683D02*
X37785561Y-86764397D01*
X37785561Y-86764397D02*
X37690323Y-86888207D01*
X37690323Y-86888207D02*
X37595085Y-86950112D01*
X37595085Y-86950112D02*
X37404609Y-87012016D01*
X37404609Y-87012016D02*
X37261752Y-87012016D01*
X37261752Y-87012016D02*
X37071276Y-86950112D01*
X37071276Y-86950112D02*
X36976038Y-86888207D01*
X36976038Y-86888207D02*
X36880800Y-86764397D01*
X36880800Y-86764397D02*
X36833180Y-86578683D01*
X36833180Y-86578683D02*
X36833180Y-86269159D01*
X36928419Y-88312016D02*
X36880800Y-88250112D01*
X36880800Y-88250112D02*
X36833180Y-88064397D01*
X36833180Y-88064397D02*
X36833180Y-87940588D01*
X36833180Y-87940588D02*
X36880800Y-87754874D01*
X36880800Y-87754874D02*
X36976038Y-87631064D01*
X36976038Y-87631064D02*
X37071276Y-87569159D01*
X37071276Y-87569159D02*
X37261752Y-87507255D01*
X37261752Y-87507255D02*
X37404609Y-87507255D01*
X37404609Y-87507255D02*
X37595085Y-87569159D01*
X37595085Y-87569159D02*
X37690323Y-87631064D01*
X37690323Y-87631064D02*
X37785561Y-87754874D01*
X37785561Y-87754874D02*
X37833180Y-87940588D01*
X37833180Y-87940588D02*
X37833180Y-88064397D01*
X37833180Y-88064397D02*
X37785561Y-88250112D01*
X37785561Y-88250112D02*
X37737942Y-88312016D01*
X66494160Y-71434438D02*
X66370350Y-71386819D01*
X66370350Y-71386819D02*
X66184636Y-71386819D01*
X66184636Y-71386819D02*
X65998922Y-71434438D01*
X65998922Y-71434438D02*
X65875112Y-71529676D01*
X65875112Y-71529676D02*
X65813207Y-71624914D01*
X65813207Y-71624914D02*
X65751303Y-71815390D01*
X65751303Y-71815390D02*
X65751303Y-71958247D01*
X65751303Y-71958247D02*
X65813207Y-72148723D01*
X65813207Y-72148723D02*
X65875112Y-72243961D01*
X65875112Y-72243961D02*
X65998922Y-72339200D01*
X65998922Y-72339200D02*
X66184636Y-72386819D01*
X66184636Y-72386819D02*
X66308445Y-72386819D01*
X66308445Y-72386819D02*
X66494160Y-72339200D01*
X66494160Y-72339200D02*
X66556064Y-72291580D01*
X66556064Y-72291580D02*
X66556064Y-71958247D01*
X66556064Y-71958247D02*
X66308445Y-71958247D01*
X67113207Y-72386819D02*
X67113207Y-71386819D01*
X67113207Y-71386819D02*
X67856064Y-72386819D01*
X67856064Y-72386819D02*
X67856064Y-71386819D01*
X68475112Y-72386819D02*
X68475112Y-71386819D01*
X68475112Y-71386819D02*
X68784636Y-71386819D01*
X68784636Y-71386819D02*
X68970350Y-71434438D01*
X68970350Y-71434438D02*
X69094160Y-71529676D01*
X69094160Y-71529676D02*
X69156065Y-71624914D01*
X69156065Y-71624914D02*
X69217969Y-71815390D01*
X69217969Y-71815390D02*
X69217969Y-71958247D01*
X69217969Y-71958247D02*
X69156065Y-72148723D01*
X69156065Y-72148723D02*
X69094160Y-72243961D01*
X69094160Y-72243961D02*
X68970350Y-72339200D01*
X68970350Y-72339200D02*
X68784636Y-72386819D01*
X68784636Y-72386819D02*
X68475112Y-72386819D01*
X69877207Y-72005866D02*
X70867684Y-72005866D01*
X72167684Y-72386819D02*
X71424827Y-72386819D01*
X71796255Y-72386819D02*
X71796255Y-71386819D01*
X71796255Y-71386819D02*
X71672446Y-71529676D01*
X71672446Y-71529676D02*
X71548636Y-71624914D01*
X71548636Y-71624914D02*
X71424827Y-71672533D01*
X72662922Y-71482057D02*
X72724826Y-71434438D01*
X72724826Y-71434438D02*
X72848636Y-71386819D01*
X72848636Y-71386819D02*
X73158160Y-71386819D01*
X73158160Y-71386819D02*
X73281969Y-71434438D01*
X73281969Y-71434438D02*
X73343874Y-71482057D01*
X73343874Y-71482057D02*
X73405779Y-71577295D01*
X73405779Y-71577295D02*
X73405779Y-71672533D01*
X73405779Y-71672533D02*
X73343874Y-71815390D01*
X73343874Y-71815390D02*
X72601017Y-72386819D01*
X72601017Y-72386819D02*
X73405779Y-72386819D01*
X73777207Y-71386819D02*
X74210540Y-72386819D01*
X74210540Y-72386819D02*
X74643874Y-71386819D01*
X59844207Y-72005866D02*
X60834684Y-72005866D01*
X60339445Y-72386819D02*
X60339445Y-71624914D01*
X62134684Y-72386819D02*
X61391827Y-72386819D01*
X61763255Y-72386819D02*
X61763255Y-71386819D01*
X61763255Y-71386819D02*
X61639446Y-71529676D01*
X61639446Y-71529676D02*
X61515636Y-71624914D01*
X61515636Y-71624914D02*
X61391827Y-71672533D01*
X62629922Y-71482057D02*
X62691826Y-71434438D01*
X62691826Y-71434438D02*
X62815636Y-71386819D01*
X62815636Y-71386819D02*
X63125160Y-71386819D01*
X63125160Y-71386819D02*
X63248969Y-71434438D01*
X63248969Y-71434438D02*
X63310874Y-71482057D01*
X63310874Y-71482057D02*
X63372779Y-71577295D01*
X63372779Y-71577295D02*
X63372779Y-71672533D01*
X63372779Y-71672533D02*
X63310874Y-71815390D01*
X63310874Y-71815390D02*
X62568017Y-72386819D01*
X62568017Y-72386819D02*
X63372779Y-72386819D01*
X63744207Y-71386819D02*
X64177540Y-72386819D01*
X64177540Y-72386819D02*
X64610874Y-71386819D01*
D11*
X176377000Y-131953000D02*
G75*
G03*
X176377000Y-131953000I-101000J0D01*
G01*
D12*
X52646019Y-85725000D02*
G75*
G03*
X52646019Y-85725000I-118819J0D01*
G01*
D10*
X80437442Y-80695800D02*
G75*
G03*
X80437442Y-80695800I-71842J0D01*
G01*
D13*
X75340402Y-60762400D02*
X75340402Y-60022400D01*
X75340402Y-60022400D02*
X74840402Y-60022400D01*
X75100402Y-70183400D02*
X75100402Y-60262400D01*
X75100402Y-70183400D02*
X59980402Y-70183400D01*
X75100402Y-67223400D02*
X59980402Y-67223400D01*
X75100402Y-62322400D02*
X59980402Y-62322400D01*
X75100402Y-60822400D02*
X59980402Y-60822400D01*
X75100402Y-60262400D02*
X59980402Y-60262400D01*
X68767402Y-63899400D02*
X68814402Y-63853400D01*
X68574402Y-63683400D02*
X68609402Y-63648400D01*
X66470402Y-66197400D02*
X66505402Y-66161400D01*
X66265402Y-65991400D02*
X66312402Y-65945400D01*
X63767402Y-63899400D02*
X63814402Y-63853400D01*
X63574402Y-63683400D02*
X63609402Y-63648400D01*
X61470402Y-66197400D02*
X61505402Y-66161400D01*
X61265402Y-65991400D02*
X61312402Y-65945400D01*
X59980402Y-70183400D02*
X59980402Y-60262400D01*
X74075401Y-65606399D02*
G75*
G03*
X74075828Y-64239358I-1534992J684000D01*
G01*
X71856403Y-66457399D02*
G75*
G03*
X73223444Y-66457826I684000J1534992D01*
G01*
X73224402Y-63387401D02*
G75*
G03*
X72511597Y-63242148I-683999J-1535000D01*
G01*
X72540402Y-63242401D02*
G75*
G03*
X71857084Y-63387645I0J-1679999D01*
G01*
X71005402Y-64238400D02*
G75*
G03*
X71004976Y-65605442I1535000J-684000D01*
G01*
X69220402Y-64922400D02*
G75*
G03*
X69220402Y-64922400I-1680000J0D01*
G01*
X64220402Y-64922400D02*
G75*
G03*
X64220402Y-64922400I-1680000J0D01*
G01*
X58190641Y-66295000D02*
X57883359Y-66295000D01*
X58190641Y-67055000D02*
X57883359Y-67055000D01*
X49056058Y-79434100D02*
X48581542Y-79434100D01*
X49056058Y-80479100D02*
X48581542Y-80479100D01*
X67647800Y-78399600D02*
X64097800Y-78399600D01*
X54627800Y-78399600D02*
X58177800Y-78399600D01*
X67647800Y-91419600D02*
X67647800Y-78399600D01*
X67647800Y-91419600D02*
X64097800Y-91419600D01*
X54627800Y-91419600D02*
X54627800Y-78399600D01*
X54627800Y-91419600D02*
X58177800Y-91419600D01*
X73013100Y-90403800D02*
X74363100Y-90403800D01*
X73013100Y-90403800D02*
X73013100Y-84483800D01*
X78733100Y-90403800D02*
X77383100Y-90403800D01*
X78733100Y-90403800D02*
X78733100Y-84483800D01*
X73013100Y-84483800D02*
X74363100Y-84483800D01*
X78733100Y-84483800D02*
X77383100Y-84483800D01*
X80098000Y-65735750D02*
X80098000Y-64265750D01*
X80098000Y-64265750D02*
X77813000Y-64265750D01*
X77813000Y-65735750D02*
X80098000Y-65735750D01*
X82110600Y-72619542D02*
X82110600Y-73094058D01*
X81065600Y-72619542D02*
X81065600Y-73094058D01*
X79427100Y-72997380D02*
X79427100Y-72716220D01*
X80447100Y-72997380D02*
X80447100Y-72716220D01*
X86607100Y-86106400D02*
X88282100Y-86106400D01*
X86607100Y-86106400D02*
X85957100Y-86106400D01*
X86607100Y-82986400D02*
X87257100Y-82986400D01*
X86607100Y-82986400D02*
X85957100Y-82986400D01*
X96227000Y-66013000D02*
X96227000Y-64543000D01*
X96227000Y-64543000D02*
X93942000Y-64543000D01*
X93942000Y-66013000D02*
X96227000Y-66013000D01*
X42362800Y-84301852D02*
X42362800Y-82879348D01*
X40542800Y-84301852D02*
X40542800Y-82879348D01*
X87922100Y-75084600D02*
X85922100Y-75084600D01*
X87922100Y-75084600D02*
X87922100Y-79094600D01*
X85922100Y-75084600D02*
X85922100Y-79094600D01*
X82681400Y-81349964D02*
X82681400Y-81565636D01*
X81961400Y-81349964D02*
X81961400Y-81565636D01*
X78300600Y-79287542D02*
X78300600Y-79762058D01*
X77255600Y-79287542D02*
X77255600Y-79762058D01*
X75604600Y-79762058D02*
X75604600Y-79287542D01*
X76649600Y-79762058D02*
X76649600Y-79287542D01*
X79935100Y-84300380D02*
X79935100Y-84019220D01*
X80955100Y-84300380D02*
X80955100Y-84019220D01*
X83011680Y-83907800D02*
X82730520Y-83907800D01*
X83011680Y-82887800D02*
X82730520Y-82887800D01*
X73953600Y-79761058D02*
X73953600Y-79286542D01*
X74998600Y-79761058D02*
X74998600Y-79286542D01*
X40719800Y-77811000D02*
G75*
G03*
X40719800Y-77811000I-1680000J0D01*
G01*
X38355800Y-74346000D02*
G75*
G03*
X39722842Y-74346426I684000J1535000D01*
G01*
X37359801Y-72811000D02*
G75*
G03*
X37505045Y-73494318I1679999J0D01*
G01*
X37504801Y-72127000D02*
G75*
G03*
X37359548Y-72839805I1535000J-683999D01*
G01*
X40574799Y-73494999D02*
G75*
G03*
X40575226Y-72127958I-1534992J684000D01*
G01*
X39723799Y-71276001D02*
G75*
G03*
X38356758Y-71275574I-684000J-1534992D01*
G01*
X44300800Y-80371000D02*
X34379800Y-80371000D01*
X40108800Y-79086000D02*
X40062800Y-79039000D01*
X40314800Y-78881000D02*
X40278800Y-78846000D01*
X37800800Y-76777000D02*
X37765800Y-76742000D01*
X38016800Y-76584000D02*
X37970800Y-76537000D01*
X34379800Y-70251000D02*
X34379800Y-80371000D01*
X34939800Y-70251000D02*
X34939800Y-80371000D01*
X36439800Y-70251000D02*
X36439800Y-80371000D01*
X41340800Y-70251000D02*
X41340800Y-80371000D01*
X44300800Y-70251000D02*
X44300800Y-80371000D01*
X44300800Y-70251000D02*
X34379800Y-70251000D01*
X34139800Y-70011000D02*
X34139800Y-70511000D01*
X34879800Y-70011000D02*
X34139800Y-70011000D01*
X43664800Y-89338600D02*
X47674800Y-89338600D01*
X43664800Y-87338600D02*
X47674800Y-87338600D01*
X43664800Y-87338600D02*
X43664800Y-89338600D01*
X51125800Y-86071764D02*
X51125800Y-86287436D01*
X51845800Y-86071764D02*
X51845800Y-86287436D01*
X85995202Y-64922400D02*
G75*
G03*
X85995202Y-64922400I-1680000J0D01*
G01*
X87780202Y-64238400D02*
G75*
G03*
X87779776Y-65605442I1535000J-684000D01*
G01*
X89315202Y-63242401D02*
G75*
G03*
X88631884Y-63387645I0J-1679999D01*
G01*
X89999202Y-63387401D02*
G75*
G03*
X89286397Y-63242148I-683999J-1535000D01*
G01*
X88631203Y-66457399D02*
G75*
G03*
X89998244Y-66457826I684000J1534992D01*
G01*
X90850201Y-65606399D02*
G75*
G03*
X90850628Y-64239358I-1534992J684000D01*
G01*
X81755202Y-70183400D02*
X81755202Y-60262400D01*
X83040202Y-65991400D02*
X83087202Y-65945400D01*
X83245202Y-66197400D02*
X83280202Y-66161400D01*
X85349202Y-63683400D02*
X85384202Y-63648400D01*
X85542202Y-63899400D02*
X85589202Y-63853400D01*
X91875202Y-60262400D02*
X81755202Y-60262400D01*
X91875202Y-60822400D02*
X81755202Y-60822400D01*
X91875202Y-62322400D02*
X81755202Y-62322400D01*
X91875202Y-67223400D02*
X81755202Y-67223400D01*
X91875202Y-70183400D02*
X81755202Y-70183400D01*
X91875202Y-70183400D02*
X91875202Y-60262400D01*
X92115202Y-60022400D02*
X91615202Y-60022400D01*
X92115202Y-60762400D02*
X92115202Y-60022400D01*
X85400100Y-72716220D02*
X85400100Y-72997380D01*
X84380100Y-72716220D02*
X84380100Y-72997380D01*
X77169680Y-77557800D02*
X76888520Y-77557800D01*
X77169680Y-76537800D02*
X76888520Y-76537800D01*
X40510700Y-86273200D02*
X39860700Y-86273200D01*
X40510700Y-86273200D02*
X41160700Y-86273200D01*
X40510700Y-89393200D02*
X39860700Y-89393200D01*
X40510700Y-89393200D02*
X42185700Y-89393200D01*
X56649002Y-65690200D02*
X58934002Y-65690200D01*
X58934002Y-64220200D02*
X56649002Y-64220200D01*
X58934002Y-65690200D02*
X58934002Y-64220200D01*
X77163959Y-66297150D02*
X77471241Y-66297150D01*
X77163959Y-67057150D02*
X77471241Y-67057150D01*
X83730600Y-79899800D02*
X83255600Y-79899800D01*
X79510600Y-79424800D02*
X79510600Y-79899800D01*
X83730600Y-79424800D02*
X83730600Y-79899800D01*
X79510600Y-76154800D02*
X79510600Y-75679800D01*
X83730600Y-76154800D02*
X83730600Y-75679800D01*
X79510600Y-75679800D02*
X79985600Y-75679800D01*
X83730600Y-75679800D02*
X83255600Y-75679800D01*
X53374058Y-79434100D02*
X52899542Y-79434100D01*
X53374058Y-80479100D02*
X52899542Y-80479100D01*
D10*
X44930800Y-81226600D02*
X44930800Y-81371600D01*
X44930800Y-86376600D02*
X44930800Y-86231600D01*
X49080800Y-81226600D02*
X44930800Y-81226600D01*
X49080800Y-81226600D02*
X49080800Y-81371600D01*
X49080800Y-86326600D02*
X50480800Y-86326600D01*
X49080800Y-86376600D02*
X44930800Y-86376600D01*
X49080800Y-86376600D02*
X49080800Y-86326600D01*
D13*
X71861100Y-81762800D02*
X71861100Y-83762800D01*
X71861100Y-81762800D02*
X75871100Y-81762800D01*
X71861100Y-83762800D02*
X75871100Y-83762800D01*
X94354100Y-73706800D02*
X93004100Y-73706800D01*
X94354100Y-73706800D02*
X94354100Y-79626800D01*
X88634100Y-73706800D02*
X89984100Y-73706800D01*
X88634100Y-73706800D02*
X88634100Y-79626800D01*
X94354100Y-79626800D02*
X93004100Y-79626800D01*
X88634100Y-79626800D02*
X89984100Y-79626800D01*
X83761600Y-72619542D02*
X83761600Y-73094058D01*
X82716600Y-72619542D02*
X82716600Y-73094058D01*
X94616241Y-67105800D02*
X94308959Y-67105800D01*
X94616241Y-66345800D02*
X94308959Y-66345800D01*
X77458180Y-75135200D02*
X77177020Y-75135200D01*
X77458180Y-74115200D02*
X77177020Y-74115200D01*
X87622748Y-80367200D02*
X88145252Y-80367200D01*
X87622748Y-81837200D02*
X88145252Y-81837200D01*
X51377800Y-70577600D02*
X51377800Y-72927600D01*
X51377800Y-77397600D02*
X51377800Y-75047600D01*
X57133363Y-70577600D02*
X51377800Y-70577600D01*
X57133363Y-77397600D02*
X51377800Y-77397600D01*
X58197800Y-71642037D02*
X57133363Y-70577600D01*
X58197800Y-71642037D02*
X58197800Y-72927600D01*
X58197800Y-76333163D02*
X57133363Y-77397600D01*
X58197800Y-76333163D02*
X58197800Y-75047600D01*
X84641458Y-81761300D02*
X84166942Y-81761300D01*
X84641458Y-80716300D02*
X84166942Y-80716300D01*
X71882352Y-81084800D02*
X71359848Y-81084800D01*
X71882352Y-79614800D02*
X71359848Y-79614800D01*
%LPC*%
D14*
X72540402Y-64922400D03*
D15*
X67540402Y-64922400D03*
X62540402Y-64922400D03*
D16*
X57527000Y-66675000D03*
X58547000Y-66675000D03*
D17*
X47993800Y-79956600D03*
X49643800Y-79956600D03*
D18*
X61137800Y-79959600D03*
X61137800Y-89859600D03*
D19*
X75873100Y-89493800D03*
X75873100Y-85393800D03*
D20*
X79400500Y-65000750D03*
X77825500Y-65000750D03*
D21*
X81588100Y-72031800D03*
X81588100Y-73681800D03*
D22*
X79937100Y-73631800D03*
X79937100Y-72081800D03*
D23*
X87544600Y-85496400D03*
X87544600Y-83596400D03*
X85669600Y-84546400D03*
D20*
X95529500Y-65278000D03*
X93954500Y-65278000D03*
D24*
X41452800Y-82115600D03*
X41452800Y-85065600D03*
D25*
X86922100Y-75794600D03*
X86922100Y-79094600D03*
D26*
X82321400Y-80977800D03*
X82321400Y-81937800D03*
D21*
X77778100Y-78699800D03*
X77778100Y-80349800D03*
D27*
X76127100Y-80349800D03*
X76127100Y-78699800D03*
D22*
X80445100Y-84934800D03*
X80445100Y-83384800D03*
D28*
X83646100Y-83397800D03*
X82096100Y-83397800D03*
D27*
X74476100Y-80348800D03*
X74476100Y-78698800D03*
D15*
X39039800Y-77811000D03*
D14*
X39039800Y-72811000D03*
D29*
X47674800Y-88338600D03*
X44374800Y-88338600D03*
D26*
X51485800Y-86659600D03*
X51485800Y-85699600D03*
D15*
X84315202Y-64922400D03*
D14*
X89315202Y-64922400D03*
D30*
X41807010Y-65592010D03*
X41148000Y-67183000D03*
X41148000Y-64001020D03*
X39557010Y-67842010D03*
D31*
X39557010Y-65592010D03*
D30*
X39557010Y-63342010D03*
X37966020Y-67183000D03*
X37966020Y-64001020D03*
X37307010Y-65592010D03*
D32*
X84890100Y-72081800D03*
X84890100Y-73631800D03*
D28*
X77804100Y-77047800D03*
X76254100Y-77047800D03*
D23*
X39573200Y-87833200D03*
X41448200Y-86883200D03*
X41448200Y-88783200D03*
D20*
X56661502Y-64955200D03*
X58236502Y-64955200D03*
D33*
X76807600Y-66677150D03*
X77827600Y-66677150D03*
D34*
X80370600Y-79727300D03*
X80870600Y-79727300D03*
X81370600Y-79727300D03*
X81870600Y-79727300D03*
X82370600Y-79727300D03*
X82870600Y-79727300D03*
D35*
X83558100Y-79039800D03*
X83558100Y-78539800D03*
X83558100Y-78039800D03*
X83558100Y-77539800D03*
X83558100Y-77039800D03*
X83558100Y-76539800D03*
D34*
X82870600Y-75852300D03*
X82370600Y-75852300D03*
X81870600Y-75852300D03*
X81370600Y-75852300D03*
X80870600Y-75852300D03*
X80370600Y-75852300D03*
D35*
X79683100Y-76539800D03*
X79683100Y-77039800D03*
X79683100Y-77539800D03*
X79683100Y-78039800D03*
X79683100Y-78539800D03*
X79683100Y-79039800D03*
D14*
X81620600Y-77789800D03*
D17*
X52311800Y-79956600D03*
X53961800Y-79956600D03*
D36*
X47005800Y-83801600D03*
D37*
X44305800Y-85706600D03*
X44305800Y-84436600D03*
X44305800Y-83166600D03*
X44305800Y-81896600D03*
X49705800Y-81896600D03*
X49705800Y-83166600D03*
X49705800Y-84436600D03*
X49705800Y-85706600D03*
D29*
X72571100Y-82762800D03*
X75871100Y-82762800D03*
D19*
X91494100Y-74616800D03*
X91494100Y-78716800D03*
D21*
X83239100Y-72031800D03*
X83239100Y-73681800D03*
D16*
X94972600Y-66725800D03*
X93952600Y-66725800D03*
D28*
X78092600Y-74625200D03*
X76542600Y-74625200D03*
D38*
X86934000Y-81102200D03*
X88834000Y-81102200D03*
D39*
X52250300Y-73987600D03*
X57325300Y-73987600D03*
D30*
X92274000Y-91440000D03*
X92933010Y-89849010D03*
X92933010Y-93030990D03*
X94524000Y-89190000D03*
D31*
X94524000Y-91440000D03*
D30*
X94524000Y-93690000D03*
X96114990Y-89849010D03*
X96114990Y-93030990D03*
X96774000Y-91440000D03*
D17*
X85229200Y-81238800D03*
X83579200Y-81238800D03*
D40*
X72571100Y-80349800D03*
X70671100Y-80349800D03*
%LPD*%
M02*
