G04 #@! TF.GenerationSoftware,KiCad,Pcbnew,7.0.8*
G04 #@! TF.CreationDate,2023-11-17T13:56:21+01:00*
G04 #@! TF.ProjectId,shmoergh-dual-rail-psu,73686d6f-6572-4676-982d-6475616c2d72,rev?*
G04 #@! TF.SameCoordinates,Original*
G04 #@! TF.FileFunction,Copper,L3,Inr*
G04 #@! TF.FilePolarity,Positive*
%FSLAX46Y46*%
G04 Gerber Fmt 4.6, Leading zero omitted, Abs format (unit mm)*
G04 Created by KiCad (PCBNEW 7.0.8) date 2023-11-17 13:56:21*
%MOMM*%
%LPD*%
G01*
G04 APERTURE LIST*
G04 #@! TA.AperFunction,ComponentPad*
%ADD10C,6.000000*%
G04 #@! TD*
G04 #@! TA.AperFunction,ComponentPad*
%ADD11R,2.600000X2.600000*%
G04 #@! TD*
G04 #@! TA.AperFunction,ComponentPad*
%ADD12C,2.600000*%
G04 #@! TD*
G04 #@! TA.AperFunction,ViaPad*
%ADD13C,0.800000*%
G04 #@! TD*
G04 #@! TA.AperFunction,ViaPad*
%ADD14C,0.600000*%
G04 #@! TD*
G04 #@! TA.AperFunction,ViaPad*
%ADD15C,1.000000*%
G04 #@! TD*
G04 APERTURE END LIST*
D10*
X86487000Y-44577000D03*
X86487000Y-18669000D03*
X22352000Y-18415000D03*
X22479000Y-44450000D03*
D11*
X24765000Y-28556000D03*
D12*
X24765000Y-33556000D03*
D11*
X35640000Y-41506000D03*
D12*
X40640000Y-41506000D03*
D11*
X57865000Y-42418000D03*
D12*
X62865000Y-42418000D03*
X67865000Y-42418000D03*
D13*
X84855000Y-22606000D03*
X87346646Y-31768000D03*
X87346646Y-24148000D03*
X87200646Y-38989000D03*
X87346646Y-22479000D03*
X87256646Y-29256000D03*
X87256646Y-26756000D03*
X87256646Y-36756000D03*
X87256646Y-34256000D03*
X26543000Y-17653000D03*
D14*
X67765000Y-24206000D03*
X67765000Y-23356000D03*
X68615000Y-23356000D03*
X69465000Y-23356000D03*
X69465000Y-24206000D03*
X69465000Y-25056000D03*
X68615000Y-25056000D03*
X67765000Y-25056000D03*
D13*
X56715000Y-25506000D03*
X56890000Y-24206000D03*
X60190000Y-22956000D03*
X63640000Y-21781000D03*
X62590000Y-19356000D03*
X66590000Y-17331000D03*
X78815000Y-27356000D03*
X80790000Y-27881000D03*
X80940000Y-25156000D03*
X80940000Y-24256000D03*
X77515000Y-24256000D03*
X77515000Y-25156000D03*
X68715000Y-32906000D03*
X68815000Y-31756000D03*
X52340000Y-43181000D03*
X30090000Y-43331000D03*
X29765000Y-16256000D03*
X32265000Y-16256000D03*
X34765000Y-16256000D03*
X37265000Y-16256000D03*
X59765000Y-16256000D03*
X62265000Y-16256000D03*
X64765000Y-16256000D03*
X67265000Y-16256000D03*
X69765000Y-16256000D03*
X72265000Y-16256000D03*
X74765000Y-16256000D03*
X77265000Y-16256000D03*
X79765000Y-16256000D03*
X82265000Y-16256000D03*
X20265000Y-26756000D03*
X20265000Y-41021000D03*
X20265000Y-39256000D03*
X20265000Y-36756000D03*
X20265000Y-34256000D03*
X20265000Y-29256000D03*
X20265000Y-24256000D03*
X20265000Y-21756000D03*
X32265000Y-45756000D03*
X34765000Y-45756000D03*
X52265000Y-45756000D03*
X82265000Y-45756000D03*
X39765000Y-45756000D03*
X42265000Y-45756000D03*
X64765000Y-45756000D03*
X59765000Y-45756000D03*
X47265000Y-45756000D03*
X49765000Y-45756000D03*
X54765000Y-45756000D03*
X67265000Y-45756000D03*
X27265000Y-45756000D03*
X37265000Y-45756000D03*
X44765000Y-45756000D03*
X69765000Y-45756000D03*
X57265000Y-45756000D03*
X62265000Y-45756000D03*
X79765000Y-45756000D03*
X29765000Y-45756000D03*
X66915000Y-28706000D03*
X68015000Y-28706000D03*
X66915000Y-29756000D03*
X68015000Y-29756000D03*
X66915000Y-30806000D03*
X68015000Y-30806000D03*
X29765000Y-19256000D03*
X29765000Y-21756000D03*
X29765000Y-24256000D03*
X27265000Y-24256000D03*
X24765000Y-24256000D03*
X27686000Y-21844000D03*
X27265000Y-19256000D03*
X24257000Y-22606000D03*
X24765000Y-36756000D03*
X24765000Y-39256000D03*
X32265000Y-31756000D03*
X57265000Y-19256000D03*
X59765000Y-19256000D03*
X59765000Y-21756000D03*
X57265000Y-21756000D03*
X82265000Y-26756000D03*
X84765000Y-34256000D03*
X84765000Y-36756000D03*
X32265000Y-36756000D03*
X84765000Y-26756000D03*
X84765000Y-29256000D03*
X39765000Y-16256000D03*
X57265000Y-16256000D03*
X54765000Y-16256000D03*
X43815000Y-19506000D03*
X41465000Y-19806000D03*
X41465000Y-17706000D03*
X42765000Y-18756000D03*
X46565000Y-18306000D03*
X48665000Y-18306000D03*
X46565000Y-19506000D03*
X48665000Y-19506000D03*
X48665000Y-20806000D03*
X46565000Y-20806000D03*
X46565000Y-22056000D03*
X48665000Y-22056000D03*
X48865000Y-16606000D03*
X50015000Y-16606000D03*
X38315000Y-28306000D03*
X35815000Y-28306000D03*
X37065000Y-26106000D03*
X37065000Y-30506000D03*
X36165000Y-24356000D03*
X37965000Y-24356000D03*
X37065000Y-22456000D03*
X56715000Y-26706000D03*
X70915000Y-31756000D03*
X46415000Y-44056000D03*
X48115000Y-44056000D03*
X76265000Y-39256000D03*
X77665000Y-36106000D03*
X77665000Y-34256000D03*
X22465000Y-24256000D03*
X22465000Y-22606000D03*
X22465000Y-36756000D03*
X22465000Y-38608000D03*
X24765000Y-41021000D03*
X77665000Y-30906000D03*
X35865000Y-21556000D03*
X33515000Y-20756000D03*
X82823000Y-21862000D03*
X82931000Y-31768000D03*
X82931000Y-29228000D03*
X71501000Y-37592000D03*
X82315000Y-18560000D03*
X85598000Y-40640000D03*
X88392000Y-40640000D03*
X84709000Y-38989000D03*
X27265000Y-16256000D03*
X82931000Y-39116000D03*
X22606000Y-40386000D03*
X82931000Y-36703000D03*
X71373900Y-45720800D03*
X84855000Y-24148000D03*
X73787000Y-39370000D03*
X82823000Y-24148000D03*
D14*
X68615000Y-24206000D03*
D13*
X73787000Y-37592000D03*
X82423000Y-43688000D03*
X76454000Y-37592000D03*
X71501000Y-39370000D03*
X82931000Y-34308000D03*
X84855000Y-31768000D03*
X74965000Y-24456000D03*
X72365000Y-19793500D03*
D15*
X52015000Y-34256000D03*
D13*
X73215000Y-30206000D03*
X72190000Y-30206000D03*
D15*
X53515000Y-34256000D03*
D13*
X72190000Y-29181000D03*
D15*
X52015000Y-35756000D03*
D13*
X73215000Y-29181000D03*
D15*
X53515000Y-35756000D03*
D14*
X71665000Y-24556000D03*
X71665000Y-23756000D03*
X69365000Y-27456000D03*
G04 #@! TA.AperFunction,Conductor*
G36*
X85502566Y-15045462D02*
G01*
X85557104Y-15100000D01*
X85577066Y-15174500D01*
X85557104Y-15249000D01*
X85502566Y-15303538D01*
X85466630Y-15318423D01*
X85403805Y-15335256D01*
X85403784Y-15335263D01*
X85061277Y-15466739D01*
X85061261Y-15466746D01*
X84734354Y-15633314D01*
X84734341Y-15633321D01*
X84426634Y-15833148D01*
X84141490Y-16064054D01*
X83882054Y-16323490D01*
X83651148Y-16608634D01*
X83451321Y-16916341D01*
X83451314Y-16916354D01*
X83284746Y-17243261D01*
X83284739Y-17243277D01*
X83153263Y-17585784D01*
X83153256Y-17585805D01*
X83058297Y-17940197D01*
X83058296Y-17940199D01*
X83000897Y-18302601D01*
X82981696Y-18669000D01*
X83000897Y-19035398D01*
X83058296Y-19397800D01*
X83058297Y-19397802D01*
X83153256Y-19752194D01*
X83153263Y-19752215D01*
X83284739Y-20094722D01*
X83284746Y-20094738D01*
X83451314Y-20421645D01*
X83451321Y-20421658D01*
X83637577Y-20708467D01*
X83651149Y-20729366D01*
X83882051Y-21014506D01*
X84141494Y-21273949D01*
X84208858Y-21328499D01*
X84426634Y-21504851D01*
X84734341Y-21704678D01*
X84734345Y-21704680D01*
X84734348Y-21704682D01*
X85061264Y-21871255D01*
X85061276Y-21871259D01*
X85061277Y-21871260D01*
X85403784Y-22002736D01*
X85403794Y-22002739D01*
X85403801Y-22002742D01*
X85758206Y-22097705D01*
X86120596Y-22155102D01*
X86487000Y-22174304D01*
X86853404Y-22155102D01*
X87215794Y-22097705D01*
X87570199Y-22002742D01*
X87912736Y-21871255D01*
X88239652Y-21704682D01*
X88547366Y-21504851D01*
X88832506Y-21273949D01*
X89091949Y-21014506D01*
X89322851Y-20729366D01*
X89522682Y-20421652D01*
X89689255Y-20094736D01*
X89689266Y-20094707D01*
X89689380Y-20094454D01*
X89689428Y-20094393D01*
X89691026Y-20091259D01*
X89691692Y-20091598D01*
X89737917Y-20034513D01*
X89809921Y-20006871D01*
X89886100Y-20018934D01*
X89946041Y-20067471D01*
X89973683Y-20139475D01*
X89974500Y-20155054D01*
X89974500Y-43090945D01*
X89954538Y-43165445D01*
X89900000Y-43219983D01*
X89825500Y-43239945D01*
X89751000Y-43219983D01*
X89696462Y-43165445D01*
X89689386Y-43151558D01*
X89689259Y-43151274D01*
X89689258Y-43151272D01*
X89689255Y-43151264D01*
X89522682Y-42824348D01*
X89522680Y-42824345D01*
X89522678Y-42824341D01*
X89322851Y-42516634D01*
X89091949Y-42231494D01*
X88832506Y-41972051D01*
X88547366Y-41741149D01*
X88547367Y-41741149D01*
X88547365Y-41741148D01*
X88239658Y-41541321D01*
X88239645Y-41541314D01*
X87912738Y-41374746D01*
X87912722Y-41374739D01*
X87570215Y-41243263D01*
X87570194Y-41243256D01*
X87215802Y-41148297D01*
X87215800Y-41148296D01*
X86853398Y-41090897D01*
X86487000Y-41071696D01*
X86120601Y-41090897D01*
X85758199Y-41148296D01*
X85758197Y-41148297D01*
X85403805Y-41243256D01*
X85403784Y-41243263D01*
X85061277Y-41374739D01*
X85061261Y-41374746D01*
X84734354Y-41541314D01*
X84734341Y-41541321D01*
X84426634Y-41741148D01*
X84141490Y-41972054D01*
X83882054Y-42231490D01*
X83651148Y-42516634D01*
X83451321Y-42824341D01*
X83451314Y-42824354D01*
X83284746Y-43151261D01*
X83284739Y-43151277D01*
X83153263Y-43493784D01*
X83153256Y-43493805D01*
X83058297Y-43848197D01*
X83058296Y-43848199D01*
X83000897Y-44210601D01*
X82981696Y-44577000D01*
X83000897Y-44943398D01*
X83058296Y-45305800D01*
X83058297Y-45305802D01*
X83153256Y-45660194D01*
X83153263Y-45660215D01*
X83284739Y-46002722D01*
X83284746Y-46002738D01*
X83451314Y-46329645D01*
X83451321Y-46329658D01*
X83651148Y-46637365D01*
X83651149Y-46637366D01*
X83882051Y-46922506D01*
X84141494Y-47181949D01*
X84426634Y-47412851D01*
X84734341Y-47612678D01*
X84734354Y-47612685D01*
X84891470Y-47692740D01*
X84948787Y-47744349D01*
X84972621Y-47817702D01*
X84956585Y-47893145D01*
X84904976Y-47950462D01*
X84831623Y-47974296D01*
X84823825Y-47974500D01*
X23869190Y-47974500D01*
X23794690Y-47954538D01*
X23740152Y-47900000D01*
X23720190Y-47825500D01*
X23740152Y-47751000D01*
X23794690Y-47696462D01*
X23815783Y-47686400D01*
X23904736Y-47652255D01*
X24231652Y-47485682D01*
X24539366Y-47285851D01*
X24824506Y-47054949D01*
X25083949Y-46795506D01*
X25314851Y-46510366D01*
X25514682Y-46202652D01*
X25681255Y-45875736D01*
X25812742Y-45533199D01*
X25907705Y-45178794D01*
X25965102Y-44816404D01*
X25984304Y-44450000D01*
X25965102Y-44083596D01*
X25914778Y-43765863D01*
X56064500Y-43765863D01*
X56064502Y-43765888D01*
X56070908Y-43825478D01*
X56070909Y-43825484D01*
X56121202Y-43960329D01*
X56121204Y-43960333D01*
X56207452Y-44075544D01*
X56207455Y-44075547D01*
X56322666Y-44161795D01*
X56322670Y-44161797D01*
X56457517Y-44212091D01*
X56517114Y-44218499D01*
X56517118Y-44218499D01*
X56517127Y-44218500D01*
X59212872Y-44218499D01*
X59272483Y-44212091D01*
X59368447Y-44176298D01*
X59407329Y-44161797D01*
X59407333Y-44161795D01*
X59464938Y-44118671D01*
X59522546Y-44075546D01*
X59585017Y-43992096D01*
X59585451Y-43991516D01*
X62352143Y-43991516D01*
X62353544Y-43992095D01*
X62606077Y-44052723D01*
X62865000Y-44073101D01*
X63123922Y-44052723D01*
X63376452Y-43992096D01*
X63376457Y-43992095D01*
X63377854Y-43991516D01*
X62865000Y-43478660D01*
X62352143Y-43991516D01*
X59585451Y-43991516D01*
X59608795Y-43960333D01*
X59608797Y-43960329D01*
X59657542Y-43829635D01*
X59659091Y-43825483D01*
X59660823Y-43809370D01*
X59665499Y-43765885D01*
X59665499Y-43765882D01*
X59665500Y-43765873D01*
X59665499Y-42418000D01*
X61209898Y-42418000D01*
X61230276Y-42676922D01*
X61290903Y-42929453D01*
X61290906Y-42929462D01*
X61291482Y-42930854D01*
X61291483Y-42930854D01*
X61804338Y-42417999D01*
X61763201Y-42376862D01*
X62211127Y-42376862D01*
X62221439Y-42540766D01*
X62272188Y-42696956D01*
X62360186Y-42835619D01*
X62479903Y-42948040D01*
X62623817Y-43027158D01*
X62782886Y-43068000D01*
X62905894Y-43068000D01*
X63027933Y-43052583D01*
X63180629Y-42992126D01*
X63313492Y-42895595D01*
X63418175Y-42769055D01*
X63488100Y-42620457D01*
X63518873Y-42459138D01*
X63516285Y-42417999D01*
X63925660Y-42417999D01*
X64438516Y-42930854D01*
X64439095Y-42929457D01*
X64439096Y-42929452D01*
X64499723Y-42676922D01*
X64520101Y-42418005D01*
X66059451Y-42418005D01*
X66079615Y-42687090D01*
X66079618Y-42687113D01*
X66139663Y-42950187D01*
X66139665Y-42950194D01*
X66218586Y-43151277D01*
X66238257Y-43201398D01*
X66373185Y-43435102D01*
X66373189Y-43435107D01*
X66419982Y-43493784D01*
X66541439Y-43646085D01*
X66739259Y-43829635D01*
X66962226Y-43981651D01*
X67205359Y-44098738D01*
X67463228Y-44178280D01*
X67730071Y-44218500D01*
X67730074Y-44218500D01*
X67999926Y-44218500D01*
X67999929Y-44218500D01*
X68266772Y-44178280D01*
X68524641Y-44098738D01*
X68767775Y-43981651D01*
X68990741Y-43829635D01*
X69188561Y-43646085D01*
X69356815Y-43435102D01*
X69491743Y-43201398D01*
X69590334Y-42950195D01*
X69590826Y-42948040D01*
X69650381Y-42687113D01*
X69650381Y-42687110D01*
X69650383Y-42687103D01*
X69663158Y-42516634D01*
X69670549Y-42418005D01*
X69670549Y-42417994D01*
X69650384Y-42148909D01*
X69650383Y-42148907D01*
X69650383Y-42148897D01*
X69650381Y-42148891D01*
X69650381Y-42148886D01*
X69590336Y-41885812D01*
X69590334Y-41885805D01*
X69542890Y-41764922D01*
X69491743Y-41634602D01*
X69356815Y-41400898D01*
X69188561Y-41189915D01*
X69094879Y-41102991D01*
X82481844Y-41102991D01*
X82491577Y-41282495D01*
X82491577Y-41282499D01*
X82491578Y-41282501D01*
X82517190Y-41374746D01*
X82539672Y-41455720D01*
X82539672Y-41455721D01*
X82623881Y-41614556D01*
X82623882Y-41614558D01*
X82740262Y-41751571D01*
X82740265Y-41751574D01*
X82815600Y-41808842D01*
X82879022Y-41857055D01*
X82883382Y-41860369D01*
X83046541Y-41935854D01*
X83222113Y-41974500D01*
X83222118Y-41974500D01*
X83356807Y-41974500D01*
X83356816Y-41974500D01*
X83490721Y-41959937D01*
X83598510Y-41923619D01*
X83661083Y-41902536D01*
X83661090Y-41902532D01*
X83815121Y-41809854D01*
X83815120Y-41809854D01*
X83815126Y-41809851D01*
X83945642Y-41686220D01*
X84046529Y-41537423D01*
X84113070Y-41370416D01*
X84142155Y-41193010D01*
X84132422Y-41013499D01*
X84084327Y-40840277D01*
X84000119Y-40681444D01*
X84000117Y-40681442D01*
X84000117Y-40681441D01*
X83883737Y-40544428D01*
X83883736Y-40544427D01*
X83883735Y-40544426D01*
X83807068Y-40486145D01*
X83740620Y-40435632D01*
X83740616Y-40435630D01*
X83577459Y-40360146D01*
X83401887Y-40321500D01*
X83267184Y-40321500D01*
X83267183Y-40321500D01*
X83133275Y-40336063D01*
X83133273Y-40336064D01*
X82962916Y-40393463D01*
X82962909Y-40393467D01*
X82808878Y-40486145D01*
X82747349Y-40544428D01*
X82678358Y-40609780D01*
X82577471Y-40758577D01*
X82577469Y-40758579D01*
X82577469Y-40758581D01*
X82510930Y-40925583D01*
X82481845Y-41102990D01*
X82481844Y-41102991D01*
X69094879Y-41102991D01*
X68990741Y-41006365D01*
X68767775Y-40854349D01*
X68767772Y-40854348D01*
X68767770Y-40854346D01*
X68524650Y-40737266D01*
X68524646Y-40737264D01*
X68524641Y-40737262D01*
X68524633Y-40737259D01*
X68524629Y-40737258D01*
X68266777Y-40657721D01*
X68266773Y-40657720D01*
X67999932Y-40617500D01*
X67999929Y-40617500D01*
X67730071Y-40617500D01*
X67730067Y-40617500D01*
X67463226Y-40657720D01*
X67463222Y-40657721D01*
X67205370Y-40737258D01*
X67205349Y-40737266D01*
X66962227Y-40854348D01*
X66739259Y-41006364D01*
X66541438Y-41189915D01*
X66373189Y-41400892D01*
X66373184Y-41400900D01*
X66238257Y-41634601D01*
X66238255Y-41634606D01*
X66139665Y-41885805D01*
X66139663Y-41885812D01*
X66079618Y-42148886D01*
X66079615Y-42148909D01*
X66059451Y-42417994D01*
X66059451Y-42418005D01*
X64520101Y-42418005D01*
X64520101Y-42418000D01*
X64499723Y-42159077D01*
X64439095Y-41906544D01*
X64438515Y-41905143D01*
X63925660Y-42417999D01*
X63516285Y-42417999D01*
X63508561Y-42295234D01*
X63457812Y-42139044D01*
X63369814Y-42000381D01*
X63250097Y-41887960D01*
X63106183Y-41808842D01*
X62947114Y-41768000D01*
X62824106Y-41768000D01*
X62702067Y-41783417D01*
X62549371Y-41843874D01*
X62416508Y-41940405D01*
X62311825Y-42066945D01*
X62241900Y-42215543D01*
X62211127Y-42376862D01*
X61763201Y-42376862D01*
X61291483Y-41905144D01*
X61290901Y-41906553D01*
X61230276Y-42159077D01*
X61209898Y-42418000D01*
X59665499Y-42418000D01*
X59665499Y-41070128D01*
X59659091Y-41010517D01*
X59641703Y-40963897D01*
X59608797Y-40875670D01*
X59608795Y-40875666D01*
X59585451Y-40844483D01*
X62352144Y-40844483D01*
X62864999Y-41357338D01*
X63377854Y-40844483D01*
X63377854Y-40844482D01*
X63376462Y-40843906D01*
X63376453Y-40843903D01*
X63123922Y-40783276D01*
X62865000Y-40762898D01*
X62606077Y-40783276D01*
X62353553Y-40843901D01*
X62352144Y-40844483D01*
X59585451Y-40844483D01*
X59522547Y-40760455D01*
X59522544Y-40760452D01*
X59407333Y-40674204D01*
X59407329Y-40674202D01*
X59272482Y-40623908D01*
X59212876Y-40617500D01*
X56517136Y-40617500D01*
X56517111Y-40617502D01*
X56457521Y-40623908D01*
X56457515Y-40623909D01*
X56322670Y-40674202D01*
X56322666Y-40674204D01*
X56207455Y-40760452D01*
X56207452Y-40760455D01*
X56121204Y-40875666D01*
X56121202Y-40875670D01*
X56070908Y-41010517D01*
X56064500Y-41070114D01*
X56064500Y-43765863D01*
X25914778Y-43765863D01*
X25907705Y-43721206D01*
X25812742Y-43366801D01*
X25812739Y-43366794D01*
X25812736Y-43366784D01*
X25681260Y-43024277D01*
X25681259Y-43024276D01*
X25681255Y-43024264D01*
X25594431Y-42853863D01*
X33839500Y-42853863D01*
X33839502Y-42853888D01*
X33845908Y-42913478D01*
X33845909Y-42913484D01*
X33896202Y-43048329D01*
X33896204Y-43048333D01*
X33982452Y-43163544D01*
X33982455Y-43163547D01*
X34097666Y-43249795D01*
X34097670Y-43249797D01*
X34232517Y-43300091D01*
X34292114Y-43306499D01*
X34292118Y-43306499D01*
X34292127Y-43306500D01*
X36987872Y-43306499D01*
X37047483Y-43300091D01*
X37143447Y-43264298D01*
X37182329Y-43249797D01*
X37182333Y-43249795D01*
X37295009Y-43165445D01*
X37297546Y-43163546D01*
X37360017Y-43080096D01*
X37360451Y-43079516D01*
X40127143Y-43079516D01*
X40128544Y-43080095D01*
X40381077Y-43140723D01*
X40640000Y-43161101D01*
X40898922Y-43140723D01*
X41151452Y-43080096D01*
X41151457Y-43080095D01*
X41152854Y-43079516D01*
X40640000Y-42566660D01*
X40127143Y-43079516D01*
X37360451Y-43079516D01*
X37383795Y-43048333D01*
X37383797Y-43048329D01*
X37420398Y-42950195D01*
X37434091Y-42913483D01*
X37436014Y-42895595D01*
X37440499Y-42853885D01*
X37440499Y-42853882D01*
X37440500Y-42853873D01*
X37440499Y-41506000D01*
X38984898Y-41506000D01*
X39005276Y-41764922D01*
X39065903Y-42017453D01*
X39065906Y-42017462D01*
X39066482Y-42018854D01*
X39066483Y-42018854D01*
X39579338Y-41505999D01*
X39538201Y-41464862D01*
X39986127Y-41464862D01*
X39996439Y-41628766D01*
X40047188Y-41784956D01*
X40135186Y-41923619D01*
X40254903Y-42036040D01*
X40398817Y-42115158D01*
X40557886Y-42156000D01*
X40680894Y-42156000D01*
X40802933Y-42140583D01*
X40955629Y-42080126D01*
X41088492Y-41983595D01*
X41193175Y-41857055D01*
X41263100Y-41708457D01*
X41293873Y-41547138D01*
X41291285Y-41505999D01*
X41700660Y-41505999D01*
X42213516Y-42018854D01*
X42214095Y-42017457D01*
X42214096Y-42017452D01*
X42274723Y-41764922D01*
X42295101Y-41506000D01*
X42274723Y-41247077D01*
X42214095Y-40994544D01*
X42213515Y-40993143D01*
X41700660Y-41505999D01*
X41291285Y-41505999D01*
X41283561Y-41383234D01*
X41232812Y-41227044D01*
X41144814Y-41088381D01*
X41025097Y-40975960D01*
X40881183Y-40896842D01*
X40722114Y-40856000D01*
X40599106Y-40856000D01*
X40477067Y-40871417D01*
X40324371Y-40931874D01*
X40191508Y-41028405D01*
X40086825Y-41154945D01*
X40016900Y-41303543D01*
X39986127Y-41464862D01*
X39538201Y-41464862D01*
X39066483Y-40993144D01*
X39065901Y-40994553D01*
X39005276Y-41247077D01*
X38984898Y-41506000D01*
X37440499Y-41506000D01*
X37440499Y-40158128D01*
X37434091Y-40098517D01*
X37419588Y-40059633D01*
X37383797Y-39963670D01*
X37383795Y-39963666D01*
X37360451Y-39932483D01*
X40127144Y-39932483D01*
X40639999Y-40445338D01*
X41152854Y-39932483D01*
X41152854Y-39932482D01*
X41151462Y-39931906D01*
X41151453Y-39931903D01*
X40898922Y-39871276D01*
X40640000Y-39850898D01*
X40381077Y-39871276D01*
X40128553Y-39931901D01*
X40127144Y-39932483D01*
X37360451Y-39932483D01*
X37297547Y-39848455D01*
X37297544Y-39848452D01*
X37182333Y-39762204D01*
X37182329Y-39762202D01*
X37047482Y-39711908D01*
X36987876Y-39705500D01*
X34292136Y-39705500D01*
X34292111Y-39705502D01*
X34232521Y-39711908D01*
X34232515Y-39711909D01*
X34097670Y-39762202D01*
X34097666Y-39762204D01*
X33982455Y-39848452D01*
X33982452Y-39848455D01*
X33896204Y-39963666D01*
X33896202Y-39963670D01*
X33845908Y-40098517D01*
X33839500Y-40158114D01*
X33839500Y-42853863D01*
X25594431Y-42853863D01*
X25514682Y-42697348D01*
X25514680Y-42697345D01*
X25514678Y-42697341D01*
X25314851Y-42389634D01*
X25238407Y-42295234D01*
X25083949Y-42104494D01*
X24824506Y-41845051D01*
X24564622Y-41634601D01*
X24539365Y-41614148D01*
X24231658Y-41414321D01*
X24231645Y-41414314D01*
X23904738Y-41247746D01*
X23904722Y-41247739D01*
X23562215Y-41116263D01*
X23562194Y-41116256D01*
X23207802Y-41021297D01*
X23207800Y-41021296D01*
X23158603Y-41013504D01*
X23026599Y-40992596D01*
X22845398Y-40963897D01*
X22479000Y-40944696D01*
X22112601Y-40963897D01*
X21750199Y-41021296D01*
X21750197Y-41021297D01*
X21395805Y-41116256D01*
X21395784Y-41116263D01*
X21053277Y-41247739D01*
X21053261Y-41247746D01*
X20726354Y-41414314D01*
X20726341Y-41414321D01*
X20418634Y-41614148D01*
X20133490Y-41845054D01*
X19874054Y-42104490D01*
X19643148Y-42389634D01*
X19443321Y-42697341D01*
X19443314Y-42697354D01*
X19363564Y-42853873D01*
X19314486Y-42950195D01*
X19307260Y-42964376D01*
X19255651Y-43021693D01*
X19182298Y-43045527D01*
X19106855Y-43029491D01*
X19049538Y-42977882D01*
X19025704Y-42904529D01*
X19025500Y-42896731D01*
X19025500Y-35756000D01*
X51009659Y-35756000D01*
X51028976Y-35952134D01*
X51086187Y-36140731D01*
X51179083Y-36314526D01*
X51179087Y-36314532D01*
X51179090Y-36314538D01*
X51304117Y-36466883D01*
X51456462Y-36591910D01*
X51456471Y-36591915D01*
X51456473Y-36591916D01*
X51630268Y-36684812D01*
X51630270Y-36684812D01*
X51630273Y-36684814D01*
X51818868Y-36742024D01*
X52015000Y-36761341D01*
X52211132Y-36742024D01*
X52399727Y-36684814D01*
X52573538Y-36591910D01*
X52670476Y-36512354D01*
X52740728Y-36480523D01*
X52817485Y-36488083D01*
X52859523Y-36512354D01*
X52956462Y-36591910D01*
X52956471Y-36591915D01*
X52956473Y-36591916D01*
X53130268Y-36684812D01*
X53130270Y-36684812D01*
X53130273Y-36684814D01*
X53318868Y-36742024D01*
X53515000Y-36761341D01*
X53711132Y-36742024D01*
X53899727Y-36684814D01*
X54073538Y-36591910D01*
X54225883Y-36466883D01*
X54350910Y-36314538D01*
X54443814Y-36140727D01*
X54501024Y-35952132D01*
X54520341Y-35756000D01*
X54501024Y-35559868D01*
X54443814Y-35371273D01*
X54443812Y-35371270D01*
X54443812Y-35371268D01*
X54350916Y-35197473D01*
X54350915Y-35197471D01*
X54350910Y-35197462D01*
X54271354Y-35100523D01*
X54239523Y-35030272D01*
X54247083Y-34953515D01*
X54271354Y-34911476D01*
X54350910Y-34814538D01*
X54443814Y-34640727D01*
X54501024Y-34452132D01*
X54520341Y-34256000D01*
X54501024Y-34059868D01*
X54443814Y-33871273D01*
X54443812Y-33871270D01*
X54443812Y-33871268D01*
X54350916Y-33697473D01*
X54350915Y-33697471D01*
X54350910Y-33697462D01*
X54225883Y-33545117D01*
X54073538Y-33420090D01*
X54073532Y-33420087D01*
X54073526Y-33420083D01*
X53899731Y-33327187D01*
X53711134Y-33269976D01*
X53515000Y-33250659D01*
X53318865Y-33269976D01*
X53130268Y-33327187D01*
X52956473Y-33420083D01*
X52956460Y-33420091D01*
X52859524Y-33499645D01*
X52789271Y-33531476D01*
X52712514Y-33523916D01*
X52670476Y-33499645D01*
X52573539Y-33420091D01*
X52573538Y-33420090D01*
X52573533Y-33420087D01*
X52573526Y-33420083D01*
X52399731Y-33327187D01*
X52211134Y-33269976D01*
X52015000Y-33250659D01*
X51818865Y-33269976D01*
X51630268Y-33327187D01*
X51456473Y-33420083D01*
X51456465Y-33420088D01*
X51456463Y-33420089D01*
X51456462Y-33420090D01*
X51304117Y-33545117D01*
X51194434Y-33678766D01*
X51179088Y-33697465D01*
X51179083Y-33697473D01*
X51086187Y-33871268D01*
X51028976Y-34059865D01*
X51009659Y-34256000D01*
X51028976Y-34452134D01*
X51086187Y-34640731D01*
X51179083Y-34814526D01*
X51179091Y-34814539D01*
X51258645Y-34911476D01*
X51290476Y-34981729D01*
X51282916Y-35058486D01*
X51258645Y-35100524D01*
X51179091Y-35197460D01*
X51179083Y-35197473D01*
X51086187Y-35371268D01*
X51028976Y-35559865D01*
X51009659Y-35756000D01*
X19025500Y-35756000D01*
X19025500Y-35129516D01*
X24252143Y-35129516D01*
X24253544Y-35130095D01*
X24506077Y-35190723D01*
X24765000Y-35211101D01*
X25023922Y-35190723D01*
X25276452Y-35130096D01*
X25276457Y-35130095D01*
X25277854Y-35129516D01*
X24765000Y-34616660D01*
X24252143Y-35129516D01*
X19025500Y-35129516D01*
X19025500Y-33556000D01*
X23109898Y-33556000D01*
X23130276Y-33814922D01*
X23190903Y-34067453D01*
X23190906Y-34067462D01*
X23191482Y-34068854D01*
X23191483Y-34068854D01*
X23704338Y-33555999D01*
X23663201Y-33514862D01*
X24111127Y-33514862D01*
X24121439Y-33678766D01*
X24172188Y-33834956D01*
X24260186Y-33973619D01*
X24379903Y-34086040D01*
X24523817Y-34165158D01*
X24682886Y-34206000D01*
X24805894Y-34206000D01*
X24927933Y-34190583D01*
X25080629Y-34130126D01*
X25213492Y-34033595D01*
X25318175Y-33907055D01*
X25388100Y-33758457D01*
X25418873Y-33597138D01*
X25416285Y-33555999D01*
X25825660Y-33555999D01*
X26338516Y-34068854D01*
X26339095Y-34067457D01*
X26339096Y-34067452D01*
X26399723Y-33814922D01*
X26420101Y-33556000D01*
X26399723Y-33297077D01*
X26339095Y-33044544D01*
X26338515Y-33043143D01*
X25825660Y-33555999D01*
X25416285Y-33555999D01*
X25408561Y-33433234D01*
X25357812Y-33277044D01*
X25269814Y-33138381D01*
X25150097Y-33025960D01*
X25006183Y-32946842D01*
X24847114Y-32906000D01*
X24724106Y-32906000D01*
X24602067Y-32921417D01*
X24449371Y-32981874D01*
X24316508Y-33078405D01*
X24211825Y-33204945D01*
X24141900Y-33353543D01*
X24111127Y-33514862D01*
X23663201Y-33514862D01*
X23191483Y-33043144D01*
X23190901Y-33044553D01*
X23130276Y-33297077D01*
X23109898Y-33556000D01*
X19025500Y-33556000D01*
X19025500Y-31982483D01*
X24252144Y-31982483D01*
X24764999Y-32495338D01*
X25277854Y-31982483D01*
X25277854Y-31982482D01*
X25276462Y-31981906D01*
X25276453Y-31981903D01*
X25023922Y-31921276D01*
X24765000Y-31900898D01*
X24506077Y-31921276D01*
X24253553Y-31981901D01*
X24252144Y-31982483D01*
X19025500Y-31982483D01*
X19025500Y-29903863D01*
X22964500Y-29903863D01*
X22964502Y-29903888D01*
X22970908Y-29963478D01*
X22970909Y-29963484D01*
X23021202Y-30098329D01*
X23021204Y-30098333D01*
X23107452Y-30213544D01*
X23107455Y-30213547D01*
X23222666Y-30299795D01*
X23222670Y-30299797D01*
X23357517Y-30350091D01*
X23417114Y-30356499D01*
X23417118Y-30356499D01*
X23417127Y-30356500D01*
X26112872Y-30356499D01*
X26172483Y-30350091D01*
X26268447Y-30314298D01*
X26307329Y-30299797D01*
X26307333Y-30299795D01*
X26364938Y-30256671D01*
X26422546Y-30213546D01*
X26428195Y-30206000D01*
X71284540Y-30206000D01*
X71304325Y-30394254D01*
X71304326Y-30394256D01*
X71362821Y-30574284D01*
X71362822Y-30574285D01*
X71457469Y-30738220D01*
X71584127Y-30878886D01*
X71584129Y-30878888D01*
X71737270Y-30990151D01*
X71910197Y-31067144D01*
X72051315Y-31097139D01*
X72095352Y-31106500D01*
X72095354Y-31106500D01*
X72284648Y-31106500D01*
X72339879Y-31094759D01*
X72469803Y-31067144D01*
X72641897Y-30990521D01*
X72718074Y-30978456D01*
X72763100Y-30990520D01*
X72935197Y-31067144D01*
X73055438Y-31092701D01*
X73120352Y-31106500D01*
X73120354Y-31106500D01*
X73309648Y-31106500D01*
X73349004Y-31098134D01*
X73494803Y-31067144D01*
X73667730Y-30990151D01*
X73820871Y-30878888D01*
X73893195Y-30798563D01*
X73947530Y-30738220D01*
X73947531Y-30738218D01*
X73947533Y-30738216D01*
X74042179Y-30574284D01*
X74100674Y-30394256D01*
X74120460Y-30206000D01*
X74100674Y-30017744D01*
X74042179Y-29837716D01*
X74001927Y-29767998D01*
X73981966Y-29693500D01*
X74001927Y-29619001D01*
X74042179Y-29549284D01*
X74100674Y-29369256D01*
X74120460Y-29181000D01*
X74100674Y-28992744D01*
X74042179Y-28812716D01*
X73947533Y-28648784D01*
X73947532Y-28648783D01*
X73947530Y-28648779D01*
X73820872Y-28508113D01*
X73727499Y-28440274D01*
X73667730Y-28396849D01*
X73667729Y-28396848D01*
X73667727Y-28396847D01*
X73494805Y-28319857D01*
X73494803Y-28319856D01*
X73388360Y-28297231D01*
X73309648Y-28280500D01*
X73309646Y-28280500D01*
X73120354Y-28280500D01*
X73120352Y-28280500D01*
X73020392Y-28301747D01*
X72935197Y-28319856D01*
X72935195Y-28319856D01*
X72935194Y-28319857D01*
X72763104Y-28396477D01*
X72686926Y-28408543D01*
X72641896Y-28396477D01*
X72469805Y-28319857D01*
X72469803Y-28319856D01*
X72363360Y-28297231D01*
X72284648Y-28280500D01*
X72284646Y-28280500D01*
X72095354Y-28280500D01*
X72095352Y-28280500D01*
X71995392Y-28301747D01*
X71910197Y-28319856D01*
X71910195Y-28319856D01*
X71910194Y-28319857D01*
X71737272Y-28396847D01*
X71584127Y-28508113D01*
X71457469Y-28648779D01*
X71362822Y-28812714D01*
X71362819Y-28812721D01*
X71304325Y-28992745D01*
X71284540Y-29181000D01*
X71304325Y-29369254D01*
X71304326Y-29369256D01*
X71362821Y-29549284D01*
X71403071Y-29619000D01*
X71403072Y-29619001D01*
X71423033Y-29693502D01*
X71403072Y-29767997D01*
X71362821Y-29837716D01*
X71362821Y-29837717D01*
X71362819Y-29837721D01*
X71304325Y-30017745D01*
X71284540Y-30206000D01*
X26428195Y-30206000D01*
X26508796Y-30098331D01*
X26559091Y-29963483D01*
X26560823Y-29947370D01*
X26565499Y-29903885D01*
X26565499Y-29903882D01*
X26565500Y-29903873D01*
X26565499Y-27456001D01*
X68559435Y-27456001D01*
X68579631Y-27635252D01*
X68579631Y-27635254D01*
X68579632Y-27635255D01*
X68639211Y-27805522D01*
X68735184Y-27958262D01*
X68862738Y-28085816D01*
X69015478Y-28181789D01*
X69185745Y-28241368D01*
X69275372Y-28251466D01*
X69364999Y-28261565D01*
X69365000Y-28261565D01*
X69365001Y-28261565D01*
X69409813Y-28256515D01*
X69544255Y-28241368D01*
X69714522Y-28181789D01*
X69867262Y-28085816D01*
X69994816Y-27958262D01*
X70090789Y-27805522D01*
X70150368Y-27635255D01*
X70170565Y-27456000D01*
X70150368Y-27276745D01*
X70090789Y-27106478D01*
X69994816Y-26953738D01*
X69867262Y-26826184D01*
X69714522Y-26730211D01*
X69544255Y-26670632D01*
X69544254Y-26670631D01*
X69544253Y-26670631D01*
X69365001Y-26650435D01*
X69364999Y-26650435D01*
X69185747Y-26670631D01*
X69015477Y-26730211D01*
X68862738Y-26826184D01*
X68735184Y-26953738D01*
X68639211Y-27106477D01*
X68579631Y-27276747D01*
X68559435Y-27455998D01*
X68559435Y-27456001D01*
X26565499Y-27456001D01*
X26565499Y-27208128D01*
X26559091Y-27148517D01*
X26544588Y-27109633D01*
X26508797Y-27013670D01*
X26508795Y-27013666D01*
X26422547Y-26898455D01*
X26422544Y-26898452D01*
X26307333Y-26812204D01*
X26307329Y-26812202D01*
X26172482Y-26761908D01*
X26112876Y-26755500D01*
X23417136Y-26755500D01*
X23417111Y-26755502D01*
X23357521Y-26761908D01*
X23357515Y-26761909D01*
X23222670Y-26812202D01*
X23222666Y-26812204D01*
X23107455Y-26898452D01*
X23107452Y-26898455D01*
X23021204Y-27013666D01*
X23021202Y-27013670D01*
X22970908Y-27148517D01*
X22964500Y-27208114D01*
X22964500Y-29903863D01*
X19025500Y-29903863D01*
X19025500Y-24556001D01*
X70859435Y-24556001D01*
X70879631Y-24735252D01*
X70879631Y-24735254D01*
X70879632Y-24735255D01*
X70939211Y-24905522D01*
X71035184Y-25058262D01*
X71162738Y-25185816D01*
X71315478Y-25281789D01*
X71485745Y-25341368D01*
X71575372Y-25351466D01*
X71664999Y-25361565D01*
X71665000Y-25361565D01*
X71665001Y-25361565D01*
X71709954Y-25356500D01*
X71844255Y-25341368D01*
X72014522Y-25281789D01*
X72167262Y-25185816D01*
X72294816Y-25058262D01*
X72390789Y-24905522D01*
X72450368Y-24735255D01*
X72470565Y-24556000D01*
X72459298Y-24456000D01*
X74059540Y-24456000D01*
X74079325Y-24644254D01*
X74137819Y-24824278D01*
X74137821Y-24824284D01*
X74137822Y-24824285D01*
X74232469Y-24988220D01*
X74359127Y-25128886D01*
X74359129Y-25128888D01*
X74512270Y-25240151D01*
X74685197Y-25317144D01*
X74826315Y-25347139D01*
X74870352Y-25356500D01*
X74870354Y-25356500D01*
X75059648Y-25356500D01*
X75099004Y-25348134D01*
X75244803Y-25317144D01*
X75417730Y-25240151D01*
X75570871Y-25128888D01*
X75643195Y-25048563D01*
X75697530Y-24988220D01*
X75697531Y-24988218D01*
X75697533Y-24988216D01*
X75792179Y-24824284D01*
X75850674Y-24644256D01*
X75870460Y-24456000D01*
X75850674Y-24267744D01*
X75792179Y-24087716D01*
X75697533Y-23923784D01*
X75697532Y-23923783D01*
X75697530Y-23923779D01*
X75570872Y-23783113D01*
X75533555Y-23756001D01*
X75417730Y-23671849D01*
X75417729Y-23671848D01*
X75417727Y-23671847D01*
X75244805Y-23594857D01*
X75244803Y-23594856D01*
X75138360Y-23572231D01*
X75059648Y-23555500D01*
X75059646Y-23555500D01*
X74870354Y-23555500D01*
X74870352Y-23555500D01*
X74770403Y-23576745D01*
X74685197Y-23594856D01*
X74685195Y-23594856D01*
X74685194Y-23594857D01*
X74512272Y-23671847D01*
X74359127Y-23783113D01*
X74232469Y-23923779D01*
X74137822Y-24087714D01*
X74137819Y-24087721D01*
X74079325Y-24267745D01*
X74059540Y-24456000D01*
X72459298Y-24456000D01*
X72450368Y-24376745D01*
X72390789Y-24206478D01*
X72390786Y-24206474D01*
X72390345Y-24205212D01*
X72384582Y-24128299D01*
X72390345Y-24106788D01*
X72390786Y-24105525D01*
X72390789Y-24105522D01*
X72450368Y-23935255D01*
X72470565Y-23756000D01*
X72450368Y-23576745D01*
X72390789Y-23406478D01*
X72294816Y-23253738D01*
X72167262Y-23126184D01*
X72014522Y-23030211D01*
X71844255Y-22970632D01*
X71844254Y-22970631D01*
X71844253Y-22970631D01*
X71665001Y-22950435D01*
X71664999Y-22950435D01*
X71485747Y-22970631D01*
X71315477Y-23030211D01*
X71162738Y-23126184D01*
X71035184Y-23253738D01*
X70939211Y-23406477D01*
X70879631Y-23576747D01*
X70859435Y-23755998D01*
X70859435Y-23756001D01*
X70879631Y-23935253D01*
X70939654Y-24106789D01*
X70945417Y-24183702D01*
X70939654Y-24205211D01*
X70879631Y-24376746D01*
X70859435Y-24555998D01*
X70859435Y-24556001D01*
X19025500Y-24556001D01*
X19025500Y-20217519D01*
X19045462Y-20143019D01*
X19100000Y-20088481D01*
X19174500Y-20068519D01*
X19249000Y-20088481D01*
X19303538Y-20143019D01*
X19307261Y-20149877D01*
X19316310Y-20167639D01*
X19316321Y-20167658D01*
X19516148Y-20475365D01*
X19516149Y-20475366D01*
X19747051Y-20760506D01*
X20006494Y-21019949D01*
X20173613Y-21155279D01*
X20291634Y-21250851D01*
X20599341Y-21450678D01*
X20599345Y-21450680D01*
X20599348Y-21450682D01*
X20926264Y-21617255D01*
X20926276Y-21617259D01*
X20926277Y-21617260D01*
X21268784Y-21748736D01*
X21268794Y-21748739D01*
X21268801Y-21748742D01*
X21623206Y-21843705D01*
X21985596Y-21901102D01*
X22352000Y-21920304D01*
X22718404Y-21901102D01*
X23080794Y-21843705D01*
X23435199Y-21748742D01*
X23777736Y-21617255D01*
X24104652Y-21450682D01*
X24154992Y-21417991D01*
X25204844Y-21417991D01*
X25214577Y-21597495D01*
X25214578Y-21597500D01*
X25262672Y-21770720D01*
X25262672Y-21770721D01*
X25346881Y-21929556D01*
X25346882Y-21929558D01*
X25463262Y-22066571D01*
X25463265Y-22066574D01*
X25539927Y-22124851D01*
X25604979Y-22174303D01*
X25606382Y-22175369D01*
X25769541Y-22250854D01*
X25945113Y-22289500D01*
X25945118Y-22289500D01*
X26079807Y-22289500D01*
X26079816Y-22289500D01*
X26213721Y-22274937D01*
X26297468Y-22246719D01*
X26384083Y-22217536D01*
X26384090Y-22217532D01*
X26538121Y-22124854D01*
X26538120Y-22124854D01*
X26538126Y-22124851D01*
X26668642Y-22001220D01*
X26769529Y-21852423D01*
X26836070Y-21685416D01*
X26865155Y-21508010D01*
X26862046Y-21450678D01*
X26855422Y-21328504D01*
X26855422Y-21328499D01*
X26807327Y-21155277D01*
X26723119Y-20996444D01*
X26723117Y-20996442D01*
X26723117Y-20996441D01*
X26606737Y-20859428D01*
X26606736Y-20859427D01*
X26606735Y-20859426D01*
X26530068Y-20801145D01*
X26463620Y-20750632D01*
X26463616Y-20750630D01*
X26300459Y-20675146D01*
X26124887Y-20636500D01*
X25990184Y-20636500D01*
X25990183Y-20636500D01*
X25856275Y-20651063D01*
X25856273Y-20651064D01*
X25685916Y-20708463D01*
X25685909Y-20708467D01*
X25531878Y-20801145D01*
X25470349Y-20859428D01*
X25401358Y-20924780D01*
X25300471Y-21073577D01*
X25300469Y-21073579D01*
X25300469Y-21073581D01*
X25233930Y-21240583D01*
X25204845Y-21417990D01*
X25204844Y-21417991D01*
X24154992Y-21417991D01*
X24412366Y-21250851D01*
X24697506Y-21019949D01*
X24956949Y-20760506D01*
X25187851Y-20475366D01*
X25387682Y-20167652D01*
X25554255Y-19840736D01*
X25572387Y-19793500D01*
X71459540Y-19793500D01*
X71479325Y-19981754D01*
X71516036Y-20094738D01*
X71537821Y-20161784D01*
X71570000Y-20217519D01*
X71632469Y-20325720D01*
X71759127Y-20466386D01*
X71759129Y-20466388D01*
X71912270Y-20577651D01*
X72085197Y-20654644D01*
X72226315Y-20684639D01*
X72270352Y-20694000D01*
X72270354Y-20694000D01*
X72459648Y-20694000D01*
X72499004Y-20685634D01*
X72644803Y-20654644D01*
X72817730Y-20577651D01*
X72970871Y-20466388D01*
X73043195Y-20386063D01*
X73097530Y-20325720D01*
X73097531Y-20325718D01*
X73097533Y-20325716D01*
X73192179Y-20161784D01*
X73250674Y-19981756D01*
X73270460Y-19793500D01*
X73250674Y-19605244D01*
X73192179Y-19425216D01*
X73097533Y-19261284D01*
X73097532Y-19261283D01*
X73097530Y-19261279D01*
X72970872Y-19120613D01*
X72853591Y-19035404D01*
X72817730Y-19009349D01*
X72817729Y-19009348D01*
X72817727Y-19009347D01*
X72644805Y-18932357D01*
X72644803Y-18932356D01*
X72538360Y-18909731D01*
X72459648Y-18893000D01*
X72459646Y-18893000D01*
X72270354Y-18893000D01*
X72270352Y-18893000D01*
X72170392Y-18914247D01*
X72085197Y-18932356D01*
X72085195Y-18932356D01*
X72085194Y-18932357D01*
X71912272Y-19009347D01*
X71759127Y-19120613D01*
X71632469Y-19261279D01*
X71537822Y-19425214D01*
X71537819Y-19425221D01*
X71479325Y-19605245D01*
X71459540Y-19793500D01*
X25572387Y-19793500D01*
X25685742Y-19498199D01*
X25780705Y-19143794D01*
X25838102Y-18781404D01*
X25857304Y-18415000D01*
X25838102Y-18048596D01*
X25780705Y-17686206D01*
X25685742Y-17331801D01*
X25685739Y-17331794D01*
X25685736Y-17331784D01*
X25554260Y-16989277D01*
X25554259Y-16989276D01*
X25554255Y-16989264D01*
X25387682Y-16662348D01*
X25387680Y-16662345D01*
X25387678Y-16662341D01*
X25187851Y-16354634D01*
X25162631Y-16323490D01*
X24956949Y-16069494D01*
X24697506Y-15810051D01*
X24412366Y-15579149D01*
X24412367Y-15579149D01*
X24412365Y-15579148D01*
X24104658Y-15379321D01*
X24104645Y-15379314D01*
X23963231Y-15307260D01*
X23905914Y-15255651D01*
X23882080Y-15182298D01*
X23898116Y-15106855D01*
X23949725Y-15049538D01*
X24023078Y-15025704D01*
X24030876Y-15025500D01*
X85428066Y-15025500D01*
X85502566Y-15045462D01*
G37*
G04 #@! TD.AperFunction*
M02*
