M48
; DRILL file {KiCad 7.0.8} date 2023 November 17, Friday 13:56:34
; FORMAT={-:-/ absolute / metric / decimal}
; #@! TF.CreationDate,2023-11-17T13:56:34+01:00
; #@! TF.GenerationSoftware,Kicad,Pcbnew,7.0.8
; #@! TF.FileFunction,Plated,1,4,PTH
FMAT,2
METRIC
; #@! TA.AperFunction,Plated,PTH,ViaDrill
T1C0.300
; #@! TA.AperFunction,Plated,PTH,ViaDrill
T2C0.400
; #@! TA.AperFunction,Plated,PTH,ViaDrill
T3C0.600
; #@! TA.AperFunction,Plated,PTH,ComponentDrill
T4C1.300
; #@! TA.AperFunction,Plated,PTH,ComponentDrill
T5C3.000
%
G90
G05
T1
X67.765Y-23.356
X67.765Y-24.206
X67.765Y-25.056
X68.615Y-23.356
X68.615Y-24.206
X68.615Y-25.056
X69.365Y-27.456
X69.465Y-23.356
X69.465Y-24.206
X69.465Y-25.056
X71.665Y-23.756
X71.665Y-24.556
T2
X20.265Y-21.756
X20.265Y-24.256
X20.265Y-26.756
X20.265Y-29.256
X20.265Y-34.256
X20.265Y-36.756
X20.265Y-39.256
X20.265Y-41.021
X22.465Y-22.606
X22.465Y-24.256
X22.465Y-36.756
X22.465Y-38.608
X22.606Y-40.386
X24.257Y-22.606
X24.765Y-24.256
X24.765Y-36.756
X24.765Y-39.256
X24.765Y-41.021
X26.543Y-17.653
X27.265Y-16.256
X27.265Y-19.256
X27.265Y-24.256
X27.265Y-45.756
X27.686Y-21.844
X29.765Y-16.256
X29.765Y-19.256
X29.765Y-21.756
X29.765Y-24.256
X29.765Y-45.756
X30.09Y-43.331
X32.265Y-16.256
X32.265Y-31.756
X32.265Y-36.756
X32.265Y-45.756
X33.515Y-20.756
X34.765Y-16.256
X34.765Y-45.756
X35.815Y-28.306
X35.865Y-21.556
X36.165Y-24.356
X37.065Y-22.456
X37.065Y-26.106
X37.065Y-30.506
X37.265Y-16.256
X37.265Y-45.756
X37.965Y-24.356
X38.315Y-28.306
X39.765Y-16.256
X39.765Y-45.756
X41.465Y-17.706
X41.465Y-19.806
X42.265Y-45.756
X42.765Y-18.756
X43.815Y-19.506
X44.765Y-45.756
X46.415Y-44.056
X46.565Y-18.306
X46.565Y-19.506
X46.565Y-20.806
X46.565Y-22.056
X47.265Y-45.756
X48.115Y-44.056
X48.665Y-18.306
X48.665Y-19.506
X48.665Y-20.806
X48.665Y-22.056
X48.865Y-16.606
X49.765Y-45.756
X50.015Y-16.606
X52.265Y-45.756
X52.34Y-43.181
X54.765Y-16.256
X54.765Y-45.756
X56.715Y-25.506
X56.715Y-26.706
X56.89Y-24.206
X57.265Y-16.256
X57.265Y-19.256
X57.265Y-21.756
X57.265Y-45.756
X59.765Y-16.256
X59.765Y-19.256
X59.765Y-21.756
X59.765Y-45.756
X60.19Y-22.956
X62.265Y-16.256
X62.265Y-45.756
X62.59Y-19.356
X63.64Y-21.781
X64.765Y-16.256
X64.765Y-45.756
X66.59Y-17.331
X66.915Y-28.706
X66.915Y-29.756
X66.915Y-30.806
X67.265Y-16.256
X67.265Y-45.756
X68.015Y-28.706
X68.015Y-29.756
X68.015Y-30.806
X68.715Y-32.906
X68.815Y-31.756
X69.765Y-16.256
X69.765Y-45.756
X70.915Y-31.756
X71.374Y-45.721
X71.501Y-37.592
X71.501Y-39.37
X72.19Y-29.181
X72.19Y-30.206
X72.265Y-16.256
X72.365Y-19.793
X73.215Y-29.181
X73.215Y-30.206
X73.787Y-37.592
X73.787Y-39.37
X74.765Y-16.256
X74.965Y-24.456
X76.265Y-39.256
X76.454Y-37.592
X77.265Y-16.256
X77.515Y-24.256
X77.515Y-25.156
X77.665Y-30.906
X77.665Y-34.256
X77.665Y-36.106
X78.815Y-27.356
X79.765Y-16.256
X79.765Y-45.756
X80.79Y-27.881
X80.94Y-24.256
X80.94Y-25.156
X82.265Y-16.256
X82.265Y-26.756
X82.265Y-45.756
X82.315Y-18.56
X82.423Y-43.688
X82.823Y-21.862
X82.823Y-24.148
X82.931Y-29.228
X82.931Y-31.768
X82.931Y-34.308
X82.931Y-36.703
X82.931Y-39.116
X84.709Y-38.989
X84.765Y-26.756
X84.765Y-29.256
X84.765Y-34.256
X84.765Y-36.756
X84.855Y-22.606
X84.855Y-24.148
X84.855Y-31.768
X85.598Y-40.64
X87.201Y-38.989
X87.257Y-26.756
X87.257Y-29.256
X87.257Y-34.256
X87.257Y-36.756
X87.347Y-22.479
X87.347Y-24.148
X87.347Y-31.768
X88.392Y-40.64
T3
X52.015Y-34.256
X52.015Y-35.756
X53.515Y-34.256
X53.515Y-35.756
T4
X24.765Y-28.556
X24.765Y-33.556
X35.64Y-41.506
X40.64Y-41.506
X57.865Y-42.418
X62.865Y-42.418
X67.865Y-42.418
T5
X22.352Y-18.415
X22.479Y-44.45
X86.487Y-18.669
X86.487Y-44.577
T0
M30
