%TF.GenerationSoftware,KiCad,Pcbnew,7.0.8*%
%TF.CreationDate,2023-11-17T13:56:43+01:00*%
%TF.ProjectId,shmoergh-dual-rail-psu,73686d6f-6572-4676-982d-6475616c2d72,rev?*%
%TF.SameCoordinates,Original*%
%TF.FileFunction,Drillmap*%
%TF.FilePolarity,Positive*%
%FSLAX45Y45*%
G04 Gerber Fmt 4.5, Leading zero omitted, Abs format (unit mm)*
G04 Created by KiCad (PCBNEW 7.0.8) date 2023-11-17 13:56:43*
%MOMM*%
%LPD*%
G01*
G04 APERTURE LIST*
%ADD10C,0.100000*%
%ADD11C,0.200000*%
%ADD12C,0.030000*%
%ADD13C,0.040000*%
%ADD14C,0.060000*%
%ADD15C,0.130000*%
%ADD16C,0.300000*%
G04 APERTURE END LIST*
D10*
X1900000Y-1500000D02*
X9000000Y-1500000D01*
X9000000Y-1500000D02*
X9000000Y-4800000D01*
X1900000Y-4800000D02*
X1900000Y-1500000D01*
X9000000Y-4800000D02*
X1900000Y-4800000D01*
D11*
D12*
X6761500Y-2320600D02*
X6791500Y-2350600D01*
X6791500Y-2320600D02*
X6761500Y-2350600D01*
X6761500Y-2405600D02*
X6791500Y-2435600D01*
X6791500Y-2405600D02*
X6761500Y-2435600D01*
X6761500Y-2490600D02*
X6791500Y-2520600D01*
X6791500Y-2490600D02*
X6761500Y-2520600D01*
X6846500Y-2320600D02*
X6876500Y-2350600D01*
X6876500Y-2320600D02*
X6846500Y-2350600D01*
X6846500Y-2405600D02*
X6876500Y-2435600D01*
X6876500Y-2405600D02*
X6846500Y-2435600D01*
X6846500Y-2490600D02*
X6876500Y-2520600D01*
X6876500Y-2490600D02*
X6846500Y-2520600D01*
X6921500Y-2730600D02*
X6951500Y-2760600D01*
X6951500Y-2730600D02*
X6921500Y-2760600D01*
X6931500Y-2320600D02*
X6961500Y-2350600D01*
X6961500Y-2320600D02*
X6931500Y-2350600D01*
X6931500Y-2405600D02*
X6961500Y-2435600D01*
X6961500Y-2405600D02*
X6931500Y-2435600D01*
X6931500Y-2490600D02*
X6961500Y-2520600D01*
X6961500Y-2490600D02*
X6931500Y-2520600D01*
X7151500Y-2360600D02*
X7181500Y-2390600D01*
X7181500Y-2360600D02*
X7151500Y-2390600D01*
X7151500Y-2440600D02*
X7181500Y-2470600D01*
X7181500Y-2440600D02*
X7151500Y-2470600D01*
D13*
X2046500Y-2175600D02*
G75*
G03*
X2046500Y-2175600I-20000J0D01*
G01*
X2046500Y-2425600D02*
G75*
G03*
X2046500Y-2425600I-20000J0D01*
G01*
X2046500Y-2675600D02*
G75*
G03*
X2046500Y-2675600I-20000J0D01*
G01*
X2046500Y-2925600D02*
G75*
G03*
X2046500Y-2925600I-20000J0D01*
G01*
X2046500Y-3425600D02*
G75*
G03*
X2046500Y-3425600I-20000J0D01*
G01*
X2046500Y-3675600D02*
G75*
G03*
X2046500Y-3675600I-20000J0D01*
G01*
X2046500Y-3925600D02*
G75*
G03*
X2046500Y-3925600I-20000J0D01*
G01*
X2046500Y-4102100D02*
G75*
G03*
X2046500Y-4102100I-20000J0D01*
G01*
X2266500Y-2260600D02*
G75*
G03*
X2266500Y-2260600I-20000J0D01*
G01*
X2266500Y-2425600D02*
G75*
G03*
X2266500Y-2425600I-20000J0D01*
G01*
X2266500Y-3675600D02*
G75*
G03*
X2266500Y-3675600I-20000J0D01*
G01*
X2266500Y-3860800D02*
G75*
G03*
X2266500Y-3860800I-20000J0D01*
G01*
X2280600Y-4038600D02*
G75*
G03*
X2280600Y-4038600I-20000J0D01*
G01*
X2445700Y-2260600D02*
G75*
G03*
X2445700Y-2260600I-20000J0D01*
G01*
X2496500Y-2425600D02*
G75*
G03*
X2496500Y-2425600I-20000J0D01*
G01*
X2496500Y-3675600D02*
G75*
G03*
X2496500Y-3675600I-20000J0D01*
G01*
X2496500Y-3925600D02*
G75*
G03*
X2496500Y-3925600I-20000J0D01*
G01*
X2496500Y-4102100D02*
G75*
G03*
X2496500Y-4102100I-20000J0D01*
G01*
X2674300Y-1765300D02*
G75*
G03*
X2674300Y-1765300I-20000J0D01*
G01*
X2746500Y-1625600D02*
G75*
G03*
X2746500Y-1625600I-20000J0D01*
G01*
X2746500Y-1925600D02*
G75*
G03*
X2746500Y-1925600I-20000J0D01*
G01*
X2746500Y-2425600D02*
G75*
G03*
X2746500Y-2425600I-20000J0D01*
G01*
X2746500Y-4575600D02*
G75*
G03*
X2746500Y-4575600I-20000J0D01*
G01*
X2788600Y-2184400D02*
G75*
G03*
X2788600Y-2184400I-20000J0D01*
G01*
X2996500Y-1625600D02*
G75*
G03*
X2996500Y-1625600I-20000J0D01*
G01*
X2996500Y-1925600D02*
G75*
G03*
X2996500Y-1925600I-20000J0D01*
G01*
X2996500Y-2175600D02*
G75*
G03*
X2996500Y-2175600I-20000J0D01*
G01*
X2996500Y-2425600D02*
G75*
G03*
X2996500Y-2425600I-20000J0D01*
G01*
X2996500Y-4575600D02*
G75*
G03*
X2996500Y-4575600I-20000J0D01*
G01*
X3029000Y-4333100D02*
G75*
G03*
X3029000Y-4333100I-20000J0D01*
G01*
X3246500Y-1625600D02*
G75*
G03*
X3246500Y-1625600I-20000J0D01*
G01*
X3246500Y-3175600D02*
G75*
G03*
X3246500Y-3175600I-20000J0D01*
G01*
X3246500Y-3675600D02*
G75*
G03*
X3246500Y-3675600I-20000J0D01*
G01*
X3246500Y-4575600D02*
G75*
G03*
X3246500Y-4575600I-20000J0D01*
G01*
X3371500Y-2075600D02*
G75*
G03*
X3371500Y-2075600I-20000J0D01*
G01*
X3496500Y-1625600D02*
G75*
G03*
X3496500Y-1625600I-20000J0D01*
G01*
X3496500Y-4575600D02*
G75*
G03*
X3496500Y-4575600I-20000J0D01*
G01*
X3601500Y-2830600D02*
G75*
G03*
X3601500Y-2830600I-20000J0D01*
G01*
X3606500Y-2155600D02*
G75*
G03*
X3606500Y-2155600I-20000J0D01*
G01*
X3636500Y-2435600D02*
G75*
G03*
X3636500Y-2435600I-20000J0D01*
G01*
X3726500Y-2245600D02*
G75*
G03*
X3726500Y-2245600I-20000J0D01*
G01*
X3726500Y-2610600D02*
G75*
G03*
X3726500Y-2610600I-20000J0D01*
G01*
X3726500Y-3050600D02*
G75*
G03*
X3726500Y-3050600I-20000J0D01*
G01*
X3746500Y-1625600D02*
G75*
G03*
X3746500Y-1625600I-20000J0D01*
G01*
X3746500Y-4575600D02*
G75*
G03*
X3746500Y-4575600I-20000J0D01*
G01*
X3816500Y-2435600D02*
G75*
G03*
X3816500Y-2435600I-20000J0D01*
G01*
X3851500Y-2830600D02*
G75*
G03*
X3851500Y-2830600I-20000J0D01*
G01*
X3996500Y-1625600D02*
G75*
G03*
X3996500Y-1625600I-20000J0D01*
G01*
X3996500Y-4575600D02*
G75*
G03*
X3996500Y-4575600I-20000J0D01*
G01*
X4166500Y-1770600D02*
G75*
G03*
X4166500Y-1770600I-20000J0D01*
G01*
X4166500Y-1980600D02*
G75*
G03*
X4166500Y-1980600I-20000J0D01*
G01*
X4246500Y-4575600D02*
G75*
G03*
X4246500Y-4575600I-20000J0D01*
G01*
X4296500Y-1875600D02*
G75*
G03*
X4296500Y-1875600I-20000J0D01*
G01*
X4401500Y-1950600D02*
G75*
G03*
X4401500Y-1950600I-20000J0D01*
G01*
X4496500Y-4575600D02*
G75*
G03*
X4496500Y-4575600I-20000J0D01*
G01*
X4661500Y-4405600D02*
G75*
G03*
X4661500Y-4405600I-20000J0D01*
G01*
X4676500Y-1830600D02*
G75*
G03*
X4676500Y-1830600I-20000J0D01*
G01*
X4676500Y-1950600D02*
G75*
G03*
X4676500Y-1950600I-20000J0D01*
G01*
X4676500Y-2080600D02*
G75*
G03*
X4676500Y-2080600I-20000J0D01*
G01*
X4676500Y-2205600D02*
G75*
G03*
X4676500Y-2205600I-20000J0D01*
G01*
X4746500Y-4575600D02*
G75*
G03*
X4746500Y-4575600I-20000J0D01*
G01*
X4831500Y-4405600D02*
G75*
G03*
X4831500Y-4405600I-20000J0D01*
G01*
X4886500Y-1830600D02*
G75*
G03*
X4886500Y-1830600I-20000J0D01*
G01*
X4886500Y-1950600D02*
G75*
G03*
X4886500Y-1950600I-20000J0D01*
G01*
X4886500Y-2080600D02*
G75*
G03*
X4886500Y-2080600I-20000J0D01*
G01*
X4886500Y-2205600D02*
G75*
G03*
X4886500Y-2205600I-20000J0D01*
G01*
X4906500Y-1660600D02*
G75*
G03*
X4906500Y-1660600I-20000J0D01*
G01*
X4996500Y-4575600D02*
G75*
G03*
X4996500Y-4575600I-20000J0D01*
G01*
X5021500Y-1660600D02*
G75*
G03*
X5021500Y-1660600I-20000J0D01*
G01*
X5246500Y-4575600D02*
G75*
G03*
X5246500Y-4575600I-20000J0D01*
G01*
X5254000Y-4318100D02*
G75*
G03*
X5254000Y-4318100I-20000J0D01*
G01*
X5496500Y-1625600D02*
G75*
G03*
X5496500Y-1625600I-20000J0D01*
G01*
X5496500Y-4575600D02*
G75*
G03*
X5496500Y-4575600I-20000J0D01*
G01*
X5691500Y-2550600D02*
G75*
G03*
X5691500Y-2550600I-20000J0D01*
G01*
X5691500Y-2670600D02*
G75*
G03*
X5691500Y-2670600I-20000J0D01*
G01*
X5709000Y-2420600D02*
G75*
G03*
X5709000Y-2420600I-20000J0D01*
G01*
X5746500Y-1625600D02*
G75*
G03*
X5746500Y-1625600I-20000J0D01*
G01*
X5746500Y-1925600D02*
G75*
G03*
X5746500Y-1925600I-20000J0D01*
G01*
X5746500Y-2175600D02*
G75*
G03*
X5746500Y-2175600I-20000J0D01*
G01*
X5746500Y-4575600D02*
G75*
G03*
X5746500Y-4575600I-20000J0D01*
G01*
X5996500Y-1625600D02*
G75*
G03*
X5996500Y-1625600I-20000J0D01*
G01*
X5996500Y-1925600D02*
G75*
G03*
X5996500Y-1925600I-20000J0D01*
G01*
X5996500Y-2175600D02*
G75*
G03*
X5996500Y-2175600I-20000J0D01*
G01*
X5996500Y-4575600D02*
G75*
G03*
X5996500Y-4575600I-20000J0D01*
G01*
X6039000Y-2295600D02*
G75*
G03*
X6039000Y-2295600I-20000J0D01*
G01*
X6246500Y-1625600D02*
G75*
G03*
X6246500Y-1625600I-20000J0D01*
G01*
X6246500Y-4575600D02*
G75*
G03*
X6246500Y-4575600I-20000J0D01*
G01*
X6279000Y-1935600D02*
G75*
G03*
X6279000Y-1935600I-20000J0D01*
G01*
X6384000Y-2178100D02*
G75*
G03*
X6384000Y-2178100I-20000J0D01*
G01*
X6496500Y-1625600D02*
G75*
G03*
X6496500Y-1625600I-20000J0D01*
G01*
X6496500Y-4575600D02*
G75*
G03*
X6496500Y-4575600I-20000J0D01*
G01*
X6679000Y-1733100D02*
G75*
G03*
X6679000Y-1733100I-20000J0D01*
G01*
X6711500Y-2870600D02*
G75*
G03*
X6711500Y-2870600I-20000J0D01*
G01*
X6711500Y-2975600D02*
G75*
G03*
X6711500Y-2975600I-20000J0D01*
G01*
X6711500Y-3080600D02*
G75*
G03*
X6711500Y-3080600I-20000J0D01*
G01*
X6746500Y-1625600D02*
G75*
G03*
X6746500Y-1625600I-20000J0D01*
G01*
X6746500Y-4575600D02*
G75*
G03*
X6746500Y-4575600I-20000J0D01*
G01*
X6821500Y-2870600D02*
G75*
G03*
X6821500Y-2870600I-20000J0D01*
G01*
X6821500Y-2975600D02*
G75*
G03*
X6821500Y-2975600I-20000J0D01*
G01*
X6821500Y-3080600D02*
G75*
G03*
X6821500Y-3080600I-20000J0D01*
G01*
X6891500Y-3290600D02*
G75*
G03*
X6891500Y-3290600I-20000J0D01*
G01*
X6901500Y-3175600D02*
G75*
G03*
X6901500Y-3175600I-20000J0D01*
G01*
X6996500Y-1625600D02*
G75*
G03*
X6996500Y-1625600I-20000J0D01*
G01*
X6996500Y-4575600D02*
G75*
G03*
X6996500Y-4575600I-20000J0D01*
G01*
X7111500Y-3175600D02*
G75*
G03*
X7111500Y-3175600I-20000J0D01*
G01*
X7157390Y-4572080D02*
G75*
G03*
X7157390Y-4572080I-20000J0D01*
G01*
X7170100Y-3759200D02*
G75*
G03*
X7170100Y-3759200I-20000J0D01*
G01*
X7170100Y-3937000D02*
G75*
G03*
X7170100Y-3937000I-20000J0D01*
G01*
X7239000Y-2918100D02*
G75*
G03*
X7239000Y-2918100I-20000J0D01*
G01*
X7239000Y-3020600D02*
G75*
G03*
X7239000Y-3020600I-20000J0D01*
G01*
X7246500Y-1625600D02*
G75*
G03*
X7246500Y-1625600I-20000J0D01*
G01*
X7256500Y-1979350D02*
G75*
G03*
X7256500Y-1979350I-20000J0D01*
G01*
X7341500Y-2918100D02*
G75*
G03*
X7341500Y-2918100I-20000J0D01*
G01*
X7341500Y-3020600D02*
G75*
G03*
X7341500Y-3020600I-20000J0D01*
G01*
X7398700Y-3759200D02*
G75*
G03*
X7398700Y-3759200I-20000J0D01*
G01*
X7398700Y-3937000D02*
G75*
G03*
X7398700Y-3937000I-20000J0D01*
G01*
X7496500Y-1625600D02*
G75*
G03*
X7496500Y-1625600I-20000J0D01*
G01*
X7516500Y-2445600D02*
G75*
G03*
X7516500Y-2445600I-20000J0D01*
G01*
X7646500Y-3925600D02*
G75*
G03*
X7646500Y-3925600I-20000J0D01*
G01*
X7665400Y-3759200D02*
G75*
G03*
X7665400Y-3759200I-20000J0D01*
G01*
X7746500Y-1625600D02*
G75*
G03*
X7746500Y-1625600I-20000J0D01*
G01*
X7771500Y-2425600D02*
G75*
G03*
X7771500Y-2425600I-20000J0D01*
G01*
X7771500Y-2515600D02*
G75*
G03*
X7771500Y-2515600I-20000J0D01*
G01*
X7786500Y-3090600D02*
G75*
G03*
X7786500Y-3090600I-20000J0D01*
G01*
X7786500Y-3425600D02*
G75*
G03*
X7786500Y-3425600I-20000J0D01*
G01*
X7786500Y-3610600D02*
G75*
G03*
X7786500Y-3610600I-20000J0D01*
G01*
X7901500Y-2735600D02*
G75*
G03*
X7901500Y-2735600I-20000J0D01*
G01*
X7996500Y-1625600D02*
G75*
G03*
X7996500Y-1625600I-20000J0D01*
G01*
X7996500Y-4575600D02*
G75*
G03*
X7996500Y-4575600I-20000J0D01*
G01*
X8099000Y-2788100D02*
G75*
G03*
X8099000Y-2788100I-20000J0D01*
G01*
X8114000Y-2425600D02*
G75*
G03*
X8114000Y-2425600I-20000J0D01*
G01*
X8114000Y-2515600D02*
G75*
G03*
X8114000Y-2515600I-20000J0D01*
G01*
X8246500Y-1625600D02*
G75*
G03*
X8246500Y-1625600I-20000J0D01*
G01*
X8246500Y-2675600D02*
G75*
G03*
X8246500Y-2675600I-20000J0D01*
G01*
X8246500Y-4575600D02*
G75*
G03*
X8246500Y-4575600I-20000J0D01*
G01*
X8251500Y-1856000D02*
G75*
G03*
X8251500Y-1856000I-20000J0D01*
G01*
X8262300Y-4368800D02*
G75*
G03*
X8262300Y-4368800I-20000J0D01*
G01*
X8302300Y-2186200D02*
G75*
G03*
X8302300Y-2186200I-20000J0D01*
G01*
X8302300Y-2414800D02*
G75*
G03*
X8302300Y-2414800I-20000J0D01*
G01*
X8313100Y-2922800D02*
G75*
G03*
X8313100Y-2922800I-20000J0D01*
G01*
X8313100Y-3176800D02*
G75*
G03*
X8313100Y-3176800I-20000J0D01*
G01*
X8313100Y-3430800D02*
G75*
G03*
X8313100Y-3430800I-20000J0D01*
G01*
X8313100Y-3670300D02*
G75*
G03*
X8313100Y-3670300I-20000J0D01*
G01*
X8313100Y-3911600D02*
G75*
G03*
X8313100Y-3911600I-20000J0D01*
G01*
X8490900Y-3898900D02*
G75*
G03*
X8490900Y-3898900I-20000J0D01*
G01*
X8496500Y-2675600D02*
G75*
G03*
X8496500Y-2675600I-20000J0D01*
G01*
X8496500Y-2925600D02*
G75*
G03*
X8496500Y-2925600I-20000J0D01*
G01*
X8496500Y-3425600D02*
G75*
G03*
X8496500Y-3425600I-20000J0D01*
G01*
X8496500Y-3675600D02*
G75*
G03*
X8496500Y-3675600I-20000J0D01*
G01*
X8505500Y-2260600D02*
G75*
G03*
X8505500Y-2260600I-20000J0D01*
G01*
X8505500Y-2414800D02*
G75*
G03*
X8505500Y-2414800I-20000J0D01*
G01*
X8505500Y-3176800D02*
G75*
G03*
X8505500Y-3176800I-20000J0D01*
G01*
X8579800Y-4064000D02*
G75*
G03*
X8579800Y-4064000I-20000J0D01*
G01*
X8740065Y-3898900D02*
G75*
G03*
X8740065Y-3898900I-20000J0D01*
G01*
X8745665Y-2675600D02*
G75*
G03*
X8745665Y-2675600I-20000J0D01*
G01*
X8745665Y-2925600D02*
G75*
G03*
X8745665Y-2925600I-20000J0D01*
G01*
X8745665Y-3425600D02*
G75*
G03*
X8745665Y-3425600I-20000J0D01*
G01*
X8745665Y-3675600D02*
G75*
G03*
X8745665Y-3675600I-20000J0D01*
G01*
X8754665Y-2247900D02*
G75*
G03*
X8754665Y-2247900I-20000J0D01*
G01*
X8754665Y-2414800D02*
G75*
G03*
X8754665Y-2414800I-20000J0D01*
G01*
X8754665Y-3176800D02*
G75*
G03*
X8754665Y-3176800I-20000J0D01*
G01*
X8859200Y-4064000D02*
G75*
G03*
X8859200Y-4064000I-20000J0D01*
G01*
D14*
X5201500Y-3395600D02*
X5201500Y-3455600D01*
X5171500Y-3425600D02*
X5231500Y-3425600D01*
X5201500Y-3545600D02*
X5201500Y-3605600D01*
X5171500Y-3575600D02*
X5231500Y-3575600D01*
X5351500Y-3395600D02*
X5351500Y-3455600D01*
X5321500Y-3425600D02*
X5381500Y-3425600D01*
X5351500Y-3545600D02*
X5351500Y-3605600D01*
X5321500Y-3575600D02*
X5381500Y-3575600D01*
D15*
X2522462Y-2901562D02*
X2522462Y-2809638D01*
X2430538Y-2809638D01*
X2430538Y-2901562D01*
X2522462Y-2901562D01*
X2522462Y-3401562D02*
X2522462Y-3309638D01*
X2430538Y-3309638D01*
X2430538Y-3401562D01*
X2522462Y-3401562D01*
X3609962Y-4196562D02*
X3609962Y-4104638D01*
X3518038Y-4104638D01*
X3518038Y-4196562D01*
X3609962Y-4196562D01*
X4109962Y-4196562D02*
X4109962Y-4104638D01*
X4018038Y-4104638D01*
X4018038Y-4196562D01*
X4109962Y-4196562D01*
X5832462Y-4287762D02*
X5832462Y-4195838D01*
X5740538Y-4195838D01*
X5740538Y-4287762D01*
X5832462Y-4287762D01*
X6332462Y-4287762D02*
X6332462Y-4195838D01*
X6240538Y-4195838D01*
X6240538Y-4287762D01*
X6332462Y-4287762D01*
X6832462Y-4287762D02*
X6832462Y-4195838D01*
X6740538Y-4195838D01*
X6740538Y-4287762D01*
X6832462Y-4287762D01*
D16*
X2235200Y-1991500D02*
X2385200Y-1841500D01*
X2235200Y-1691500D01*
X2085200Y-1841500D01*
X2235200Y-1991500D01*
X2247900Y-4595000D02*
X2397900Y-4445000D01*
X2247900Y-4295000D01*
X2097900Y-4445000D01*
X2247900Y-4595000D01*
X8648700Y-2016900D02*
X8798700Y-1866900D01*
X8648700Y-1716900D01*
X8498700Y-1866900D01*
X8648700Y-2016900D01*
X8648700Y-4607700D02*
X8798700Y-4457700D01*
X8648700Y-4307700D01*
X8498700Y-4457700D01*
X8648700Y-4607700D01*
D11*
X2155777Y-5116484D02*
X2155777Y-4916484D01*
X2155777Y-4916484D02*
X2203396Y-4916484D01*
X2203396Y-4916484D02*
X2231967Y-4926008D01*
X2231967Y-4926008D02*
X2251015Y-4945055D01*
X2251015Y-4945055D02*
X2260539Y-4964103D01*
X2260539Y-4964103D02*
X2270063Y-5002198D01*
X2270063Y-5002198D02*
X2270063Y-5030770D01*
X2270063Y-5030770D02*
X2260539Y-5068865D01*
X2260539Y-5068865D02*
X2251015Y-5087912D01*
X2251015Y-5087912D02*
X2231967Y-5106960D01*
X2231967Y-5106960D02*
X2203396Y-5116484D01*
X2203396Y-5116484D02*
X2155777Y-5116484D01*
X2355777Y-5116484D02*
X2355777Y-4983150D01*
X2355777Y-5021246D02*
X2365301Y-5002198D01*
X2365301Y-5002198D02*
X2374824Y-4992674D01*
X2374824Y-4992674D02*
X2393872Y-4983150D01*
X2393872Y-4983150D02*
X2412920Y-4983150D01*
X2479586Y-5116484D02*
X2479586Y-4983150D01*
X2479586Y-4916484D02*
X2470063Y-4926008D01*
X2470063Y-4926008D02*
X2479586Y-4935531D01*
X2479586Y-4935531D02*
X2489110Y-4926008D01*
X2489110Y-4926008D02*
X2479586Y-4916484D01*
X2479586Y-4916484D02*
X2479586Y-4935531D01*
X2603396Y-5116484D02*
X2584348Y-5106960D01*
X2584348Y-5106960D02*
X2574824Y-5087912D01*
X2574824Y-5087912D02*
X2574824Y-4916484D01*
X2708158Y-5116484D02*
X2689110Y-5106960D01*
X2689110Y-5106960D02*
X2679586Y-5087912D01*
X2679586Y-5087912D02*
X2679586Y-4916484D01*
X2936729Y-5116484D02*
X2936729Y-4916484D01*
X2936729Y-4916484D02*
X3003396Y-5059341D01*
X3003396Y-5059341D02*
X3070062Y-4916484D01*
X3070062Y-4916484D02*
X3070062Y-5116484D01*
X3251015Y-5116484D02*
X3251015Y-5011722D01*
X3251015Y-5011722D02*
X3241491Y-4992674D01*
X3241491Y-4992674D02*
X3222443Y-4983150D01*
X3222443Y-4983150D02*
X3184348Y-4983150D01*
X3184348Y-4983150D02*
X3165301Y-4992674D01*
X3251015Y-5106960D02*
X3231967Y-5116484D01*
X3231967Y-5116484D02*
X3184348Y-5116484D01*
X3184348Y-5116484D02*
X3165301Y-5106960D01*
X3165301Y-5106960D02*
X3155777Y-5087912D01*
X3155777Y-5087912D02*
X3155777Y-5068865D01*
X3155777Y-5068865D02*
X3165301Y-5049817D01*
X3165301Y-5049817D02*
X3184348Y-5040293D01*
X3184348Y-5040293D02*
X3231967Y-5040293D01*
X3231967Y-5040293D02*
X3251015Y-5030770D01*
X3346253Y-4983150D02*
X3346253Y-5183150D01*
X3346253Y-4992674D02*
X3365301Y-4983150D01*
X3365301Y-4983150D02*
X3403396Y-4983150D01*
X3403396Y-4983150D02*
X3422443Y-4992674D01*
X3422443Y-4992674D02*
X3431967Y-5002198D01*
X3431967Y-5002198D02*
X3441491Y-5021246D01*
X3441491Y-5021246D02*
X3441491Y-5078389D01*
X3441491Y-5078389D02*
X3431967Y-5097436D01*
X3431967Y-5097436D02*
X3422443Y-5106960D01*
X3422443Y-5106960D02*
X3403396Y-5116484D01*
X3403396Y-5116484D02*
X3365301Y-5116484D01*
X3365301Y-5116484D02*
X3346253Y-5106960D01*
X3527205Y-5097436D02*
X3536729Y-5106960D01*
X3536729Y-5106960D02*
X3527205Y-5116484D01*
X3527205Y-5116484D02*
X3517682Y-5106960D01*
X3517682Y-5106960D02*
X3527205Y-5097436D01*
X3527205Y-5097436D02*
X3527205Y-5116484D01*
X3527205Y-4992674D02*
X3536729Y-5002198D01*
X3536729Y-5002198D02*
X3527205Y-5011722D01*
X3527205Y-5011722D02*
X3517682Y-5002198D01*
X3517682Y-5002198D02*
X3527205Y-4992674D01*
X3527205Y-4992674D02*
X3527205Y-5011722D01*
D12*
X1865000Y-5430000D02*
X1895000Y-5460000D01*
X1895000Y-5430000D02*
X1865000Y-5460000D01*
D11*
X2193872Y-5336484D02*
X2212920Y-5336484D01*
X2212920Y-5336484D02*
X2231967Y-5346008D01*
X2231967Y-5346008D02*
X2241491Y-5355531D01*
X2241491Y-5355531D02*
X2251015Y-5374579D01*
X2251015Y-5374579D02*
X2260539Y-5412674D01*
X2260539Y-5412674D02*
X2260539Y-5460293D01*
X2260539Y-5460293D02*
X2251015Y-5498389D01*
X2251015Y-5498389D02*
X2241491Y-5517436D01*
X2241491Y-5517436D02*
X2231967Y-5526960D01*
X2231967Y-5526960D02*
X2212920Y-5536484D01*
X2212920Y-5536484D02*
X2193872Y-5536484D01*
X2193872Y-5536484D02*
X2174824Y-5526960D01*
X2174824Y-5526960D02*
X2165301Y-5517436D01*
X2165301Y-5517436D02*
X2155777Y-5498389D01*
X2155777Y-5498389D02*
X2146253Y-5460293D01*
X2146253Y-5460293D02*
X2146253Y-5412674D01*
X2146253Y-5412674D02*
X2155777Y-5374579D01*
X2155777Y-5374579D02*
X2165301Y-5355531D01*
X2165301Y-5355531D02*
X2174824Y-5346008D01*
X2174824Y-5346008D02*
X2193872Y-5336484D01*
X2346253Y-5517436D02*
X2355777Y-5526960D01*
X2355777Y-5526960D02*
X2346253Y-5536484D01*
X2346253Y-5536484D02*
X2336729Y-5526960D01*
X2336729Y-5526960D02*
X2346253Y-5517436D01*
X2346253Y-5517436D02*
X2346253Y-5536484D01*
X2422444Y-5336484D02*
X2546253Y-5336484D01*
X2546253Y-5336484D02*
X2479586Y-5412674D01*
X2479586Y-5412674D02*
X2508158Y-5412674D01*
X2508158Y-5412674D02*
X2527205Y-5422198D01*
X2527205Y-5422198D02*
X2536729Y-5431722D01*
X2536729Y-5431722D02*
X2546253Y-5450770D01*
X2546253Y-5450770D02*
X2546253Y-5498389D01*
X2546253Y-5498389D02*
X2536729Y-5517436D01*
X2536729Y-5517436D02*
X2527205Y-5526960D01*
X2527205Y-5526960D02*
X2508158Y-5536484D01*
X2508158Y-5536484D02*
X2451015Y-5536484D01*
X2451015Y-5536484D02*
X2431967Y-5526960D01*
X2431967Y-5526960D02*
X2422444Y-5517436D01*
X2670063Y-5336484D02*
X2689110Y-5336484D01*
X2689110Y-5336484D02*
X2708158Y-5346008D01*
X2708158Y-5346008D02*
X2717682Y-5355531D01*
X2717682Y-5355531D02*
X2727205Y-5374579D01*
X2727205Y-5374579D02*
X2736729Y-5412674D01*
X2736729Y-5412674D02*
X2736729Y-5460293D01*
X2736729Y-5460293D02*
X2727205Y-5498389D01*
X2727205Y-5498389D02*
X2717682Y-5517436D01*
X2717682Y-5517436D02*
X2708158Y-5526960D01*
X2708158Y-5526960D02*
X2689110Y-5536484D01*
X2689110Y-5536484D02*
X2670063Y-5536484D01*
X2670063Y-5536484D02*
X2651015Y-5526960D01*
X2651015Y-5526960D02*
X2641491Y-5517436D01*
X2641491Y-5517436D02*
X2631967Y-5498389D01*
X2631967Y-5498389D02*
X2622444Y-5460293D01*
X2622444Y-5460293D02*
X2622444Y-5412674D01*
X2622444Y-5412674D02*
X2631967Y-5374579D01*
X2631967Y-5374579D02*
X2641491Y-5355531D01*
X2641491Y-5355531D02*
X2651015Y-5346008D01*
X2651015Y-5346008D02*
X2670063Y-5336484D01*
X2860539Y-5336484D02*
X2879586Y-5336484D01*
X2879586Y-5336484D02*
X2898634Y-5346008D01*
X2898634Y-5346008D02*
X2908158Y-5355531D01*
X2908158Y-5355531D02*
X2917682Y-5374579D01*
X2917682Y-5374579D02*
X2927205Y-5412674D01*
X2927205Y-5412674D02*
X2927205Y-5460293D01*
X2927205Y-5460293D02*
X2917682Y-5498389D01*
X2917682Y-5498389D02*
X2908158Y-5517436D01*
X2908158Y-5517436D02*
X2898634Y-5526960D01*
X2898634Y-5526960D02*
X2879586Y-5536484D01*
X2879586Y-5536484D02*
X2860539Y-5536484D01*
X2860539Y-5536484D02*
X2841491Y-5526960D01*
X2841491Y-5526960D02*
X2831967Y-5517436D01*
X2831967Y-5517436D02*
X2822443Y-5498389D01*
X2822443Y-5498389D02*
X2812920Y-5460293D01*
X2812920Y-5460293D02*
X2812920Y-5412674D01*
X2812920Y-5412674D02*
X2822443Y-5374579D01*
X2822443Y-5374579D02*
X2831967Y-5355531D01*
X2831967Y-5355531D02*
X2841491Y-5346008D01*
X2841491Y-5346008D02*
X2860539Y-5336484D01*
X3012920Y-5536484D02*
X3012920Y-5403150D01*
X3012920Y-5422198D02*
X3022443Y-5412674D01*
X3022443Y-5412674D02*
X3041491Y-5403150D01*
X3041491Y-5403150D02*
X3070063Y-5403150D01*
X3070063Y-5403150D02*
X3089110Y-5412674D01*
X3089110Y-5412674D02*
X3098634Y-5431722D01*
X3098634Y-5431722D02*
X3098634Y-5536484D01*
X3098634Y-5431722D02*
X3108158Y-5412674D01*
X3108158Y-5412674D02*
X3127205Y-5403150D01*
X3127205Y-5403150D02*
X3155777Y-5403150D01*
X3155777Y-5403150D02*
X3174824Y-5412674D01*
X3174824Y-5412674D02*
X3184348Y-5431722D01*
X3184348Y-5431722D02*
X3184348Y-5536484D01*
X3279586Y-5536484D02*
X3279586Y-5403150D01*
X3279586Y-5422198D02*
X3289110Y-5412674D01*
X3289110Y-5412674D02*
X3308158Y-5403150D01*
X3308158Y-5403150D02*
X3336729Y-5403150D01*
X3336729Y-5403150D02*
X3355777Y-5412674D01*
X3355777Y-5412674D02*
X3365301Y-5431722D01*
X3365301Y-5431722D02*
X3365301Y-5536484D01*
X3365301Y-5431722D02*
X3374824Y-5412674D01*
X3374824Y-5412674D02*
X3393872Y-5403150D01*
X3393872Y-5403150D02*
X3422443Y-5403150D01*
X3422443Y-5403150D02*
X3441491Y-5412674D01*
X3441491Y-5412674D02*
X3451015Y-5431722D01*
X3451015Y-5431722D02*
X3451015Y-5536484D01*
X3841491Y-5326960D02*
X3670063Y-5584103D01*
X4098634Y-5336484D02*
X4117682Y-5336484D01*
X4117682Y-5336484D02*
X4136729Y-5346008D01*
X4136729Y-5346008D02*
X4146253Y-5355531D01*
X4146253Y-5355531D02*
X4155777Y-5374579D01*
X4155777Y-5374579D02*
X4165301Y-5412674D01*
X4165301Y-5412674D02*
X4165301Y-5460293D01*
X4165301Y-5460293D02*
X4155777Y-5498389D01*
X4155777Y-5498389D02*
X4146253Y-5517436D01*
X4146253Y-5517436D02*
X4136729Y-5526960D01*
X4136729Y-5526960D02*
X4117682Y-5536484D01*
X4117682Y-5536484D02*
X4098634Y-5536484D01*
X4098634Y-5536484D02*
X4079586Y-5526960D01*
X4079586Y-5526960D02*
X4070063Y-5517436D01*
X4070063Y-5517436D02*
X4060539Y-5498389D01*
X4060539Y-5498389D02*
X4051015Y-5460293D01*
X4051015Y-5460293D02*
X4051015Y-5412674D01*
X4051015Y-5412674D02*
X4060539Y-5374579D01*
X4060539Y-5374579D02*
X4070063Y-5355531D01*
X4070063Y-5355531D02*
X4079586Y-5346008D01*
X4079586Y-5346008D02*
X4098634Y-5336484D01*
X4251015Y-5517436D02*
X4260539Y-5526960D01*
X4260539Y-5526960D02*
X4251015Y-5536484D01*
X4251015Y-5536484D02*
X4241491Y-5526960D01*
X4241491Y-5526960D02*
X4251015Y-5517436D01*
X4251015Y-5517436D02*
X4251015Y-5536484D01*
X4384348Y-5336484D02*
X4403396Y-5336484D01*
X4403396Y-5336484D02*
X4422444Y-5346008D01*
X4422444Y-5346008D02*
X4431968Y-5355531D01*
X4431968Y-5355531D02*
X4441491Y-5374579D01*
X4441491Y-5374579D02*
X4451015Y-5412674D01*
X4451015Y-5412674D02*
X4451015Y-5460293D01*
X4451015Y-5460293D02*
X4441491Y-5498389D01*
X4441491Y-5498389D02*
X4431968Y-5517436D01*
X4431968Y-5517436D02*
X4422444Y-5526960D01*
X4422444Y-5526960D02*
X4403396Y-5536484D01*
X4403396Y-5536484D02*
X4384348Y-5536484D01*
X4384348Y-5536484D02*
X4365301Y-5526960D01*
X4365301Y-5526960D02*
X4355777Y-5517436D01*
X4355777Y-5517436D02*
X4346253Y-5498389D01*
X4346253Y-5498389D02*
X4336729Y-5460293D01*
X4336729Y-5460293D02*
X4336729Y-5412674D01*
X4336729Y-5412674D02*
X4346253Y-5374579D01*
X4346253Y-5374579D02*
X4355777Y-5355531D01*
X4355777Y-5355531D02*
X4365301Y-5346008D01*
X4365301Y-5346008D02*
X4384348Y-5336484D01*
X4641491Y-5536484D02*
X4527206Y-5536484D01*
X4584348Y-5536484D02*
X4584348Y-5336484D01*
X4584348Y-5336484D02*
X4565301Y-5365055D01*
X4565301Y-5365055D02*
X4546253Y-5384103D01*
X4546253Y-5384103D02*
X4527206Y-5393627D01*
X4831968Y-5536484D02*
X4717682Y-5536484D01*
X4774825Y-5536484D02*
X4774825Y-5336484D01*
X4774825Y-5336484D02*
X4755777Y-5365055D01*
X4755777Y-5365055D02*
X4736729Y-5384103D01*
X4736729Y-5384103D02*
X4717682Y-5393627D01*
X4946253Y-5422198D02*
X4927206Y-5412674D01*
X4927206Y-5412674D02*
X4917682Y-5403150D01*
X4917682Y-5403150D02*
X4908158Y-5384103D01*
X4908158Y-5384103D02*
X4908158Y-5374579D01*
X4908158Y-5374579D02*
X4917682Y-5355531D01*
X4917682Y-5355531D02*
X4927206Y-5346008D01*
X4927206Y-5346008D02*
X4946253Y-5336484D01*
X4946253Y-5336484D02*
X4984349Y-5336484D01*
X4984349Y-5336484D02*
X5003396Y-5346008D01*
X5003396Y-5346008D02*
X5012920Y-5355531D01*
X5012920Y-5355531D02*
X5022444Y-5374579D01*
X5022444Y-5374579D02*
X5022444Y-5384103D01*
X5022444Y-5384103D02*
X5012920Y-5403150D01*
X5012920Y-5403150D02*
X5003396Y-5412674D01*
X5003396Y-5412674D02*
X4984349Y-5422198D01*
X4984349Y-5422198D02*
X4946253Y-5422198D01*
X4946253Y-5422198D02*
X4927206Y-5431722D01*
X4927206Y-5431722D02*
X4917682Y-5441246D01*
X4917682Y-5441246D02*
X4908158Y-5460293D01*
X4908158Y-5460293D02*
X4908158Y-5498389D01*
X4908158Y-5498389D02*
X4917682Y-5517436D01*
X4917682Y-5517436D02*
X4927206Y-5526960D01*
X4927206Y-5526960D02*
X4946253Y-5536484D01*
X4946253Y-5536484D02*
X4984349Y-5536484D01*
X4984349Y-5536484D02*
X5003396Y-5526960D01*
X5003396Y-5526960D02*
X5012920Y-5517436D01*
X5012920Y-5517436D02*
X5022444Y-5498389D01*
X5022444Y-5498389D02*
X5022444Y-5460293D01*
X5022444Y-5460293D02*
X5012920Y-5441246D01*
X5012920Y-5441246D02*
X5003396Y-5431722D01*
X5003396Y-5431722D02*
X4984349Y-5422198D01*
X5098634Y-5336484D02*
X5098634Y-5374579D01*
X5174825Y-5336484D02*
X5174825Y-5374579D01*
X5470063Y-5612674D02*
X5460539Y-5603150D01*
X5460539Y-5603150D02*
X5441491Y-5574579D01*
X5441491Y-5574579D02*
X5431968Y-5555531D01*
X5431968Y-5555531D02*
X5422444Y-5526960D01*
X5422444Y-5526960D02*
X5412920Y-5479341D01*
X5412920Y-5479341D02*
X5412920Y-5441246D01*
X5412920Y-5441246D02*
X5422444Y-5393627D01*
X5422444Y-5393627D02*
X5431968Y-5365055D01*
X5431968Y-5365055D02*
X5441491Y-5346008D01*
X5441491Y-5346008D02*
X5460539Y-5317436D01*
X5460539Y-5317436D02*
X5470063Y-5307912D01*
X5651015Y-5536484D02*
X5536730Y-5536484D01*
X5593872Y-5536484D02*
X5593872Y-5336484D01*
X5593872Y-5336484D02*
X5574825Y-5365055D01*
X5574825Y-5365055D02*
X5555777Y-5384103D01*
X5555777Y-5384103D02*
X5536730Y-5393627D01*
X5727206Y-5355531D02*
X5736729Y-5346008D01*
X5736729Y-5346008D02*
X5755777Y-5336484D01*
X5755777Y-5336484D02*
X5803396Y-5336484D01*
X5803396Y-5336484D02*
X5822444Y-5346008D01*
X5822444Y-5346008D02*
X5831968Y-5355531D01*
X5831968Y-5355531D02*
X5841491Y-5374579D01*
X5841491Y-5374579D02*
X5841491Y-5393627D01*
X5841491Y-5393627D02*
X5831968Y-5422198D01*
X5831968Y-5422198D02*
X5717682Y-5536484D01*
X5717682Y-5536484D02*
X5841491Y-5536484D01*
X6079587Y-5536484D02*
X6079587Y-5336484D01*
X6165301Y-5536484D02*
X6165301Y-5431722D01*
X6165301Y-5431722D02*
X6155777Y-5412674D01*
X6155777Y-5412674D02*
X6136730Y-5403150D01*
X6136730Y-5403150D02*
X6108158Y-5403150D01*
X6108158Y-5403150D02*
X6089110Y-5412674D01*
X6089110Y-5412674D02*
X6079587Y-5422198D01*
X6289110Y-5536484D02*
X6270063Y-5526960D01*
X6270063Y-5526960D02*
X6260539Y-5517436D01*
X6260539Y-5517436D02*
X6251015Y-5498389D01*
X6251015Y-5498389D02*
X6251015Y-5441246D01*
X6251015Y-5441246D02*
X6260539Y-5422198D01*
X6260539Y-5422198D02*
X6270063Y-5412674D01*
X6270063Y-5412674D02*
X6289110Y-5403150D01*
X6289110Y-5403150D02*
X6317682Y-5403150D01*
X6317682Y-5403150D02*
X6336730Y-5412674D01*
X6336730Y-5412674D02*
X6346253Y-5422198D01*
X6346253Y-5422198D02*
X6355777Y-5441246D01*
X6355777Y-5441246D02*
X6355777Y-5498389D01*
X6355777Y-5498389D02*
X6346253Y-5517436D01*
X6346253Y-5517436D02*
X6336730Y-5526960D01*
X6336730Y-5526960D02*
X6317682Y-5536484D01*
X6317682Y-5536484D02*
X6289110Y-5536484D01*
X6470063Y-5536484D02*
X6451015Y-5526960D01*
X6451015Y-5526960D02*
X6441491Y-5507912D01*
X6441491Y-5507912D02*
X6441491Y-5336484D01*
X6622444Y-5526960D02*
X6603396Y-5536484D01*
X6603396Y-5536484D02*
X6565301Y-5536484D01*
X6565301Y-5536484D02*
X6546253Y-5526960D01*
X6546253Y-5526960D02*
X6536730Y-5507912D01*
X6536730Y-5507912D02*
X6536730Y-5431722D01*
X6536730Y-5431722D02*
X6546253Y-5412674D01*
X6546253Y-5412674D02*
X6565301Y-5403150D01*
X6565301Y-5403150D02*
X6603396Y-5403150D01*
X6603396Y-5403150D02*
X6622444Y-5412674D01*
X6622444Y-5412674D02*
X6631968Y-5431722D01*
X6631968Y-5431722D02*
X6631968Y-5450770D01*
X6631968Y-5450770D02*
X6536730Y-5469817D01*
X6708158Y-5526960D02*
X6727206Y-5536484D01*
X6727206Y-5536484D02*
X6765301Y-5536484D01*
X6765301Y-5536484D02*
X6784349Y-5526960D01*
X6784349Y-5526960D02*
X6793872Y-5507912D01*
X6793872Y-5507912D02*
X6793872Y-5498389D01*
X6793872Y-5498389D02*
X6784349Y-5479341D01*
X6784349Y-5479341D02*
X6765301Y-5469817D01*
X6765301Y-5469817D02*
X6736730Y-5469817D01*
X6736730Y-5469817D02*
X6717682Y-5460293D01*
X6717682Y-5460293D02*
X6708158Y-5441246D01*
X6708158Y-5441246D02*
X6708158Y-5431722D01*
X6708158Y-5431722D02*
X6717682Y-5412674D01*
X6717682Y-5412674D02*
X6736730Y-5403150D01*
X6736730Y-5403150D02*
X6765301Y-5403150D01*
X6765301Y-5403150D02*
X6784349Y-5412674D01*
X6860539Y-5612674D02*
X6870063Y-5603150D01*
X6870063Y-5603150D02*
X6889111Y-5574579D01*
X6889111Y-5574579D02*
X6898634Y-5555531D01*
X6898634Y-5555531D02*
X6908158Y-5526960D01*
X6908158Y-5526960D02*
X6917682Y-5479341D01*
X6917682Y-5479341D02*
X6917682Y-5441246D01*
X6917682Y-5441246D02*
X6908158Y-5393627D01*
X6908158Y-5393627D02*
X6898634Y-5365055D01*
X6898634Y-5365055D02*
X6889111Y-5346008D01*
X6889111Y-5346008D02*
X6870063Y-5317436D01*
X6870063Y-5317436D02*
X6860539Y-5307912D01*
D13*
X1895000Y-5709000D02*
G75*
G03*
X1895000Y-5709000I-20000J0D01*
G01*
D11*
X2193872Y-5600484D02*
X2212920Y-5600484D01*
X2212920Y-5600484D02*
X2231967Y-5610008D01*
X2231967Y-5610008D02*
X2241491Y-5619531D01*
X2241491Y-5619531D02*
X2251015Y-5638579D01*
X2251015Y-5638579D02*
X2260539Y-5676674D01*
X2260539Y-5676674D02*
X2260539Y-5724293D01*
X2260539Y-5724293D02*
X2251015Y-5762388D01*
X2251015Y-5762388D02*
X2241491Y-5781436D01*
X2241491Y-5781436D02*
X2231967Y-5790960D01*
X2231967Y-5790960D02*
X2212920Y-5800484D01*
X2212920Y-5800484D02*
X2193872Y-5800484D01*
X2193872Y-5800484D02*
X2174824Y-5790960D01*
X2174824Y-5790960D02*
X2165301Y-5781436D01*
X2165301Y-5781436D02*
X2155777Y-5762388D01*
X2155777Y-5762388D02*
X2146253Y-5724293D01*
X2146253Y-5724293D02*
X2146253Y-5676674D01*
X2146253Y-5676674D02*
X2155777Y-5638579D01*
X2155777Y-5638579D02*
X2165301Y-5619531D01*
X2165301Y-5619531D02*
X2174824Y-5610008D01*
X2174824Y-5610008D02*
X2193872Y-5600484D01*
X2346253Y-5781436D02*
X2355777Y-5790960D01*
X2355777Y-5790960D02*
X2346253Y-5800484D01*
X2346253Y-5800484D02*
X2336729Y-5790960D01*
X2336729Y-5790960D02*
X2346253Y-5781436D01*
X2346253Y-5781436D02*
X2346253Y-5800484D01*
X2527205Y-5667150D02*
X2527205Y-5800484D01*
X2479586Y-5590960D02*
X2431967Y-5733817D01*
X2431967Y-5733817D02*
X2555777Y-5733817D01*
X2670063Y-5600484D02*
X2689110Y-5600484D01*
X2689110Y-5600484D02*
X2708158Y-5610008D01*
X2708158Y-5610008D02*
X2717682Y-5619531D01*
X2717682Y-5619531D02*
X2727205Y-5638579D01*
X2727205Y-5638579D02*
X2736729Y-5676674D01*
X2736729Y-5676674D02*
X2736729Y-5724293D01*
X2736729Y-5724293D02*
X2727205Y-5762388D01*
X2727205Y-5762388D02*
X2717682Y-5781436D01*
X2717682Y-5781436D02*
X2708158Y-5790960D01*
X2708158Y-5790960D02*
X2689110Y-5800484D01*
X2689110Y-5800484D02*
X2670063Y-5800484D01*
X2670063Y-5800484D02*
X2651015Y-5790960D01*
X2651015Y-5790960D02*
X2641491Y-5781436D01*
X2641491Y-5781436D02*
X2631967Y-5762388D01*
X2631967Y-5762388D02*
X2622444Y-5724293D01*
X2622444Y-5724293D02*
X2622444Y-5676674D01*
X2622444Y-5676674D02*
X2631967Y-5638579D01*
X2631967Y-5638579D02*
X2641491Y-5619531D01*
X2641491Y-5619531D02*
X2651015Y-5610008D01*
X2651015Y-5610008D02*
X2670063Y-5600484D01*
X2860539Y-5600484D02*
X2879586Y-5600484D01*
X2879586Y-5600484D02*
X2898634Y-5610008D01*
X2898634Y-5610008D02*
X2908158Y-5619531D01*
X2908158Y-5619531D02*
X2917682Y-5638579D01*
X2917682Y-5638579D02*
X2927205Y-5676674D01*
X2927205Y-5676674D02*
X2927205Y-5724293D01*
X2927205Y-5724293D02*
X2917682Y-5762388D01*
X2917682Y-5762388D02*
X2908158Y-5781436D01*
X2908158Y-5781436D02*
X2898634Y-5790960D01*
X2898634Y-5790960D02*
X2879586Y-5800484D01*
X2879586Y-5800484D02*
X2860539Y-5800484D01*
X2860539Y-5800484D02*
X2841491Y-5790960D01*
X2841491Y-5790960D02*
X2831967Y-5781436D01*
X2831967Y-5781436D02*
X2822443Y-5762388D01*
X2822443Y-5762388D02*
X2812920Y-5724293D01*
X2812920Y-5724293D02*
X2812920Y-5676674D01*
X2812920Y-5676674D02*
X2822443Y-5638579D01*
X2822443Y-5638579D02*
X2831967Y-5619531D01*
X2831967Y-5619531D02*
X2841491Y-5610008D01*
X2841491Y-5610008D02*
X2860539Y-5600484D01*
X3012920Y-5800484D02*
X3012920Y-5667150D01*
X3012920Y-5686198D02*
X3022443Y-5676674D01*
X3022443Y-5676674D02*
X3041491Y-5667150D01*
X3041491Y-5667150D02*
X3070063Y-5667150D01*
X3070063Y-5667150D02*
X3089110Y-5676674D01*
X3089110Y-5676674D02*
X3098634Y-5695722D01*
X3098634Y-5695722D02*
X3098634Y-5800484D01*
X3098634Y-5695722D02*
X3108158Y-5676674D01*
X3108158Y-5676674D02*
X3127205Y-5667150D01*
X3127205Y-5667150D02*
X3155777Y-5667150D01*
X3155777Y-5667150D02*
X3174824Y-5676674D01*
X3174824Y-5676674D02*
X3184348Y-5695722D01*
X3184348Y-5695722D02*
X3184348Y-5800484D01*
X3279586Y-5800484D02*
X3279586Y-5667150D01*
X3279586Y-5686198D02*
X3289110Y-5676674D01*
X3289110Y-5676674D02*
X3308158Y-5667150D01*
X3308158Y-5667150D02*
X3336729Y-5667150D01*
X3336729Y-5667150D02*
X3355777Y-5676674D01*
X3355777Y-5676674D02*
X3365301Y-5695722D01*
X3365301Y-5695722D02*
X3365301Y-5800484D01*
X3365301Y-5695722D02*
X3374824Y-5676674D01*
X3374824Y-5676674D02*
X3393872Y-5667150D01*
X3393872Y-5667150D02*
X3422443Y-5667150D01*
X3422443Y-5667150D02*
X3441491Y-5676674D01*
X3441491Y-5676674D02*
X3451015Y-5695722D01*
X3451015Y-5695722D02*
X3451015Y-5800484D01*
X3841491Y-5590960D02*
X3670063Y-5848103D01*
X4098634Y-5600484D02*
X4117682Y-5600484D01*
X4117682Y-5600484D02*
X4136729Y-5610008D01*
X4136729Y-5610008D02*
X4146253Y-5619531D01*
X4146253Y-5619531D02*
X4155777Y-5638579D01*
X4155777Y-5638579D02*
X4165301Y-5676674D01*
X4165301Y-5676674D02*
X4165301Y-5724293D01*
X4165301Y-5724293D02*
X4155777Y-5762388D01*
X4155777Y-5762388D02*
X4146253Y-5781436D01*
X4146253Y-5781436D02*
X4136729Y-5790960D01*
X4136729Y-5790960D02*
X4117682Y-5800484D01*
X4117682Y-5800484D02*
X4098634Y-5800484D01*
X4098634Y-5800484D02*
X4079586Y-5790960D01*
X4079586Y-5790960D02*
X4070063Y-5781436D01*
X4070063Y-5781436D02*
X4060539Y-5762388D01*
X4060539Y-5762388D02*
X4051015Y-5724293D01*
X4051015Y-5724293D02*
X4051015Y-5676674D01*
X4051015Y-5676674D02*
X4060539Y-5638579D01*
X4060539Y-5638579D02*
X4070063Y-5619531D01*
X4070063Y-5619531D02*
X4079586Y-5610008D01*
X4079586Y-5610008D02*
X4098634Y-5600484D01*
X4251015Y-5781436D02*
X4260539Y-5790960D01*
X4260539Y-5790960D02*
X4251015Y-5800484D01*
X4251015Y-5800484D02*
X4241491Y-5790960D01*
X4241491Y-5790960D02*
X4251015Y-5781436D01*
X4251015Y-5781436D02*
X4251015Y-5800484D01*
X4384348Y-5600484D02*
X4403396Y-5600484D01*
X4403396Y-5600484D02*
X4422444Y-5610008D01*
X4422444Y-5610008D02*
X4431968Y-5619531D01*
X4431968Y-5619531D02*
X4441491Y-5638579D01*
X4441491Y-5638579D02*
X4451015Y-5676674D01*
X4451015Y-5676674D02*
X4451015Y-5724293D01*
X4451015Y-5724293D02*
X4441491Y-5762388D01*
X4441491Y-5762388D02*
X4431968Y-5781436D01*
X4431968Y-5781436D02*
X4422444Y-5790960D01*
X4422444Y-5790960D02*
X4403396Y-5800484D01*
X4403396Y-5800484D02*
X4384348Y-5800484D01*
X4384348Y-5800484D02*
X4365301Y-5790960D01*
X4365301Y-5790960D02*
X4355777Y-5781436D01*
X4355777Y-5781436D02*
X4346253Y-5762388D01*
X4346253Y-5762388D02*
X4336729Y-5724293D01*
X4336729Y-5724293D02*
X4336729Y-5676674D01*
X4336729Y-5676674D02*
X4346253Y-5638579D01*
X4346253Y-5638579D02*
X4355777Y-5619531D01*
X4355777Y-5619531D02*
X4365301Y-5610008D01*
X4365301Y-5610008D02*
X4384348Y-5600484D01*
X4641491Y-5800484D02*
X4527206Y-5800484D01*
X4584348Y-5800484D02*
X4584348Y-5600484D01*
X4584348Y-5600484D02*
X4565301Y-5629055D01*
X4565301Y-5629055D02*
X4546253Y-5648103D01*
X4546253Y-5648103D02*
X4527206Y-5657627D01*
X4822444Y-5600484D02*
X4727206Y-5600484D01*
X4727206Y-5600484D02*
X4717682Y-5695722D01*
X4717682Y-5695722D02*
X4727206Y-5686198D01*
X4727206Y-5686198D02*
X4746253Y-5676674D01*
X4746253Y-5676674D02*
X4793872Y-5676674D01*
X4793872Y-5676674D02*
X4812920Y-5686198D01*
X4812920Y-5686198D02*
X4822444Y-5695722D01*
X4822444Y-5695722D02*
X4831968Y-5714769D01*
X4831968Y-5714769D02*
X4831968Y-5762388D01*
X4831968Y-5762388D02*
X4822444Y-5781436D01*
X4822444Y-5781436D02*
X4812920Y-5790960D01*
X4812920Y-5790960D02*
X4793872Y-5800484D01*
X4793872Y-5800484D02*
X4746253Y-5800484D01*
X4746253Y-5800484D02*
X4727206Y-5790960D01*
X4727206Y-5790960D02*
X4717682Y-5781436D01*
X4898634Y-5600484D02*
X5031968Y-5600484D01*
X5031968Y-5600484D02*
X4946253Y-5800484D01*
X5098634Y-5600484D02*
X5098634Y-5638579D01*
X5174825Y-5600484D02*
X5174825Y-5638579D01*
X5470063Y-5876674D02*
X5460539Y-5867150D01*
X5460539Y-5867150D02*
X5441491Y-5838579D01*
X5441491Y-5838579D02*
X5431968Y-5819531D01*
X5431968Y-5819531D02*
X5422444Y-5790960D01*
X5422444Y-5790960D02*
X5412920Y-5743341D01*
X5412920Y-5743341D02*
X5412920Y-5705246D01*
X5412920Y-5705246D02*
X5422444Y-5657627D01*
X5422444Y-5657627D02*
X5431968Y-5629055D01*
X5431968Y-5629055D02*
X5441491Y-5610008D01*
X5441491Y-5610008D02*
X5460539Y-5581436D01*
X5460539Y-5581436D02*
X5470063Y-5571912D01*
X5651015Y-5800484D02*
X5536730Y-5800484D01*
X5593872Y-5800484D02*
X5593872Y-5600484D01*
X5593872Y-5600484D02*
X5574825Y-5629055D01*
X5574825Y-5629055D02*
X5555777Y-5648103D01*
X5555777Y-5648103D02*
X5536730Y-5657627D01*
X5822444Y-5600484D02*
X5784348Y-5600484D01*
X5784348Y-5600484D02*
X5765301Y-5610008D01*
X5765301Y-5610008D02*
X5755777Y-5619531D01*
X5755777Y-5619531D02*
X5736729Y-5648103D01*
X5736729Y-5648103D02*
X5727206Y-5686198D01*
X5727206Y-5686198D02*
X5727206Y-5762388D01*
X5727206Y-5762388D02*
X5736729Y-5781436D01*
X5736729Y-5781436D02*
X5746253Y-5790960D01*
X5746253Y-5790960D02*
X5765301Y-5800484D01*
X5765301Y-5800484D02*
X5803396Y-5800484D01*
X5803396Y-5800484D02*
X5822444Y-5790960D01*
X5822444Y-5790960D02*
X5831968Y-5781436D01*
X5831968Y-5781436D02*
X5841491Y-5762388D01*
X5841491Y-5762388D02*
X5841491Y-5714769D01*
X5841491Y-5714769D02*
X5831968Y-5695722D01*
X5831968Y-5695722D02*
X5822444Y-5686198D01*
X5822444Y-5686198D02*
X5803396Y-5676674D01*
X5803396Y-5676674D02*
X5765301Y-5676674D01*
X5765301Y-5676674D02*
X5746253Y-5686198D01*
X5746253Y-5686198D02*
X5736729Y-5695722D01*
X5736729Y-5695722D02*
X5727206Y-5714769D01*
X5917682Y-5619531D02*
X5927206Y-5610008D01*
X5927206Y-5610008D02*
X5946253Y-5600484D01*
X5946253Y-5600484D02*
X5993872Y-5600484D01*
X5993872Y-5600484D02*
X6012920Y-5610008D01*
X6012920Y-5610008D02*
X6022444Y-5619531D01*
X6022444Y-5619531D02*
X6031968Y-5638579D01*
X6031968Y-5638579D02*
X6031968Y-5657627D01*
X6031968Y-5657627D02*
X6022444Y-5686198D01*
X6022444Y-5686198D02*
X5908158Y-5800484D01*
X5908158Y-5800484D02*
X6031968Y-5800484D01*
X6270063Y-5800484D02*
X6270063Y-5600484D01*
X6355777Y-5800484D02*
X6355777Y-5695722D01*
X6355777Y-5695722D02*
X6346253Y-5676674D01*
X6346253Y-5676674D02*
X6327206Y-5667150D01*
X6327206Y-5667150D02*
X6298634Y-5667150D01*
X6298634Y-5667150D02*
X6279587Y-5676674D01*
X6279587Y-5676674D02*
X6270063Y-5686198D01*
X6479587Y-5800484D02*
X6460539Y-5790960D01*
X6460539Y-5790960D02*
X6451015Y-5781436D01*
X6451015Y-5781436D02*
X6441491Y-5762388D01*
X6441491Y-5762388D02*
X6441491Y-5705246D01*
X6441491Y-5705246D02*
X6451015Y-5686198D01*
X6451015Y-5686198D02*
X6460539Y-5676674D01*
X6460539Y-5676674D02*
X6479587Y-5667150D01*
X6479587Y-5667150D02*
X6508158Y-5667150D01*
X6508158Y-5667150D02*
X6527206Y-5676674D01*
X6527206Y-5676674D02*
X6536730Y-5686198D01*
X6536730Y-5686198D02*
X6546253Y-5705246D01*
X6546253Y-5705246D02*
X6546253Y-5762388D01*
X6546253Y-5762388D02*
X6536730Y-5781436D01*
X6536730Y-5781436D02*
X6527206Y-5790960D01*
X6527206Y-5790960D02*
X6508158Y-5800484D01*
X6508158Y-5800484D02*
X6479587Y-5800484D01*
X6660539Y-5800484D02*
X6641491Y-5790960D01*
X6641491Y-5790960D02*
X6631968Y-5771912D01*
X6631968Y-5771912D02*
X6631968Y-5600484D01*
X6812920Y-5790960D02*
X6793872Y-5800484D01*
X6793872Y-5800484D02*
X6755777Y-5800484D01*
X6755777Y-5800484D02*
X6736730Y-5790960D01*
X6736730Y-5790960D02*
X6727206Y-5771912D01*
X6727206Y-5771912D02*
X6727206Y-5695722D01*
X6727206Y-5695722D02*
X6736730Y-5676674D01*
X6736730Y-5676674D02*
X6755777Y-5667150D01*
X6755777Y-5667150D02*
X6793872Y-5667150D01*
X6793872Y-5667150D02*
X6812920Y-5676674D01*
X6812920Y-5676674D02*
X6822444Y-5695722D01*
X6822444Y-5695722D02*
X6822444Y-5714769D01*
X6822444Y-5714769D02*
X6727206Y-5733817D01*
X6898634Y-5790960D02*
X6917682Y-5800484D01*
X6917682Y-5800484D02*
X6955777Y-5800484D01*
X6955777Y-5800484D02*
X6974825Y-5790960D01*
X6974825Y-5790960D02*
X6984349Y-5771912D01*
X6984349Y-5771912D02*
X6984349Y-5762388D01*
X6984349Y-5762388D02*
X6974825Y-5743341D01*
X6974825Y-5743341D02*
X6955777Y-5733817D01*
X6955777Y-5733817D02*
X6927206Y-5733817D01*
X6927206Y-5733817D02*
X6908158Y-5724293D01*
X6908158Y-5724293D02*
X6898634Y-5705246D01*
X6898634Y-5705246D02*
X6898634Y-5695722D01*
X6898634Y-5695722D02*
X6908158Y-5676674D01*
X6908158Y-5676674D02*
X6927206Y-5667150D01*
X6927206Y-5667150D02*
X6955777Y-5667150D01*
X6955777Y-5667150D02*
X6974825Y-5676674D01*
X7051015Y-5876674D02*
X7060539Y-5867150D01*
X7060539Y-5867150D02*
X7079587Y-5838579D01*
X7079587Y-5838579D02*
X7089111Y-5819531D01*
X7089111Y-5819531D02*
X7098634Y-5790960D01*
X7098634Y-5790960D02*
X7108158Y-5743341D01*
X7108158Y-5743341D02*
X7108158Y-5705246D01*
X7108158Y-5705246D02*
X7098634Y-5657627D01*
X7098634Y-5657627D02*
X7089111Y-5629055D01*
X7089111Y-5629055D02*
X7079587Y-5610008D01*
X7079587Y-5610008D02*
X7060539Y-5581436D01*
X7060539Y-5581436D02*
X7051015Y-5571912D01*
D14*
X1865000Y-5943000D02*
X1865000Y-6003000D01*
X1835000Y-5973000D02*
X1895000Y-5973000D01*
D11*
X2193872Y-5864484D02*
X2212920Y-5864484D01*
X2212920Y-5864484D02*
X2231967Y-5874008D01*
X2231967Y-5874008D02*
X2241491Y-5883531D01*
X2241491Y-5883531D02*
X2251015Y-5902579D01*
X2251015Y-5902579D02*
X2260539Y-5940674D01*
X2260539Y-5940674D02*
X2260539Y-5988293D01*
X2260539Y-5988293D02*
X2251015Y-6026388D01*
X2251015Y-6026388D02*
X2241491Y-6045436D01*
X2241491Y-6045436D02*
X2231967Y-6054960D01*
X2231967Y-6054960D02*
X2212920Y-6064484D01*
X2212920Y-6064484D02*
X2193872Y-6064484D01*
X2193872Y-6064484D02*
X2174824Y-6054960D01*
X2174824Y-6054960D02*
X2165301Y-6045436D01*
X2165301Y-6045436D02*
X2155777Y-6026388D01*
X2155777Y-6026388D02*
X2146253Y-5988293D01*
X2146253Y-5988293D02*
X2146253Y-5940674D01*
X2146253Y-5940674D02*
X2155777Y-5902579D01*
X2155777Y-5902579D02*
X2165301Y-5883531D01*
X2165301Y-5883531D02*
X2174824Y-5874008D01*
X2174824Y-5874008D02*
X2193872Y-5864484D01*
X2346253Y-6045436D02*
X2355777Y-6054960D01*
X2355777Y-6054960D02*
X2346253Y-6064484D01*
X2346253Y-6064484D02*
X2336729Y-6054960D01*
X2336729Y-6054960D02*
X2346253Y-6045436D01*
X2346253Y-6045436D02*
X2346253Y-6064484D01*
X2527205Y-5864484D02*
X2489110Y-5864484D01*
X2489110Y-5864484D02*
X2470063Y-5874008D01*
X2470063Y-5874008D02*
X2460539Y-5883531D01*
X2460539Y-5883531D02*
X2441491Y-5912103D01*
X2441491Y-5912103D02*
X2431967Y-5950198D01*
X2431967Y-5950198D02*
X2431967Y-6026388D01*
X2431967Y-6026388D02*
X2441491Y-6045436D01*
X2441491Y-6045436D02*
X2451015Y-6054960D01*
X2451015Y-6054960D02*
X2470063Y-6064484D01*
X2470063Y-6064484D02*
X2508158Y-6064484D01*
X2508158Y-6064484D02*
X2527205Y-6054960D01*
X2527205Y-6054960D02*
X2536729Y-6045436D01*
X2536729Y-6045436D02*
X2546253Y-6026388D01*
X2546253Y-6026388D02*
X2546253Y-5978769D01*
X2546253Y-5978769D02*
X2536729Y-5959722D01*
X2536729Y-5959722D02*
X2527205Y-5950198D01*
X2527205Y-5950198D02*
X2508158Y-5940674D01*
X2508158Y-5940674D02*
X2470063Y-5940674D01*
X2470063Y-5940674D02*
X2451015Y-5950198D01*
X2451015Y-5950198D02*
X2441491Y-5959722D01*
X2441491Y-5959722D02*
X2431967Y-5978769D01*
X2670063Y-5864484D02*
X2689110Y-5864484D01*
X2689110Y-5864484D02*
X2708158Y-5874008D01*
X2708158Y-5874008D02*
X2717682Y-5883531D01*
X2717682Y-5883531D02*
X2727205Y-5902579D01*
X2727205Y-5902579D02*
X2736729Y-5940674D01*
X2736729Y-5940674D02*
X2736729Y-5988293D01*
X2736729Y-5988293D02*
X2727205Y-6026388D01*
X2727205Y-6026388D02*
X2717682Y-6045436D01*
X2717682Y-6045436D02*
X2708158Y-6054960D01*
X2708158Y-6054960D02*
X2689110Y-6064484D01*
X2689110Y-6064484D02*
X2670063Y-6064484D01*
X2670063Y-6064484D02*
X2651015Y-6054960D01*
X2651015Y-6054960D02*
X2641491Y-6045436D01*
X2641491Y-6045436D02*
X2631967Y-6026388D01*
X2631967Y-6026388D02*
X2622444Y-5988293D01*
X2622444Y-5988293D02*
X2622444Y-5940674D01*
X2622444Y-5940674D02*
X2631967Y-5902579D01*
X2631967Y-5902579D02*
X2641491Y-5883531D01*
X2641491Y-5883531D02*
X2651015Y-5874008D01*
X2651015Y-5874008D02*
X2670063Y-5864484D01*
X2860539Y-5864484D02*
X2879586Y-5864484D01*
X2879586Y-5864484D02*
X2898634Y-5874008D01*
X2898634Y-5874008D02*
X2908158Y-5883531D01*
X2908158Y-5883531D02*
X2917682Y-5902579D01*
X2917682Y-5902579D02*
X2927205Y-5940674D01*
X2927205Y-5940674D02*
X2927205Y-5988293D01*
X2927205Y-5988293D02*
X2917682Y-6026388D01*
X2917682Y-6026388D02*
X2908158Y-6045436D01*
X2908158Y-6045436D02*
X2898634Y-6054960D01*
X2898634Y-6054960D02*
X2879586Y-6064484D01*
X2879586Y-6064484D02*
X2860539Y-6064484D01*
X2860539Y-6064484D02*
X2841491Y-6054960D01*
X2841491Y-6054960D02*
X2831967Y-6045436D01*
X2831967Y-6045436D02*
X2822443Y-6026388D01*
X2822443Y-6026388D02*
X2812920Y-5988293D01*
X2812920Y-5988293D02*
X2812920Y-5940674D01*
X2812920Y-5940674D02*
X2822443Y-5902579D01*
X2822443Y-5902579D02*
X2831967Y-5883531D01*
X2831967Y-5883531D02*
X2841491Y-5874008D01*
X2841491Y-5874008D02*
X2860539Y-5864484D01*
X3012920Y-6064484D02*
X3012920Y-5931150D01*
X3012920Y-5950198D02*
X3022443Y-5940674D01*
X3022443Y-5940674D02*
X3041491Y-5931150D01*
X3041491Y-5931150D02*
X3070063Y-5931150D01*
X3070063Y-5931150D02*
X3089110Y-5940674D01*
X3089110Y-5940674D02*
X3098634Y-5959722D01*
X3098634Y-5959722D02*
X3098634Y-6064484D01*
X3098634Y-5959722D02*
X3108158Y-5940674D01*
X3108158Y-5940674D02*
X3127205Y-5931150D01*
X3127205Y-5931150D02*
X3155777Y-5931150D01*
X3155777Y-5931150D02*
X3174824Y-5940674D01*
X3174824Y-5940674D02*
X3184348Y-5959722D01*
X3184348Y-5959722D02*
X3184348Y-6064484D01*
X3279586Y-6064484D02*
X3279586Y-5931150D01*
X3279586Y-5950198D02*
X3289110Y-5940674D01*
X3289110Y-5940674D02*
X3308158Y-5931150D01*
X3308158Y-5931150D02*
X3336729Y-5931150D01*
X3336729Y-5931150D02*
X3355777Y-5940674D01*
X3355777Y-5940674D02*
X3365301Y-5959722D01*
X3365301Y-5959722D02*
X3365301Y-6064484D01*
X3365301Y-5959722D02*
X3374824Y-5940674D01*
X3374824Y-5940674D02*
X3393872Y-5931150D01*
X3393872Y-5931150D02*
X3422443Y-5931150D01*
X3422443Y-5931150D02*
X3441491Y-5940674D01*
X3441491Y-5940674D02*
X3451015Y-5959722D01*
X3451015Y-5959722D02*
X3451015Y-6064484D01*
X3841491Y-5854960D02*
X3670063Y-6112103D01*
X4098634Y-5864484D02*
X4117682Y-5864484D01*
X4117682Y-5864484D02*
X4136729Y-5874008D01*
X4136729Y-5874008D02*
X4146253Y-5883531D01*
X4146253Y-5883531D02*
X4155777Y-5902579D01*
X4155777Y-5902579D02*
X4165301Y-5940674D01*
X4165301Y-5940674D02*
X4165301Y-5988293D01*
X4165301Y-5988293D02*
X4155777Y-6026388D01*
X4155777Y-6026388D02*
X4146253Y-6045436D01*
X4146253Y-6045436D02*
X4136729Y-6054960D01*
X4136729Y-6054960D02*
X4117682Y-6064484D01*
X4117682Y-6064484D02*
X4098634Y-6064484D01*
X4098634Y-6064484D02*
X4079586Y-6054960D01*
X4079586Y-6054960D02*
X4070063Y-6045436D01*
X4070063Y-6045436D02*
X4060539Y-6026388D01*
X4060539Y-6026388D02*
X4051015Y-5988293D01*
X4051015Y-5988293D02*
X4051015Y-5940674D01*
X4051015Y-5940674D02*
X4060539Y-5902579D01*
X4060539Y-5902579D02*
X4070063Y-5883531D01*
X4070063Y-5883531D02*
X4079586Y-5874008D01*
X4079586Y-5874008D02*
X4098634Y-5864484D01*
X4251015Y-6045436D02*
X4260539Y-6054960D01*
X4260539Y-6054960D02*
X4251015Y-6064484D01*
X4251015Y-6064484D02*
X4241491Y-6054960D01*
X4241491Y-6054960D02*
X4251015Y-6045436D01*
X4251015Y-6045436D02*
X4251015Y-6064484D01*
X4384348Y-5864484D02*
X4403396Y-5864484D01*
X4403396Y-5864484D02*
X4422444Y-5874008D01*
X4422444Y-5874008D02*
X4431968Y-5883531D01*
X4431968Y-5883531D02*
X4441491Y-5902579D01*
X4441491Y-5902579D02*
X4451015Y-5940674D01*
X4451015Y-5940674D02*
X4451015Y-5988293D01*
X4451015Y-5988293D02*
X4441491Y-6026388D01*
X4441491Y-6026388D02*
X4431968Y-6045436D01*
X4431968Y-6045436D02*
X4422444Y-6054960D01*
X4422444Y-6054960D02*
X4403396Y-6064484D01*
X4403396Y-6064484D02*
X4384348Y-6064484D01*
X4384348Y-6064484D02*
X4365301Y-6054960D01*
X4365301Y-6054960D02*
X4355777Y-6045436D01*
X4355777Y-6045436D02*
X4346253Y-6026388D01*
X4346253Y-6026388D02*
X4336729Y-5988293D01*
X4336729Y-5988293D02*
X4336729Y-5940674D01*
X4336729Y-5940674D02*
X4346253Y-5902579D01*
X4346253Y-5902579D02*
X4355777Y-5883531D01*
X4355777Y-5883531D02*
X4365301Y-5874008D01*
X4365301Y-5874008D02*
X4384348Y-5864484D01*
X4527206Y-5883531D02*
X4536729Y-5874008D01*
X4536729Y-5874008D02*
X4555777Y-5864484D01*
X4555777Y-5864484D02*
X4603396Y-5864484D01*
X4603396Y-5864484D02*
X4622444Y-5874008D01*
X4622444Y-5874008D02*
X4631968Y-5883531D01*
X4631968Y-5883531D02*
X4641491Y-5902579D01*
X4641491Y-5902579D02*
X4641491Y-5921627D01*
X4641491Y-5921627D02*
X4631968Y-5950198D01*
X4631968Y-5950198D02*
X4517682Y-6064484D01*
X4517682Y-6064484D02*
X4641491Y-6064484D01*
X4708158Y-5864484D02*
X4831968Y-5864484D01*
X4831968Y-5864484D02*
X4765301Y-5940674D01*
X4765301Y-5940674D02*
X4793872Y-5940674D01*
X4793872Y-5940674D02*
X4812920Y-5950198D01*
X4812920Y-5950198D02*
X4822444Y-5959722D01*
X4822444Y-5959722D02*
X4831968Y-5978769D01*
X4831968Y-5978769D02*
X4831968Y-6026388D01*
X4831968Y-6026388D02*
X4822444Y-6045436D01*
X4822444Y-6045436D02*
X4812920Y-6054960D01*
X4812920Y-6054960D02*
X4793872Y-6064484D01*
X4793872Y-6064484D02*
X4736729Y-6064484D01*
X4736729Y-6064484D02*
X4717682Y-6054960D01*
X4717682Y-6054960D02*
X4708158Y-6045436D01*
X5003396Y-5864484D02*
X4965301Y-5864484D01*
X4965301Y-5864484D02*
X4946253Y-5874008D01*
X4946253Y-5874008D02*
X4936729Y-5883531D01*
X4936729Y-5883531D02*
X4917682Y-5912103D01*
X4917682Y-5912103D02*
X4908158Y-5950198D01*
X4908158Y-5950198D02*
X4908158Y-6026388D01*
X4908158Y-6026388D02*
X4917682Y-6045436D01*
X4917682Y-6045436D02*
X4927206Y-6054960D01*
X4927206Y-6054960D02*
X4946253Y-6064484D01*
X4946253Y-6064484D02*
X4984349Y-6064484D01*
X4984349Y-6064484D02*
X5003396Y-6054960D01*
X5003396Y-6054960D02*
X5012920Y-6045436D01*
X5012920Y-6045436D02*
X5022444Y-6026388D01*
X5022444Y-6026388D02*
X5022444Y-5978769D01*
X5022444Y-5978769D02*
X5012920Y-5959722D01*
X5012920Y-5959722D02*
X5003396Y-5950198D01*
X5003396Y-5950198D02*
X4984349Y-5940674D01*
X4984349Y-5940674D02*
X4946253Y-5940674D01*
X4946253Y-5940674D02*
X4927206Y-5950198D01*
X4927206Y-5950198D02*
X4917682Y-5959722D01*
X4917682Y-5959722D02*
X4908158Y-5978769D01*
X5098634Y-5864484D02*
X5098634Y-5902579D01*
X5174825Y-5864484D02*
X5174825Y-5902579D01*
X5470063Y-6140674D02*
X5460539Y-6131150D01*
X5460539Y-6131150D02*
X5441491Y-6102579D01*
X5441491Y-6102579D02*
X5431968Y-6083531D01*
X5431968Y-6083531D02*
X5422444Y-6054960D01*
X5422444Y-6054960D02*
X5412920Y-6007341D01*
X5412920Y-6007341D02*
X5412920Y-5969246D01*
X5412920Y-5969246D02*
X5422444Y-5921627D01*
X5422444Y-5921627D02*
X5431968Y-5893055D01*
X5431968Y-5893055D02*
X5441491Y-5874008D01*
X5441491Y-5874008D02*
X5460539Y-5845436D01*
X5460539Y-5845436D02*
X5470063Y-5835912D01*
X5631968Y-5931150D02*
X5631968Y-6064484D01*
X5584349Y-5854960D02*
X5536730Y-5997817D01*
X5536730Y-5997817D02*
X5660539Y-5997817D01*
X5889110Y-6064484D02*
X5889110Y-5864484D01*
X5974825Y-6064484D02*
X5974825Y-5959722D01*
X5974825Y-5959722D02*
X5965301Y-5940674D01*
X5965301Y-5940674D02*
X5946253Y-5931150D01*
X5946253Y-5931150D02*
X5917682Y-5931150D01*
X5917682Y-5931150D02*
X5898634Y-5940674D01*
X5898634Y-5940674D02*
X5889110Y-5950198D01*
X6098634Y-6064484D02*
X6079587Y-6054960D01*
X6079587Y-6054960D02*
X6070063Y-6045436D01*
X6070063Y-6045436D02*
X6060539Y-6026388D01*
X6060539Y-6026388D02*
X6060539Y-5969246D01*
X6060539Y-5969246D02*
X6070063Y-5950198D01*
X6070063Y-5950198D02*
X6079587Y-5940674D01*
X6079587Y-5940674D02*
X6098634Y-5931150D01*
X6098634Y-5931150D02*
X6127206Y-5931150D01*
X6127206Y-5931150D02*
X6146253Y-5940674D01*
X6146253Y-5940674D02*
X6155777Y-5950198D01*
X6155777Y-5950198D02*
X6165301Y-5969246D01*
X6165301Y-5969246D02*
X6165301Y-6026388D01*
X6165301Y-6026388D02*
X6155777Y-6045436D01*
X6155777Y-6045436D02*
X6146253Y-6054960D01*
X6146253Y-6054960D02*
X6127206Y-6064484D01*
X6127206Y-6064484D02*
X6098634Y-6064484D01*
X6279587Y-6064484D02*
X6260539Y-6054960D01*
X6260539Y-6054960D02*
X6251015Y-6035912D01*
X6251015Y-6035912D02*
X6251015Y-5864484D01*
X6431968Y-6054960D02*
X6412920Y-6064484D01*
X6412920Y-6064484D02*
X6374825Y-6064484D01*
X6374825Y-6064484D02*
X6355777Y-6054960D01*
X6355777Y-6054960D02*
X6346253Y-6035912D01*
X6346253Y-6035912D02*
X6346253Y-5959722D01*
X6346253Y-5959722D02*
X6355777Y-5940674D01*
X6355777Y-5940674D02*
X6374825Y-5931150D01*
X6374825Y-5931150D02*
X6412920Y-5931150D01*
X6412920Y-5931150D02*
X6431968Y-5940674D01*
X6431968Y-5940674D02*
X6441491Y-5959722D01*
X6441491Y-5959722D02*
X6441491Y-5978769D01*
X6441491Y-5978769D02*
X6346253Y-5997817D01*
X6517682Y-6054960D02*
X6536730Y-6064484D01*
X6536730Y-6064484D02*
X6574825Y-6064484D01*
X6574825Y-6064484D02*
X6593872Y-6054960D01*
X6593872Y-6054960D02*
X6603396Y-6035912D01*
X6603396Y-6035912D02*
X6603396Y-6026388D01*
X6603396Y-6026388D02*
X6593872Y-6007341D01*
X6593872Y-6007341D02*
X6574825Y-5997817D01*
X6574825Y-5997817D02*
X6546253Y-5997817D01*
X6546253Y-5997817D02*
X6527206Y-5988293D01*
X6527206Y-5988293D02*
X6517682Y-5969246D01*
X6517682Y-5969246D02*
X6517682Y-5959722D01*
X6517682Y-5959722D02*
X6527206Y-5940674D01*
X6527206Y-5940674D02*
X6546253Y-5931150D01*
X6546253Y-5931150D02*
X6574825Y-5931150D01*
X6574825Y-5931150D02*
X6593872Y-5940674D01*
X6670063Y-6140674D02*
X6679587Y-6131150D01*
X6679587Y-6131150D02*
X6698634Y-6102579D01*
X6698634Y-6102579D02*
X6708158Y-6083531D01*
X6708158Y-6083531D02*
X6717682Y-6054960D01*
X6717682Y-6054960D02*
X6727206Y-6007341D01*
X6727206Y-6007341D02*
X6727206Y-5969246D01*
X6727206Y-5969246D02*
X6717682Y-5921627D01*
X6717682Y-5921627D02*
X6708158Y-5893055D01*
X6708158Y-5893055D02*
X6698634Y-5874008D01*
X6698634Y-5874008D02*
X6679587Y-5845436D01*
X6679587Y-5845436D02*
X6670063Y-5835912D01*
D15*
X1875962Y-6282962D02*
X1875962Y-6191038D01*
X1784038Y-6191038D01*
X1784038Y-6282962D01*
X1875962Y-6282962D01*
D11*
X2260539Y-6328484D02*
X2146253Y-6328484D01*
X2203396Y-6328484D02*
X2203396Y-6128484D01*
X2203396Y-6128484D02*
X2184348Y-6157055D01*
X2184348Y-6157055D02*
X2165301Y-6176103D01*
X2165301Y-6176103D02*
X2146253Y-6185627D01*
X2346253Y-6309436D02*
X2355777Y-6318960D01*
X2355777Y-6318960D02*
X2346253Y-6328484D01*
X2346253Y-6328484D02*
X2336729Y-6318960D01*
X2336729Y-6318960D02*
X2346253Y-6309436D01*
X2346253Y-6309436D02*
X2346253Y-6328484D01*
X2422444Y-6128484D02*
X2546253Y-6128484D01*
X2546253Y-6128484D02*
X2479586Y-6204674D01*
X2479586Y-6204674D02*
X2508158Y-6204674D01*
X2508158Y-6204674D02*
X2527205Y-6214198D01*
X2527205Y-6214198D02*
X2536729Y-6223722D01*
X2536729Y-6223722D02*
X2546253Y-6242769D01*
X2546253Y-6242769D02*
X2546253Y-6290388D01*
X2546253Y-6290388D02*
X2536729Y-6309436D01*
X2536729Y-6309436D02*
X2527205Y-6318960D01*
X2527205Y-6318960D02*
X2508158Y-6328484D01*
X2508158Y-6328484D02*
X2451015Y-6328484D01*
X2451015Y-6328484D02*
X2431967Y-6318960D01*
X2431967Y-6318960D02*
X2422444Y-6309436D01*
X2670063Y-6128484D02*
X2689110Y-6128484D01*
X2689110Y-6128484D02*
X2708158Y-6138008D01*
X2708158Y-6138008D02*
X2717682Y-6147531D01*
X2717682Y-6147531D02*
X2727205Y-6166579D01*
X2727205Y-6166579D02*
X2736729Y-6204674D01*
X2736729Y-6204674D02*
X2736729Y-6252293D01*
X2736729Y-6252293D02*
X2727205Y-6290388D01*
X2727205Y-6290388D02*
X2717682Y-6309436D01*
X2717682Y-6309436D02*
X2708158Y-6318960D01*
X2708158Y-6318960D02*
X2689110Y-6328484D01*
X2689110Y-6328484D02*
X2670063Y-6328484D01*
X2670063Y-6328484D02*
X2651015Y-6318960D01*
X2651015Y-6318960D02*
X2641491Y-6309436D01*
X2641491Y-6309436D02*
X2631967Y-6290388D01*
X2631967Y-6290388D02*
X2622444Y-6252293D01*
X2622444Y-6252293D02*
X2622444Y-6204674D01*
X2622444Y-6204674D02*
X2631967Y-6166579D01*
X2631967Y-6166579D02*
X2641491Y-6147531D01*
X2641491Y-6147531D02*
X2651015Y-6138008D01*
X2651015Y-6138008D02*
X2670063Y-6128484D01*
X2860539Y-6128484D02*
X2879586Y-6128484D01*
X2879586Y-6128484D02*
X2898634Y-6138008D01*
X2898634Y-6138008D02*
X2908158Y-6147531D01*
X2908158Y-6147531D02*
X2917682Y-6166579D01*
X2917682Y-6166579D02*
X2927205Y-6204674D01*
X2927205Y-6204674D02*
X2927205Y-6252293D01*
X2927205Y-6252293D02*
X2917682Y-6290388D01*
X2917682Y-6290388D02*
X2908158Y-6309436D01*
X2908158Y-6309436D02*
X2898634Y-6318960D01*
X2898634Y-6318960D02*
X2879586Y-6328484D01*
X2879586Y-6328484D02*
X2860539Y-6328484D01*
X2860539Y-6328484D02*
X2841491Y-6318960D01*
X2841491Y-6318960D02*
X2831967Y-6309436D01*
X2831967Y-6309436D02*
X2822443Y-6290388D01*
X2822443Y-6290388D02*
X2812920Y-6252293D01*
X2812920Y-6252293D02*
X2812920Y-6204674D01*
X2812920Y-6204674D02*
X2822443Y-6166579D01*
X2822443Y-6166579D02*
X2831967Y-6147531D01*
X2831967Y-6147531D02*
X2841491Y-6138008D01*
X2841491Y-6138008D02*
X2860539Y-6128484D01*
X3012920Y-6328484D02*
X3012920Y-6195150D01*
X3012920Y-6214198D02*
X3022443Y-6204674D01*
X3022443Y-6204674D02*
X3041491Y-6195150D01*
X3041491Y-6195150D02*
X3070063Y-6195150D01*
X3070063Y-6195150D02*
X3089110Y-6204674D01*
X3089110Y-6204674D02*
X3098634Y-6223722D01*
X3098634Y-6223722D02*
X3098634Y-6328484D01*
X3098634Y-6223722D02*
X3108158Y-6204674D01*
X3108158Y-6204674D02*
X3127205Y-6195150D01*
X3127205Y-6195150D02*
X3155777Y-6195150D01*
X3155777Y-6195150D02*
X3174824Y-6204674D01*
X3174824Y-6204674D02*
X3184348Y-6223722D01*
X3184348Y-6223722D02*
X3184348Y-6328484D01*
X3279586Y-6328484D02*
X3279586Y-6195150D01*
X3279586Y-6214198D02*
X3289110Y-6204674D01*
X3289110Y-6204674D02*
X3308158Y-6195150D01*
X3308158Y-6195150D02*
X3336729Y-6195150D01*
X3336729Y-6195150D02*
X3355777Y-6204674D01*
X3355777Y-6204674D02*
X3365301Y-6223722D01*
X3365301Y-6223722D02*
X3365301Y-6328484D01*
X3365301Y-6223722D02*
X3374824Y-6204674D01*
X3374824Y-6204674D02*
X3393872Y-6195150D01*
X3393872Y-6195150D02*
X3422443Y-6195150D01*
X3422443Y-6195150D02*
X3441491Y-6204674D01*
X3441491Y-6204674D02*
X3451015Y-6223722D01*
X3451015Y-6223722D02*
X3451015Y-6328484D01*
X3841491Y-6118960D02*
X3670063Y-6376103D01*
X4098634Y-6128484D02*
X4117682Y-6128484D01*
X4117682Y-6128484D02*
X4136729Y-6138008D01*
X4136729Y-6138008D02*
X4146253Y-6147531D01*
X4146253Y-6147531D02*
X4155777Y-6166579D01*
X4155777Y-6166579D02*
X4165301Y-6204674D01*
X4165301Y-6204674D02*
X4165301Y-6252293D01*
X4165301Y-6252293D02*
X4155777Y-6290388D01*
X4155777Y-6290388D02*
X4146253Y-6309436D01*
X4146253Y-6309436D02*
X4136729Y-6318960D01*
X4136729Y-6318960D02*
X4117682Y-6328484D01*
X4117682Y-6328484D02*
X4098634Y-6328484D01*
X4098634Y-6328484D02*
X4079586Y-6318960D01*
X4079586Y-6318960D02*
X4070063Y-6309436D01*
X4070063Y-6309436D02*
X4060539Y-6290388D01*
X4060539Y-6290388D02*
X4051015Y-6252293D01*
X4051015Y-6252293D02*
X4051015Y-6204674D01*
X4051015Y-6204674D02*
X4060539Y-6166579D01*
X4060539Y-6166579D02*
X4070063Y-6147531D01*
X4070063Y-6147531D02*
X4079586Y-6138008D01*
X4079586Y-6138008D02*
X4098634Y-6128484D01*
X4251015Y-6309436D02*
X4260539Y-6318960D01*
X4260539Y-6318960D02*
X4251015Y-6328484D01*
X4251015Y-6328484D02*
X4241491Y-6318960D01*
X4241491Y-6318960D02*
X4251015Y-6309436D01*
X4251015Y-6309436D02*
X4251015Y-6328484D01*
X4384348Y-6128484D02*
X4403396Y-6128484D01*
X4403396Y-6128484D02*
X4422444Y-6138008D01*
X4422444Y-6138008D02*
X4431968Y-6147531D01*
X4431968Y-6147531D02*
X4441491Y-6166579D01*
X4441491Y-6166579D02*
X4451015Y-6204674D01*
X4451015Y-6204674D02*
X4451015Y-6252293D01*
X4451015Y-6252293D02*
X4441491Y-6290388D01*
X4441491Y-6290388D02*
X4431968Y-6309436D01*
X4431968Y-6309436D02*
X4422444Y-6318960D01*
X4422444Y-6318960D02*
X4403396Y-6328484D01*
X4403396Y-6328484D02*
X4384348Y-6328484D01*
X4384348Y-6328484D02*
X4365301Y-6318960D01*
X4365301Y-6318960D02*
X4355777Y-6309436D01*
X4355777Y-6309436D02*
X4346253Y-6290388D01*
X4346253Y-6290388D02*
X4336729Y-6252293D01*
X4336729Y-6252293D02*
X4336729Y-6204674D01*
X4336729Y-6204674D02*
X4346253Y-6166579D01*
X4346253Y-6166579D02*
X4355777Y-6147531D01*
X4355777Y-6147531D02*
X4365301Y-6138008D01*
X4365301Y-6138008D02*
X4384348Y-6128484D01*
X4631968Y-6128484D02*
X4536729Y-6128484D01*
X4536729Y-6128484D02*
X4527206Y-6223722D01*
X4527206Y-6223722D02*
X4536729Y-6214198D01*
X4536729Y-6214198D02*
X4555777Y-6204674D01*
X4555777Y-6204674D02*
X4603396Y-6204674D01*
X4603396Y-6204674D02*
X4622444Y-6214198D01*
X4622444Y-6214198D02*
X4631968Y-6223722D01*
X4631968Y-6223722D02*
X4641491Y-6242769D01*
X4641491Y-6242769D02*
X4641491Y-6290388D01*
X4641491Y-6290388D02*
X4631968Y-6309436D01*
X4631968Y-6309436D02*
X4622444Y-6318960D01*
X4622444Y-6318960D02*
X4603396Y-6328484D01*
X4603396Y-6328484D02*
X4555777Y-6328484D01*
X4555777Y-6328484D02*
X4536729Y-6318960D01*
X4536729Y-6318960D02*
X4527206Y-6309436D01*
X4831968Y-6328484D02*
X4717682Y-6328484D01*
X4774825Y-6328484D02*
X4774825Y-6128484D01*
X4774825Y-6128484D02*
X4755777Y-6157055D01*
X4755777Y-6157055D02*
X4736729Y-6176103D01*
X4736729Y-6176103D02*
X4717682Y-6185627D01*
X4908158Y-6147531D02*
X4917682Y-6138008D01*
X4917682Y-6138008D02*
X4936729Y-6128484D01*
X4936729Y-6128484D02*
X4984349Y-6128484D01*
X4984349Y-6128484D02*
X5003396Y-6138008D01*
X5003396Y-6138008D02*
X5012920Y-6147531D01*
X5012920Y-6147531D02*
X5022444Y-6166579D01*
X5022444Y-6166579D02*
X5022444Y-6185627D01*
X5022444Y-6185627D02*
X5012920Y-6214198D01*
X5012920Y-6214198D02*
X4898634Y-6328484D01*
X4898634Y-6328484D02*
X5022444Y-6328484D01*
X5098634Y-6128484D02*
X5098634Y-6166579D01*
X5174825Y-6128484D02*
X5174825Y-6166579D01*
X5470063Y-6404674D02*
X5460539Y-6395150D01*
X5460539Y-6395150D02*
X5441491Y-6366579D01*
X5441491Y-6366579D02*
X5431968Y-6347531D01*
X5431968Y-6347531D02*
X5422444Y-6318960D01*
X5422444Y-6318960D02*
X5412920Y-6271341D01*
X5412920Y-6271341D02*
X5412920Y-6233246D01*
X5412920Y-6233246D02*
X5422444Y-6185627D01*
X5422444Y-6185627D02*
X5431968Y-6157055D01*
X5431968Y-6157055D02*
X5441491Y-6138008D01*
X5441491Y-6138008D02*
X5460539Y-6109436D01*
X5460539Y-6109436D02*
X5470063Y-6099912D01*
X5527206Y-6128484D02*
X5660539Y-6128484D01*
X5660539Y-6128484D02*
X5574825Y-6328484D01*
X5889110Y-6328484D02*
X5889110Y-6128484D01*
X5974825Y-6328484D02*
X5974825Y-6223722D01*
X5974825Y-6223722D02*
X5965301Y-6204674D01*
X5965301Y-6204674D02*
X5946253Y-6195150D01*
X5946253Y-6195150D02*
X5917682Y-6195150D01*
X5917682Y-6195150D02*
X5898634Y-6204674D01*
X5898634Y-6204674D02*
X5889110Y-6214198D01*
X6098634Y-6328484D02*
X6079587Y-6318960D01*
X6079587Y-6318960D02*
X6070063Y-6309436D01*
X6070063Y-6309436D02*
X6060539Y-6290388D01*
X6060539Y-6290388D02*
X6060539Y-6233246D01*
X6060539Y-6233246D02*
X6070063Y-6214198D01*
X6070063Y-6214198D02*
X6079587Y-6204674D01*
X6079587Y-6204674D02*
X6098634Y-6195150D01*
X6098634Y-6195150D02*
X6127206Y-6195150D01*
X6127206Y-6195150D02*
X6146253Y-6204674D01*
X6146253Y-6204674D02*
X6155777Y-6214198D01*
X6155777Y-6214198D02*
X6165301Y-6233246D01*
X6165301Y-6233246D02*
X6165301Y-6290388D01*
X6165301Y-6290388D02*
X6155777Y-6309436D01*
X6155777Y-6309436D02*
X6146253Y-6318960D01*
X6146253Y-6318960D02*
X6127206Y-6328484D01*
X6127206Y-6328484D02*
X6098634Y-6328484D01*
X6279587Y-6328484D02*
X6260539Y-6318960D01*
X6260539Y-6318960D02*
X6251015Y-6299912D01*
X6251015Y-6299912D02*
X6251015Y-6128484D01*
X6431968Y-6318960D02*
X6412920Y-6328484D01*
X6412920Y-6328484D02*
X6374825Y-6328484D01*
X6374825Y-6328484D02*
X6355777Y-6318960D01*
X6355777Y-6318960D02*
X6346253Y-6299912D01*
X6346253Y-6299912D02*
X6346253Y-6223722D01*
X6346253Y-6223722D02*
X6355777Y-6204674D01*
X6355777Y-6204674D02*
X6374825Y-6195150D01*
X6374825Y-6195150D02*
X6412920Y-6195150D01*
X6412920Y-6195150D02*
X6431968Y-6204674D01*
X6431968Y-6204674D02*
X6441491Y-6223722D01*
X6441491Y-6223722D02*
X6441491Y-6242769D01*
X6441491Y-6242769D02*
X6346253Y-6261817D01*
X6517682Y-6318960D02*
X6536730Y-6328484D01*
X6536730Y-6328484D02*
X6574825Y-6328484D01*
X6574825Y-6328484D02*
X6593872Y-6318960D01*
X6593872Y-6318960D02*
X6603396Y-6299912D01*
X6603396Y-6299912D02*
X6603396Y-6290388D01*
X6603396Y-6290388D02*
X6593872Y-6271341D01*
X6593872Y-6271341D02*
X6574825Y-6261817D01*
X6574825Y-6261817D02*
X6546253Y-6261817D01*
X6546253Y-6261817D02*
X6527206Y-6252293D01*
X6527206Y-6252293D02*
X6517682Y-6233246D01*
X6517682Y-6233246D02*
X6517682Y-6223722D01*
X6517682Y-6223722D02*
X6527206Y-6204674D01*
X6527206Y-6204674D02*
X6546253Y-6195150D01*
X6546253Y-6195150D02*
X6574825Y-6195150D01*
X6574825Y-6195150D02*
X6593872Y-6204674D01*
X6670063Y-6404674D02*
X6679587Y-6395150D01*
X6679587Y-6395150D02*
X6698634Y-6366579D01*
X6698634Y-6366579D02*
X6708158Y-6347531D01*
X6708158Y-6347531D02*
X6717682Y-6318960D01*
X6717682Y-6318960D02*
X6727206Y-6271341D01*
X6727206Y-6271341D02*
X6727206Y-6233246D01*
X6727206Y-6233246D02*
X6717682Y-6185627D01*
X6717682Y-6185627D02*
X6708158Y-6157055D01*
X6708158Y-6157055D02*
X6698634Y-6138008D01*
X6698634Y-6138008D02*
X6679587Y-6109436D01*
X6679587Y-6109436D02*
X6670063Y-6099912D01*
X1795000Y-6601000D02*
X1895000Y-6501000D01*
X1795000Y-6401000D01*
X1695000Y-6501000D01*
X1795000Y-6601000D01*
X2136729Y-6392484D02*
X2260539Y-6392484D01*
X2260539Y-6392484D02*
X2193872Y-6468674D01*
X2193872Y-6468674D02*
X2222444Y-6468674D01*
X2222444Y-6468674D02*
X2241491Y-6478198D01*
X2241491Y-6478198D02*
X2251015Y-6487722D01*
X2251015Y-6487722D02*
X2260539Y-6506769D01*
X2260539Y-6506769D02*
X2260539Y-6554388D01*
X2260539Y-6554388D02*
X2251015Y-6573436D01*
X2251015Y-6573436D02*
X2241491Y-6582960D01*
X2241491Y-6582960D02*
X2222444Y-6592484D01*
X2222444Y-6592484D02*
X2165301Y-6592484D01*
X2165301Y-6592484D02*
X2146253Y-6582960D01*
X2146253Y-6582960D02*
X2136729Y-6573436D01*
X2346253Y-6573436D02*
X2355777Y-6582960D01*
X2355777Y-6582960D02*
X2346253Y-6592484D01*
X2346253Y-6592484D02*
X2336729Y-6582960D01*
X2336729Y-6582960D02*
X2346253Y-6573436D01*
X2346253Y-6573436D02*
X2346253Y-6592484D01*
X2479586Y-6392484D02*
X2498634Y-6392484D01*
X2498634Y-6392484D02*
X2517682Y-6402008D01*
X2517682Y-6402008D02*
X2527205Y-6411531D01*
X2527205Y-6411531D02*
X2536729Y-6430579D01*
X2536729Y-6430579D02*
X2546253Y-6468674D01*
X2546253Y-6468674D02*
X2546253Y-6516293D01*
X2546253Y-6516293D02*
X2536729Y-6554388D01*
X2536729Y-6554388D02*
X2527205Y-6573436D01*
X2527205Y-6573436D02*
X2517682Y-6582960D01*
X2517682Y-6582960D02*
X2498634Y-6592484D01*
X2498634Y-6592484D02*
X2479586Y-6592484D01*
X2479586Y-6592484D02*
X2460539Y-6582960D01*
X2460539Y-6582960D02*
X2451015Y-6573436D01*
X2451015Y-6573436D02*
X2441491Y-6554388D01*
X2441491Y-6554388D02*
X2431967Y-6516293D01*
X2431967Y-6516293D02*
X2431967Y-6468674D01*
X2431967Y-6468674D02*
X2441491Y-6430579D01*
X2441491Y-6430579D02*
X2451015Y-6411531D01*
X2451015Y-6411531D02*
X2460539Y-6402008D01*
X2460539Y-6402008D02*
X2479586Y-6392484D01*
X2670063Y-6392484D02*
X2689110Y-6392484D01*
X2689110Y-6392484D02*
X2708158Y-6402008D01*
X2708158Y-6402008D02*
X2717682Y-6411531D01*
X2717682Y-6411531D02*
X2727205Y-6430579D01*
X2727205Y-6430579D02*
X2736729Y-6468674D01*
X2736729Y-6468674D02*
X2736729Y-6516293D01*
X2736729Y-6516293D02*
X2727205Y-6554388D01*
X2727205Y-6554388D02*
X2717682Y-6573436D01*
X2717682Y-6573436D02*
X2708158Y-6582960D01*
X2708158Y-6582960D02*
X2689110Y-6592484D01*
X2689110Y-6592484D02*
X2670063Y-6592484D01*
X2670063Y-6592484D02*
X2651015Y-6582960D01*
X2651015Y-6582960D02*
X2641491Y-6573436D01*
X2641491Y-6573436D02*
X2631967Y-6554388D01*
X2631967Y-6554388D02*
X2622444Y-6516293D01*
X2622444Y-6516293D02*
X2622444Y-6468674D01*
X2622444Y-6468674D02*
X2631967Y-6430579D01*
X2631967Y-6430579D02*
X2641491Y-6411531D01*
X2641491Y-6411531D02*
X2651015Y-6402008D01*
X2651015Y-6402008D02*
X2670063Y-6392484D01*
X2860539Y-6392484D02*
X2879586Y-6392484D01*
X2879586Y-6392484D02*
X2898634Y-6402008D01*
X2898634Y-6402008D02*
X2908158Y-6411531D01*
X2908158Y-6411531D02*
X2917682Y-6430579D01*
X2917682Y-6430579D02*
X2927205Y-6468674D01*
X2927205Y-6468674D02*
X2927205Y-6516293D01*
X2927205Y-6516293D02*
X2917682Y-6554388D01*
X2917682Y-6554388D02*
X2908158Y-6573436D01*
X2908158Y-6573436D02*
X2898634Y-6582960D01*
X2898634Y-6582960D02*
X2879586Y-6592484D01*
X2879586Y-6592484D02*
X2860539Y-6592484D01*
X2860539Y-6592484D02*
X2841491Y-6582960D01*
X2841491Y-6582960D02*
X2831967Y-6573436D01*
X2831967Y-6573436D02*
X2822443Y-6554388D01*
X2822443Y-6554388D02*
X2812920Y-6516293D01*
X2812920Y-6516293D02*
X2812920Y-6468674D01*
X2812920Y-6468674D02*
X2822443Y-6430579D01*
X2822443Y-6430579D02*
X2831967Y-6411531D01*
X2831967Y-6411531D02*
X2841491Y-6402008D01*
X2841491Y-6402008D02*
X2860539Y-6392484D01*
X3012920Y-6592484D02*
X3012920Y-6459150D01*
X3012920Y-6478198D02*
X3022443Y-6468674D01*
X3022443Y-6468674D02*
X3041491Y-6459150D01*
X3041491Y-6459150D02*
X3070063Y-6459150D01*
X3070063Y-6459150D02*
X3089110Y-6468674D01*
X3089110Y-6468674D02*
X3098634Y-6487722D01*
X3098634Y-6487722D02*
X3098634Y-6592484D01*
X3098634Y-6487722D02*
X3108158Y-6468674D01*
X3108158Y-6468674D02*
X3127205Y-6459150D01*
X3127205Y-6459150D02*
X3155777Y-6459150D01*
X3155777Y-6459150D02*
X3174824Y-6468674D01*
X3174824Y-6468674D02*
X3184348Y-6487722D01*
X3184348Y-6487722D02*
X3184348Y-6592484D01*
X3279586Y-6592484D02*
X3279586Y-6459150D01*
X3279586Y-6478198D02*
X3289110Y-6468674D01*
X3289110Y-6468674D02*
X3308158Y-6459150D01*
X3308158Y-6459150D02*
X3336729Y-6459150D01*
X3336729Y-6459150D02*
X3355777Y-6468674D01*
X3355777Y-6468674D02*
X3365301Y-6487722D01*
X3365301Y-6487722D02*
X3365301Y-6592484D01*
X3365301Y-6487722D02*
X3374824Y-6468674D01*
X3374824Y-6468674D02*
X3393872Y-6459150D01*
X3393872Y-6459150D02*
X3422443Y-6459150D01*
X3422443Y-6459150D02*
X3441491Y-6468674D01*
X3441491Y-6468674D02*
X3451015Y-6487722D01*
X3451015Y-6487722D02*
X3451015Y-6592484D01*
X3841491Y-6382960D02*
X3670063Y-6640103D01*
X4098634Y-6392484D02*
X4117682Y-6392484D01*
X4117682Y-6392484D02*
X4136729Y-6402008D01*
X4136729Y-6402008D02*
X4146253Y-6411531D01*
X4146253Y-6411531D02*
X4155777Y-6430579D01*
X4155777Y-6430579D02*
X4165301Y-6468674D01*
X4165301Y-6468674D02*
X4165301Y-6516293D01*
X4165301Y-6516293D02*
X4155777Y-6554388D01*
X4155777Y-6554388D02*
X4146253Y-6573436D01*
X4146253Y-6573436D02*
X4136729Y-6582960D01*
X4136729Y-6582960D02*
X4117682Y-6592484D01*
X4117682Y-6592484D02*
X4098634Y-6592484D01*
X4098634Y-6592484D02*
X4079586Y-6582960D01*
X4079586Y-6582960D02*
X4070063Y-6573436D01*
X4070063Y-6573436D02*
X4060539Y-6554388D01*
X4060539Y-6554388D02*
X4051015Y-6516293D01*
X4051015Y-6516293D02*
X4051015Y-6468674D01*
X4051015Y-6468674D02*
X4060539Y-6430579D01*
X4060539Y-6430579D02*
X4070063Y-6411531D01*
X4070063Y-6411531D02*
X4079586Y-6402008D01*
X4079586Y-6402008D02*
X4098634Y-6392484D01*
X4251015Y-6573436D02*
X4260539Y-6582960D01*
X4260539Y-6582960D02*
X4251015Y-6592484D01*
X4251015Y-6592484D02*
X4241491Y-6582960D01*
X4241491Y-6582960D02*
X4251015Y-6573436D01*
X4251015Y-6573436D02*
X4251015Y-6592484D01*
X4451015Y-6592484D02*
X4336729Y-6592484D01*
X4393872Y-6592484D02*
X4393872Y-6392484D01*
X4393872Y-6392484D02*
X4374825Y-6421055D01*
X4374825Y-6421055D02*
X4355777Y-6440103D01*
X4355777Y-6440103D02*
X4336729Y-6449627D01*
X4641491Y-6592484D02*
X4527206Y-6592484D01*
X4584348Y-6592484D02*
X4584348Y-6392484D01*
X4584348Y-6392484D02*
X4565301Y-6421055D01*
X4565301Y-6421055D02*
X4546253Y-6440103D01*
X4546253Y-6440103D02*
X4527206Y-6449627D01*
X4755777Y-6478198D02*
X4736729Y-6468674D01*
X4736729Y-6468674D02*
X4727206Y-6459150D01*
X4727206Y-6459150D02*
X4717682Y-6440103D01*
X4717682Y-6440103D02*
X4717682Y-6430579D01*
X4717682Y-6430579D02*
X4727206Y-6411531D01*
X4727206Y-6411531D02*
X4736729Y-6402008D01*
X4736729Y-6402008D02*
X4755777Y-6392484D01*
X4755777Y-6392484D02*
X4793872Y-6392484D01*
X4793872Y-6392484D02*
X4812920Y-6402008D01*
X4812920Y-6402008D02*
X4822444Y-6411531D01*
X4822444Y-6411531D02*
X4831968Y-6430579D01*
X4831968Y-6430579D02*
X4831968Y-6440103D01*
X4831968Y-6440103D02*
X4822444Y-6459150D01*
X4822444Y-6459150D02*
X4812920Y-6468674D01*
X4812920Y-6468674D02*
X4793872Y-6478198D01*
X4793872Y-6478198D02*
X4755777Y-6478198D01*
X4755777Y-6478198D02*
X4736729Y-6487722D01*
X4736729Y-6487722D02*
X4727206Y-6497246D01*
X4727206Y-6497246D02*
X4717682Y-6516293D01*
X4717682Y-6516293D02*
X4717682Y-6554388D01*
X4717682Y-6554388D02*
X4727206Y-6573436D01*
X4727206Y-6573436D02*
X4736729Y-6582960D01*
X4736729Y-6582960D02*
X4755777Y-6592484D01*
X4755777Y-6592484D02*
X4793872Y-6592484D01*
X4793872Y-6592484D02*
X4812920Y-6582960D01*
X4812920Y-6582960D02*
X4822444Y-6573436D01*
X4822444Y-6573436D02*
X4831968Y-6554388D01*
X4831968Y-6554388D02*
X4831968Y-6516293D01*
X4831968Y-6516293D02*
X4822444Y-6497246D01*
X4822444Y-6497246D02*
X4812920Y-6487722D01*
X4812920Y-6487722D02*
X4793872Y-6478198D01*
X5022444Y-6592484D02*
X4908158Y-6592484D01*
X4965301Y-6592484D02*
X4965301Y-6392484D01*
X4965301Y-6392484D02*
X4946253Y-6421055D01*
X4946253Y-6421055D02*
X4927206Y-6440103D01*
X4927206Y-6440103D02*
X4908158Y-6449627D01*
X5098634Y-6392484D02*
X5098634Y-6430579D01*
X5174825Y-6392484D02*
X5174825Y-6430579D01*
X5470063Y-6668674D02*
X5460539Y-6659150D01*
X5460539Y-6659150D02*
X5441491Y-6630579D01*
X5441491Y-6630579D02*
X5431968Y-6611531D01*
X5431968Y-6611531D02*
X5422444Y-6582960D01*
X5422444Y-6582960D02*
X5412920Y-6535341D01*
X5412920Y-6535341D02*
X5412920Y-6497246D01*
X5412920Y-6497246D02*
X5422444Y-6449627D01*
X5422444Y-6449627D02*
X5431968Y-6421055D01*
X5431968Y-6421055D02*
X5441491Y-6402008D01*
X5441491Y-6402008D02*
X5460539Y-6373436D01*
X5460539Y-6373436D02*
X5470063Y-6363912D01*
X5631968Y-6459150D02*
X5631968Y-6592484D01*
X5584349Y-6382960D02*
X5536730Y-6525817D01*
X5536730Y-6525817D02*
X5660539Y-6525817D01*
X5889110Y-6592484D02*
X5889110Y-6392484D01*
X5974825Y-6592484D02*
X5974825Y-6487722D01*
X5974825Y-6487722D02*
X5965301Y-6468674D01*
X5965301Y-6468674D02*
X5946253Y-6459150D01*
X5946253Y-6459150D02*
X5917682Y-6459150D01*
X5917682Y-6459150D02*
X5898634Y-6468674D01*
X5898634Y-6468674D02*
X5889110Y-6478198D01*
X6098634Y-6592484D02*
X6079587Y-6582960D01*
X6079587Y-6582960D02*
X6070063Y-6573436D01*
X6070063Y-6573436D02*
X6060539Y-6554388D01*
X6060539Y-6554388D02*
X6060539Y-6497246D01*
X6060539Y-6497246D02*
X6070063Y-6478198D01*
X6070063Y-6478198D02*
X6079587Y-6468674D01*
X6079587Y-6468674D02*
X6098634Y-6459150D01*
X6098634Y-6459150D02*
X6127206Y-6459150D01*
X6127206Y-6459150D02*
X6146253Y-6468674D01*
X6146253Y-6468674D02*
X6155777Y-6478198D01*
X6155777Y-6478198D02*
X6165301Y-6497246D01*
X6165301Y-6497246D02*
X6165301Y-6554388D01*
X6165301Y-6554388D02*
X6155777Y-6573436D01*
X6155777Y-6573436D02*
X6146253Y-6582960D01*
X6146253Y-6582960D02*
X6127206Y-6592484D01*
X6127206Y-6592484D02*
X6098634Y-6592484D01*
X6279587Y-6592484D02*
X6260539Y-6582960D01*
X6260539Y-6582960D02*
X6251015Y-6563912D01*
X6251015Y-6563912D02*
X6251015Y-6392484D01*
X6431968Y-6582960D02*
X6412920Y-6592484D01*
X6412920Y-6592484D02*
X6374825Y-6592484D01*
X6374825Y-6592484D02*
X6355777Y-6582960D01*
X6355777Y-6582960D02*
X6346253Y-6563912D01*
X6346253Y-6563912D02*
X6346253Y-6487722D01*
X6346253Y-6487722D02*
X6355777Y-6468674D01*
X6355777Y-6468674D02*
X6374825Y-6459150D01*
X6374825Y-6459150D02*
X6412920Y-6459150D01*
X6412920Y-6459150D02*
X6431968Y-6468674D01*
X6431968Y-6468674D02*
X6441491Y-6487722D01*
X6441491Y-6487722D02*
X6441491Y-6506769D01*
X6441491Y-6506769D02*
X6346253Y-6525817D01*
X6517682Y-6582960D02*
X6536730Y-6592484D01*
X6536730Y-6592484D02*
X6574825Y-6592484D01*
X6574825Y-6592484D02*
X6593872Y-6582960D01*
X6593872Y-6582960D02*
X6603396Y-6563912D01*
X6603396Y-6563912D02*
X6603396Y-6554388D01*
X6603396Y-6554388D02*
X6593872Y-6535341D01*
X6593872Y-6535341D02*
X6574825Y-6525817D01*
X6574825Y-6525817D02*
X6546253Y-6525817D01*
X6546253Y-6525817D02*
X6527206Y-6516293D01*
X6527206Y-6516293D02*
X6517682Y-6497246D01*
X6517682Y-6497246D02*
X6517682Y-6487722D01*
X6517682Y-6487722D02*
X6527206Y-6468674D01*
X6527206Y-6468674D02*
X6546253Y-6459150D01*
X6546253Y-6459150D02*
X6574825Y-6459150D01*
X6574825Y-6459150D02*
X6593872Y-6468674D01*
X6670063Y-6668674D02*
X6679587Y-6659150D01*
X6679587Y-6659150D02*
X6698634Y-6630579D01*
X6698634Y-6630579D02*
X6708158Y-6611531D01*
X6708158Y-6611531D02*
X6717682Y-6582960D01*
X6717682Y-6582960D02*
X6727206Y-6535341D01*
X6727206Y-6535341D02*
X6727206Y-6497246D01*
X6727206Y-6497246D02*
X6717682Y-6449627D01*
X6717682Y-6449627D02*
X6708158Y-6421055D01*
X6708158Y-6421055D02*
X6698634Y-6402008D01*
X6698634Y-6402008D02*
X6679587Y-6373436D01*
X6679587Y-6373436D02*
X6670063Y-6363912D01*
M02*
