G04 #@! TF.GenerationSoftware,KiCad,Pcbnew,7.0.8*
G04 #@! TF.CreationDate,2023-11-17T13:56:21+01:00*
G04 #@! TF.ProjectId,shmoergh-dual-rail-psu,73686d6f-6572-4676-982d-6475616c2d72,rev?*
G04 #@! TF.SameCoordinates,Original*
G04 #@! TF.FileFunction,Copper,L1,Top*
G04 #@! TF.FilePolarity,Positive*
%FSLAX46Y46*%
G04 Gerber Fmt 4.6, Leading zero omitted, Abs format (unit mm)*
G04 Created by KiCad (PCBNEW 7.0.8) date 2023-11-17 13:56:21*
%MOMM*%
%LPD*%
G01*
G04 APERTURE LIST*
G04 Aperture macros list*
%AMRoundRect*
0 Rectangle with rounded corners*
0 $1 Rounding radius*
0 $2 $3 $4 $5 $6 $7 $8 $9 X,Y pos of 4 corners*
0 Add a 4 corners polygon primitive as box body*
4,1,4,$2,$3,$4,$5,$6,$7,$8,$9,$2,$3,0*
0 Add four circle primitives for the rounded corners*
1,1,$1+$1,$2,$3*
1,1,$1+$1,$4,$5*
1,1,$1+$1,$6,$7*
1,1,$1+$1,$8,$9*
0 Add four rect primitives between the rounded corners*
20,1,$1+$1,$2,$3,$4,$5,0*
20,1,$1+$1,$4,$5,$6,$7,0*
20,1,$1+$1,$6,$7,$8,$9,0*
20,1,$1+$1,$8,$9,$2,$3,0*%
G04 Aperture macros list end*
G04 #@! TA.AperFunction,ComponentPad*
%ADD10C,6.000000*%
G04 #@! TD*
G04 #@! TA.AperFunction,SMDPad,CuDef*
%ADD11RoundRect,0.200000X-0.275000X0.200000X-0.275000X-0.200000X0.275000X-0.200000X0.275000X0.200000X0*%
G04 #@! TD*
G04 #@! TA.AperFunction,SMDPad,CuDef*
%ADD12RoundRect,0.250000X0.325000X0.650000X-0.325000X0.650000X-0.325000X-0.650000X0.325000X-0.650000X0*%
G04 #@! TD*
G04 #@! TA.AperFunction,SMDPad,CuDef*
%ADD13R,2.500000X1.900000*%
G04 #@! TD*
G04 #@! TA.AperFunction,SMDPad,CuDef*
%ADD14RoundRect,0.200000X-0.200000X0.250000X-0.200000X-0.250000X0.200000X-0.250000X0.200000X0.250000X0*%
G04 #@! TD*
G04 #@! TA.AperFunction,SMDPad,CuDef*
%ADD15R,1.550000X0.600000*%
G04 #@! TD*
G04 #@! TA.AperFunction,SMDPad,CuDef*
%ADD16R,2.950000X4.500000*%
G04 #@! TD*
G04 #@! TA.AperFunction,SMDPad,CuDef*
%ADD17RoundRect,0.200000X-0.200000X-0.275000X0.200000X-0.275000X0.200000X0.275000X-0.200000X0.275000X0*%
G04 #@! TD*
G04 #@! TA.AperFunction,ComponentPad*
%ADD18R,2.600000X2.600000*%
G04 #@! TD*
G04 #@! TA.AperFunction,ComponentPad*
%ADD19C,2.600000*%
G04 #@! TD*
G04 #@! TA.AperFunction,SMDPad,CuDef*
%ADD20R,2.900000X5.400000*%
G04 #@! TD*
G04 #@! TA.AperFunction,SMDPad,CuDef*
%ADD21RoundRect,0.200000X0.275000X-0.200000X0.275000X0.200000X-0.275000X0.200000X-0.275000X-0.200000X0*%
G04 #@! TD*
G04 #@! TA.AperFunction,SMDPad,CuDef*
%ADD22RoundRect,0.200000X0.200000X0.275000X-0.200000X0.275000X-0.200000X-0.275000X0.200000X-0.275000X0*%
G04 #@! TD*
G04 #@! TA.AperFunction,SMDPad,CuDef*
%ADD23RoundRect,0.225000X0.250000X-0.225000X0.250000X0.225000X-0.250000X0.225000X-0.250000X-0.225000X0*%
G04 #@! TD*
G04 #@! TA.AperFunction,SMDPad,CuDef*
%ADD24RoundRect,0.250000X0.650000X-0.325000X0.650000X0.325000X-0.650000X0.325000X-0.650000X-0.325000X0*%
G04 #@! TD*
G04 #@! TA.AperFunction,SMDPad,CuDef*
%ADD25RoundRect,0.225000X-0.225000X-0.250000X0.225000X-0.250000X0.225000X0.250000X-0.225000X0.250000X0*%
G04 #@! TD*
G04 #@! TA.AperFunction,SMDPad,CuDef*
%ADD26RoundRect,0.225000X-0.250000X0.225000X-0.250000X-0.225000X0.250000X-0.225000X0.250000X0.225000X0*%
G04 #@! TD*
G04 #@! TA.AperFunction,SMDPad,CuDef*
%ADD27RoundRect,0.225000X0.225000X0.375000X-0.225000X0.375000X-0.225000X-0.375000X0.225000X-0.375000X0*%
G04 #@! TD*
G04 #@! TA.AperFunction,SMDPad,CuDef*
%ADD28RoundRect,0.243750X-0.456250X0.243750X-0.456250X-0.243750X0.456250X-0.243750X0.456250X0.243750X0*%
G04 #@! TD*
G04 #@! TA.AperFunction,SMDPad,CuDef*
%ADD29RoundRect,0.250000X0.550000X-1.500000X0.550000X1.500000X-0.550000X1.500000X-0.550000X-1.500000X0*%
G04 #@! TD*
G04 #@! TA.AperFunction,SMDPad,CuDef*
%ADD30RoundRect,0.250000X-0.250000X-0.475000X0.250000X-0.475000X0.250000X0.475000X-0.250000X0.475000X0*%
G04 #@! TD*
G04 #@! TA.AperFunction,SMDPad,CuDef*
%ADD31RoundRect,0.225000X-0.225000X-0.375000X0.225000X-0.375000X0.225000X0.375000X-0.225000X0.375000X0*%
G04 #@! TD*
G04 #@! TA.AperFunction,SMDPad,CuDef*
%ADD32RoundRect,0.225000X0.225000X0.250000X-0.225000X0.250000X-0.225000X-0.250000X0.225000X-0.250000X0*%
G04 #@! TD*
G04 #@! TA.AperFunction,SMDPad,CuDef*
%ADD33RoundRect,0.250000X0.250000X0.475000X-0.250000X0.475000X-0.250000X-0.475000X0.250000X-0.475000X0*%
G04 #@! TD*
G04 #@! TA.AperFunction,SMDPad,CuDef*
%ADD34RoundRect,0.225000X-0.375000X0.225000X-0.375000X-0.225000X0.375000X-0.225000X0.375000X0.225000X0*%
G04 #@! TD*
G04 #@! TA.AperFunction,SMDPad,CuDef*
%ADD35RoundRect,0.200000X0.200000X-0.250000X0.200000X0.250000X-0.200000X0.250000X-0.200000X-0.250000X0*%
G04 #@! TD*
G04 #@! TA.AperFunction,SMDPad,CuDef*
%ADD36RoundRect,0.243750X0.243750X0.456250X-0.243750X0.456250X-0.243750X-0.456250X0.243750X-0.456250X0*%
G04 #@! TD*
G04 #@! TA.AperFunction,SMDPad,CuDef*
%ADD37RoundRect,0.250000X-0.650000X0.325000X-0.650000X-0.325000X0.650000X-0.325000X0.650000X0.325000X0*%
G04 #@! TD*
G04 #@! TA.AperFunction,SMDPad,CuDef*
%ADD38RoundRect,0.062500X0.062500X-0.350000X0.062500X0.350000X-0.062500X0.350000X-0.062500X-0.350000X0*%
G04 #@! TD*
G04 #@! TA.AperFunction,SMDPad,CuDef*
%ADD39RoundRect,0.062500X0.350000X-0.062500X0.350000X0.062500X-0.350000X0.062500X-0.350000X-0.062500X0*%
G04 #@! TD*
G04 #@! TA.AperFunction,SMDPad,CuDef*
%ADD40R,2.600000X2.600000*%
G04 #@! TD*
G04 #@! TA.AperFunction,SMDPad,CuDef*
%ADD41RoundRect,0.250000X-1.450000X0.312500X-1.450000X-0.312500X1.450000X-0.312500X1.450000X0.312500X0*%
G04 #@! TD*
G04 #@! TA.AperFunction,ViaPad*
%ADD42C,0.800000*%
G04 #@! TD*
G04 #@! TA.AperFunction,ViaPad*
%ADD43C,0.600000*%
G04 #@! TD*
G04 #@! TA.AperFunction,ViaPad*
%ADD44C,1.000000*%
G04 #@! TD*
G04 #@! TA.AperFunction,Conductor*
%ADD45C,0.750000*%
G04 #@! TD*
G04 #@! TA.AperFunction,Conductor*
%ADD46C,0.500000*%
G04 #@! TD*
G04 #@! TA.AperFunction,Conductor*
%ADD47C,0.300000*%
G04 #@! TD*
G04 #@! TA.AperFunction,Conductor*
%ADD48C,1.500000*%
G04 #@! TD*
G04 #@! TA.AperFunction,Conductor*
%ADD49C,1.000000*%
G04 #@! TD*
G04 APERTURE END LIST*
D10*
X86487000Y-44577000D03*
X86487000Y-18669000D03*
X22352000Y-18415000D03*
X22479000Y-44450000D03*
D11*
X52465000Y-18218500D03*
X52465000Y-19868500D03*
D12*
X72740000Y-31756000D03*
X69790000Y-31756000D03*
D13*
X79215000Y-20806000D03*
X79215000Y-24906000D03*
D14*
X76665000Y-31756000D03*
X74765000Y-31756000D03*
X75715000Y-33756000D03*
D15*
X50283600Y-22036400D03*
X50283600Y-20766400D03*
X50283600Y-19496400D03*
X50283600Y-18226400D03*
X44883600Y-18226400D03*
X44883600Y-19496400D03*
X44883600Y-20766400D03*
X44883600Y-22036400D03*
D16*
X47583600Y-20131400D03*
D17*
X61052500Y-22956000D03*
X62702500Y-22956000D03*
D18*
X24765000Y-28556000D03*
D19*
X24765000Y-33556000D03*
D20*
X43151200Y-30117000D03*
X53051200Y-30117000D03*
D21*
X68215000Y-19831000D03*
X68215000Y-18181000D03*
D17*
X70927500Y-28006000D03*
X72577500Y-28006000D03*
D22*
X44952500Y-16606000D03*
X43302500Y-16606000D03*
D23*
X66615000Y-19781000D03*
X66615000Y-18231000D03*
D24*
X67415000Y-35281000D03*
X67415000Y-32331000D03*
D25*
X52477500Y-22056000D03*
X54027500Y-22056000D03*
D26*
X71415000Y-18231000D03*
X71415000Y-19781000D03*
D27*
X40365000Y-24356000D03*
X37065000Y-24356000D03*
D28*
X28140000Y-40568500D03*
X28140000Y-42443500D03*
D29*
X37065000Y-33706000D03*
X37065000Y-28306000D03*
D24*
X41465000Y-21631000D03*
X41465000Y-18681000D03*
D23*
X64565000Y-23343500D03*
X64565000Y-21793500D03*
D22*
X48027500Y-16606000D03*
X46377500Y-16606000D03*
D18*
X35640000Y-41506000D03*
D19*
X40640000Y-41506000D03*
D26*
X69365000Y-28018500D03*
X69365000Y-29568500D03*
D30*
X75965000Y-27356000D03*
X77865000Y-27356000D03*
D18*
X57865000Y-42418000D03*
D19*
X62865000Y-42418000D03*
X67865000Y-42418000D03*
D28*
X50365000Y-40568500D03*
X50365000Y-42443500D03*
D31*
X60765000Y-28262800D03*
X64065000Y-28262800D03*
D32*
X65052500Y-19356000D03*
X63502500Y-19356000D03*
D33*
X59540000Y-26056000D03*
X57640000Y-26056000D03*
D21*
X30090000Y-42331000D03*
X30090000Y-40681000D03*
X52340000Y-42331000D03*
X52340000Y-40681000D03*
D34*
X74965000Y-22106000D03*
X74965000Y-25406000D03*
D35*
X37065000Y-21556000D03*
X38965000Y-21556000D03*
X38015000Y-19556000D03*
D11*
X62665000Y-24431000D03*
X62665000Y-26081000D03*
D23*
X61140000Y-26031000D03*
X61140000Y-24481000D03*
D13*
X63265000Y-35128800D03*
X63265000Y-31028800D03*
D17*
X57752500Y-24206000D03*
X59402500Y-24206000D03*
D36*
X74422000Y-45720000D03*
X72547000Y-45720000D03*
D37*
X47265000Y-40081000D03*
X47265000Y-43031000D03*
D21*
X69815000Y-19831000D03*
X69815000Y-18181000D03*
D17*
X50852500Y-16606000D03*
X52502500Y-16606000D03*
D38*
X67365000Y-26143500D03*
X67865000Y-26143500D03*
X68365000Y-26143500D03*
X68865000Y-26143500D03*
X69365000Y-26143500D03*
X69865000Y-26143500D03*
D39*
X70552500Y-25456000D03*
X70552500Y-24956000D03*
X70552500Y-24456000D03*
X70552500Y-23956000D03*
X70552500Y-23456000D03*
X70552500Y-22956000D03*
D38*
X69865000Y-22268500D03*
X69365000Y-22268500D03*
X68865000Y-22268500D03*
X68365000Y-22268500D03*
X67865000Y-22268500D03*
X67365000Y-22268500D03*
D39*
X66677500Y-22956000D03*
X66677500Y-23456000D03*
X66677500Y-23956000D03*
X66677500Y-24456000D03*
X66677500Y-24956000D03*
X66677500Y-25456000D03*
D40*
X68615000Y-24206000D03*
D17*
X76137000Y-45466000D03*
X77787000Y-45466000D03*
D41*
X33547000Y-18708500D03*
X33547000Y-22983500D03*
D11*
X79865000Y-27856000D03*
X79865000Y-29506000D03*
D42*
X84855000Y-22606000D03*
X87346646Y-31768000D03*
X87346646Y-24148000D03*
X87200646Y-38989000D03*
X87346646Y-22479000D03*
X87256646Y-29256000D03*
X87256646Y-26756000D03*
X87256646Y-36756000D03*
X87256646Y-34256000D03*
X26543000Y-17653000D03*
D43*
X67765000Y-24206000D03*
X67765000Y-23356000D03*
X68615000Y-23356000D03*
X69465000Y-23356000D03*
X69465000Y-24206000D03*
X69465000Y-25056000D03*
X68615000Y-25056000D03*
X67765000Y-25056000D03*
D42*
X56715000Y-25506000D03*
X56890000Y-24206000D03*
X60190000Y-22956000D03*
X63640000Y-21781000D03*
X62590000Y-19356000D03*
X66590000Y-17331000D03*
X78815000Y-27356000D03*
X80790000Y-27881000D03*
X80940000Y-25156000D03*
X80940000Y-24256000D03*
X77515000Y-24256000D03*
X77515000Y-25156000D03*
X68715000Y-32906000D03*
X68815000Y-31756000D03*
X52340000Y-43181000D03*
X30090000Y-43331000D03*
X29765000Y-16256000D03*
X32265000Y-16256000D03*
X34765000Y-16256000D03*
X37265000Y-16256000D03*
X59765000Y-16256000D03*
X62265000Y-16256000D03*
X64765000Y-16256000D03*
X67265000Y-16256000D03*
X69765000Y-16256000D03*
X72265000Y-16256000D03*
X74765000Y-16256000D03*
X77265000Y-16256000D03*
X79765000Y-16256000D03*
X82265000Y-16256000D03*
X20265000Y-26756000D03*
X20265000Y-41021000D03*
X20265000Y-39256000D03*
X20265000Y-36756000D03*
X20265000Y-34256000D03*
X20265000Y-29256000D03*
X20265000Y-24256000D03*
X20265000Y-21756000D03*
X32265000Y-45756000D03*
X34765000Y-45756000D03*
X52265000Y-45756000D03*
X82265000Y-45756000D03*
X39765000Y-45756000D03*
X42265000Y-45756000D03*
X64765000Y-45756000D03*
X59765000Y-45756000D03*
X47265000Y-45756000D03*
X49765000Y-45756000D03*
X54765000Y-45756000D03*
X67265000Y-45756000D03*
X27265000Y-45756000D03*
X37265000Y-45756000D03*
X44765000Y-45756000D03*
X69765000Y-45756000D03*
X57265000Y-45756000D03*
X62265000Y-45756000D03*
X79765000Y-45756000D03*
X29765000Y-45756000D03*
X66915000Y-28706000D03*
X68015000Y-28706000D03*
X66915000Y-29756000D03*
X68015000Y-29756000D03*
X66915000Y-30806000D03*
X68015000Y-30806000D03*
X29765000Y-19256000D03*
X29765000Y-21756000D03*
X29765000Y-24256000D03*
X27265000Y-24256000D03*
X24765000Y-24256000D03*
X27686000Y-21844000D03*
X27265000Y-19256000D03*
X24257000Y-22606000D03*
X24765000Y-36756000D03*
X24765000Y-39256000D03*
X32265000Y-31756000D03*
X57265000Y-19256000D03*
X59765000Y-19256000D03*
X59765000Y-21756000D03*
X57265000Y-21756000D03*
X82265000Y-26756000D03*
X84765000Y-34256000D03*
X84765000Y-36756000D03*
X32265000Y-36756000D03*
X84765000Y-26756000D03*
X84765000Y-29256000D03*
X39765000Y-16256000D03*
X57265000Y-16256000D03*
X54765000Y-16256000D03*
X43815000Y-19506000D03*
X41465000Y-19806000D03*
X41465000Y-17706000D03*
X42765000Y-18756000D03*
X46565000Y-18306000D03*
X48665000Y-18306000D03*
X46565000Y-19506000D03*
X48665000Y-19506000D03*
X48665000Y-20806000D03*
X46565000Y-20806000D03*
X46565000Y-22056000D03*
X48665000Y-22056000D03*
X48865000Y-16606000D03*
X50015000Y-16606000D03*
X38315000Y-28306000D03*
X35815000Y-28306000D03*
X37065000Y-26106000D03*
X37065000Y-30506000D03*
X36165000Y-24356000D03*
X37965000Y-24356000D03*
X37065000Y-22456000D03*
X56715000Y-26706000D03*
X70915000Y-31756000D03*
X46415000Y-44056000D03*
X48115000Y-44056000D03*
X76265000Y-39256000D03*
X77665000Y-36106000D03*
X77665000Y-34256000D03*
X22465000Y-24256000D03*
X22465000Y-22606000D03*
X22465000Y-36756000D03*
X22465000Y-38608000D03*
X24765000Y-41021000D03*
X77665000Y-30906000D03*
X35865000Y-21556000D03*
X33515000Y-20756000D03*
X82823000Y-21862000D03*
X82931000Y-31768000D03*
X82931000Y-29228000D03*
X71501000Y-37592000D03*
X82315000Y-18560000D03*
X85598000Y-40640000D03*
X88392000Y-40640000D03*
X84709000Y-38989000D03*
X27265000Y-16256000D03*
X82931000Y-39116000D03*
X22606000Y-40386000D03*
X82931000Y-36703000D03*
X71373900Y-45720800D03*
X84855000Y-24148000D03*
X73787000Y-39370000D03*
X82823000Y-24148000D03*
D43*
X68615000Y-24206000D03*
D42*
X73787000Y-37592000D03*
X82423000Y-43688000D03*
X76454000Y-37592000D03*
X71501000Y-39370000D03*
X82931000Y-34308000D03*
X84855000Y-31768000D03*
X74965000Y-24456000D03*
X72365000Y-19793500D03*
D44*
X52015000Y-34256000D03*
D42*
X73215000Y-30206000D03*
X72190000Y-30206000D03*
D44*
X53515000Y-34256000D03*
D42*
X72190000Y-29181000D03*
D44*
X52015000Y-35756000D03*
D42*
X73215000Y-29181000D03*
D44*
X53515000Y-35756000D03*
D43*
X71665000Y-24556000D03*
X71665000Y-23756000D03*
X69365000Y-27456000D03*
D45*
X72547000Y-45720000D02*
X71609500Y-45720000D01*
X78965000Y-25156000D02*
X79215000Y-24906000D01*
X44915000Y-19516000D02*
X43825000Y-19516000D01*
D46*
X79865000Y-27893500D02*
X80777500Y-27893500D01*
D45*
X41465000Y-17706000D02*
X41465000Y-18756000D01*
X57265000Y-26056000D02*
X56715000Y-25506000D01*
X37065000Y-28306000D02*
X38315000Y-28306000D01*
X42765000Y-18756000D02*
X41465000Y-18756000D01*
X48865000Y-16606000D02*
X48027500Y-16606000D01*
X48115000Y-44056000D02*
X48115000Y-43881000D01*
X64565000Y-21793500D02*
X63652500Y-21793500D01*
X30090000Y-43331000D02*
X30090000Y-42331000D01*
X43825000Y-19516000D02*
X43815000Y-19506000D01*
X44915000Y-19516000D02*
X46980000Y-19516000D01*
X37065000Y-28306000D02*
X35815000Y-28306000D01*
X63502500Y-19356000D02*
X62590000Y-19356000D01*
X77515000Y-25156000D02*
X78965000Y-25156000D01*
X57640000Y-26056000D02*
X57365000Y-26056000D01*
X50852500Y-16606000D02*
X50015000Y-16606000D01*
X70915000Y-31756000D02*
X69865000Y-31756000D01*
D47*
X64790000Y-21781000D02*
X64565000Y-21781000D01*
D45*
X77865000Y-27356000D02*
X78815000Y-27356000D01*
X37065000Y-28306000D02*
X37065000Y-26106000D01*
X46415000Y-44056000D02*
X46415000Y-43881000D01*
X37065000Y-21556000D02*
X37065000Y-22456000D01*
X37065000Y-24356000D02*
X36165000Y-24356000D01*
X79865000Y-24256000D02*
X79215000Y-24906000D01*
X37065000Y-28306000D02*
X37065000Y-30506000D01*
X77515000Y-24256000D02*
X78565000Y-24256000D01*
X61052500Y-22956000D02*
X60190000Y-22956000D01*
X52340000Y-43181000D02*
X52340000Y-42331000D01*
X41465000Y-18756000D02*
X41465000Y-19806000D01*
X80940000Y-24256000D02*
X79865000Y-24256000D01*
X37065000Y-24356000D02*
X37965000Y-24356000D01*
X57365000Y-26056000D02*
X56715000Y-26706000D01*
D47*
X66677500Y-22956000D02*
X65965000Y-22956000D01*
D45*
X78565000Y-24256000D02*
X79215000Y-24906000D01*
X48115000Y-43881000D02*
X47265000Y-43031000D01*
X46415000Y-43881000D02*
X47265000Y-43031000D01*
X79465000Y-25156000D02*
X79215000Y-24906000D01*
X57752500Y-24206000D02*
X56890000Y-24206000D01*
X66615000Y-18231000D02*
X66615000Y-17356000D01*
D46*
X80777500Y-27893500D02*
X80790000Y-27881000D01*
D47*
X65965000Y-22956000D02*
X64790000Y-21781000D01*
D45*
X80940000Y-25156000D02*
X79465000Y-25156000D01*
X66615000Y-17356000D02*
X66590000Y-17331000D01*
X63652500Y-21793500D02*
X63640000Y-21781000D01*
X57640000Y-26056000D02*
X57265000Y-26056000D01*
D46*
X50365000Y-42443500D02*
X50365000Y-43606000D01*
X54865000Y-44506000D02*
X57865000Y-41506000D01*
X51265000Y-44506000D02*
X54865000Y-44506000D01*
X50365000Y-43606000D02*
X51265000Y-44506000D01*
X71415000Y-19793500D02*
X71415000Y-19793500D01*
X69815000Y-19793500D02*
X71415000Y-19793500D01*
D45*
X76137000Y-43370000D02*
X76200000Y-43307000D01*
D47*
X68865000Y-22268500D02*
X68865000Y-20743500D01*
X68865000Y-20743500D02*
X69815000Y-19793500D01*
D46*
X71415000Y-19793500D02*
X72365000Y-19793500D01*
D45*
X76137000Y-45466000D02*
X76137000Y-43370000D01*
D46*
X32640000Y-44506000D02*
X35640000Y-41506000D01*
D45*
X55615000Y-24656000D02*
X53065000Y-27206000D01*
D46*
X28140000Y-43881000D02*
X28765000Y-44506000D01*
D45*
X55040000Y-19831000D02*
X55615000Y-20406000D01*
D46*
X28140000Y-42443500D02*
X28140000Y-43881000D01*
D45*
X55615000Y-20406000D02*
X55615000Y-24656000D01*
X52465000Y-19831000D02*
X55040000Y-19831000D01*
X53065000Y-27206000D02*
X53065000Y-30206000D01*
D46*
X28765000Y-44506000D02*
X32640000Y-44506000D01*
X40865000Y-16606000D02*
X39615000Y-17856000D01*
D48*
X40265000Y-21556000D02*
X38965000Y-21556000D01*
D46*
X43340000Y-16606000D02*
X40865000Y-16606000D01*
D48*
X41465000Y-21556000D02*
X40265000Y-21556000D01*
D49*
X44915000Y-20786000D02*
X42235000Y-20786000D01*
D46*
X39615000Y-20906000D02*
X40265000Y-21556000D01*
D49*
X42235000Y-20786000D02*
X41465000Y-21556000D01*
D46*
X39615000Y-17856000D02*
X39615000Y-20906000D01*
D47*
X70552500Y-23456000D02*
X71365000Y-23456000D01*
X71465000Y-23956000D02*
X71665000Y-23756000D01*
X71365000Y-23456000D02*
X71665000Y-23756000D01*
X71265000Y-24956000D02*
X71665000Y-24556000D01*
X68865000Y-27506000D02*
X69365000Y-28006000D01*
X70552500Y-23456000D02*
X70552500Y-24956000D01*
X70552500Y-24456000D02*
X71565000Y-24456000D01*
X70552500Y-24956000D02*
X71265000Y-24956000D01*
X70552500Y-23956000D02*
X71465000Y-23956000D01*
X71565000Y-24456000D02*
X71665000Y-24556000D01*
X68865000Y-26143500D02*
X68865000Y-27506000D01*
D45*
X52465000Y-22056000D02*
X50315000Y-22056000D01*
X54040000Y-23481000D02*
X53515000Y-24006000D01*
X53515000Y-24006000D02*
X46015000Y-24006000D01*
X46015000Y-24006000D02*
X44915000Y-22906000D01*
X44915000Y-22906000D02*
X44915000Y-22056000D01*
X54040000Y-22056000D02*
X54040000Y-23481000D01*
D47*
X65165000Y-23956000D02*
X64565000Y-23356000D01*
X66677500Y-23956000D02*
X65165000Y-23956000D01*
D46*
X62665000Y-22956000D02*
X62665000Y-24468500D01*
D47*
X62677500Y-24456000D02*
X62665000Y-24468500D01*
X66677500Y-24456000D02*
X62677500Y-24456000D01*
D46*
X61140000Y-24468500D02*
X62665000Y-24468500D01*
D47*
X68365000Y-22268500D02*
X68365000Y-19943500D01*
D46*
X68240000Y-19793500D02*
X69815000Y-18218500D01*
D47*
X68365000Y-19943500D02*
X68215000Y-19793500D01*
D46*
X69815000Y-18218500D02*
X71415000Y-18218500D01*
X68215000Y-19793500D02*
X68240000Y-19793500D01*
X66615000Y-19793500D02*
X66640000Y-19793500D01*
X66640000Y-19793500D02*
X68215000Y-18218500D01*
D47*
X67865000Y-22268500D02*
X67865000Y-21043500D01*
X67865000Y-21043500D02*
X66615000Y-19793500D01*
X65065000Y-20056000D02*
X65065000Y-19356000D01*
X65765000Y-20756000D02*
X65065000Y-20056000D01*
X66565000Y-20756000D02*
X65765000Y-20756000D01*
X67365000Y-22268500D02*
X67365000Y-21556000D01*
X67365000Y-21556000D02*
X66565000Y-20756000D01*
D45*
X28140000Y-40568500D02*
X29940000Y-40568500D01*
X29940000Y-40568500D02*
X30090000Y-40718500D01*
X52190000Y-40568500D02*
X52340000Y-40718500D01*
X50365000Y-40568500D02*
X52190000Y-40568500D01*
X77787000Y-45466000D02*
X76644000Y-46609000D01*
X75311000Y-46609000D02*
X74422000Y-45720000D01*
X76644000Y-46609000D02*
X75311000Y-46609000D01*
D48*
X33515000Y-18668500D02*
X37127500Y-18668500D01*
X37127500Y-18668500D02*
X38015000Y-19556000D01*
D47*
X72765000Y-25456000D02*
X74465000Y-27156000D01*
X76665000Y-31156000D02*
X76665000Y-31756000D01*
X74465000Y-27156000D02*
X74465000Y-28956000D01*
X70552500Y-25456000D02*
X72765000Y-25456000D01*
X74465000Y-28956000D02*
X76665000Y-31156000D01*
D45*
X44915000Y-16606000D02*
X46415000Y-16606000D01*
X44915000Y-18246000D02*
X44915000Y-16606000D01*
X52455000Y-18246000D02*
X52465000Y-18256000D01*
X50315000Y-18246000D02*
X52455000Y-18246000D01*
X52465000Y-18256000D02*
X52465000Y-16606000D01*
G04 #@! TA.AperFunction,Conductor*
G36*
X81361983Y-19306538D02*
G01*
X81470857Y-19320871D01*
X81502624Y-19329383D01*
X81592572Y-19366641D01*
X81621051Y-19383084D01*
X81708175Y-19449936D01*
X81714362Y-19455362D01*
X81915636Y-19656636D01*
X81921068Y-19662830D01*
X81987913Y-19749944D01*
X82004360Y-19778430D01*
X82041615Y-19868372D01*
X82050128Y-19900143D01*
X82064460Y-20009007D01*
X82065000Y-20017239D01*
X82065000Y-21901867D01*
X82064460Y-21910099D01*
X82050128Y-22018963D01*
X82041615Y-22050734D01*
X82004361Y-22140673D01*
X81987914Y-22169160D01*
X81928650Y-22246393D01*
X81905393Y-22269650D01*
X81828160Y-22328914D01*
X81799673Y-22345361D01*
X81709734Y-22382615D01*
X81677963Y-22391128D01*
X81569099Y-22405460D01*
X81560867Y-22406000D01*
X77015000Y-22406000D01*
X76875931Y-22521888D01*
X76875930Y-22521890D01*
X76562493Y-22783089D01*
X76544552Y-22795572D01*
X76423360Y-22865131D01*
X76382413Y-22879956D01*
X76269493Y-22899768D01*
X76244780Y-22904104D01*
X76223007Y-22906000D01*
X73126240Y-22906000D01*
X73118008Y-22905460D01*
X73009144Y-22891128D01*
X72977372Y-22882615D01*
X72887430Y-22845360D01*
X72858944Y-22828913D01*
X72771825Y-22762064D01*
X72765635Y-22756635D01*
X72711447Y-22702447D01*
X72565000Y-22556000D01*
X72357895Y-22556000D01*
X71180079Y-22556000D01*
X71122877Y-22542267D01*
X71081730Y-22521302D01*
X71031716Y-22495818D01*
X71012372Y-22492754D01*
X70935003Y-22480500D01*
X70934999Y-22480500D01*
X70169999Y-22480500D01*
X70073286Y-22495817D01*
X70014406Y-22525818D01*
X69983104Y-22541767D01*
X69925902Y-22555500D01*
X69621761Y-22555500D01*
X69602051Y-22553949D01*
X69581416Y-22550681D01*
X69526553Y-22541991D01*
X69489062Y-22529809D01*
X69427053Y-22498214D01*
X69395161Y-22475042D01*
X69392363Y-22472244D01*
X69358337Y-22409932D01*
X69356741Y-22365218D01*
X69365500Y-22304299D01*
X69365500Y-21812202D01*
X69385502Y-21744081D01*
X69391527Y-21735512D01*
X69408943Y-21712815D01*
X69414355Y-21706644D01*
X69615644Y-21505355D01*
X69621816Y-21499942D01*
X69708951Y-21433081D01*
X69737423Y-21416642D01*
X69827377Y-21379382D01*
X69859140Y-21370872D01*
X69968016Y-21356538D01*
X69976240Y-21356000D01*
X73057886Y-21356000D01*
X73057893Y-21356000D01*
X73265000Y-21356000D01*
X73765000Y-20856000D01*
X73765000Y-20017239D01*
X73765538Y-20009017D01*
X73779872Y-19900140D01*
X73788382Y-19868377D01*
X73825642Y-19778423D01*
X73842081Y-19749951D01*
X73908942Y-19662816D01*
X73914355Y-19656644D01*
X74115644Y-19455355D01*
X74121816Y-19449942D01*
X74208951Y-19383081D01*
X74237423Y-19366642D01*
X74327377Y-19329382D01*
X74359140Y-19320872D01*
X74468016Y-19306538D01*
X74476240Y-19306000D01*
X81353760Y-19306000D01*
X81361983Y-19306538D01*
G37*
G04 #@! TD.AperFunction*
G04 #@! TA.AperFunction,Conductor*
G36*
X72328533Y-25976002D02*
G01*
X72352334Y-25995823D01*
X73780922Y-27519650D01*
X73812920Y-27583027D01*
X73815000Y-27605827D01*
X73815000Y-30356000D01*
X74912810Y-30356000D01*
X74980931Y-30376002D01*
X75001905Y-30392905D01*
X75428095Y-30819095D01*
X75462121Y-30881407D01*
X75465000Y-30908190D01*
X75465000Y-32203810D01*
X75444998Y-32271931D01*
X75428095Y-32292905D01*
X75001905Y-32719095D01*
X74939593Y-32753121D01*
X74912810Y-32756000D01*
X71891000Y-32756000D01*
X71822879Y-32735998D01*
X71776386Y-32682342D01*
X71765000Y-32630000D01*
X71765000Y-27356001D01*
X71765000Y-27356000D01*
X71315000Y-26856000D01*
X69817190Y-26856000D01*
X69749069Y-26835998D01*
X69728095Y-26819095D01*
X69302405Y-26393405D01*
X69268379Y-26331093D01*
X69265500Y-26304310D01*
X69265500Y-26111982D01*
X69265194Y-26108099D01*
X69265000Y-26103154D01*
X69265000Y-26082000D01*
X69285002Y-26013879D01*
X69338658Y-25967386D01*
X69391000Y-25956000D01*
X72260412Y-25956000D01*
X72328533Y-25976002D01*
G37*
G04 #@! TD.AperFunction*
G04 #@! TA.AperFunction,Conductor*
G36*
X71157121Y-27276002D02*
G01*
X71203614Y-27329658D01*
X71215000Y-27382000D01*
X71215000Y-28530000D01*
X71194998Y-28598121D01*
X71141342Y-28644614D01*
X71089000Y-28656000D01*
X69317190Y-28656000D01*
X69249069Y-28635998D01*
X69228095Y-28619095D01*
X68801905Y-28192905D01*
X68767879Y-28130593D01*
X68765000Y-28103810D01*
X68765000Y-27382000D01*
X68785002Y-27313879D01*
X68838658Y-27267386D01*
X68891000Y-27256000D01*
X71089000Y-27256000D01*
X71157121Y-27276002D01*
G37*
G04 #@! TD.AperFunction*
G04 #@! TA.AperFunction,Conductor*
G36*
X59532904Y-23668231D02*
G01*
X59564667Y-23676741D01*
X59635922Y-23706256D01*
X59664403Y-23722701D01*
X59735470Y-23777233D01*
X59741664Y-23782664D01*
X59965636Y-24006636D01*
X59971068Y-24012830D01*
X60037913Y-24099944D01*
X60054360Y-24128430D01*
X60091615Y-24218372D01*
X60100128Y-24250143D01*
X60114460Y-24359007D01*
X60115000Y-24367239D01*
X60115000Y-24956000D01*
X60261451Y-25102451D01*
X60261461Y-25102462D01*
X60468537Y-25309538D01*
X60468547Y-25309547D01*
X60615000Y-25456000D01*
X63357886Y-25456000D01*
X63357893Y-25456000D01*
X63565000Y-25456000D01*
X63715630Y-25305369D01*
X63721817Y-25299941D01*
X63808954Y-25233079D01*
X63837423Y-25216642D01*
X63927377Y-25179382D01*
X63959140Y-25170872D01*
X64068016Y-25156538D01*
X64076240Y-25156000D01*
X64489605Y-25156000D01*
X64489609Y-25156000D01*
X64665000Y-25156000D01*
X64946250Y-24931000D01*
X65019732Y-24872214D01*
X65037352Y-24860406D01*
X65106128Y-24822291D01*
X65167202Y-24806500D01*
X66706536Y-24806500D01*
X66706540Y-24806500D01*
X66792881Y-24792092D01*
X66792883Y-24792091D01*
X66802755Y-24788702D01*
X66803807Y-24791768D01*
X66844363Y-24781499D01*
X66927363Y-24781499D01*
X66995484Y-24801501D01*
X67016458Y-24818404D01*
X67017680Y-24819626D01*
X67050291Y-24876108D01*
X67056261Y-24898387D01*
X67056261Y-24963614D01*
X67050291Y-24985892D01*
X67017680Y-25042373D01*
X67001372Y-25058681D01*
X66944890Y-25091291D01*
X66926550Y-25096206D01*
X66893939Y-25100500D01*
X66264258Y-25100500D01*
X66250590Y-25101413D01*
X66250584Y-25101413D01*
X66250581Y-25101414D01*
X66220573Y-25105440D01*
X66212187Y-25106000D01*
X65865000Y-25106000D01*
X65721971Y-25236026D01*
X65721963Y-25236032D01*
X65478669Y-25457209D01*
X65478665Y-25457213D01*
X65315000Y-25606000D01*
X65315000Y-25827185D01*
X65315000Y-25827188D01*
X65315000Y-25930428D01*
X65314393Y-25939157D01*
X65298286Y-26054431D01*
X65288727Y-26087967D01*
X65246988Y-26182321D01*
X65228602Y-26211955D01*
X65154139Y-26301416D01*
X65148089Y-26307737D01*
X64910908Y-26523356D01*
X64904864Y-26528207D01*
X64820557Y-26587741D01*
X64793312Y-26602339D01*
X64707956Y-26635339D01*
X64677975Y-26642865D01*
X64575546Y-26655524D01*
X64567812Y-26656000D01*
X61765000Y-26656000D01*
X61618558Y-26802442D01*
X61618537Y-26802461D01*
X61411461Y-27009537D01*
X61411442Y-27009558D01*
X61265000Y-27156000D01*
X61265000Y-27363104D01*
X61265000Y-31494760D01*
X61264460Y-31502992D01*
X61250128Y-31611856D01*
X61241615Y-31643627D01*
X61204360Y-31733569D01*
X61187913Y-31762055D01*
X61121068Y-31849169D01*
X61115629Y-31855371D01*
X60914371Y-32056629D01*
X60908169Y-32062068D01*
X60821055Y-32128913D01*
X60792569Y-32145360D01*
X60702627Y-32182615D01*
X60670856Y-32191128D01*
X60561992Y-32205460D01*
X60553760Y-32206000D01*
X59915000Y-32206000D01*
X59768558Y-32352442D01*
X59768537Y-32352461D01*
X59560452Y-32560546D01*
X59560439Y-32560561D01*
X59415000Y-32706000D01*
X59414002Y-32911684D01*
X59414002Y-32911686D01*
X59376441Y-40648890D01*
X59356108Y-40716913D01*
X59302227Y-40763144D01*
X59232277Y-40772962D01*
X59198222Y-40768000D01*
X58615000Y-40768000D01*
X58615000Y-43006000D01*
X58145587Y-43006000D01*
X58180629Y-42992126D01*
X58313492Y-42895595D01*
X58418175Y-42769055D01*
X58488100Y-42620457D01*
X58518873Y-42459138D01*
X58508561Y-42295234D01*
X58457812Y-42139044D01*
X58369814Y-42000381D01*
X58250097Y-41887960D01*
X58106183Y-41808842D01*
X57947114Y-41768000D01*
X57824106Y-41768000D01*
X57702067Y-41783417D01*
X57549371Y-41843874D01*
X57416508Y-41940405D01*
X57311825Y-42066945D01*
X57241900Y-42215543D01*
X57211127Y-42376862D01*
X57221439Y-42540766D01*
X57272188Y-42696956D01*
X57360186Y-42835619D01*
X57479903Y-42948040D01*
X57585331Y-43006000D01*
X57115000Y-43006000D01*
X57115000Y-40768000D01*
X56531781Y-40768000D01*
X56509163Y-40771296D01*
X56438871Y-40761323D01*
X56385129Y-40714929D01*
X56365000Y-40646846D01*
X56365000Y-28267239D01*
X56365538Y-28259017D01*
X56379872Y-28150140D01*
X56388382Y-28118377D01*
X56425642Y-28028423D01*
X56442081Y-27999951D01*
X56508942Y-27912816D01*
X56514355Y-27906644D01*
X56715644Y-27705355D01*
X56721816Y-27699942D01*
X56808951Y-27633081D01*
X56837423Y-27616642D01*
X56927377Y-27579382D01*
X56959140Y-27570872D01*
X57068016Y-27556538D01*
X57076240Y-27556000D01*
X58057886Y-27556000D01*
X58057893Y-27556000D01*
X58265000Y-27556000D01*
X58765000Y-27056000D01*
X58765000Y-24367239D01*
X58765538Y-24359017D01*
X58779872Y-24250140D01*
X58788382Y-24218377D01*
X58825642Y-24128423D01*
X58842081Y-24099951D01*
X58908942Y-24012816D01*
X58914355Y-24006644D01*
X59138342Y-23782657D01*
X59144529Y-23777233D01*
X59215596Y-23722701D01*
X59244074Y-23706258D01*
X59315334Y-23676740D01*
X59347093Y-23668231D01*
X59423555Y-23658165D01*
X59456445Y-23658165D01*
X59532904Y-23668231D01*
G37*
G04 #@! TD.AperFunction*
G04 #@! TA.AperFunction,Conductor*
G36*
X76280931Y-33276002D02*
G01*
X76301905Y-33292905D01*
X76728095Y-33719095D01*
X76762121Y-33781407D01*
X76765000Y-33808190D01*
X76765000Y-35903810D01*
X76744998Y-35971931D01*
X76728095Y-35992905D01*
X76301905Y-36419095D01*
X76239593Y-36453121D01*
X76212810Y-36456000D01*
X61217190Y-36456000D01*
X61149069Y-36435998D01*
X61128095Y-36419095D01*
X60701905Y-35992905D01*
X60667879Y-35930593D01*
X60665000Y-35903810D01*
X60665000Y-34608190D01*
X60685002Y-34540069D01*
X60701905Y-34519095D01*
X61128095Y-34092905D01*
X61190407Y-34058879D01*
X61217190Y-34056000D01*
X74264999Y-34056000D01*
X74265000Y-34056000D01*
X74565000Y-33756000D01*
X75028095Y-33292905D01*
X75090407Y-33258879D01*
X75117190Y-33256000D01*
X76212810Y-33256000D01*
X76280931Y-33276002D01*
G37*
G04 #@! TD.AperFunction*
G04 #@! TA.AperFunction,Conductor*
G36*
X67007121Y-25326002D02*
G01*
X67053614Y-25379658D01*
X67065000Y-25432000D01*
X67065000Y-25956000D01*
X67339000Y-25956000D01*
X67407121Y-25976002D01*
X67453614Y-26029658D01*
X67465000Y-26082000D01*
X67465000Y-27203810D01*
X67444998Y-27271931D01*
X67428095Y-27292905D01*
X67001905Y-27719095D01*
X66939593Y-27753121D01*
X66912810Y-27756000D01*
X66464998Y-27756000D01*
X65965000Y-28255998D01*
X65965000Y-31603810D01*
X65944998Y-31671931D01*
X65928095Y-31692905D01*
X65501905Y-32119095D01*
X65439593Y-32153121D01*
X65412810Y-32156000D01*
X62515000Y-32156000D01*
X62091000Y-32156000D01*
X62022879Y-32135998D01*
X61976386Y-32082342D01*
X61965000Y-32030000D01*
X61965000Y-27708190D01*
X61985002Y-27640069D01*
X62001905Y-27619095D01*
X62428095Y-27192905D01*
X62490407Y-27158879D01*
X62517190Y-27156000D01*
X65265000Y-27156000D01*
X65765000Y-26656000D01*
X65765000Y-25854351D01*
X65785002Y-25786230D01*
X65797345Y-25770061D01*
X66177461Y-25347710D01*
X66237899Y-25310457D01*
X66271116Y-25306000D01*
X66939000Y-25306000D01*
X67007121Y-25326002D01*
G37*
G04 #@! TD.AperFunction*
G04 #@! TA.AperFunction,Conductor*
G36*
X68465000Y-27156000D02*
G01*
X68465000Y-28656000D01*
X68965000Y-29156000D01*
X70065000Y-29156000D01*
X70565000Y-29656000D01*
X70565000Y-32856000D01*
X70065000Y-33356000D01*
X66965000Y-33356000D01*
X66465000Y-32856000D01*
X66465000Y-28756000D01*
X66965000Y-28256000D01*
X67765000Y-28256000D01*
X67765000Y-24806000D01*
X68415000Y-24806000D01*
X68465000Y-27156000D01*
G37*
G04 #@! TD.AperFunction*
G04 #@! TA.AperFunction,Conductor*
G36*
X34051621Y-22441002D02*
G01*
X34098114Y-22494658D01*
X34109500Y-22547000D01*
X34109500Y-24045999D01*
X34639000Y-24045999D01*
X34707121Y-24066001D01*
X34753614Y-24119657D01*
X34765000Y-24171999D01*
X34765000Y-29002905D01*
X34764696Y-29009084D01*
X34747001Y-29188738D01*
X34742183Y-29212962D01*
X34692482Y-29376808D01*
X34683029Y-29399629D01*
X34602318Y-29550627D01*
X34588595Y-29571165D01*
X34479979Y-29703514D01*
X34462514Y-29720979D01*
X34330165Y-29829595D01*
X34309627Y-29843318D01*
X34158629Y-29924029D01*
X34135808Y-29933482D01*
X33971962Y-29983183D01*
X33947738Y-29988001D01*
X33768085Y-30005696D01*
X33761906Y-30006000D01*
X26691000Y-30006000D01*
X26622879Y-29985998D01*
X26576386Y-29932342D01*
X26565000Y-29880000D01*
X26565000Y-29306000D01*
X24141000Y-29306000D01*
X24072879Y-29285998D01*
X24026386Y-29232342D01*
X24015000Y-29180000D01*
X24015000Y-28514862D01*
X24111127Y-28514862D01*
X24121439Y-28678766D01*
X24172188Y-28834956D01*
X24260186Y-28973619D01*
X24379903Y-29086040D01*
X24523817Y-29165158D01*
X24682886Y-29206000D01*
X24805894Y-29206000D01*
X24927933Y-29190583D01*
X25080629Y-29130126D01*
X25213492Y-29033595D01*
X25318175Y-28907055D01*
X25388100Y-28758457D01*
X25418873Y-28597138D01*
X25408561Y-28433234D01*
X25357812Y-28277044D01*
X25269814Y-28138381D01*
X25150097Y-28025960D01*
X25006183Y-27946842D01*
X24847114Y-27906000D01*
X24724106Y-27906000D01*
X24602067Y-27921417D01*
X24449371Y-27981874D01*
X24316508Y-28078405D01*
X24211825Y-28204945D01*
X24141900Y-28353543D01*
X24111127Y-28514862D01*
X24015000Y-28514862D01*
X24015000Y-27932000D01*
X24035002Y-27863879D01*
X24088658Y-27817386D01*
X24141000Y-27806000D01*
X26565000Y-27806000D01*
X26565000Y-27382000D01*
X26585002Y-27313879D01*
X26638658Y-27267386D01*
X26691000Y-27256000D01*
X31264991Y-27256000D01*
X31265000Y-27256000D01*
X32265000Y-27256000D01*
X32265000Y-24171999D01*
X32285002Y-24103878D01*
X32338658Y-24057385D01*
X32391000Y-24045999D01*
X32984500Y-24045999D01*
X32984500Y-22547000D01*
X33004502Y-22478879D01*
X33058158Y-22432386D01*
X33110500Y-22421000D01*
X33983500Y-22421000D01*
X34051621Y-22441002D01*
G37*
G04 #@! TD.AperFunction*
G04 #@! TA.AperFunction,Conductor*
G36*
X43700721Y-21656502D02*
G01*
X43747214Y-21710158D01*
X43751344Y-21729145D01*
X43758599Y-21736400D01*
X45057600Y-21736400D01*
X45125721Y-21756402D01*
X45172214Y-21810058D01*
X45183600Y-21862400D01*
X45183600Y-22686399D01*
X45389000Y-22686399D01*
X45457121Y-22706401D01*
X45503614Y-22760057D01*
X45515000Y-22812399D01*
X45515000Y-33251867D01*
X45514460Y-33260099D01*
X45500128Y-33368963D01*
X45491615Y-33400734D01*
X45454361Y-33490673D01*
X45437914Y-33519160D01*
X45378650Y-33596393D01*
X45355393Y-33619650D01*
X45278160Y-33678914D01*
X45249673Y-33695361D01*
X45159734Y-33732615D01*
X45127963Y-33741128D01*
X45019099Y-33755460D01*
X45010867Y-33756000D01*
X41269133Y-33756000D01*
X41260901Y-33755460D01*
X41152037Y-33741128D01*
X41120265Y-33732615D01*
X41030326Y-33695361D01*
X41001839Y-33678914D01*
X40924606Y-33619650D01*
X40901349Y-33596393D01*
X40842085Y-33519160D01*
X40825638Y-33490673D01*
X40788384Y-33400734D01*
X40779871Y-33368961D01*
X40765538Y-33260090D01*
X40765000Y-33251867D01*
X40765000Y-30867000D01*
X41351201Y-30867000D01*
X41351201Y-32850216D01*
X41361111Y-32918247D01*
X41361112Y-32918248D01*
X41412414Y-33023190D01*
X41495009Y-33105785D01*
X41495011Y-33105786D01*
X41599948Y-33157086D01*
X41599950Y-33157087D01*
X41667982Y-33166999D01*
X42401200Y-33166999D01*
X42401200Y-30867000D01*
X43901200Y-30867000D01*
X43901200Y-33166999D01*
X44634417Y-33166999D01*
X44702447Y-33157088D01*
X44702448Y-33157087D01*
X44807390Y-33105785D01*
X44889985Y-33023190D01*
X44889986Y-33023188D01*
X44941286Y-32918251D01*
X44941287Y-32918249D01*
X44951199Y-32850220D01*
X44951200Y-32850214D01*
X44951200Y-30867000D01*
X43901200Y-30867000D01*
X42401200Y-30867000D01*
X41351201Y-30867000D01*
X40765000Y-30867000D01*
X40765000Y-29367000D01*
X41351200Y-29367000D01*
X42401200Y-29367000D01*
X42401200Y-27067000D01*
X43901200Y-27067000D01*
X43901200Y-29367000D01*
X44951199Y-29367000D01*
X44951199Y-27383783D01*
X44941288Y-27315752D01*
X44941287Y-27315751D01*
X44889985Y-27210809D01*
X44807390Y-27128214D01*
X44807388Y-27128213D01*
X44702451Y-27076913D01*
X44702449Y-27076912D01*
X44634420Y-27067000D01*
X43901200Y-27067000D01*
X42401200Y-27067000D01*
X41667983Y-27067000D01*
X41599952Y-27076911D01*
X41599951Y-27076912D01*
X41495009Y-27128214D01*
X41412414Y-27210809D01*
X41412413Y-27210811D01*
X41361113Y-27315748D01*
X41361112Y-27315750D01*
X41351200Y-27383779D01*
X41351200Y-29367000D01*
X40765000Y-29367000D01*
X40765000Y-25756007D01*
X40765000Y-25756000D01*
X40765000Y-25280888D01*
X40879980Y-25233263D01*
X41000095Y-25141095D01*
X41092263Y-25020980D01*
X41150199Y-24881105D01*
X41160088Y-24806000D01*
X40041000Y-24806000D01*
X39972879Y-24785998D01*
X39926386Y-24732342D01*
X39915000Y-24680000D01*
X39915000Y-24032000D01*
X39935002Y-23963879D01*
X39988658Y-23917386D01*
X40041000Y-23906000D01*
X41160088Y-23906000D01*
X41160087Y-23905999D01*
X41150199Y-23830894D01*
X41092263Y-23691019D01*
X41000095Y-23570904D01*
X40884183Y-23481962D01*
X40842316Y-23424625D01*
X40838094Y-23353754D01*
X40872858Y-23291851D01*
X40935571Y-23258569D01*
X40960887Y-23256000D01*
X42764993Y-23256000D01*
X42765000Y-23256000D01*
X43265000Y-23256000D01*
X43265000Y-22336400D01*
X43758601Y-22336400D01*
X43758601Y-22369616D01*
X43768511Y-22437647D01*
X43768512Y-22437648D01*
X43819814Y-22542590D01*
X43902409Y-22625185D01*
X43902411Y-22625186D01*
X44007348Y-22676486D01*
X44007350Y-22676487D01*
X44075382Y-22686399D01*
X44583600Y-22686399D01*
X44583600Y-22336400D01*
X43758601Y-22336400D01*
X43265000Y-22336400D01*
X43265000Y-22010132D01*
X43265538Y-22001910D01*
X43279872Y-21893033D01*
X43288382Y-21861270D01*
X43325640Y-21771321D01*
X43342083Y-21742841D01*
X43385859Y-21685794D01*
X43443198Y-21643928D01*
X43485820Y-21636500D01*
X43632600Y-21636500D01*
X43700721Y-21656502D01*
G37*
G04 #@! TD.AperFunction*
G04 #@! TA.AperFunction,Conductor*
G36*
X75861983Y-24056538D02*
G01*
X75970857Y-24070871D01*
X76002624Y-24079383D01*
X76092572Y-24116641D01*
X76121051Y-24133084D01*
X76208175Y-24199936D01*
X76214362Y-24205362D01*
X76415636Y-24406636D01*
X76421064Y-24412825D01*
X76487913Y-24499944D01*
X76504360Y-24528430D01*
X76541615Y-24618372D01*
X76550128Y-24650143D01*
X76564460Y-24759007D01*
X76565000Y-24767239D01*
X76565000Y-26200951D01*
X76544998Y-26269072D01*
X76509003Y-26305716D01*
X76465000Y-26335118D01*
X76465000Y-28376880D01*
X76517592Y-28355097D01*
X76524741Y-28350970D01*
X76525532Y-28352340D01*
X76582981Y-28330123D01*
X76652531Y-28344380D01*
X76658036Y-28349036D01*
X76711451Y-28402451D01*
X76711461Y-28402462D01*
X76918537Y-28609538D01*
X76918547Y-28609547D01*
X77065000Y-28756000D01*
X79063141Y-28756000D01*
X79131262Y-28776002D01*
X79177755Y-28829658D01*
X79187859Y-28899932D01*
X79163538Y-28958134D01*
X79106079Y-29033904D01*
X79106077Y-29033907D01*
X79077648Y-29105999D01*
X79077648Y-29106000D01*
X80652352Y-29106000D01*
X80652351Y-29105999D01*
X80623922Y-29033907D01*
X80623920Y-29033904D01*
X80566462Y-28958134D01*
X80541238Y-28891769D01*
X80555898Y-28822303D01*
X80605788Y-28771790D01*
X80666859Y-28756000D01*
X80903760Y-28756000D01*
X80911983Y-28756538D01*
X81020857Y-28770871D01*
X81052624Y-28779383D01*
X81142572Y-28816641D01*
X81171051Y-28833084D01*
X81258175Y-28899936D01*
X81264362Y-28905362D01*
X81465636Y-29106636D01*
X81471068Y-29112830D01*
X81537913Y-29199944D01*
X81554360Y-29228430D01*
X81591615Y-29318372D01*
X81600128Y-29350143D01*
X81614460Y-29459007D01*
X81615000Y-29467239D01*
X81615000Y-43012729D01*
X81613692Y-43026067D01*
X81613699Y-43031000D01*
X81614263Y-43416723D01*
X81614308Y-43447643D01*
X81614335Y-43465574D01*
X81612809Y-43485309D01*
X81595884Y-43593064D01*
X81583731Y-43630609D01*
X81538858Y-43718885D01*
X81515687Y-43750830D01*
X81445709Y-43820893D01*
X81413793Y-43844102D01*
X81402826Y-43849695D01*
X81325572Y-43889084D01*
X81288040Y-43901282D01*
X81180306Y-43918337D01*
X81160574Y-43919887D01*
X68756189Y-43916830D01*
X68756188Y-43916830D01*
X68756186Y-43916831D01*
X68317877Y-43916723D01*
X68300811Y-43914472D01*
X67820264Y-43433924D01*
X67818000Y-43416723D01*
X67818000Y-43068000D01*
X67905894Y-43068000D01*
X68027933Y-43052583D01*
X68180629Y-42992126D01*
X68313492Y-42895595D01*
X68418175Y-42769055D01*
X68488100Y-42620457D01*
X68518873Y-42459138D01*
X68516285Y-42417999D01*
X68925660Y-42417999D01*
X69438515Y-42930854D01*
X69439097Y-42929450D01*
X69499724Y-42676915D01*
X69520101Y-42418000D01*
X69499724Y-42159085D01*
X69439094Y-41906541D01*
X69438516Y-41905144D01*
X68925660Y-42417999D01*
X68516285Y-42417999D01*
X68508561Y-42295234D01*
X68457812Y-42139044D01*
X68369814Y-42000381D01*
X68250097Y-41887960D01*
X68106183Y-41808842D01*
X67947114Y-41768000D01*
X67824106Y-41768000D01*
X67818000Y-41768771D01*
X67818000Y-41404339D01*
X68377855Y-40844482D01*
X68371936Y-40814768D01*
X68378244Y-40744052D01*
X68421783Y-40687973D01*
X68488729Y-40664334D01*
X68495245Y-40664152D01*
X70559437Y-40660351D01*
X78576264Y-40645587D01*
X78515000Y-30006000D01*
X78017871Y-30006000D01*
X76726240Y-30006000D01*
X76718008Y-30005460D01*
X76609144Y-29991128D01*
X76577372Y-29982615D01*
X76487430Y-29945360D01*
X76458944Y-29928913D01*
X76429083Y-29906000D01*
X79077648Y-29906000D01*
X79106077Y-29978092D01*
X79106079Y-29978095D01*
X79197434Y-30098565D01*
X79317902Y-30189919D01*
X79458554Y-30245385D01*
X79458562Y-30245387D01*
X79465000Y-30246159D01*
X79465000Y-29906000D01*
X80265000Y-29906000D01*
X80265000Y-30246158D01*
X80271437Y-30245387D01*
X80271445Y-30245385D01*
X80412097Y-30189919D01*
X80532565Y-30098565D01*
X80623920Y-29978095D01*
X80623922Y-29978092D01*
X80652351Y-29906000D01*
X80265000Y-29906000D01*
X79465000Y-29906000D01*
X79077648Y-29906000D01*
X76429083Y-29906000D01*
X76371825Y-29862064D01*
X76365636Y-29856636D01*
X75414362Y-28905362D01*
X75408936Y-28899175D01*
X75342084Y-28812051D01*
X75325641Y-28783572D01*
X75288383Y-28693624D01*
X75279871Y-28661854D01*
X75272984Y-28609538D01*
X75265538Y-28552983D01*
X75265000Y-28544760D01*
X75265000Y-28482610D01*
X75285002Y-28414489D01*
X75338658Y-28367996D01*
X75408932Y-28357892D01*
X75439217Y-28366201D01*
X75465000Y-28376880D01*
X75465000Y-26285789D01*
X75485002Y-26217668D01*
X75538658Y-26171175D01*
X75542783Y-26169380D01*
X75629980Y-26133263D01*
X75750095Y-26041095D01*
X75842257Y-25920987D01*
X75842262Y-25920979D01*
X75869178Y-25856000D01*
X74641000Y-25856000D01*
X74572879Y-25835998D01*
X74526386Y-25782342D01*
X74515000Y-25730000D01*
X74515000Y-24610912D01*
X75415000Y-24610912D01*
X75415000Y-24956000D01*
X75869177Y-24956000D01*
X75842262Y-24891020D01*
X75842257Y-24891012D01*
X75750095Y-24770904D01*
X75629980Y-24678736D01*
X75490105Y-24620800D01*
X75415000Y-24610912D01*
X74515000Y-24610912D01*
X74514999Y-24610912D01*
X74439892Y-24620800D01*
X74431919Y-24622937D01*
X74431039Y-24619655D01*
X74375415Y-24624951D01*
X74312320Y-24592400D01*
X74276840Y-24530905D01*
X74274375Y-24484791D01*
X74279871Y-24443039D01*
X74288382Y-24411270D01*
X74325640Y-24321321D01*
X74342082Y-24292843D01*
X74401351Y-24215603D01*
X74424603Y-24192351D01*
X74501843Y-24133082D01*
X74530321Y-24116640D01*
X74620270Y-24079382D01*
X74652033Y-24070872D01*
X74760909Y-24056538D01*
X74769133Y-24056000D01*
X75853760Y-24056000D01*
X75861983Y-24056538D01*
G37*
G04 #@! TD.AperFunction*
G04 #@! TA.AperFunction,Conductor*
G36*
X71170775Y-29172783D02*
G01*
X71230832Y-29221176D01*
X71258646Y-29293114D01*
X71259500Y-29309047D01*
X71259500Y-32629994D01*
X71259501Y-32630014D01*
X71271049Y-32737434D01*
X71271053Y-32737454D01*
X71282433Y-32789771D01*
X71282436Y-32789782D01*
X71282438Y-32789791D01*
X71310151Y-32873056D01*
X71316567Y-32892333D01*
X71394352Y-33013371D01*
X71439531Y-33065511D01*
X71440605Y-33066821D01*
X71453974Y-33078405D01*
X71549586Y-33161252D01*
X71680464Y-33221022D01*
X71712380Y-33230393D01*
X71748580Y-33241023D01*
X71748583Y-33241023D01*
X71748585Y-33241024D01*
X71783887Y-33246099D01*
X71838951Y-33254017D01*
X71909852Y-33284378D01*
X71956073Y-33346122D01*
X71965229Y-33422705D01*
X71934868Y-33493606D01*
X71873124Y-33539827D01*
X71817746Y-33550500D01*
X61203654Y-33550500D01*
X61176623Y-33551948D01*
X61176625Y-33551948D01*
X61150920Y-33554711D01*
X61136380Y-33556274D01*
X61119064Y-33559080D01*
X61082951Y-33564932D01*
X61082950Y-33564932D01*
X60948135Y-33615217D01*
X60885829Y-33649240D01*
X60770657Y-33735459D01*
X60770653Y-33735463D01*
X60334893Y-34171223D01*
X60316804Y-34191359D01*
X60291409Y-34222871D01*
X60280220Y-34238386D01*
X60259748Y-34266774D01*
X60259746Y-34266778D01*
X60197767Y-34402495D01*
X60196019Y-34401697D01*
X60156416Y-34457299D01*
X60086254Y-34489331D01*
X60009476Y-34481990D01*
X59946655Y-34437244D01*
X59914623Y-34367082D01*
X59912565Y-34341668D01*
X59913295Y-34191357D01*
X59919186Y-32977691D01*
X59939509Y-32903291D01*
X59962821Y-32873061D01*
X60080744Y-32755140D01*
X60147539Y-32716577D01*
X60186102Y-32711500D01*
X60562038Y-32711500D01*
X60562039Y-32711500D01*
X60578587Y-32710958D01*
X60603328Y-32709335D01*
X60619778Y-32707714D01*
X60753243Y-32690144D01*
X60753244Y-32690143D01*
X60753248Y-32690143D01*
X60785704Y-32683687D01*
X60785708Y-32683686D01*
X60785709Y-32683686D01*
X60849441Y-32666609D01*
X60849440Y-32666609D01*
X60849444Y-32666608D01*
X60880784Y-32655969D01*
X61001305Y-32606048D01*
X61020088Y-32596785D01*
X61030994Y-32591407D01*
X61030993Y-32591407D01*
X61088139Y-32558413D01*
X61107877Y-32545224D01*
X61115657Y-32540026D01*
X61222461Y-32458072D01*
X61235249Y-32447577D01*
X61253889Y-32431230D01*
X61265964Y-32419921D01*
X61337697Y-32348187D01*
X61404490Y-32309624D01*
X61481618Y-32309624D01*
X61548413Y-32348187D01*
X61568401Y-32372991D01*
X61594349Y-32413367D01*
X61594352Y-32413370D01*
X61594354Y-32413373D01*
X61609827Y-32431230D01*
X61639531Y-32465511D01*
X61640605Y-32466821D01*
X61651822Y-32476540D01*
X61749586Y-32561252D01*
X61880464Y-32621022D01*
X61911088Y-32630014D01*
X61948580Y-32641023D01*
X61948583Y-32641023D01*
X61948585Y-32641024D01*
X62091000Y-32661500D01*
X62091004Y-32661500D01*
X65426343Y-32661500D01*
X65426346Y-32661500D01*
X65453376Y-32660051D01*
X65453375Y-32660052D01*
X65479079Y-32657288D01*
X65493620Y-32655726D01*
X65547051Y-32647067D01*
X65681859Y-32596785D01*
X65744171Y-32562759D01*
X65859347Y-32476537D01*
X66295107Y-32040777D01*
X66313196Y-32020641D01*
X66338591Y-31989129D01*
X66370252Y-31945224D01*
X66430022Y-31814346D01*
X66450024Y-31746225D01*
X66465000Y-31642063D01*
X66465000Y-32856000D01*
X66965000Y-33356000D01*
X70065000Y-33356000D01*
X70565000Y-32856000D01*
X70565000Y-29656000D01*
X70070500Y-29161500D01*
X71088995Y-29161500D01*
X71089000Y-29161500D01*
X71094568Y-29160901D01*
X71170775Y-29172783D01*
G37*
G04 #@! TD.AperFunction*
G04 #@! TA.AperFunction,Conductor*
G36*
X68472897Y-28584459D02*
G01*
X68542032Y-28696544D01*
X68661956Y-28816468D01*
X68774036Y-28885600D01*
X68801173Y-28907057D01*
X68880223Y-28986107D01*
X68900357Y-29004194D01*
X68900358Y-29004195D01*
X68919587Y-29019692D01*
X68931871Y-29029591D01*
X68946458Y-29040110D01*
X68975774Y-29061251D01*
X68975776Y-29061252D01*
X69106654Y-29121022D01*
X69138570Y-29130393D01*
X69174770Y-29141023D01*
X69174773Y-29141023D01*
X69174775Y-29141024D01*
X69278936Y-29156000D01*
X68965000Y-29156000D01*
X68465000Y-28656000D01*
X68465000Y-28574471D01*
X68472897Y-28584459D01*
G37*
G04 #@! TD.AperFunction*
G04 #@! TA.AperFunction,Conductor*
G36*
X66470500Y-28750500D02*
G01*
X66470500Y-28527100D01*
X66490462Y-28452600D01*
X66514141Y-28421741D01*
X66630741Y-28305141D01*
X66697536Y-28266577D01*
X66736100Y-28261500D01*
X66926343Y-28261500D01*
X66926346Y-28261500D01*
X66953376Y-28260051D01*
X66953375Y-28260052D01*
X66961860Y-28259139D01*
X66470500Y-28750500D01*
G37*
G04 #@! TD.AperFunction*
G04 #@! TA.AperFunction,Conductor*
G36*
X67765000Y-28256000D02*
G01*
X66991069Y-28256000D01*
X66993620Y-28255726D01*
X67047051Y-28247067D01*
X67181859Y-28196785D01*
X67244171Y-28162759D01*
X67359347Y-28076537D01*
X67765000Y-27670884D01*
X67765000Y-28256000D01*
G37*
G04 #@! TD.AperFunction*
G04 #@! TA.AperFunction,Conductor*
G36*
X69084254Y-23166485D02*
G01*
X69145747Y-23166478D01*
X69145845Y-23165735D01*
X69151490Y-23166478D01*
X69153549Y-23166478D01*
X69153574Y-23166485D01*
X69155522Y-23167006D01*
X69155528Y-23167009D01*
X69155534Y-23167009D01*
X69155535Y-23167010D01*
X69168166Y-23168672D01*
X69265599Y-23181500D01*
X69464400Y-23181499D01*
X69473526Y-23180297D01*
X69549991Y-23190362D01*
X69611183Y-23237313D01*
X69640701Y-23308569D01*
X69640702Y-23347465D01*
X69639500Y-23356596D01*
X69639500Y-23555395D01*
X69640172Y-23560500D01*
X69652180Y-23651717D01*
X69653993Y-23665484D01*
X69654519Y-23667448D01*
X69654519Y-23669479D01*
X69655266Y-23675154D01*
X69654519Y-23675252D01*
X69654519Y-23736746D01*
X69655265Y-23736845D01*
X69654519Y-23742511D01*
X69654519Y-23744550D01*
X69653991Y-23746520D01*
X69639500Y-23856594D01*
X69639500Y-24055395D01*
X69653993Y-24165484D01*
X69654519Y-24167448D01*
X69654519Y-24169479D01*
X69655266Y-24175154D01*
X69654519Y-24175252D01*
X69654519Y-24236746D01*
X69655265Y-24236845D01*
X69654519Y-24242511D01*
X69654519Y-24244550D01*
X69653991Y-24246520D01*
X69639500Y-24356594D01*
X69639500Y-24555395D01*
X69653993Y-24665484D01*
X69654519Y-24667448D01*
X69654519Y-24669479D01*
X69655266Y-24675154D01*
X69654519Y-24675252D01*
X69654519Y-24736746D01*
X69655265Y-24736845D01*
X69654519Y-24742511D01*
X69654519Y-24744550D01*
X69653991Y-24746520D01*
X69639500Y-24856594D01*
X69639500Y-25055398D01*
X69639501Y-25055402D01*
X69640703Y-25064533D01*
X69630633Y-25141001D01*
X69583678Y-25202189D01*
X69512420Y-25231702D01*
X69473533Y-25231702D01*
X69464401Y-25230500D01*
X69265604Y-25230500D01*
X69206492Y-25238282D01*
X69155528Y-25244991D01*
X69155526Y-25244991D01*
X69155515Y-25244993D01*
X69153548Y-25245520D01*
X69151513Y-25245519D01*
X69145846Y-25246266D01*
X69145747Y-25245519D01*
X69084253Y-25245519D01*
X69084155Y-25246265D01*
X69078488Y-25245519D01*
X69076446Y-25245519D01*
X69074472Y-25244990D01*
X68964403Y-25230500D01*
X68765603Y-25230500D01*
X68655528Y-25244991D01*
X68518572Y-25301719D01*
X68427041Y-25371953D01*
X68415000Y-24806000D01*
X67765000Y-24806000D01*
X67765000Y-25342827D01*
X67711429Y-25301721D01*
X67711428Y-25301720D01*
X67711426Y-25301719D01*
X67671630Y-25285235D01*
X67610440Y-25238282D01*
X67580925Y-25167025D01*
X67580925Y-25128128D01*
X67590500Y-25055401D01*
X67590499Y-24856600D01*
X67576009Y-24746528D01*
X67576006Y-24746520D01*
X67575485Y-24744575D01*
X67575484Y-24742547D01*
X67574734Y-24736844D01*
X67575484Y-24736745D01*
X67575479Y-24675253D01*
X67574735Y-24675155D01*
X67575479Y-24669502D01*
X67575479Y-24667447D01*
X67575486Y-24667422D01*
X67576005Y-24665479D01*
X67576009Y-24665472D01*
X67590500Y-24555401D01*
X67590499Y-24356600D01*
X67576009Y-24246528D01*
X67576006Y-24246520D01*
X67575485Y-24244575D01*
X67575484Y-24242547D01*
X67574734Y-24236844D01*
X67575484Y-24236745D01*
X67575479Y-24175253D01*
X67574735Y-24175155D01*
X67575479Y-24169502D01*
X67575479Y-24167447D01*
X67575486Y-24167422D01*
X67576005Y-24165479D01*
X67576009Y-24165472D01*
X67590500Y-24055401D01*
X67590499Y-23856600D01*
X67576009Y-23746528D01*
X67576006Y-23746520D01*
X67575485Y-23744575D01*
X67575484Y-23742547D01*
X67574734Y-23736844D01*
X67575484Y-23736745D01*
X67575479Y-23675253D01*
X67574735Y-23675155D01*
X67575479Y-23669502D01*
X67575479Y-23667447D01*
X67575486Y-23667422D01*
X67576005Y-23665479D01*
X67576009Y-23665472D01*
X67590500Y-23555401D01*
X67590499Y-23356600D01*
X67589297Y-23347472D01*
X67599363Y-23271006D01*
X67646314Y-23209816D01*
X67717570Y-23180298D01*
X67756469Y-23180298D01*
X67765599Y-23181500D01*
X67964400Y-23181499D01*
X68074472Y-23167009D01*
X68074477Y-23167006D01*
X68076421Y-23166486D01*
X68078444Y-23166485D01*
X68084156Y-23165734D01*
X68084254Y-23166485D01*
X68145747Y-23166478D01*
X68145845Y-23165735D01*
X68151490Y-23166478D01*
X68153549Y-23166478D01*
X68153574Y-23166485D01*
X68155522Y-23167006D01*
X68155528Y-23167009D01*
X68155534Y-23167009D01*
X68155535Y-23167010D01*
X68168166Y-23168672D01*
X68265599Y-23181500D01*
X68464400Y-23181499D01*
X68574472Y-23167009D01*
X68574477Y-23167006D01*
X68576421Y-23166486D01*
X68578444Y-23166485D01*
X68584156Y-23165734D01*
X68584254Y-23166485D01*
X68645747Y-23166478D01*
X68645845Y-23165735D01*
X68651490Y-23166478D01*
X68653549Y-23166478D01*
X68653574Y-23166485D01*
X68655522Y-23167006D01*
X68655528Y-23167009D01*
X68655534Y-23167009D01*
X68655535Y-23167010D01*
X68668166Y-23168672D01*
X68765599Y-23181500D01*
X68964400Y-23181499D01*
X69074472Y-23167009D01*
X69074477Y-23167006D01*
X69076421Y-23166486D01*
X69078444Y-23166485D01*
X69084156Y-23165734D01*
X69084254Y-23166485D01*
G37*
G04 #@! TD.AperFunction*
G04 #@! TA.AperFunction,Conductor*
G36*
X85502566Y-15045462D02*
G01*
X85557104Y-15100000D01*
X85577066Y-15174500D01*
X85557104Y-15249000D01*
X85502566Y-15303538D01*
X85466630Y-15318423D01*
X85403805Y-15335256D01*
X85403784Y-15335263D01*
X85061277Y-15466739D01*
X85061261Y-15466746D01*
X84734354Y-15633314D01*
X84734341Y-15633321D01*
X84426634Y-15833148D01*
X84141490Y-16064054D01*
X83882054Y-16323490D01*
X83651148Y-16608634D01*
X83451321Y-16916341D01*
X83451314Y-16916354D01*
X83284746Y-17243261D01*
X83284739Y-17243277D01*
X83153263Y-17585784D01*
X83153256Y-17585805D01*
X83058297Y-17940197D01*
X83058296Y-17940199D01*
X83000897Y-18302601D01*
X82981696Y-18669000D01*
X83000897Y-19035398D01*
X83058296Y-19397800D01*
X83058297Y-19397802D01*
X83153256Y-19752194D01*
X83153263Y-19752215D01*
X83284739Y-20094722D01*
X83284746Y-20094738D01*
X83451314Y-20421645D01*
X83451321Y-20421658D01*
X83649263Y-20726462D01*
X83651149Y-20729366D01*
X83882051Y-21014506D01*
X84141494Y-21273949D01*
X84307446Y-21408334D01*
X84426634Y-21504851D01*
X84734341Y-21704678D01*
X84734345Y-21704680D01*
X84734348Y-21704682D01*
X85061264Y-21871255D01*
X85061276Y-21871259D01*
X85061277Y-21871260D01*
X85403784Y-22002736D01*
X85403794Y-22002739D01*
X85403801Y-22002742D01*
X85758206Y-22097705D01*
X86120596Y-22155102D01*
X86487000Y-22174304D01*
X86853404Y-22155102D01*
X87215794Y-22097705D01*
X87570199Y-22002742D01*
X87912736Y-21871255D01*
X88239652Y-21704682D01*
X88547366Y-21504851D01*
X88832506Y-21273949D01*
X89091949Y-21014506D01*
X89322851Y-20729366D01*
X89522682Y-20421652D01*
X89689255Y-20094736D01*
X89689266Y-20094707D01*
X89689380Y-20094454D01*
X89689428Y-20094393D01*
X89691026Y-20091259D01*
X89691692Y-20091598D01*
X89737917Y-20034513D01*
X89809921Y-20006871D01*
X89886100Y-20018934D01*
X89946041Y-20067471D01*
X89973683Y-20139475D01*
X89974500Y-20155054D01*
X89974500Y-43090945D01*
X89954538Y-43165445D01*
X89900000Y-43219983D01*
X89825500Y-43239945D01*
X89751000Y-43219983D01*
X89696462Y-43165445D01*
X89689386Y-43151558D01*
X89689259Y-43151274D01*
X89689258Y-43151272D01*
X89689255Y-43151264D01*
X89522682Y-42824348D01*
X89522680Y-42824345D01*
X89522678Y-42824341D01*
X89322851Y-42516634D01*
X89091949Y-42231494D01*
X88832506Y-41972051D01*
X88547366Y-41741149D01*
X88547367Y-41741149D01*
X88547365Y-41741148D01*
X88239658Y-41541321D01*
X88239645Y-41541314D01*
X87912738Y-41374746D01*
X87912722Y-41374739D01*
X87570215Y-41243263D01*
X87570194Y-41243256D01*
X87215802Y-41148297D01*
X87215800Y-41148296D01*
X87201297Y-41145999D01*
X86948388Y-41105942D01*
X86853398Y-41090897D01*
X86487000Y-41071696D01*
X86120601Y-41090897D01*
X85758199Y-41148296D01*
X85758197Y-41148297D01*
X85403805Y-41243256D01*
X85403784Y-41243263D01*
X85061277Y-41374739D01*
X85061261Y-41374746D01*
X84734354Y-41541314D01*
X84734341Y-41541321D01*
X84426634Y-41741148D01*
X84141490Y-41972054D01*
X83882054Y-42231490D01*
X83651148Y-42516634D01*
X83451321Y-42824341D01*
X83451314Y-42824354D01*
X83284746Y-43151261D01*
X83284739Y-43151277D01*
X83153263Y-43493784D01*
X83153256Y-43493805D01*
X83058297Y-43848197D01*
X83058296Y-43848199D01*
X83000897Y-44210601D01*
X82981696Y-44577000D01*
X83000897Y-44943398D01*
X83020567Y-45067589D01*
X83047681Y-45238783D01*
X83058296Y-45305800D01*
X83058297Y-45305802D01*
X83153256Y-45660194D01*
X83153263Y-45660215D01*
X83284739Y-46002722D01*
X83284746Y-46002738D01*
X83451314Y-46329645D01*
X83451321Y-46329658D01*
X83651148Y-46637365D01*
X83654094Y-46641003D01*
X83882051Y-46922506D01*
X84141494Y-47181949D01*
X84360672Y-47359436D01*
X84426634Y-47412851D01*
X84734341Y-47612678D01*
X84734354Y-47612685D01*
X84891470Y-47692740D01*
X84948787Y-47744349D01*
X84972621Y-47817702D01*
X84956585Y-47893145D01*
X84904976Y-47950462D01*
X84831623Y-47974296D01*
X84823825Y-47974500D01*
X23869190Y-47974500D01*
X23794690Y-47954538D01*
X23740152Y-47900000D01*
X23720190Y-47825500D01*
X23740152Y-47751000D01*
X23794690Y-47696462D01*
X23815783Y-47686400D01*
X23904736Y-47652255D01*
X24231652Y-47485682D01*
X24539366Y-47285851D01*
X24824506Y-47054949D01*
X25083949Y-46795506D01*
X25314851Y-46510366D01*
X25514682Y-46202652D01*
X25681255Y-45875736D01*
X25812742Y-45533199D01*
X25907705Y-45178794D01*
X25965102Y-44816404D01*
X25984304Y-44450000D01*
X25965102Y-44083596D01*
X25907705Y-43721206D01*
X25812742Y-43366801D01*
X25812739Y-43366794D01*
X25812736Y-43366784D01*
X25681260Y-43024277D01*
X25681259Y-43024276D01*
X25681255Y-43024264D01*
X25534808Y-42736848D01*
X26939500Y-42736848D01*
X26949913Y-42838775D01*
X27004638Y-43003925D01*
X27095974Y-43152003D01*
X27218997Y-43275026D01*
X27218999Y-43275027D01*
X27219000Y-43275028D01*
X27318721Y-43336537D01*
X27371650Y-43392638D01*
X27389500Y-43463353D01*
X27389500Y-43815472D01*
X27387927Y-43837067D01*
X27384711Y-43859021D01*
X27389216Y-43910521D01*
X27389500Y-43917017D01*
X27389500Y-43924709D01*
X27390672Y-43934734D01*
X27393306Y-43957274D01*
X27400000Y-44033798D01*
X27401754Y-44042288D01*
X27401465Y-44042347D01*
X27402471Y-44046888D01*
X27402760Y-44046820D01*
X27404760Y-44055260D01*
X27415674Y-44085245D01*
X27431025Y-44127423D01*
X27448814Y-44181106D01*
X27455187Y-44200336D01*
X27458852Y-44208197D01*
X27458584Y-44208321D01*
X27460603Y-44212493D01*
X27460867Y-44212361D01*
X27464760Y-44220113D01*
X27486346Y-44252933D01*
X27506965Y-44284283D01*
X27547288Y-44349656D01*
X27547289Y-44349657D01*
X27547293Y-44349663D01*
X27552672Y-44356466D01*
X27552439Y-44356649D01*
X27555368Y-44360245D01*
X27555597Y-44360054D01*
X27561169Y-44366695D01*
X27561170Y-44366696D01*
X27617019Y-44419387D01*
X27953448Y-44755815D01*
X28187982Y-44990349D01*
X28202139Y-45006730D01*
X28215390Y-45024530D01*
X28224232Y-45031950D01*
X28254990Y-45057759D01*
X28259784Y-45062151D01*
X28265222Y-45067589D01*
X28290938Y-45087923D01*
X28349788Y-45137304D01*
X28357041Y-45142074D01*
X28356876Y-45142323D01*
X28360774Y-45144806D01*
X28360932Y-45144551D01*
X28368318Y-45149106D01*
X28368323Y-45149110D01*
X28437914Y-45181561D01*
X28506567Y-45216040D01*
X28506568Y-45216040D01*
X28506572Y-45216042D01*
X28514724Y-45219009D01*
X28514621Y-45219291D01*
X28518990Y-45220810D01*
X28519085Y-45220525D01*
X28527322Y-45223253D01*
X28527327Y-45223256D01*
X28602532Y-45238784D01*
X28677279Y-45256500D01*
X28677283Y-45256501D01*
X28685898Y-45257508D01*
X28685863Y-45257803D01*
X28690469Y-45258273D01*
X28690495Y-45257977D01*
X28699138Y-45258732D01*
X28699139Y-45258731D01*
X28699144Y-45258733D01*
X28775898Y-45256500D01*
X32574472Y-45256500D01*
X32596067Y-45258073D01*
X32597433Y-45258273D01*
X32618023Y-45261289D01*
X32657870Y-45257803D01*
X32669522Y-45256784D01*
X32676017Y-45256500D01*
X32683712Y-45256500D01*
X32716275Y-45252693D01*
X32792797Y-45245999D01*
X32792806Y-45245995D01*
X32801294Y-45244244D01*
X32801354Y-45244537D01*
X32805877Y-45243534D01*
X32805808Y-45243243D01*
X32814253Y-45241241D01*
X32814255Y-45241241D01*
X32886423Y-45214974D01*
X32959334Y-45190814D01*
X32959343Y-45190808D01*
X32967199Y-45187146D01*
X32967325Y-45187417D01*
X32971494Y-45185399D01*
X32971360Y-45185132D01*
X32979102Y-45181242D01*
X32979117Y-45181237D01*
X33027963Y-45149110D01*
X33043284Y-45139034D01*
X33075969Y-45118873D01*
X33108656Y-45098712D01*
X33108659Y-45098708D01*
X33115466Y-45093327D01*
X33115652Y-45093562D01*
X33119242Y-45090637D01*
X33119049Y-45090407D01*
X33125691Y-45084833D01*
X33125696Y-45084830D01*
X33178386Y-45028981D01*
X34857226Y-43350139D01*
X34924021Y-43311576D01*
X34962585Y-43306499D01*
X36987864Y-43306499D01*
X36987872Y-43306499D01*
X37047483Y-43300091D01*
X37143447Y-43264298D01*
X37182329Y-43249797D01*
X37182333Y-43249795D01*
X37295009Y-43165445D01*
X37297546Y-43163546D01*
X37360017Y-43080096D01*
X37360451Y-43079516D01*
X40127143Y-43079516D01*
X40128544Y-43080095D01*
X40381077Y-43140723D01*
X40640000Y-43161101D01*
X40898922Y-43140723D01*
X41151452Y-43080096D01*
X41151457Y-43080095D01*
X41152854Y-43079516D01*
X40640000Y-42566660D01*
X40127143Y-43079516D01*
X37360451Y-43079516D01*
X37383795Y-43048333D01*
X37383797Y-43048329D01*
X37420398Y-42950195D01*
X37434091Y-42913483D01*
X37440500Y-42853873D01*
X37440499Y-41506000D01*
X38984898Y-41506000D01*
X39005276Y-41764922D01*
X39065903Y-42017453D01*
X39065906Y-42017462D01*
X39066482Y-42018854D01*
X39066483Y-42018854D01*
X39579338Y-41505999D01*
X39538201Y-41464862D01*
X39986127Y-41464862D01*
X39996439Y-41628766D01*
X40047188Y-41784956D01*
X40135186Y-41923619D01*
X40254903Y-42036040D01*
X40398817Y-42115158D01*
X40557886Y-42156000D01*
X40680894Y-42156000D01*
X40802933Y-42140583D01*
X40955629Y-42080126D01*
X41088492Y-41983595D01*
X41193175Y-41857055D01*
X41263100Y-41708457D01*
X41293873Y-41547138D01*
X41291285Y-41505999D01*
X41700660Y-41505999D01*
X42213516Y-42018854D01*
X42214095Y-42017457D01*
X42214096Y-42017452D01*
X42274723Y-41764922D01*
X42295101Y-41506000D01*
X42274723Y-41247077D01*
X42214095Y-40994544D01*
X42213515Y-40993143D01*
X41700660Y-41505999D01*
X41291285Y-41505999D01*
X41283561Y-41383234D01*
X41232812Y-41227044D01*
X41144814Y-41088381D01*
X41025097Y-40975960D01*
X40881183Y-40896842D01*
X40722114Y-40856000D01*
X40599106Y-40856000D01*
X40477067Y-40871417D01*
X40324371Y-40931874D01*
X40191508Y-41028405D01*
X40086825Y-41154945D01*
X40016900Y-41303543D01*
X39986127Y-41464862D01*
X39538201Y-41464862D01*
X39066483Y-40993144D01*
X39065901Y-40994553D01*
X39005276Y-41247077D01*
X38984898Y-41506000D01*
X37440499Y-41506000D01*
X37440499Y-40404069D01*
X37460461Y-40329570D01*
X37508946Y-40278722D01*
X37522373Y-40270094D01*
X37574522Y-40224906D01*
X37575824Y-40223838D01*
X37576029Y-40223600D01*
X37576031Y-40223600D01*
X37670252Y-40114862D01*
X37730022Y-39983984D01*
X37745144Y-39932483D01*
X40127144Y-39932483D01*
X40639999Y-40445338D01*
X41152854Y-39932483D01*
X41152854Y-39932482D01*
X41151462Y-39931906D01*
X41151453Y-39931903D01*
X40898922Y-39871276D01*
X40640000Y-39850898D01*
X40381077Y-39871276D01*
X40128553Y-39931901D01*
X40127144Y-39932483D01*
X37745144Y-39932483D01*
X37750024Y-39915863D01*
X37770500Y-39773448D01*
X37770500Y-38160500D01*
X37790462Y-38086000D01*
X37845000Y-38031462D01*
X37919500Y-38011500D01*
X45610500Y-38011500D01*
X45685000Y-38031462D01*
X45739538Y-38086000D01*
X45759500Y-38160500D01*
X45759500Y-39078765D01*
X45761472Y-39110293D01*
X45761473Y-39110295D01*
X45767353Y-39157115D01*
X45767353Y-39157114D01*
X45779111Y-39219122D01*
X45779113Y-39219127D01*
X45834160Y-39352038D01*
X45834170Y-39352057D01*
X45870385Y-39413101D01*
X45870532Y-39413296D01*
X45870556Y-39413356D01*
X45872626Y-39416451D01*
X45871973Y-39416887D01*
X45899265Y-39484872D01*
X45892773Y-39549569D01*
X45875001Y-39603201D01*
X45875001Y-39603202D01*
X45875001Y-39603203D01*
X45865643Y-39694809D01*
X45864500Y-39705995D01*
X45864500Y-40456003D01*
X45867580Y-40486149D01*
X45875001Y-40558797D01*
X45930186Y-40725334D01*
X46022288Y-40874656D01*
X46146344Y-40998712D01*
X46295666Y-41090814D01*
X46462203Y-41145999D01*
X46564991Y-41156500D01*
X46770562Y-41156499D01*
X46791770Y-41158015D01*
X46816000Y-41161500D01*
X47713994Y-41161500D01*
X47714000Y-41161500D01*
X47756545Y-41156925D01*
X47764509Y-41156499D01*
X47965004Y-41156499D01*
X47965008Y-41156499D01*
X48067797Y-41145999D01*
X48234334Y-41090814D01*
X48383656Y-40998712D01*
X48507712Y-40874656D01*
X48599814Y-40725334D01*
X48654999Y-40558797D01*
X48665500Y-40456009D01*
X48665499Y-39705992D01*
X48654999Y-39603203D01*
X48638207Y-39552531D01*
X48633723Y-39475535D01*
X48667039Y-39408089D01*
X48667071Y-39408051D01*
X48670252Y-39404381D01*
X48730022Y-39273503D01*
X48750024Y-39205382D01*
X48770500Y-39062967D01*
X48770500Y-38160500D01*
X48790462Y-38086000D01*
X48845000Y-38031462D01*
X48919500Y-38011500D01*
X54769145Y-38011500D01*
X54769146Y-38011500D01*
X54785694Y-38010958D01*
X54810435Y-38009335D01*
X54826885Y-38007714D01*
X54960350Y-37990144D01*
X54960351Y-37990143D01*
X54960355Y-37990143D01*
X54992811Y-37983687D01*
X54992815Y-37983686D01*
X54992816Y-37983686D01*
X55056547Y-37966609D01*
X55056548Y-37966609D01*
X55087890Y-37955970D01*
X55087889Y-37955970D01*
X55087892Y-37955969D01*
X55208408Y-37906049D01*
X55238092Y-37891411D01*
X55238092Y-37891410D01*
X55238098Y-37891408D01*
X55238097Y-37891409D01*
X55295242Y-37858415D01*
X55295243Y-37858414D01*
X55322760Y-37840028D01*
X55322763Y-37840026D01*
X55333042Y-37832138D01*
X55426246Y-37760620D01*
X55451138Y-37738790D01*
X55497790Y-37692138D01*
X55519620Y-37667246D01*
X55592291Y-37572540D01*
X55653481Y-37525588D01*
X55729949Y-37515521D01*
X55801206Y-37545037D01*
X55848158Y-37606227D01*
X55859500Y-37663246D01*
X55859500Y-40646846D01*
X55859501Y-40647789D01*
X55880243Y-40790166D01*
X55880244Y-40790170D01*
X55880245Y-40790175D01*
X55880246Y-40790179D01*
X55900372Y-40858251D01*
X55960381Y-40989010D01*
X55994646Y-41028405D01*
X56027925Y-41066668D01*
X56061755Y-41135980D01*
X56064500Y-41164450D01*
X56064500Y-42183414D01*
X56044538Y-42257914D01*
X56020859Y-42288773D01*
X54597773Y-43711859D01*
X54530978Y-43750423D01*
X54492414Y-43755500D01*
X51637586Y-43755500D01*
X51563086Y-43735538D01*
X51532227Y-43711859D01*
X51296057Y-43475689D01*
X51257493Y-43408894D01*
X51257493Y-43331766D01*
X51296055Y-43264973D01*
X51409026Y-43152003D01*
X51500362Y-43003925D01*
X51555087Y-42838775D01*
X51565500Y-42736848D01*
X51565500Y-42150152D01*
X51555087Y-42048225D01*
X51500362Y-41883075D01*
X51409026Y-41734997D01*
X51372385Y-41698356D01*
X51333823Y-41631564D01*
X51333823Y-41554436D01*
X51372387Y-41487641D01*
X51439182Y-41449077D01*
X51477746Y-41444000D01*
X51600731Y-41444000D01*
X51675231Y-41463962D01*
X51677814Y-41465489D01*
X51775385Y-41524473D01*
X51775387Y-41524474D01*
X51775394Y-41524478D01*
X51937804Y-41575086D01*
X52008384Y-41581500D01*
X52164259Y-41581500D01*
X52200217Y-41585904D01*
X52203205Y-41586647D01*
X52221111Y-41591100D01*
X52305716Y-41593392D01*
X52411468Y-41596257D01*
X52411469Y-41596256D01*
X52411473Y-41596257D01*
X52474465Y-41584169D01*
X52502543Y-41581500D01*
X52671609Y-41581500D01*
X52671616Y-41581500D01*
X52742196Y-41575086D01*
X52904606Y-41524478D01*
X53050185Y-41436472D01*
X53170472Y-41316185D01*
X53258478Y-41170606D01*
X53309086Y-41008196D01*
X53315500Y-40937616D01*
X53315500Y-40424384D01*
X53309086Y-40353804D01*
X53258478Y-40191394D01*
X53170472Y-40045815D01*
X53050185Y-39925528D01*
X53050184Y-39925527D01*
X52992449Y-39890625D01*
X52904606Y-39837522D01*
X52742196Y-39786914D01*
X52671616Y-39780500D01*
X52671609Y-39780500D01*
X52606526Y-39780500D01*
X52540326Y-39764986D01*
X52493692Y-39741858D01*
X52486108Y-39739072D01*
X52486141Y-39738980D01*
X52478882Y-39736425D01*
X52478852Y-39736517D01*
X52471195Y-39733937D01*
X52389771Y-39716014D01*
X52308886Y-39695899D01*
X52300886Y-39694809D01*
X52300899Y-39694713D01*
X52293257Y-39693777D01*
X52293247Y-39693873D01*
X52285218Y-39693000D01*
X52285216Y-39693000D01*
X52201840Y-39693000D01*
X52118531Y-39690742D01*
X52110472Y-39691399D01*
X52110464Y-39691301D01*
X52092598Y-39693000D01*
X51256967Y-39693000D01*
X51182467Y-39673038D01*
X51178745Y-39670816D01*
X51137927Y-39645639D01*
X51137926Y-39645638D01*
X51137925Y-39645638D01*
X50972775Y-39590913D01*
X50870848Y-39580500D01*
X49859152Y-39580500D01*
X49777610Y-39588830D01*
X49757224Y-39590913D01*
X49592074Y-39645638D01*
X49443998Y-39736973D01*
X49320973Y-39859998D01*
X49229638Y-40008074D01*
X49179738Y-40158665D01*
X49174913Y-40173225D01*
X49164500Y-40275152D01*
X49164500Y-40861848D01*
X49174913Y-40963775D01*
X49229638Y-41128925D01*
X49320974Y-41277003D01*
X49443997Y-41400026D01*
X49443999Y-41400027D01*
X49444613Y-41400641D01*
X49483177Y-41467436D01*
X49483177Y-41544564D01*
X49444613Y-41611359D01*
X49443999Y-41611972D01*
X49443997Y-41611974D01*
X49369751Y-41686220D01*
X49320973Y-41734998D01*
X49229638Y-41883074D01*
X49178951Y-42036040D01*
X49174913Y-42048225D01*
X49164500Y-42150152D01*
X49164500Y-42736848D01*
X49174913Y-42838775D01*
X49229638Y-43003925D01*
X49320974Y-43152003D01*
X49443997Y-43275026D01*
X49443999Y-43275027D01*
X49444000Y-43275028D01*
X49543721Y-43336537D01*
X49596650Y-43392638D01*
X49614500Y-43463353D01*
X49614500Y-43540472D01*
X49612927Y-43562067D01*
X49609711Y-43584021D01*
X49614216Y-43635521D01*
X49614500Y-43642017D01*
X49614500Y-43649706D01*
X49618306Y-43682274D01*
X49625000Y-43758798D01*
X49626754Y-43767288D01*
X49626465Y-43767347D01*
X49627471Y-43771888D01*
X49627760Y-43771820D01*
X49629760Y-43780260D01*
X49647731Y-43829635D01*
X49656025Y-43852423D01*
X49675277Y-43910521D01*
X49680187Y-43925336D01*
X49683852Y-43933197D01*
X49683584Y-43933321D01*
X49685603Y-43937493D01*
X49685867Y-43937361D01*
X49689760Y-43945113D01*
X49713791Y-43981651D01*
X49731965Y-44009283D01*
X49772288Y-44074656D01*
X49772289Y-44074657D01*
X49772293Y-44074663D01*
X49777672Y-44081466D01*
X49777439Y-44081649D01*
X49780368Y-44085245D01*
X49780597Y-44085054D01*
X49786170Y-44091696D01*
X49842018Y-44144387D01*
X50687982Y-44990350D01*
X50702136Y-45006728D01*
X50715389Y-45024529D01*
X50715391Y-45024531D01*
X50754989Y-45057758D01*
X50759784Y-45062151D01*
X50765227Y-45067594D01*
X50790943Y-45087927D01*
X50833474Y-45123614D01*
X50849786Y-45137302D01*
X50849790Y-45137304D01*
X50857039Y-45142072D01*
X50856875Y-45142320D01*
X50860783Y-45144810D01*
X50860940Y-45144557D01*
X50868318Y-45149107D01*
X50868323Y-45149111D01*
X50931979Y-45178794D01*
X50937930Y-45181569D01*
X51006569Y-45216041D01*
X51014724Y-45219009D01*
X51014621Y-45219291D01*
X51018990Y-45220810D01*
X51019085Y-45220525D01*
X51027322Y-45223253D01*
X51027327Y-45223256D01*
X51102532Y-45238784D01*
X51177279Y-45256500D01*
X51177283Y-45256501D01*
X51185898Y-45257508D01*
X51185863Y-45257803D01*
X51190469Y-45258273D01*
X51190495Y-45257977D01*
X51199138Y-45258732D01*
X51199139Y-45258731D01*
X51199144Y-45258733D01*
X51275898Y-45256500D01*
X54799472Y-45256500D01*
X54821067Y-45258073D01*
X54822433Y-45258273D01*
X54843023Y-45261289D01*
X54882870Y-45257803D01*
X54894522Y-45256784D01*
X54901017Y-45256500D01*
X54908712Y-45256500D01*
X54941275Y-45252693D01*
X55017797Y-45245999D01*
X55017806Y-45245995D01*
X55026294Y-45244244D01*
X55026354Y-45244537D01*
X55030877Y-45243534D01*
X55030808Y-45243243D01*
X55039253Y-45241241D01*
X55039255Y-45241241D01*
X55111423Y-45214974D01*
X55184334Y-45190814D01*
X55184343Y-45190808D01*
X55192199Y-45187146D01*
X55192325Y-45187417D01*
X55196494Y-45185399D01*
X55196360Y-45185132D01*
X55204102Y-45181242D01*
X55204117Y-45181237D01*
X55252963Y-45149110D01*
X55268284Y-45139034D01*
X55300969Y-45118873D01*
X55333656Y-45098712D01*
X55333659Y-45098708D01*
X55340466Y-45093327D01*
X55340652Y-45093562D01*
X55344242Y-45090637D01*
X55344049Y-45090407D01*
X55350691Y-45084833D01*
X55350696Y-45084830D01*
X55403386Y-45028981D01*
X56217016Y-44215350D01*
X56283809Y-44176788D01*
X56360937Y-44176788D01*
X56374428Y-44181101D01*
X56447077Y-44208197D01*
X56457517Y-44212091D01*
X56517114Y-44218499D01*
X56517118Y-44218499D01*
X56517127Y-44218500D01*
X59212872Y-44218499D01*
X59272483Y-44212091D01*
X59368447Y-44176298D01*
X59407329Y-44161797D01*
X59407333Y-44161795D01*
X59464938Y-44118671D01*
X59522546Y-44075546D01*
X59585017Y-43992096D01*
X59585451Y-43991516D01*
X62352143Y-43991516D01*
X62353544Y-43992095D01*
X62606077Y-44052723D01*
X62865000Y-44073101D01*
X63123922Y-44052723D01*
X63376452Y-43992096D01*
X63376457Y-43992095D01*
X63377854Y-43991516D01*
X62865000Y-43478660D01*
X62352143Y-43991516D01*
X59585451Y-43991516D01*
X59608795Y-43960333D01*
X59608797Y-43960329D01*
X59657542Y-43829635D01*
X59659091Y-43825483D01*
X59663954Y-43780255D01*
X59665499Y-43765885D01*
X59665499Y-43765882D01*
X59665500Y-43765873D01*
X59665499Y-42418000D01*
X61209898Y-42418000D01*
X61230276Y-42676922D01*
X61290903Y-42929453D01*
X61290906Y-42929462D01*
X61291482Y-42930854D01*
X61291483Y-42930854D01*
X61804338Y-42417999D01*
X61763201Y-42376862D01*
X62211127Y-42376862D01*
X62221439Y-42540766D01*
X62272188Y-42696956D01*
X62360186Y-42835619D01*
X62479903Y-42948040D01*
X62623817Y-43027158D01*
X62782886Y-43068000D01*
X62905894Y-43068000D01*
X63027933Y-43052583D01*
X63180629Y-42992126D01*
X63313492Y-42895595D01*
X63418175Y-42769055D01*
X63488100Y-42620457D01*
X63518873Y-42459138D01*
X63516285Y-42417999D01*
X63925660Y-42417999D01*
X64438516Y-42930854D01*
X64439095Y-42929457D01*
X64439096Y-42929452D01*
X64499723Y-42676922D01*
X64520101Y-42418000D01*
X64499723Y-42159077D01*
X64439095Y-41906544D01*
X64438515Y-41905143D01*
X63925660Y-42417999D01*
X63516285Y-42417999D01*
X63508561Y-42295234D01*
X63457812Y-42139044D01*
X63369814Y-42000381D01*
X63250097Y-41887960D01*
X63106183Y-41808842D01*
X62947114Y-41768000D01*
X62824106Y-41768000D01*
X62702067Y-41783417D01*
X62549371Y-41843874D01*
X62416508Y-41940405D01*
X62311825Y-42066945D01*
X62241900Y-42215543D01*
X62211127Y-42376862D01*
X61763201Y-42376862D01*
X61291483Y-41905144D01*
X61290901Y-41906553D01*
X61230276Y-42159077D01*
X61209898Y-42418000D01*
X59665499Y-42418000D01*
X59665499Y-41179139D01*
X59685461Y-41104640D01*
X59702369Y-41081019D01*
X59780024Y-40992276D01*
X59780024Y-40992274D01*
X59780028Y-40992271D01*
X59840434Y-40861685D01*
X59845576Y-40844483D01*
X62352144Y-40844483D01*
X62864999Y-41357338D01*
X63377854Y-40844483D01*
X63377854Y-40844482D01*
X63376462Y-40843906D01*
X63376453Y-40843903D01*
X63123922Y-40783276D01*
X62865000Y-40762898D01*
X62606077Y-40783276D01*
X62353553Y-40843901D01*
X62352144Y-40844483D01*
X59845576Y-40844483D01*
X59860767Y-40793662D01*
X59860768Y-40793659D01*
X59881935Y-40651344D01*
X59903839Y-36139020D01*
X59924162Y-36064621D01*
X59978964Y-36010349D01*
X60053560Y-35990749D01*
X60127963Y-36011072D01*
X60182235Y-36065874D01*
X60192442Y-36087675D01*
X60224217Y-36172864D01*
X60258240Y-36235170D01*
X60322225Y-36320642D01*
X60344463Y-36350347D01*
X60780223Y-36786107D01*
X60800359Y-36804196D01*
X60831871Y-36829591D01*
X60859997Y-36849873D01*
X60875774Y-36861251D01*
X60875776Y-36861252D01*
X61006654Y-36921022D01*
X61038570Y-36930393D01*
X61074770Y-36941023D01*
X61074773Y-36941023D01*
X61074775Y-36941024D01*
X61217190Y-36961500D01*
X61217194Y-36961500D01*
X76226343Y-36961500D01*
X76226346Y-36961500D01*
X76253376Y-36960051D01*
X76253375Y-36960052D01*
X76279079Y-36957288D01*
X76293620Y-36955726D01*
X76347051Y-36947067D01*
X76481859Y-36896785D01*
X76544171Y-36862759D01*
X76659347Y-36776537D01*
X77095107Y-36340777D01*
X77113196Y-36320641D01*
X77138591Y-36289129D01*
X77170252Y-36245224D01*
X77230022Y-36114346D01*
X77250024Y-36046225D01*
X77270500Y-35903810D01*
X77270500Y-33794654D01*
X77269051Y-33767623D01*
X77269052Y-33767625D01*
X77265594Y-33735459D01*
X77264726Y-33727380D01*
X77256067Y-33673949D01*
X77205785Y-33539141D01*
X77171759Y-33476829D01*
X77085537Y-33361653D01*
X76684743Y-32960859D01*
X76646179Y-32894064D01*
X76646179Y-32816936D01*
X76684743Y-32750141D01*
X76751538Y-32711577D01*
X76790102Y-32706500D01*
X76921609Y-32706500D01*
X76921616Y-32706500D01*
X76992196Y-32700086D01*
X77154606Y-32649478D01*
X77300185Y-32561472D01*
X77420472Y-32441185D01*
X77508478Y-32295606D01*
X77559086Y-32133196D01*
X77565500Y-32062616D01*
X77565500Y-31449384D01*
X77559086Y-31378804D01*
X77508478Y-31216394D01*
X77420472Y-31070815D01*
X77302594Y-30952937D01*
X77273104Y-30903067D01*
X77270469Y-30904208D01*
X77266744Y-30895602D01*
X77256945Y-30879033D01*
X77246656Y-30858031D01*
X77239569Y-30840132D01*
X77239568Y-30840129D01*
X77211361Y-30801305D01*
X77207510Y-30795441D01*
X77197510Y-30778533D01*
X77183081Y-30754135D01*
X77183077Y-30754131D01*
X77181288Y-30751824D01*
X77180240Y-30749332D01*
X77178310Y-30746068D01*
X77178757Y-30745803D01*
X77151399Y-30680723D01*
X77161065Y-30604203D01*
X77207696Y-30542768D01*
X77278797Y-30512879D01*
X77299020Y-30511500D01*
X77864257Y-30511500D01*
X77938757Y-30531462D01*
X77993295Y-30586000D01*
X78013255Y-30659642D01*
X78066987Y-39991439D01*
X78047454Y-40066053D01*
X77993231Y-40120904D01*
X77918847Y-40141295D01*
X77918263Y-40141297D01*
X68487721Y-40158665D01*
X68474613Y-40159031D01*
X68461523Y-40159565D01*
X68320426Y-40187674D01*
X68253475Y-40211315D01*
X68126008Y-40278037D01*
X68126007Y-40278037D01*
X68022495Y-40377971D01*
X67978958Y-40434048D01*
X67978956Y-40434052D01*
X67978057Y-40435632D01*
X67917414Y-40542196D01*
X67863220Y-40597071D01*
X67788846Y-40617497D01*
X67787917Y-40617500D01*
X67730067Y-40617500D01*
X67463226Y-40657720D01*
X67463222Y-40657721D01*
X67205370Y-40737258D01*
X67205349Y-40737266D01*
X66962227Y-40854348D01*
X66739259Y-41006364D01*
X66541438Y-41189915D01*
X66373189Y-41400892D01*
X66373184Y-41400900D01*
X66238257Y-41634601D01*
X66238255Y-41634606D01*
X66139665Y-41885805D01*
X66139663Y-41885812D01*
X66079618Y-42148886D01*
X66079615Y-42148909D01*
X66059451Y-42417994D01*
X66059451Y-42418005D01*
X66079615Y-42687090D01*
X66079618Y-42687113D01*
X66139663Y-42950187D01*
X66139665Y-42950194D01*
X66218586Y-43151277D01*
X66238257Y-43201398D01*
X66373185Y-43435102D01*
X66373189Y-43435107D01*
X66535600Y-43638764D01*
X66541439Y-43646085D01*
X66739259Y-43829635D01*
X66962226Y-43981651D01*
X67205359Y-44098738D01*
X67463228Y-44178280D01*
X67730071Y-44218500D01*
X67828237Y-44218500D01*
X67902737Y-44238462D01*
X67933591Y-44262137D01*
X67943368Y-44271914D01*
X67974255Y-44300336D01*
X68096193Y-44376708D01*
X68234708Y-44415631D01*
X68268178Y-44420045D01*
X68268179Y-44420046D01*
X68301194Y-44422219D01*
X68301193Y-44422219D01*
X68340897Y-44422228D01*
X73606266Y-44423525D01*
X73680760Y-44443506D01*
X73735284Y-44498057D01*
X73755228Y-44572562D01*
X73735247Y-44647057D01*
X73711587Y-44677883D01*
X73590474Y-44798996D01*
X73499138Y-44947074D01*
X73448891Y-45098712D01*
X73444413Y-45112225D01*
X73434000Y-45214152D01*
X73434000Y-46225848D01*
X73444413Y-46327775D01*
X73499138Y-46492925D01*
X73590474Y-46641003D01*
X73713497Y-46764026D01*
X73861575Y-46855362D01*
X74026725Y-46910087D01*
X74128652Y-46920500D01*
X74322638Y-46920500D01*
X74397138Y-46940462D01*
X74427997Y-46964141D01*
X74664629Y-47200774D01*
X74668726Y-47205218D01*
X74705369Y-47248357D01*
X74771737Y-47298808D01*
X74836703Y-47351030D01*
X74836707Y-47351032D01*
X74843515Y-47355384D01*
X74843462Y-47355466D01*
X74849996Y-47359519D01*
X74850047Y-47359436D01*
X74856964Y-47363598D01*
X74856968Y-47363600D01*
X74856971Y-47363602D01*
X74932640Y-47398610D01*
X74961355Y-47412851D01*
X75007311Y-47435643D01*
X75014891Y-47438428D01*
X75014857Y-47438520D01*
X75022118Y-47441076D01*
X75022150Y-47440983D01*
X75029809Y-47443564D01*
X75111229Y-47461485D01*
X75192111Y-47481600D01*
X75192114Y-47481600D01*
X75192118Y-47481601D01*
X75200123Y-47482692D01*
X75200109Y-47482789D01*
X75207739Y-47483723D01*
X75207750Y-47483626D01*
X75215781Y-47484499D01*
X75215784Y-47484500D01*
X75299160Y-47484500D01*
X75382468Y-47486757D01*
X75382469Y-47486756D01*
X75382473Y-47486757D01*
X75382476Y-47486756D01*
X75390528Y-47486101D01*
X75390535Y-47486198D01*
X75408402Y-47484500D01*
X76605397Y-47484500D01*
X76611436Y-47484745D01*
X76658225Y-47488555D01*
X76667847Y-47489339D01*
X76667847Y-47489338D01*
X76667848Y-47489339D01*
X76750441Y-47478085D01*
X76833316Y-47469073D01*
X76833319Y-47469072D01*
X76841207Y-47467336D01*
X76841228Y-47467433D01*
X76848719Y-47465678D01*
X76848695Y-47465581D01*
X76856525Y-47463632D01*
X76856537Y-47463631D01*
X76934793Y-47434880D01*
X77013780Y-47408267D01*
X77013786Y-47408263D01*
X77021113Y-47404874D01*
X77021154Y-47404964D01*
X77028094Y-47401638D01*
X77028050Y-47401550D01*
X77035276Y-47397965D01*
X77035288Y-47397961D01*
X77105536Y-47353059D01*
X77176954Y-47310089D01*
X77176959Y-47310083D01*
X77183381Y-47305203D01*
X77183441Y-47305282D01*
X77189505Y-47300541D01*
X77189444Y-47300465D01*
X77195739Y-47295404D01*
X77195741Y-47295401D01*
X77195744Y-47295400D01*
X77254696Y-47236447D01*
X77315207Y-47179129D01*
X77315208Y-47179126D01*
X77320437Y-47172971D01*
X77320512Y-47173034D01*
X77331942Y-47159200D01*
X78012100Y-46479042D01*
X78078893Y-46440480D01*
X78103968Y-46436015D01*
X78114196Y-46435086D01*
X78276606Y-46384478D01*
X78422185Y-46296472D01*
X78542472Y-46176185D01*
X78630478Y-46030606D01*
X78681086Y-45868196D01*
X78687500Y-45797616D01*
X78687500Y-45134384D01*
X78681086Y-45063804D01*
X78630478Y-44901394D01*
X78542472Y-44755815D01*
X78465764Y-44679107D01*
X78427200Y-44612312D01*
X78427200Y-44535184D01*
X78465764Y-44468389D01*
X78532559Y-44429825D01*
X78571158Y-44424748D01*
X81167718Y-44425388D01*
X81170388Y-44425389D01*
X81170388Y-44425388D01*
X81170389Y-44425389D01*
X81190252Y-44424613D01*
X81229798Y-44421506D01*
X81249532Y-44419173D01*
X81319368Y-44408117D01*
X81367087Y-44400563D01*
X81367086Y-44400563D01*
X81414299Y-44389227D01*
X81444284Y-44382029D01*
X81444287Y-44382028D01*
X81444288Y-44382028D01*
X81481813Y-44369832D01*
X81481813Y-44369831D01*
X81481816Y-44369831D01*
X81555190Y-44339423D01*
X81555189Y-44339423D01*
X81555195Y-44339421D01*
X81643414Y-44294440D01*
X81643413Y-44294440D01*
X81711092Y-44252934D01*
X81711093Y-44252933D01*
X81732630Y-44237272D01*
X81743008Y-44229725D01*
X81803368Y-44178118D01*
X81841947Y-44139492D01*
X81873350Y-44108051D01*
X81896023Y-44081466D01*
X81924879Y-44047633D01*
X81948050Y-44015688D01*
X81989480Y-43947948D01*
X82034353Y-43859672D01*
X82034353Y-43859673D01*
X82064664Y-43786281D01*
X82070792Y-43767347D01*
X82076816Y-43748738D01*
X82079969Y-43735538D01*
X82095262Y-43671501D01*
X82113729Y-43553928D01*
X82116038Y-43534187D01*
X82119097Y-43494637D01*
X82119849Y-43474772D01*
X82119752Y-43408894D01*
X82119230Y-43052938D01*
X82119318Y-43049254D01*
X82120500Y-43025085D01*
X82120500Y-41102991D01*
X82481844Y-41102991D01*
X82491577Y-41282495D01*
X82491577Y-41282499D01*
X82491578Y-41282501D01*
X82517190Y-41374746D01*
X82539672Y-41455720D01*
X82539672Y-41455721D01*
X82623881Y-41614556D01*
X82623882Y-41614558D01*
X82740262Y-41751571D01*
X82740265Y-41751574D01*
X82815600Y-41808842D01*
X82879022Y-41857055D01*
X82883382Y-41860369D01*
X83046541Y-41935854D01*
X83222113Y-41974500D01*
X83222118Y-41974500D01*
X83356807Y-41974500D01*
X83356816Y-41974500D01*
X83490721Y-41959937D01*
X83598510Y-41923619D01*
X83661083Y-41902536D01*
X83661090Y-41902532D01*
X83815121Y-41809854D01*
X83815120Y-41809854D01*
X83815126Y-41809851D01*
X83945642Y-41686220D01*
X84046529Y-41537423D01*
X84113070Y-41370416D01*
X84142155Y-41193010D01*
X84140606Y-41164450D01*
X84136980Y-41097572D01*
X84132422Y-41013499D01*
X84084327Y-40840277D01*
X84000119Y-40681444D01*
X84000117Y-40681442D01*
X84000117Y-40681441D01*
X83883737Y-40544428D01*
X83883736Y-40544427D01*
X83883735Y-40544426D01*
X83767425Y-40456009D01*
X83740620Y-40435632D01*
X83740616Y-40435630D01*
X83577459Y-40360146D01*
X83401887Y-40321500D01*
X83267184Y-40321500D01*
X83267183Y-40321500D01*
X83133275Y-40336063D01*
X83133273Y-40336064D01*
X82962916Y-40393463D01*
X82962909Y-40393467D01*
X82808878Y-40486145D01*
X82747349Y-40544428D01*
X82678358Y-40609780D01*
X82577471Y-40758577D01*
X82577469Y-40758579D01*
X82577469Y-40758581D01*
X82510930Y-40925583D01*
X82481845Y-41102990D01*
X82481844Y-41102991D01*
X82120500Y-41102991D01*
X82120500Y-29458960D01*
X82119958Y-29442412D01*
X82118335Y-29417671D01*
X82116714Y-29401221D01*
X82099144Y-29267756D01*
X82092687Y-29235295D01*
X82075608Y-29171555D01*
X82064969Y-29140215D01*
X82015048Y-29019694D01*
X82007405Y-29004196D01*
X82000407Y-28990005D01*
X82000407Y-28990006D01*
X81967413Y-28932860D01*
X81958218Y-28919100D01*
X81949026Y-28905342D01*
X81867072Y-28798538D01*
X81856577Y-28785750D01*
X81840237Y-28767117D01*
X81828928Y-28755043D01*
X81615957Y-28542072D01*
X81603884Y-28530764D01*
X81585259Y-28514430D01*
X81572467Y-28503932D01*
X81465652Y-28421970D01*
X81465309Y-28421741D01*
X81456719Y-28416001D01*
X81438137Y-28403586D01*
X81396278Y-28379417D01*
X81380992Y-28370591D01*
X81380993Y-28370592D01*
X81351310Y-28355954D01*
X81230783Y-28306030D01*
X81230778Y-28306028D01*
X81230775Y-28306027D01*
X81230776Y-28306027D01*
X81199449Y-28295393D01*
X81199448Y-28295393D01*
X81199442Y-28295391D01*
X81135716Y-28278314D01*
X81103248Y-28271856D01*
X81103249Y-28271856D01*
X81103246Y-28271855D01*
X81103243Y-28271855D01*
X81024584Y-28261500D01*
X80969748Y-28254281D01*
X80966500Y-28253961D01*
X80953254Y-28252657D01*
X80928523Y-28251039D01*
X80912017Y-28250500D01*
X80666859Y-28250500D01*
X80666853Y-28250500D01*
X80540331Y-28266591D01*
X80540325Y-28266593D01*
X80479248Y-28282384D01*
X80479237Y-28282388D01*
X80360781Y-28329633D01*
X80360778Y-28329634D01*
X80246140Y-28416567D01*
X80246136Y-28416571D01*
X80196245Y-28467083D01*
X80173447Y-28497935D01*
X80142327Y-28540049D01*
X80082001Y-28588101D01*
X80022496Y-28600499D01*
X79706616Y-28600499D01*
X79632116Y-28580537D01*
X79581269Y-28532053D01*
X79559792Y-28498634D01*
X79559782Y-28498620D01*
X79514609Y-28446488D01*
X79513535Y-28445179D01*
X79486744Y-28421965D01*
X79404555Y-28350748D01*
X79339116Y-28320863D01*
X79273678Y-28290978D01*
X79205560Y-28270976D01*
X79205553Y-28270975D01*
X79063153Y-28250501D01*
X79063144Y-28250500D01*
X79063141Y-28250500D01*
X79063137Y-28250500D01*
X77336102Y-28250500D01*
X77261602Y-28230538D01*
X77230743Y-28206859D01*
X77141227Y-28117343D01*
X77014139Y-27990254D01*
X76975577Y-27923462D01*
X76970500Y-27884898D01*
X76970500Y-26574234D01*
X76983965Y-26512337D01*
X77030021Y-26411489D01*
X77030022Y-26411487D01*
X77049619Y-26344746D01*
X77050023Y-26343370D01*
X77050024Y-26343363D01*
X77060111Y-26273211D01*
X77070500Y-26200951D01*
X77070500Y-24758960D01*
X77069958Y-24742412D01*
X77068335Y-24717671D01*
X77066714Y-24701221D01*
X77049144Y-24567756D01*
X77042687Y-24535295D01*
X77036383Y-24511769D01*
X77025609Y-24471558D01*
X77025609Y-24471559D01*
X77025608Y-24471555D01*
X77014969Y-24440215D01*
X76965048Y-24319694D01*
X76950410Y-24290012D01*
X76950411Y-24290012D01*
X76917415Y-24232863D01*
X76917414Y-24232862D01*
X76899465Y-24206000D01*
X76899026Y-24205342D01*
X76817065Y-24098529D01*
X76806564Y-24085734D01*
X76790228Y-24067107D01*
X76778924Y-24055039D01*
X76565957Y-23842072D01*
X76553884Y-23830764D01*
X76535259Y-23814430D01*
X76522467Y-23803932D01*
X76415652Y-23721970D01*
X76415643Y-23721964D01*
X76406482Y-23715843D01*
X76388137Y-23703586D01*
X76330997Y-23670594D01*
X76330986Y-23670588D01*
X76329461Y-23669708D01*
X76274925Y-23615169D01*
X76254964Y-23540669D01*
X76274928Y-23466169D01*
X76329467Y-23411633D01*
X76378216Y-23393914D01*
X76430989Y-23384655D01*
X76469770Y-23377851D01*
X76554499Y-23355263D01*
X76554500Y-23355262D01*
X76554506Y-23355261D01*
X76554505Y-23355261D01*
X76595441Y-23340440D01*
X76595442Y-23340439D01*
X76595446Y-23340438D01*
X76674993Y-23303550D01*
X76674994Y-23303548D01*
X76674999Y-23303547D01*
X76805704Y-23228528D01*
X76815193Y-23222519D01*
X76824251Y-23216783D01*
X76860213Y-23191762D01*
X76877673Y-23178452D01*
X77156574Y-22946035D01*
X77226586Y-22913677D01*
X77251961Y-22911500D01*
X81569145Y-22911500D01*
X81569146Y-22911500D01*
X81585694Y-22910958D01*
X81610435Y-22909335D01*
X81626885Y-22907714D01*
X81760350Y-22890144D01*
X81760351Y-22890143D01*
X81760355Y-22890143D01*
X81792811Y-22883687D01*
X81792815Y-22883686D01*
X81792816Y-22883686D01*
X81856547Y-22866609D01*
X81856548Y-22866609D01*
X81887890Y-22855970D01*
X81887889Y-22855970D01*
X81887892Y-22855969D01*
X82008408Y-22806049D01*
X82038092Y-22791411D01*
X82038092Y-22791410D01*
X82038098Y-22791408D01*
X82038097Y-22791409D01*
X82095242Y-22758415D01*
X82095243Y-22758414D01*
X82107088Y-22750500D01*
X82122763Y-22740026D01*
X82174769Y-22700120D01*
X82226246Y-22660620D01*
X82226253Y-22660614D01*
X82251135Y-22638793D01*
X82297793Y-22592135D01*
X82319614Y-22567253D01*
X82319614Y-22567251D01*
X82319620Y-22567246D01*
X82399029Y-22463759D01*
X82399028Y-22463760D01*
X82417415Y-22436242D01*
X82424677Y-22423664D01*
X82450409Y-22379097D01*
X82450408Y-22379098D01*
X82450411Y-22379092D01*
X82465049Y-22349408D01*
X82514969Y-22228892D01*
X82525608Y-22197551D01*
X82542687Y-22133811D01*
X82549144Y-22101350D01*
X82566714Y-21967885D01*
X82568335Y-21951435D01*
X82569958Y-21926694D01*
X82570500Y-21910146D01*
X82570500Y-20008960D01*
X82569958Y-19992412D01*
X82568335Y-19967671D01*
X82566714Y-19951221D01*
X82549144Y-19817756D01*
X82542687Y-19785295D01*
X82542137Y-19783244D01*
X82525609Y-19721558D01*
X82525609Y-19721559D01*
X82525608Y-19721555D01*
X82514969Y-19690215D01*
X82465048Y-19569694D01*
X82450407Y-19540006D01*
X82450402Y-19539998D01*
X82417413Y-19482860D01*
X82408218Y-19469100D01*
X82399026Y-19455342D01*
X82317072Y-19348538D01*
X82306577Y-19335750D01*
X82290237Y-19317117D01*
X82278928Y-19305043D01*
X82065957Y-19092072D01*
X82053884Y-19080764D01*
X82035259Y-19064430D01*
X82022467Y-19053932D01*
X81915652Y-18971970D01*
X81912998Y-18970197D01*
X81906719Y-18966001D01*
X81888137Y-18953586D01*
X81830997Y-18920594D01*
X81830998Y-18920594D01*
X81830992Y-18920591D01*
X81830993Y-18920592D01*
X81801310Y-18905954D01*
X81680783Y-18856030D01*
X81680778Y-18856028D01*
X81680775Y-18856027D01*
X81680776Y-18856027D01*
X81649449Y-18845393D01*
X81649448Y-18845393D01*
X81649442Y-18845391D01*
X81585716Y-18828314D01*
X81553248Y-18821856D01*
X81553249Y-18821856D01*
X81553246Y-18821855D01*
X81553243Y-18821855D01*
X81493991Y-18814054D01*
X81419748Y-18804281D01*
X81416385Y-18803950D01*
X81403254Y-18802657D01*
X81378523Y-18801039D01*
X81362017Y-18800500D01*
X74467984Y-18800500D01*
X74459732Y-18800769D01*
X74451479Y-18801039D01*
X74426747Y-18802657D01*
X74410251Y-18804281D01*
X74343503Y-18813068D01*
X74276754Y-18821856D01*
X74276753Y-18821856D01*
X74258821Y-18825423D01*
X74244301Y-18828311D01*
X74244297Y-18828312D01*
X74244298Y-18828311D01*
X74213441Y-18836579D01*
X74180569Y-18845387D01*
X74180560Y-18845390D01*
X74180559Y-18845390D01*
X74149222Y-18856027D01*
X74108557Y-18872871D01*
X74028686Y-18905954D01*
X74028684Y-18905955D01*
X73999009Y-18920589D01*
X73999006Y-18920591D01*
X73998998Y-18920595D01*
X73941865Y-18953582D01*
X73934656Y-18958399D01*
X73914354Y-18971965D01*
X73914344Y-18971972D01*
X73914342Y-18971973D01*
X73914343Y-18971972D01*
X73807522Y-19053940D01*
X73794729Y-19064439D01*
X73776118Y-19080761D01*
X73764047Y-19092066D01*
X73551066Y-19305047D01*
X73539761Y-19317118D01*
X73523439Y-19335729D01*
X73512940Y-19348522D01*
X73440382Y-19443079D01*
X73379192Y-19490031D01*
X73302724Y-19500098D01*
X73231467Y-19470582D01*
X73193135Y-19426873D01*
X73192179Y-19425218D01*
X73192179Y-19425216D01*
X73097533Y-19261284D01*
X73097532Y-19261283D01*
X73097530Y-19261279D01*
X72970872Y-19120613D01*
X72963230Y-19115061D01*
X72817730Y-19009349D01*
X72817729Y-19009348D01*
X72817727Y-19009347D01*
X72644806Y-18932357D01*
X72644804Y-18932356D01*
X72644803Y-18932356D01*
X72586940Y-18920057D01*
X72458827Y-18892825D01*
X72390106Y-18857809D01*
X72348099Y-18793124D01*
X72344063Y-18716101D01*
X72348366Y-18700224D01*
X72380349Y-18603708D01*
X72390500Y-18504345D01*
X72390499Y-17957656D01*
X72380349Y-17858292D01*
X72327003Y-17697303D01*
X72237968Y-17552956D01*
X72118044Y-17433032D01*
X72041676Y-17385927D01*
X71973699Y-17343998D01*
X71973698Y-17343997D01*
X71973697Y-17343997D01*
X71812708Y-17290651D01*
X71713345Y-17280500D01*
X71713340Y-17280500D01*
X71116660Y-17280500D01*
X71017291Y-17290651D01*
X70856300Y-17343998D01*
X70765280Y-17400141D01*
X70723516Y-17425902D01*
X70704570Y-17437588D01*
X70703239Y-17435430D01*
X70644906Y-17460578D01*
X70568302Y-17451608D01*
X70531450Y-17430436D01*
X70525186Y-17425528D01*
X70434158Y-17370500D01*
X70379606Y-17337522D01*
X70361708Y-17331945D01*
X70217196Y-17286914D01*
X70214390Y-17286659D01*
X70146616Y-17280500D01*
X69483384Y-17280500D01*
X69421626Y-17286112D01*
X69412803Y-17286914D01*
X69250396Y-17337521D01*
X69250394Y-17337521D01*
X69250394Y-17337522D01*
X69219459Y-17356223D01*
X69097101Y-17430191D01*
X69096082Y-17428506D01*
X69035928Y-17454133D01*
X68959363Y-17444833D01*
X68933184Y-17429718D01*
X68932899Y-17430191D01*
X68844020Y-17376462D01*
X68779606Y-17337522D01*
X68761708Y-17331945D01*
X68617196Y-17286914D01*
X68614390Y-17286659D01*
X68546616Y-17280500D01*
X67883384Y-17280500D01*
X67821626Y-17286112D01*
X67812803Y-17286914D01*
X67650396Y-17337521D01*
X67650394Y-17337521D01*
X67650394Y-17337522D01*
X67636396Y-17345984D01*
X67504815Y-17425527D01*
X67384527Y-17545815D01*
X67296524Y-17691391D01*
X67296521Y-17691396D01*
X67252111Y-17833916D01*
X67245914Y-17853804D01*
X67239500Y-17924384D01*
X67239500Y-17924390D01*
X67239500Y-18070913D01*
X67219538Y-18145413D01*
X67195859Y-18176272D01*
X66585271Y-18786859D01*
X66518476Y-18825423D01*
X66479913Y-18830500D01*
X66316659Y-18830500D01*
X66217292Y-18840651D01*
X66120056Y-18872871D01*
X66043058Y-18877355D01*
X65974134Y-18842739D01*
X65945258Y-18803950D01*
X65944059Y-18804690D01*
X65929692Y-18781398D01*
X65850468Y-18652956D01*
X65730544Y-18533032D01*
X65684036Y-18504345D01*
X65586199Y-18443998D01*
X65586198Y-18443997D01*
X65586197Y-18443997D01*
X65425208Y-18390651D01*
X65325845Y-18380500D01*
X65325840Y-18380500D01*
X64779160Y-18380500D01*
X64679791Y-18390651D01*
X64518800Y-18443998D01*
X64374455Y-18533032D01*
X64254532Y-18652955D01*
X64165498Y-18797300D01*
X64112477Y-18957309D01*
X64112151Y-18958292D01*
X64102381Y-19053933D01*
X64102000Y-19057659D01*
X64102000Y-19654339D01*
X64108867Y-19721558D01*
X64112151Y-19753708D01*
X64162847Y-19906701D01*
X64165498Y-19914699D01*
X64246980Y-20046801D01*
X64254532Y-20059044D01*
X64374456Y-20178968D01*
X64384745Y-20185314D01*
X64437674Y-20241414D01*
X64445063Y-20257283D01*
X64447593Y-20263673D01*
X64449867Y-20270315D01*
X64463256Y-20316398D01*
X64463257Y-20316400D01*
X64473058Y-20332973D01*
X64483341Y-20353964D01*
X64490429Y-20371867D01*
X64490432Y-20371872D01*
X64518632Y-20410686D01*
X64522487Y-20416555D01*
X64526454Y-20423262D01*
X64546919Y-20457865D01*
X64546921Y-20457867D01*
X64560533Y-20471479D01*
X64575717Y-20489258D01*
X64587032Y-20504832D01*
X64587034Y-20504834D01*
X64587036Y-20504835D01*
X64587037Y-20504837D01*
X64612233Y-20525681D01*
X64624009Y-20535423D01*
X64629203Y-20540149D01*
X65242615Y-21153561D01*
X65253420Y-21167047D01*
X65253821Y-21166716D01*
X65259795Y-21173937D01*
X65312243Y-21223189D01*
X65333966Y-21244912D01*
X65333974Y-21244918D01*
X65339290Y-21249042D01*
X65344628Y-21253602D01*
X65377838Y-21284787D01*
X65379607Y-21286448D01*
X65396485Y-21295726D01*
X65416011Y-21308552D01*
X65431236Y-21320362D01*
X65475281Y-21339421D01*
X65481563Y-21342498D01*
X65504378Y-21355042D01*
X65523631Y-21365627D01*
X65542284Y-21370416D01*
X65564408Y-21377990D01*
X65577636Y-21383715D01*
X65582071Y-21385634D01*
X65582073Y-21385635D01*
X65616479Y-21391084D01*
X65629459Y-21393140D01*
X65636336Y-21394564D01*
X65658256Y-21400192D01*
X65682823Y-21406500D01*
X65702079Y-21406500D01*
X65725386Y-21408334D01*
X65728536Y-21408832D01*
X65744404Y-21411346D01*
X65777564Y-21408211D01*
X65792173Y-21406831D01*
X65799188Y-21406500D01*
X66233836Y-21406500D01*
X66308336Y-21426462D01*
X66339195Y-21450141D01*
X66670859Y-21781805D01*
X66709423Y-21848600D01*
X66714500Y-21887164D01*
X66714500Y-22309425D01*
X66729929Y-22431559D01*
X66732260Y-22440637D01*
X66731249Y-22440896D01*
X66739500Y-22484153D01*
X66739500Y-22655398D01*
X66739501Y-22655406D01*
X66740377Y-22662059D01*
X66730306Y-22738526D01*
X66683351Y-22799714D01*
X66612092Y-22829226D01*
X66592651Y-22830500D01*
X66290603Y-22830500D01*
X66180528Y-22844991D01*
X66043572Y-22901719D01*
X65925964Y-22991964D01*
X65835719Y-23109573D01*
X65827157Y-23130245D01*
X65780204Y-23191435D01*
X65708947Y-23220950D01*
X65632479Y-23210883D01*
X65571289Y-23163930D01*
X65541774Y-23092673D01*
X65540499Y-23073225D01*
X65540499Y-23070159D01*
X65540418Y-23069367D01*
X65530349Y-22970792D01*
X65477003Y-22809803D01*
X65387968Y-22665456D01*
X65268044Y-22545532D01*
X65135472Y-22463760D01*
X65123699Y-22456498D01*
X65123698Y-22456497D01*
X65123697Y-22456497D01*
X64962708Y-22403151D01*
X64863345Y-22393000D01*
X64863340Y-22393000D01*
X64266660Y-22393000D01*
X64167291Y-22403151D01*
X64006300Y-22456498D01*
X63861952Y-22545534D01*
X63831950Y-22575536D01*
X63765155Y-22614099D01*
X63688027Y-22614098D01*
X63621233Y-22575533D01*
X63584340Y-22514504D01*
X63545978Y-22391394D01*
X63457972Y-22245815D01*
X63337685Y-22125528D01*
X63337684Y-22125527D01*
X63289158Y-22096192D01*
X63192106Y-22037522D01*
X63075606Y-22001220D01*
X63029696Y-21986914D01*
X62959116Y-21980500D01*
X62445884Y-21980500D01*
X62384126Y-21986112D01*
X62375303Y-21986914D01*
X62212896Y-22037521D01*
X62212891Y-22037524D01*
X62067315Y-22125527D01*
X61947027Y-22245815D01*
X61872852Y-22368516D01*
X61863328Y-22384272D01*
X61859024Y-22391391D01*
X61859021Y-22391396D01*
X61808414Y-22553803D01*
X61808414Y-22553804D01*
X61802000Y-22624384D01*
X61802000Y-23287616D01*
X61804852Y-23318997D01*
X61808414Y-23358199D01*
X61808415Y-23358200D01*
X61816658Y-23384655D01*
X61819762Y-23461721D01*
X61783918Y-23530014D01*
X61718729Y-23571234D01*
X61641663Y-23574338D01*
X61627537Y-23570417D01*
X61537709Y-23540651D01*
X61521147Y-23538959D01*
X61438345Y-23530500D01*
X61438340Y-23530500D01*
X60841660Y-23530500D01*
X60742291Y-23540651D01*
X60701159Y-23554281D01*
X60581303Y-23593997D01*
X60581301Y-23593997D01*
X60581301Y-23593998D01*
X60487724Y-23651717D01*
X60413836Y-23673837D01*
X60338787Y-23656050D01*
X60304144Y-23630259D01*
X60093249Y-23419364D01*
X60081157Y-23408040D01*
X60062526Y-23391703D01*
X60053936Y-23384655D01*
X60049753Y-23381222D01*
X59996602Y-23340438D01*
X59959017Y-23311597D01*
X59959016Y-23311597D01*
X59959008Y-23311591D01*
X59931497Y-23293208D01*
X59931496Y-23293207D01*
X59931498Y-23293208D01*
X59882007Y-23264632D01*
X59874362Y-23260217D01*
X59844665Y-23245571D01*
X59831278Y-23240026D01*
X59742830Y-23203389D01*
X59742816Y-23203383D01*
X59742817Y-23203384D01*
X59711476Y-23192746D01*
X59711466Y-23192743D01*
X59647746Y-23175670D01*
X59647743Y-23175670D01*
X59615288Y-23169215D01*
X59565075Y-23162604D01*
X59506032Y-23154831D01*
X59506021Y-23154830D01*
X59506019Y-23154830D01*
X59472993Y-23152665D01*
X59407007Y-23152665D01*
X59407001Y-23152665D01*
X59373983Y-23154829D01*
X59264710Y-23169215D01*
X59232254Y-23175670D01*
X59210498Y-23181499D01*
X59168533Y-23192742D01*
X59168528Y-23192743D01*
X59168523Y-23192745D01*
X59139843Y-23202480D01*
X59137168Y-23203389D01*
X59035327Y-23245574D01*
X59024863Y-23250734D01*
X59003293Y-23259352D01*
X58912899Y-23287520D01*
X58912884Y-23287526D01*
X58767319Y-23375524D01*
X58767317Y-23375525D01*
X58647026Y-23495816D01*
X58558307Y-23642575D01*
X58539606Y-23667281D01*
X58539790Y-23667085D01*
X58539761Y-23667117D01*
X58539761Y-23667118D01*
X58539472Y-23667448D01*
X58523439Y-23685729D01*
X58512940Y-23698522D01*
X58430972Y-23805343D01*
X58430970Y-23805345D01*
X58430968Y-23805349D01*
X58412583Y-23832864D01*
X58391222Y-23869861D01*
X58379589Y-23890009D01*
X58377254Y-23894744D01*
X58364954Y-23919686D01*
X58337554Y-23985836D01*
X58315027Y-24040222D01*
X58305902Y-24067107D01*
X58304387Y-24071569D01*
X58295579Y-24104441D01*
X58287311Y-24135298D01*
X58287312Y-24135297D01*
X58280856Y-24167753D01*
X58280856Y-24167754D01*
X58279882Y-24175154D01*
X58264321Y-24293356D01*
X58263281Y-24301252D01*
X58261658Y-24317743D01*
X58260040Y-24342472D01*
X58259500Y-24358981D01*
X58259500Y-26784898D01*
X58239538Y-26859398D01*
X58215859Y-26890257D01*
X58099257Y-27006859D01*
X58032462Y-27045423D01*
X57993898Y-27050500D01*
X57067984Y-27050500D01*
X57059732Y-27050769D01*
X57051479Y-27051039D01*
X57026747Y-27052657D01*
X57010251Y-27054281D01*
X56943503Y-27063068D01*
X56876754Y-27071856D01*
X56876753Y-27071856D01*
X56855313Y-27076120D01*
X56844301Y-27078311D01*
X56844297Y-27078312D01*
X56844298Y-27078311D01*
X56813441Y-27086579D01*
X56780569Y-27095387D01*
X56780560Y-27095390D01*
X56780559Y-27095390D01*
X56749222Y-27106027D01*
X56699295Y-27126707D01*
X56628686Y-27155954D01*
X56628684Y-27155955D01*
X56599009Y-27170589D01*
X56599002Y-27170592D01*
X56598998Y-27170595D01*
X56541865Y-27203582D01*
X56514344Y-27221972D01*
X56514342Y-27221973D01*
X56514343Y-27221972D01*
X56407522Y-27303940D01*
X56394729Y-27314439D01*
X56376118Y-27330761D01*
X56364047Y-27342066D01*
X56151066Y-27555047D01*
X56139761Y-27567118D01*
X56123439Y-27585729D01*
X56112939Y-27598522D01*
X56037709Y-27696563D01*
X55976519Y-27743515D01*
X55900050Y-27753581D01*
X55828793Y-27724065D01*
X55781841Y-27662875D01*
X55770500Y-27605856D01*
X55770500Y-27001854D01*
X55769958Y-26985305D01*
X55768335Y-26960564D01*
X55766714Y-26944115D01*
X55759624Y-26890257D01*
X55749144Y-26810649D01*
X55742687Y-26778188D01*
X55741414Y-26773438D01*
X55725609Y-26714452D01*
X55725609Y-26714451D01*
X55714970Y-26683109D01*
X55714970Y-26683110D01*
X55714969Y-26683107D01*
X55665049Y-26562591D01*
X55650411Y-26532907D01*
X55650408Y-26532901D01*
X55650409Y-26532902D01*
X55617415Y-26475757D01*
X55617414Y-26475756D01*
X55599028Y-26448239D01*
X55599026Y-26448236D01*
X55570827Y-26411487D01*
X55519620Y-26344753D01*
X55497790Y-26319861D01*
X55451094Y-26273164D01*
X55452296Y-26274292D01*
X55411619Y-26208763D01*
X55409156Y-26131674D01*
X55445568Y-26063682D01*
X55448847Y-26060295D01*
X56206778Y-25302364D01*
X56211211Y-25298278D01*
X56254357Y-25261631D01*
X56304808Y-25195262D01*
X56357030Y-25130297D01*
X56357033Y-25130290D01*
X56361380Y-25123491D01*
X56361464Y-25123544D01*
X56365520Y-25117005D01*
X56365435Y-25116954D01*
X56369599Y-25110032D01*
X56369602Y-25110029D01*
X56404610Y-25034359D01*
X56441641Y-24959693D01*
X56441643Y-24959681D01*
X56444429Y-24952104D01*
X56444522Y-24952138D01*
X56447076Y-24944882D01*
X56446983Y-24944851D01*
X56449561Y-24937200D01*
X56452125Y-24925554D01*
X56464092Y-24871186D01*
X56467485Y-24855771D01*
X56474798Y-24826364D01*
X56487600Y-24774889D01*
X56487600Y-24774884D01*
X56487601Y-24774881D01*
X56488692Y-24766878D01*
X56488789Y-24766891D01*
X56489723Y-24759263D01*
X56489626Y-24759253D01*
X56490500Y-24751215D01*
X56490500Y-24667840D01*
X56492757Y-24584533D01*
X56492101Y-24576475D01*
X56492198Y-24576467D01*
X56490500Y-24558598D01*
X56490500Y-20444612D01*
X56490746Y-20438562D01*
X56495340Y-20382152D01*
X56484083Y-20299537D01*
X56475073Y-20216684D01*
X56475071Y-20216678D01*
X56473336Y-20208791D01*
X56473431Y-20208769D01*
X56471677Y-20201282D01*
X56471582Y-20201306D01*
X56469632Y-20193468D01*
X56469631Y-20193466D01*
X56469631Y-20193463D01*
X56440880Y-20115206D01*
X56414267Y-20036220D01*
X56414264Y-20036215D01*
X56410874Y-20028886D01*
X56410962Y-20028845D01*
X56407636Y-20021904D01*
X56407549Y-20021948D01*
X56403962Y-20014716D01*
X56403961Y-20014712D01*
X56400284Y-20008960D01*
X56359059Y-19944463D01*
X56343738Y-19918999D01*
X56316089Y-19873046D01*
X56316086Y-19873043D01*
X56316085Y-19873041D01*
X56311199Y-19866613D01*
X56311277Y-19866553D01*
X56306540Y-19860492D01*
X56306463Y-19860555D01*
X56301402Y-19854259D01*
X56301400Y-19854256D01*
X56242447Y-19795303D01*
X56209952Y-19760998D01*
X56185132Y-19734795D01*
X56178976Y-19729567D01*
X56179039Y-19729492D01*
X56165200Y-19718056D01*
X55686375Y-19239231D01*
X55682272Y-19234780D01*
X55671505Y-19222105D01*
X55645631Y-19191643D01*
X55588914Y-19148528D01*
X55579261Y-19141190D01*
X55514297Y-19088969D01*
X55507493Y-19084621D01*
X55507545Y-19084538D01*
X55501004Y-19080481D01*
X55500954Y-19080565D01*
X55494027Y-19076397D01*
X55418359Y-19041389D01*
X55343691Y-19004358D01*
X55336108Y-19001572D01*
X55336141Y-19001480D01*
X55328882Y-18998925D01*
X55328852Y-18999017D01*
X55321195Y-18996437D01*
X55239771Y-18978514D01*
X55158886Y-18958399D01*
X55150886Y-18957309D01*
X55150899Y-18957213D01*
X55143257Y-18956277D01*
X55143247Y-18956373D01*
X55135218Y-18955500D01*
X55135216Y-18955500D01*
X55051840Y-18955500D01*
X54968531Y-18953242D01*
X54960472Y-18953899D01*
X54960464Y-18953801D01*
X54942598Y-18955500D01*
X53498106Y-18955500D01*
X53423606Y-18935538D01*
X53369068Y-18881000D01*
X53349106Y-18806500D01*
X53369068Y-18732000D01*
X53370543Y-18729501D01*
X53383478Y-18708106D01*
X53434086Y-18545696D01*
X53440500Y-18475116D01*
X53440500Y-17961884D01*
X53434086Y-17891304D01*
X53383478Y-17728894D01*
X53361987Y-17693344D01*
X53340530Y-17619263D01*
X53340500Y-17616263D01*
X53340500Y-17210862D01*
X53347245Y-17166538D01*
X53396586Y-17008196D01*
X53403000Y-16937616D01*
X53403000Y-16274384D01*
X53396586Y-16203804D01*
X53345978Y-16041394D01*
X53257972Y-15895815D01*
X53137685Y-15775528D01*
X53137684Y-15775527D01*
X53063150Y-15730470D01*
X52992106Y-15687522D01*
X52829696Y-15636914D01*
X52759116Y-15630500D01*
X52245884Y-15630500D01*
X52184126Y-15636112D01*
X52175303Y-15636914D01*
X52012896Y-15687521D01*
X52012891Y-15687524D01*
X51867315Y-15775527D01*
X51747027Y-15895815D01*
X51659024Y-16041391D01*
X51659021Y-16041396D01*
X51608414Y-16203803D01*
X51608414Y-16203804D01*
X51602000Y-16274384D01*
X51602000Y-16274390D01*
X51602000Y-16437792D01*
X51598516Y-16469823D01*
X51589500Y-16510782D01*
X51589500Y-17221500D01*
X51569538Y-17296000D01*
X51515000Y-17350538D01*
X51440500Y-17370500D01*
X50267534Y-17370500D01*
X50125680Y-17385927D01*
X50125679Y-17385928D01*
X50030197Y-17418100D01*
X49982621Y-17425900D01*
X49460736Y-17425900D01*
X49460711Y-17425902D01*
X49401121Y-17432308D01*
X49401115Y-17432309D01*
X49266270Y-17482602D01*
X49266266Y-17482604D01*
X49151055Y-17568852D01*
X49151052Y-17568855D01*
X49064804Y-17684066D01*
X49064802Y-17684070D01*
X49014508Y-17818917D01*
X49008100Y-17878514D01*
X49008100Y-18574263D01*
X49008102Y-18574288D01*
X49014508Y-18633878D01*
X49014509Y-18633884D01*
X49064802Y-18768729D01*
X49064806Y-18768735D01*
X49067333Y-18772111D01*
X49069210Y-18776801D01*
X49069911Y-18778084D01*
X49069757Y-18778167D01*
X49095997Y-18843715D01*
X49085018Y-18920057D01*
X49067333Y-18950689D01*
X49064806Y-18954064D01*
X49064802Y-18954070D01*
X49014508Y-19088917D01*
X49008100Y-19148514D01*
X49008100Y-19844263D01*
X49008102Y-19844288D01*
X49014508Y-19903878D01*
X49014509Y-19903884D01*
X49064802Y-20038729D01*
X49064806Y-20038735D01*
X49067333Y-20042111D01*
X49069210Y-20046801D01*
X49069911Y-20048084D01*
X49069757Y-20048167D01*
X49095997Y-20113715D01*
X49085018Y-20190057D01*
X49067333Y-20220689D01*
X49064806Y-20224064D01*
X49064802Y-20224070D01*
X49014508Y-20358917D01*
X49008100Y-20418514D01*
X49008100Y-21114263D01*
X49008102Y-21114288D01*
X49014508Y-21173878D01*
X49014509Y-21173884D01*
X49064802Y-21308729D01*
X49064806Y-21308735D01*
X49067333Y-21312111D01*
X49069210Y-21316801D01*
X49069911Y-21318084D01*
X49069757Y-21318167D01*
X49095997Y-21383715D01*
X49085018Y-21460057D01*
X49067333Y-21490689D01*
X49064806Y-21494064D01*
X49064802Y-21494070D01*
X49014508Y-21628917D01*
X49008100Y-21688514D01*
X49008100Y-22384263D01*
X49008102Y-22384288D01*
X49014508Y-22443878D01*
X49014509Y-22443884D01*
X49064802Y-22578729D01*
X49064804Y-22578733D01*
X49151052Y-22693944D01*
X49151055Y-22693947D01*
X49266266Y-22780195D01*
X49266270Y-22780197D01*
X49401117Y-22830491D01*
X49427742Y-22833354D01*
X49499681Y-22861166D01*
X49548076Y-22921221D01*
X49559960Y-22997428D01*
X49532148Y-23069367D01*
X49472093Y-23117762D01*
X49411814Y-23130500D01*
X46439362Y-23130500D01*
X46364862Y-23110538D01*
X46334003Y-23086859D01*
X46075308Y-22828164D01*
X46036744Y-22761369D01*
X46036744Y-22684241D01*
X46061385Y-22633513D01*
X46102396Y-22578731D01*
X46104997Y-22571759D01*
X46145277Y-22463760D01*
X46152691Y-22443883D01*
X46158334Y-22391396D01*
X46159099Y-22384285D01*
X46159099Y-22384282D01*
X46159100Y-22384273D01*
X46159099Y-21688528D01*
X46152691Y-21628917D01*
X46102396Y-21494069D01*
X46099868Y-21490693D01*
X46097991Y-21486004D01*
X46097288Y-21484716D01*
X46097442Y-21484631D01*
X46071202Y-21419093D01*
X46082177Y-21342750D01*
X46099866Y-21312109D01*
X46102396Y-21308731D01*
X46152691Y-21173883D01*
X46157863Y-21125778D01*
X46159099Y-21114285D01*
X46159099Y-21114282D01*
X46159100Y-21114273D01*
X46159099Y-20418528D01*
X46152691Y-20358917D01*
X46130544Y-20299537D01*
X46102397Y-20224070D01*
X46102395Y-20224066D01*
X46016147Y-20108855D01*
X46016144Y-20108852D01*
X45900933Y-20022604D01*
X45900929Y-20022602D01*
X45766082Y-19972308D01*
X45706485Y-19965900D01*
X45706473Y-19965900D01*
X45534846Y-19965900D01*
X45460346Y-19945938D01*
X45449728Y-19939194D01*
X45403051Y-19906706D01*
X45403042Y-19906701D01*
X45216063Y-19826461D01*
X45216056Y-19826459D01*
X45060444Y-19794481D01*
X45016741Y-19785500D01*
X45016740Y-19785500D01*
X42247675Y-19785500D01*
X42245577Y-19785446D01*
X42158638Y-19783243D01*
X42098722Y-19793982D01*
X42093115Y-19794768D01*
X42032564Y-19800925D01*
X42032559Y-19800926D01*
X42000541Y-19810971D01*
X41991377Y-19813221D01*
X41958349Y-19819140D01*
X41901824Y-19841719D01*
X41896495Y-19843616D01*
X41883143Y-19847805D01*
X41838413Y-19861840D01*
X41838403Y-19861845D01*
X41809068Y-19878126D01*
X41800546Y-19882173D01*
X41769382Y-19894623D01*
X41718563Y-19928114D01*
X41713723Y-19931046D01*
X41660507Y-19960585D01*
X41660492Y-19960595D01*
X41635036Y-19982448D01*
X41627501Y-19988130D01*
X41599486Y-20006593D01*
X41599478Y-20006599D01*
X41556433Y-20049643D01*
X41552282Y-20053491D01*
X41506106Y-20093132D01*
X41506099Y-20093140D01*
X41485564Y-20119668D01*
X41479326Y-20126751D01*
X41344221Y-20261858D01*
X41277426Y-20300423D01*
X41238861Y-20305500D01*
X40514500Y-20305500D01*
X40440000Y-20285538D01*
X40385462Y-20231000D01*
X40365500Y-20156500D01*
X40365500Y-18228586D01*
X40385462Y-18154086D01*
X40409141Y-18123227D01*
X41132227Y-17400141D01*
X41199022Y-17361577D01*
X41237586Y-17356500D01*
X42525625Y-17356500D01*
X42600125Y-17376462D01*
X42630984Y-17400141D01*
X42667315Y-17436472D01*
X42812894Y-17524478D01*
X42975304Y-17575086D01*
X43045884Y-17581500D01*
X43045891Y-17581500D01*
X43488460Y-17581500D01*
X43562960Y-17601462D01*
X43617498Y-17656000D01*
X43637460Y-17730500D01*
X43628065Y-17782570D01*
X43614508Y-17818915D01*
X43608100Y-17878514D01*
X43608100Y-18574263D01*
X43608102Y-18574288D01*
X43614508Y-18633878D01*
X43614509Y-18633884D01*
X43664802Y-18768729D01*
X43664804Y-18768733D01*
X43751052Y-18883944D01*
X43751055Y-18883947D01*
X43866266Y-18970195D01*
X43866270Y-18970197D01*
X44001117Y-19020491D01*
X44060714Y-19026899D01*
X44060718Y-19026899D01*
X44060727Y-19026900D01*
X44480988Y-19026899D01*
X44536139Y-19037482D01*
X44644768Y-19080764D01*
X44679398Y-19094562D01*
X44867322Y-19125370D01*
X44867323Y-19125369D01*
X44867324Y-19125370D01*
X44867325Y-19125370D01*
X44962398Y-19120215D01*
X45057475Y-19115061D01*
X45240967Y-19064114D01*
X45278423Y-19044255D01*
X45348216Y-19026899D01*
X45706464Y-19026899D01*
X45706472Y-19026899D01*
X45766083Y-19020491D01*
X45862047Y-18984698D01*
X45900929Y-18970197D01*
X45900933Y-18970195D01*
X45967908Y-18920057D01*
X46016146Y-18883946D01*
X46081009Y-18797300D01*
X46102395Y-18768733D01*
X46102397Y-18768729D01*
X46125009Y-18708103D01*
X46152691Y-18633883D01*
X46155935Y-18603708D01*
X46159099Y-18574285D01*
X46159099Y-18574282D01*
X46159100Y-18574273D01*
X46159099Y-17878528D01*
X46152691Y-17818917D01*
X46139133Y-17782568D01*
X46131803Y-17705790D01*
X46163844Y-17635632D01*
X46226671Y-17590894D01*
X46278740Y-17581500D01*
X46634109Y-17581500D01*
X46634116Y-17581500D01*
X46704696Y-17575086D01*
X46867106Y-17524478D01*
X47012685Y-17436472D01*
X47132972Y-17316185D01*
X47220978Y-17170606D01*
X47271586Y-17008196D01*
X47278000Y-16937616D01*
X47278000Y-16765663D01*
X47279963Y-16741558D01*
X47290034Y-16680125D01*
X47294370Y-16653678D01*
X47292136Y-16612480D01*
X47284061Y-16463531D01*
X47284061Y-16463525D01*
X47283429Y-16461250D01*
X47278000Y-16421395D01*
X47278000Y-16274390D01*
X47278000Y-16274384D01*
X47271586Y-16203804D01*
X47220978Y-16041394D01*
X47132972Y-15895815D01*
X47012685Y-15775528D01*
X47012684Y-15775527D01*
X46938150Y-15730470D01*
X46867106Y-15687522D01*
X46704696Y-15636914D01*
X46634116Y-15630500D01*
X46120884Y-15630500D01*
X46059126Y-15636112D01*
X46050303Y-15636914D01*
X45887896Y-15687521D01*
X45887894Y-15687521D01*
X45887894Y-15687522D01*
X45852344Y-15709012D01*
X45778263Y-15730470D01*
X45775263Y-15730500D01*
X45554737Y-15730500D01*
X45480237Y-15710538D01*
X45477682Y-15709029D01*
X45442106Y-15687522D01*
X45279696Y-15636914D01*
X45209116Y-15630500D01*
X44695884Y-15630500D01*
X44634126Y-15636112D01*
X44625303Y-15636914D01*
X44462896Y-15687521D01*
X44462891Y-15687524D01*
X44317315Y-15775527D01*
X44232859Y-15859984D01*
X44166064Y-15898548D01*
X44088936Y-15898548D01*
X44022141Y-15859984D01*
X43937684Y-15775527D01*
X43863150Y-15730470D01*
X43792106Y-15687522D01*
X43629696Y-15636914D01*
X43559116Y-15630500D01*
X43045884Y-15630500D01*
X42984126Y-15636112D01*
X42975303Y-15636914D01*
X42812896Y-15687521D01*
X42812891Y-15687524D01*
X42667315Y-15775527D01*
X42630984Y-15811859D01*
X42564189Y-15850423D01*
X42525625Y-15855500D01*
X40930528Y-15855500D01*
X40908933Y-15853927D01*
X40886978Y-15850711D01*
X40886977Y-15850711D01*
X40877227Y-15851563D01*
X40835478Y-15855216D01*
X40828983Y-15855500D01*
X40821291Y-15855500D01*
X40788724Y-15859306D01*
X40780975Y-15859984D01*
X40712200Y-15866001D01*
X40703710Y-15867754D01*
X40703650Y-15867465D01*
X40699112Y-15868471D01*
X40699181Y-15868759D01*
X40690741Y-15870759D01*
X40618576Y-15897025D01*
X40545670Y-15921184D01*
X40537807Y-15924851D01*
X40537682Y-15924583D01*
X40533507Y-15926604D01*
X40533639Y-15926867D01*
X40525886Y-15930760D01*
X40461708Y-15972971D01*
X40396347Y-16013286D01*
X40389537Y-16018671D01*
X40389354Y-16018440D01*
X40385763Y-16021365D01*
X40385952Y-16021591D01*
X40379306Y-16027167D01*
X40326598Y-16083034D01*
X39130646Y-17278984D01*
X39114269Y-17293137D01*
X39096470Y-17306389D01*
X39063245Y-17345984D01*
X39058862Y-17350768D01*
X39053415Y-17356216D01*
X39053403Y-17356230D01*
X39033059Y-17381959D01*
X38983697Y-17440787D01*
X38978930Y-17448035D01*
X38978684Y-17447873D01*
X38976192Y-17451786D01*
X38976442Y-17451941D01*
X38971890Y-17459320D01*
X38939423Y-17528942D01*
X38904960Y-17597566D01*
X38901992Y-17605720D01*
X38901712Y-17605618D01*
X38900190Y-17609997D01*
X38900472Y-17610091D01*
X38897743Y-17618324D01*
X38892135Y-17645487D01*
X38882207Y-17693565D01*
X38876523Y-17717549D01*
X38864498Y-17768285D01*
X38863492Y-17776899D01*
X38863196Y-17776864D01*
X38862725Y-17781468D01*
X38863023Y-17781494D01*
X38862266Y-17790145D01*
X38864500Y-17866916D01*
X38864500Y-18277308D01*
X38844538Y-18351808D01*
X38790000Y-18406346D01*
X38715500Y-18426308D01*
X38641000Y-18406346D01*
X38610141Y-18382667D01*
X38064350Y-17836876D01*
X38058778Y-17830641D01*
X38035008Y-17800834D01*
X37983841Y-17756130D01*
X37980198Y-17752724D01*
X37972026Y-17744552D01*
X37939681Y-17717549D01*
X37903796Y-17686197D01*
X37865496Y-17652735D01*
X37863422Y-17651496D01*
X37844361Y-17637969D01*
X37842519Y-17636432D01*
X37756840Y-17587816D01*
X37672264Y-17537285D01*
X37672263Y-17537284D01*
X37672262Y-17537284D01*
X37671437Y-17536974D01*
X37670009Y-17536438D01*
X37648841Y-17526536D01*
X37646745Y-17525347D01*
X37646743Y-17525346D01*
X37646741Y-17525345D01*
X37646739Y-17525344D01*
X37553753Y-17492807D01*
X37461521Y-17458191D01*
X37459153Y-17457762D01*
X37436558Y-17451798D01*
X37434283Y-17451002D01*
X37336972Y-17435589D01*
X37240047Y-17418000D01*
X37240044Y-17418000D01*
X37237640Y-17418000D01*
X37214342Y-17416167D01*
X37211960Y-17415790D01*
X37211958Y-17415790D01*
X37211952Y-17415789D01*
X37113478Y-17418000D01*
X33458841Y-17418000D01*
X33328645Y-17429718D01*
X33290812Y-17433123D01*
X33290811Y-17433123D01*
X33290803Y-17433124D01*
X33073828Y-17493007D01*
X33073826Y-17493007D01*
X32871033Y-17590668D01*
X32871025Y-17590672D01*
X32834726Y-17617045D01*
X32762720Y-17644684D01*
X32747148Y-17645500D01*
X32046996Y-17645500D01*
X31944202Y-17656001D01*
X31777666Y-17711186D01*
X31628343Y-17803288D01*
X31504288Y-17927343D01*
X31412186Y-18076666D01*
X31357001Y-18243201D01*
X31346500Y-18345995D01*
X31346500Y-19071003D01*
X31348907Y-19094562D01*
X31357001Y-19173797D01*
X31412186Y-19340334D01*
X31504288Y-19489656D01*
X31628344Y-19613712D01*
X31777666Y-19705814D01*
X31944203Y-19760999D01*
X32046991Y-19771500D01*
X32881889Y-19771499D01*
X32956389Y-19791461D01*
X32958312Y-19792591D01*
X32970232Y-19799713D01*
X32970238Y-19799716D01*
X33018293Y-19817751D01*
X33180976Y-19878807D01*
X33180980Y-19878807D01*
X33180984Y-19878809D01*
X33402447Y-19918999D01*
X33402453Y-19919000D01*
X36547808Y-19919000D01*
X36622308Y-19938962D01*
X36653167Y-19962641D01*
X37170471Y-20479945D01*
X37170477Y-20479950D01*
X37170481Y-20479954D01*
X37170484Y-20479956D01*
X37296183Y-20584898D01*
X37299982Y-20588069D01*
X37495756Y-20699154D01*
X37708218Y-20773498D01*
X37736006Y-20777899D01*
X37806466Y-20809270D01*
X37851801Y-20871668D01*
X37859863Y-20948374D01*
X37849707Y-20983626D01*
X37770897Y-21168010D01*
X37720809Y-21387460D01*
X37720808Y-21387468D01*
X37710710Y-21612330D01*
X37710710Y-21612335D01*
X37740923Y-21835378D01*
X37740928Y-21835398D01*
X37810480Y-22049458D01*
X37810481Y-22049462D01*
X37917146Y-22247678D01*
X37917148Y-22247681D01*
X37986208Y-22334279D01*
X38057490Y-22423664D01*
X38057493Y-22423668D01*
X38226996Y-22571759D01*
X38227000Y-22571762D01*
X38227004Y-22571765D01*
X38227011Y-22571769D01*
X38383815Y-22665455D01*
X38420236Y-22687215D01*
X38630976Y-22766307D01*
X38630980Y-22766307D01*
X38630984Y-22766309D01*
X38852447Y-22806499D01*
X38852453Y-22806500D01*
X40152453Y-22806500D01*
X40312455Y-22806500D01*
X40386955Y-22826462D01*
X40441493Y-22881000D01*
X40461455Y-22955500D01*
X40441493Y-23030000D01*
X40434931Y-23039820D01*
X40435034Y-23039888D01*
X40432104Y-23044328D01*
X40396751Y-23107282D01*
X40395817Y-23110175D01*
X40376465Y-23160230D01*
X40330981Y-23222519D01*
X40260446Y-23253721D01*
X40237491Y-23255500D01*
X40091659Y-23255500D01*
X39992292Y-23265651D01*
X39992291Y-23265651D01*
X39831300Y-23318998D01*
X39686955Y-23408032D01*
X39567032Y-23527955D01*
X39477998Y-23672300D01*
X39424793Y-23832864D01*
X39424651Y-23833292D01*
X39418990Y-23888711D01*
X39414500Y-23932659D01*
X39414500Y-23986563D01*
X39412984Y-24007766D01*
X39409500Y-24031996D01*
X39409500Y-24680005D01*
X39414073Y-24722548D01*
X39414500Y-24730513D01*
X39414500Y-24779340D01*
X39420085Y-24834009D01*
X39424651Y-24878708D01*
X39476228Y-25034359D01*
X39477998Y-25039699D01*
X39555577Y-25165472D01*
X39567032Y-25184044D01*
X39686956Y-25303968D01*
X39831303Y-25393003D01*
X39992292Y-25446349D01*
X40091655Y-25456500D01*
X40110496Y-25456499D01*
X40184994Y-25476458D01*
X40239534Y-25530993D01*
X40259500Y-25605492D01*
X40259500Y-31269210D01*
X40239538Y-31343710D01*
X40185000Y-31398248D01*
X40110500Y-31418210D01*
X40036000Y-31398248D01*
X39988100Y-31370592D01*
X39958412Y-31355951D01*
X39958413Y-31355952D01*
X39958411Y-31355951D01*
X39837889Y-31306029D01*
X39806549Y-31295391D01*
X39806550Y-31295391D01*
X39742824Y-31278315D01*
X39742823Y-31278314D01*
X39710355Y-31271856D01*
X39710356Y-31271856D01*
X39710353Y-31271855D01*
X39710350Y-31271855D01*
X39651098Y-31264054D01*
X39576855Y-31254281D01*
X39573607Y-31253961D01*
X39560361Y-31252657D01*
X39535630Y-31251039D01*
X39519124Y-31250500D01*
X38250815Y-31250500D01*
X38250808Y-31250500D01*
X38219290Y-31252472D01*
X38219289Y-31252472D01*
X38205941Y-31254148D01*
X38172450Y-31258356D01*
X38172440Y-31258357D01*
X38172439Y-31258358D01*
X38110446Y-31270114D01*
X37977525Y-31325168D01*
X37977523Y-31325169D01*
X37916464Y-31361396D01*
X37916459Y-31361398D01*
X37832227Y-31429275D01*
X37761692Y-31460477D01*
X37723594Y-31461485D01*
X37708248Y-31459917D01*
X37665009Y-31455500D01*
X37665005Y-31455500D01*
X36464993Y-31455500D01*
X36404437Y-31461686D01*
X36328294Y-31449397D01*
X36291724Y-31426064D01*
X36204809Y-31350752D01*
X36204803Y-31350749D01*
X36204802Y-31350748D01*
X36139363Y-31320863D01*
X36073925Y-31290978D01*
X36005807Y-31270976D01*
X36005800Y-31270975D01*
X35863400Y-31250501D01*
X35863391Y-31250500D01*
X35863388Y-31250500D01*
X34510877Y-31250500D01*
X34502625Y-31250769D01*
X34494372Y-31251039D01*
X34472468Y-31252472D01*
X34469640Y-31252657D01*
X34453144Y-31254281D01*
X34386396Y-31263068D01*
X34319647Y-31271856D01*
X34319646Y-31271856D01*
X34298206Y-31276120D01*
X34287194Y-31278311D01*
X34287190Y-31278312D01*
X34287191Y-31278311D01*
X34256334Y-31286579D01*
X34223462Y-31295387D01*
X34223453Y-31295390D01*
X34192107Y-31306030D01*
X34071577Y-31355955D01*
X34041913Y-31370584D01*
X34041911Y-31370585D01*
X34041900Y-31370591D01*
X33984759Y-31403582D01*
X33984755Y-31403585D01*
X33957250Y-31421964D01*
X33957241Y-31421970D01*
X33853744Y-31501386D01*
X33828861Y-31523208D01*
X33782208Y-31569861D01*
X33770499Y-31583213D01*
X33760386Y-31594744D01*
X33680964Y-31698249D01*
X33680965Y-31698248D01*
X33671967Y-31711713D01*
X33662582Y-31725759D01*
X33629591Y-31782900D01*
X33629585Y-31782911D01*
X33629585Y-31782912D01*
X33629584Y-31782913D01*
X33614955Y-31812577D01*
X33565030Y-31933107D01*
X33565027Y-31933116D01*
X33554387Y-31964462D01*
X33547775Y-31989139D01*
X33537311Y-32028191D01*
X33537312Y-32028190D01*
X33530856Y-32060646D01*
X33530856Y-32060647D01*
X33513281Y-32194145D01*
X33511658Y-32210636D01*
X33510040Y-32235365D01*
X33509500Y-32251874D01*
X33509500Y-39773454D01*
X33515635Y-39851960D01*
X33515635Y-39851961D01*
X33521714Y-39890627D01*
X33539966Y-39967228D01*
X33603159Y-40096496D01*
X33643090Y-40155178D01*
X33643101Y-40155192D01*
X33740139Y-40261406D01*
X33767733Y-40278131D01*
X33821096Y-40333819D01*
X33839500Y-40405552D01*
X33839500Y-42183413D01*
X33819538Y-42257913D01*
X33795859Y-42288772D01*
X32372773Y-43711859D01*
X32305978Y-43750423D01*
X32267414Y-43755500D01*
X29137585Y-43755500D01*
X29063085Y-43735538D01*
X29032226Y-43711858D01*
X28934141Y-43613772D01*
X28895577Y-43546977D01*
X28890500Y-43508414D01*
X28890500Y-43463353D01*
X28910462Y-43388853D01*
X28961279Y-43336537D01*
X28994519Y-43316034D01*
X29061003Y-43275026D01*
X29184026Y-43152003D01*
X29275362Y-43003925D01*
X29330087Y-42838775D01*
X29340500Y-42736848D01*
X29340500Y-42150152D01*
X29330087Y-42048225D01*
X29275362Y-41883075D01*
X29184026Y-41734997D01*
X29147385Y-41698356D01*
X29108823Y-41631564D01*
X29108823Y-41554436D01*
X29147387Y-41487641D01*
X29214182Y-41449077D01*
X29252746Y-41444000D01*
X29350731Y-41444000D01*
X29425231Y-41463962D01*
X29427814Y-41465489D01*
X29525385Y-41524473D01*
X29525387Y-41524474D01*
X29525394Y-41524478D01*
X29687804Y-41575086D01*
X29758384Y-41581500D01*
X29914259Y-41581500D01*
X29950217Y-41585904D01*
X29953205Y-41586647D01*
X29971111Y-41591100D01*
X30055716Y-41593392D01*
X30161468Y-41596257D01*
X30161469Y-41596256D01*
X30161473Y-41596257D01*
X30224465Y-41584169D01*
X30252543Y-41581500D01*
X30421609Y-41581500D01*
X30421616Y-41581500D01*
X30492196Y-41575086D01*
X30654606Y-41524478D01*
X30800185Y-41436472D01*
X30920472Y-41316185D01*
X31008478Y-41170606D01*
X31059086Y-41008196D01*
X31065500Y-40937616D01*
X31065500Y-40424384D01*
X31059086Y-40353804D01*
X31008478Y-40191394D01*
X30920472Y-40045815D01*
X30800185Y-39925528D01*
X30800184Y-39925527D01*
X30742449Y-39890625D01*
X30654606Y-39837522D01*
X30492196Y-39786914D01*
X30421616Y-39780500D01*
X30421609Y-39780500D01*
X30356526Y-39780500D01*
X30290326Y-39764986D01*
X30243692Y-39741858D01*
X30236108Y-39739072D01*
X30236141Y-39738980D01*
X30228882Y-39736425D01*
X30228852Y-39736517D01*
X30221195Y-39733937D01*
X30139771Y-39716014D01*
X30058886Y-39695899D01*
X30050886Y-39694809D01*
X30050899Y-39694713D01*
X30043257Y-39693777D01*
X30043247Y-39693873D01*
X30035218Y-39693000D01*
X30035216Y-39693000D01*
X29951840Y-39693000D01*
X29868531Y-39690742D01*
X29860472Y-39691399D01*
X29860464Y-39691301D01*
X29842598Y-39693000D01*
X29031967Y-39693000D01*
X28957467Y-39673038D01*
X28953745Y-39670816D01*
X28912927Y-39645639D01*
X28912926Y-39645638D01*
X28912925Y-39645638D01*
X28747775Y-39590913D01*
X28645848Y-39580500D01*
X27634152Y-39580500D01*
X27552610Y-39588830D01*
X27532224Y-39590913D01*
X27367074Y-39645638D01*
X27218998Y-39736973D01*
X27095973Y-39859998D01*
X27004638Y-40008074D01*
X26954738Y-40158665D01*
X26949913Y-40173225D01*
X26939500Y-40275152D01*
X26939500Y-40861848D01*
X26949913Y-40963775D01*
X27004638Y-41128925D01*
X27095974Y-41277003D01*
X27218997Y-41400026D01*
X27218999Y-41400027D01*
X27219613Y-41400641D01*
X27258177Y-41467436D01*
X27258177Y-41544564D01*
X27219613Y-41611359D01*
X27218999Y-41611972D01*
X27218997Y-41611974D01*
X27144751Y-41686220D01*
X27095973Y-41734998D01*
X27004638Y-41883074D01*
X26953951Y-42036040D01*
X26949913Y-42048225D01*
X26939500Y-42150152D01*
X26939500Y-42736848D01*
X25534808Y-42736848D01*
X25514682Y-42697348D01*
X25514680Y-42697345D01*
X25514678Y-42697341D01*
X25314851Y-42389634D01*
X25197835Y-42245132D01*
X25083949Y-42104494D01*
X24824506Y-41845051D01*
X24560872Y-41631564D01*
X24539365Y-41614148D01*
X24231658Y-41414321D01*
X24231645Y-41414314D01*
X23904738Y-41247746D01*
X23904722Y-41247739D01*
X23562215Y-41116263D01*
X23562194Y-41116256D01*
X23207802Y-41021297D01*
X23207800Y-41021296D01*
X23158603Y-41013504D01*
X23003948Y-40989009D01*
X22845398Y-40963897D01*
X22479000Y-40944696D01*
X22112601Y-40963897D01*
X21750199Y-41021296D01*
X21750197Y-41021297D01*
X21395805Y-41116256D01*
X21395784Y-41116263D01*
X21053277Y-41247739D01*
X21053261Y-41247746D01*
X20726354Y-41414314D01*
X20726341Y-41414321D01*
X20418634Y-41614148D01*
X20133490Y-41845054D01*
X19874054Y-42104490D01*
X19643148Y-42389634D01*
X19443321Y-42697341D01*
X19443314Y-42697354D01*
X19406781Y-42769055D01*
X19314486Y-42950195D01*
X19307260Y-42964376D01*
X19255651Y-43021693D01*
X19182298Y-43045527D01*
X19106855Y-43029491D01*
X19049538Y-42977882D01*
X19025704Y-42904529D01*
X19025500Y-42896731D01*
X19025500Y-35129516D01*
X24252143Y-35129516D01*
X24253544Y-35130095D01*
X24506077Y-35190723D01*
X24765000Y-35211101D01*
X25023922Y-35190723D01*
X25276452Y-35130096D01*
X25276457Y-35130095D01*
X25277854Y-35129516D01*
X24765000Y-34616660D01*
X24252143Y-35129516D01*
X19025500Y-35129516D01*
X19025500Y-33556000D01*
X23109898Y-33556000D01*
X23130276Y-33814922D01*
X23190903Y-34067453D01*
X23190906Y-34067462D01*
X23191482Y-34068854D01*
X23191483Y-34068854D01*
X23704338Y-33555999D01*
X23663201Y-33514862D01*
X24111127Y-33514862D01*
X24121439Y-33678766D01*
X24172188Y-33834956D01*
X24260186Y-33973619D01*
X24379903Y-34086040D01*
X24523817Y-34165158D01*
X24682886Y-34206000D01*
X24805894Y-34206000D01*
X24927933Y-34190583D01*
X25080629Y-34130126D01*
X25213492Y-34033595D01*
X25318175Y-33907055D01*
X25388100Y-33758457D01*
X25418873Y-33597138D01*
X25416285Y-33555999D01*
X25825660Y-33555999D01*
X26338516Y-34068854D01*
X26339095Y-34067457D01*
X26339096Y-34067452D01*
X26399723Y-33814922D01*
X26420101Y-33556000D01*
X26399723Y-33297077D01*
X26339095Y-33044544D01*
X26338515Y-33043143D01*
X25825660Y-33555999D01*
X25416285Y-33555999D01*
X25408561Y-33433234D01*
X25357812Y-33277044D01*
X25269814Y-33138381D01*
X25150097Y-33025960D01*
X25006183Y-32946842D01*
X24847114Y-32906000D01*
X24724106Y-32906000D01*
X24602067Y-32921417D01*
X24449371Y-32981874D01*
X24316508Y-33078405D01*
X24211825Y-33204945D01*
X24141900Y-33353543D01*
X24111127Y-33514862D01*
X23663201Y-33514862D01*
X23191483Y-33043144D01*
X23190901Y-33044553D01*
X23130276Y-33297077D01*
X23109898Y-33556000D01*
X19025500Y-33556000D01*
X19025500Y-31982483D01*
X24252144Y-31982483D01*
X24764999Y-32495338D01*
X25277854Y-31982483D01*
X25277854Y-31982482D01*
X25276462Y-31981906D01*
X25276453Y-31981903D01*
X25023922Y-31921276D01*
X24765000Y-31900898D01*
X24506077Y-31921276D01*
X24253553Y-31981901D01*
X24252144Y-31982483D01*
X19025500Y-31982483D01*
X19025500Y-29903863D01*
X22964500Y-29903863D01*
X22964502Y-29903888D01*
X22970908Y-29963478D01*
X22970909Y-29963484D01*
X23021202Y-30098329D01*
X23021204Y-30098333D01*
X23107452Y-30213544D01*
X23107455Y-30213547D01*
X23222666Y-30299795D01*
X23222670Y-30299797D01*
X23357517Y-30350091D01*
X23417114Y-30356499D01*
X23417118Y-30356499D01*
X23417127Y-30356500D01*
X26112872Y-30356499D01*
X26172483Y-30350091D01*
X26172491Y-30350087D01*
X26181555Y-30347947D01*
X26182398Y-30351518D01*
X26240503Y-30345814D01*
X26310746Y-30377667D01*
X26313757Y-30380206D01*
X26349586Y-30411252D01*
X26480464Y-30471022D01*
X26499298Y-30476552D01*
X26548580Y-30491023D01*
X26548583Y-30491023D01*
X26548585Y-30491024D01*
X26691000Y-30511500D01*
X26691004Y-30511500D01*
X33768119Y-30511500D01*
X33780541Y-30511195D01*
X33799113Y-30510281D01*
X33811469Y-30509369D01*
X34009634Y-30489851D01*
X34009644Y-30489849D01*
X34009647Y-30489849D01*
X34034179Y-30486210D01*
X34082741Y-30476552D01*
X34106825Y-30470519D01*
X34294421Y-30413614D01*
X34311824Y-30407386D01*
X34317801Y-30405248D01*
X34317798Y-30405249D01*
X34344597Y-30394148D01*
X34363544Y-30386300D01*
X34385979Y-30375689D01*
X34385986Y-30375685D01*
X34385987Y-30375685D01*
X34558848Y-30283287D01*
X34558847Y-30283287D01*
X34558863Y-30283279D01*
X34580150Y-30270520D01*
X34580155Y-30270516D01*
X34580161Y-30270513D01*
X34621321Y-30243011D01*
X34621320Y-30243011D01*
X34621323Y-30243009D01*
X34626866Y-30238897D01*
X34641248Y-30228232D01*
X34641247Y-30228232D01*
X34641258Y-30228224D01*
X34792792Y-30103863D01*
X34811182Y-30087196D01*
X34846196Y-30052182D01*
X34862863Y-30033792D01*
X34987224Y-29882258D01*
X34987232Y-29882247D01*
X34987232Y-29882248D01*
X35002011Y-29862320D01*
X35002011Y-29862321D01*
X35029513Y-29821161D01*
X35029520Y-29821150D01*
X35042279Y-29799863D01*
X35134689Y-29626979D01*
X35145300Y-29604544D01*
X35151369Y-29589891D01*
X35164248Y-29558801D01*
X35166386Y-29552824D01*
X35172614Y-29535421D01*
X35195807Y-29458961D01*
X35229519Y-29347825D01*
X35235552Y-29323741D01*
X35245210Y-29275179D01*
X35245210Y-29275177D01*
X35248849Y-29250649D01*
X35248849Y-29250644D01*
X35248851Y-29250634D01*
X35268369Y-29052468D01*
X35269281Y-29040112D01*
X35270195Y-29021540D01*
X35270500Y-29009118D01*
X35270500Y-24171999D01*
X35269798Y-24165472D01*
X35264118Y-24112636D01*
X35276002Y-24036429D01*
X35324397Y-23976374D01*
X35334043Y-23969891D01*
X35390197Y-23935255D01*
X35465656Y-23888712D01*
X35589712Y-23764656D01*
X35681814Y-23615334D01*
X35736999Y-23448797D01*
X35747500Y-23346009D01*
X35747499Y-22620992D01*
X35736999Y-22518203D01*
X35681814Y-22351666D01*
X35589712Y-22202344D01*
X35465656Y-22078288D01*
X35316334Y-21986186D01*
X35211463Y-21951435D01*
X35149798Y-21931001D01*
X35129239Y-21928900D01*
X35047009Y-21920500D01*
X35047005Y-21920500D01*
X34028937Y-21920500D01*
X34007734Y-21918984D01*
X33983503Y-21915500D01*
X33983500Y-21915500D01*
X33110500Y-21915500D01*
X33110496Y-21915500D01*
X33067954Y-21920073D01*
X33059987Y-21920500D01*
X32046996Y-21920500D01*
X31944202Y-21931001D01*
X31777666Y-21986186D01*
X31628343Y-22078288D01*
X31504288Y-22202343D01*
X31412186Y-22351666D01*
X31357001Y-22518201D01*
X31357001Y-22518202D01*
X31357001Y-22518203D01*
X31347205Y-22614098D01*
X31346500Y-22620995D01*
X31346500Y-23346003D01*
X31353994Y-23419364D01*
X31357001Y-23448797D01*
X31412186Y-23615334D01*
X31504288Y-23764656D01*
X31628344Y-23888712D01*
X31699594Y-23932659D01*
X31703059Y-23934796D01*
X31755988Y-23990897D01*
X31773775Y-24065946D01*
X31772322Y-24082817D01*
X31759500Y-24171997D01*
X31759500Y-26601500D01*
X31739538Y-26676000D01*
X31685000Y-26730538D01*
X31610500Y-26750500D01*
X26691000Y-26750500D01*
X26690995Y-26750500D01*
X26690985Y-26750501D01*
X26583565Y-26762049D01*
X26583545Y-26762053D01*
X26531228Y-26773433D01*
X26531200Y-26773440D01*
X26428663Y-26807567D01*
X26427141Y-26808296D01*
X26425626Y-26808578D01*
X26419823Y-26810510D01*
X26419556Y-26809710D01*
X26351320Y-26822436D01*
X26310777Y-26813488D01*
X26172482Y-26761908D01*
X26112876Y-26755500D01*
X23417136Y-26755500D01*
X23417111Y-26755502D01*
X23357521Y-26761908D01*
X23357515Y-26761909D01*
X23222670Y-26812202D01*
X23222666Y-26812204D01*
X23107455Y-26898452D01*
X23107452Y-26898455D01*
X23021204Y-27013666D01*
X23021202Y-27013670D01*
X22970908Y-27148517D01*
X22964500Y-27208114D01*
X22964500Y-29903863D01*
X19025500Y-29903863D01*
X19025500Y-20217519D01*
X19045462Y-20143019D01*
X19100000Y-20088481D01*
X19174500Y-20068519D01*
X19249000Y-20088481D01*
X19303538Y-20143019D01*
X19307261Y-20149877D01*
X19316310Y-20167639D01*
X19316321Y-20167658D01*
X19516148Y-20475365D01*
X19539081Y-20503685D01*
X19747051Y-20760506D01*
X20006494Y-21019949D01*
X20196657Y-21173940D01*
X20291634Y-21250851D01*
X20599341Y-21450678D01*
X20599345Y-21450680D01*
X20599348Y-21450682D01*
X20926264Y-21617255D01*
X20926276Y-21617259D01*
X20926277Y-21617260D01*
X21268784Y-21748736D01*
X21268794Y-21748739D01*
X21268801Y-21748742D01*
X21623206Y-21843705D01*
X21985596Y-21901102D01*
X22352000Y-21920304D01*
X22718404Y-21901102D01*
X23080794Y-21843705D01*
X23435199Y-21748742D01*
X23777736Y-21617255D01*
X24104652Y-21450682D01*
X24154992Y-21417991D01*
X25204844Y-21417991D01*
X25214577Y-21597495D01*
X25214577Y-21597499D01*
X25214578Y-21597501D01*
X25218697Y-21612335D01*
X25262672Y-21770720D01*
X25262672Y-21770721D01*
X25346881Y-21929556D01*
X25346882Y-21929558D01*
X25463262Y-22066571D01*
X25463265Y-22066574D01*
X25551720Y-22133816D01*
X25604979Y-22174303D01*
X25606382Y-22175369D01*
X25769541Y-22250854D01*
X25945113Y-22289500D01*
X25945118Y-22289500D01*
X26079807Y-22289500D01*
X26079816Y-22289500D01*
X26213721Y-22274937D01*
X26297468Y-22246719D01*
X26384083Y-22217536D01*
X26384090Y-22217532D01*
X26538121Y-22124854D01*
X26538120Y-22124854D01*
X26538126Y-22124851D01*
X26668642Y-22001220D01*
X26769529Y-21852423D01*
X26836070Y-21685416D01*
X26865155Y-21508010D01*
X26863887Y-21484631D01*
X26861505Y-21440693D01*
X26855422Y-21328499D01*
X26807327Y-21155277D01*
X26723119Y-20996444D01*
X26723117Y-20996442D01*
X26723117Y-20996441D01*
X26606737Y-20859428D01*
X26606736Y-20859427D01*
X26606735Y-20859426D01*
X26503568Y-20781000D01*
X26463620Y-20750632D01*
X26463616Y-20750630D01*
X26300459Y-20675146D01*
X26124887Y-20636500D01*
X25990184Y-20636500D01*
X25990183Y-20636500D01*
X25856275Y-20651063D01*
X25856273Y-20651064D01*
X25685916Y-20708463D01*
X25685909Y-20708467D01*
X25531878Y-20801145D01*
X25470349Y-20859428D01*
X25401358Y-20924780D01*
X25300471Y-21073577D01*
X25300469Y-21073579D01*
X25300469Y-21073581D01*
X25233930Y-21240583D01*
X25204845Y-21417990D01*
X25204844Y-21417991D01*
X24154992Y-21417991D01*
X24412366Y-21250851D01*
X24697506Y-21019949D01*
X24956949Y-20760506D01*
X25187851Y-20475366D01*
X25387682Y-20167652D01*
X25554255Y-19840736D01*
X25685742Y-19498199D01*
X25780705Y-19143794D01*
X25838102Y-18781404D01*
X25857304Y-18415000D01*
X25838102Y-18048596D01*
X25780705Y-17686206D01*
X25685742Y-17331801D01*
X25685739Y-17331794D01*
X25685736Y-17331784D01*
X25554260Y-16989277D01*
X25554259Y-16989276D01*
X25554255Y-16989264D01*
X25387682Y-16662348D01*
X25387680Y-16662345D01*
X25387678Y-16662341D01*
X25187851Y-16354634D01*
X25162631Y-16323490D01*
X24956949Y-16069494D01*
X24697506Y-15810051D01*
X24412366Y-15579149D01*
X24412367Y-15579149D01*
X24412365Y-15579148D01*
X24104658Y-15379321D01*
X24104645Y-15379314D01*
X23963231Y-15307260D01*
X23905914Y-15255651D01*
X23882080Y-15182298D01*
X23898116Y-15106855D01*
X23949725Y-15049538D01*
X24023078Y-15025704D01*
X24030876Y-15025500D01*
X85428066Y-15025500D01*
X85502566Y-15045462D01*
G37*
G04 #@! TD.AperFunction*
G04 #@! TA.AperFunction,Conductor*
G36*
X54769090Y-26506538D02*
G01*
X54877964Y-26520871D01*
X54909731Y-26529383D01*
X54999675Y-26566639D01*
X55028160Y-26583085D01*
X55105393Y-26642349D01*
X55128650Y-26665606D01*
X55187914Y-26742839D01*
X55204361Y-26771326D01*
X55241615Y-26861265D01*
X55250128Y-26893036D01*
X55264460Y-27001900D01*
X55265000Y-27010132D01*
X55265000Y-37001867D01*
X55264460Y-37010099D01*
X55250128Y-37118963D01*
X55241615Y-37150734D01*
X55204361Y-37240673D01*
X55187914Y-37269160D01*
X55128650Y-37346393D01*
X55105393Y-37369650D01*
X55028160Y-37428914D01*
X54999673Y-37445361D01*
X54909734Y-37482615D01*
X54877963Y-37491128D01*
X54769099Y-37505460D01*
X54760867Y-37506000D01*
X48265000Y-37506000D01*
X48265000Y-38005997D01*
X48265000Y-39062967D01*
X48244998Y-39131088D01*
X48191342Y-39177581D01*
X48121068Y-39187685D01*
X48090786Y-39179377D01*
X48071632Y-39171444D01*
X48071633Y-39171444D01*
X47954325Y-39156000D01*
X47840000Y-39156000D01*
X47840000Y-40530000D01*
X47819998Y-40598121D01*
X47766342Y-40644614D01*
X47714000Y-40656000D01*
X46816000Y-40656000D01*
X46747879Y-40635998D01*
X46701386Y-40582342D01*
X46690000Y-40530000D01*
X46690000Y-39156000D01*
X46575686Y-39156000D01*
X46575673Y-39156001D01*
X46458370Y-39171443D01*
X46458363Y-39171445D01*
X46439214Y-39179377D01*
X46368624Y-39186964D01*
X46305138Y-39155183D01*
X46268913Y-39094124D01*
X46265000Y-39062967D01*
X46265000Y-38006007D01*
X46265000Y-38006000D01*
X46265000Y-37506000D01*
X45765002Y-37506000D01*
X37764997Y-37506000D01*
X37265000Y-37506000D01*
X37265000Y-38005997D01*
X37265000Y-39773448D01*
X37244998Y-39841569D01*
X37191342Y-39888062D01*
X37121068Y-39898166D01*
X37083662Y-39886646D01*
X37041249Y-39865912D01*
X36973220Y-39856000D01*
X36390000Y-39856000D01*
X36390000Y-42130000D01*
X36369998Y-42198121D01*
X36316342Y-42244614D01*
X36264000Y-42256000D01*
X35016000Y-42256000D01*
X34947879Y-42235998D01*
X34901386Y-42182342D01*
X34890000Y-42130000D01*
X34890000Y-41464862D01*
X34986127Y-41464862D01*
X34996439Y-41628766D01*
X35047188Y-41784956D01*
X35135186Y-41923619D01*
X35254903Y-42036040D01*
X35398817Y-42115158D01*
X35557886Y-42156000D01*
X35680894Y-42156000D01*
X35802933Y-42140583D01*
X35955629Y-42080126D01*
X36088492Y-41983595D01*
X36193175Y-41857055D01*
X36263100Y-41708457D01*
X36293873Y-41547138D01*
X36283561Y-41383234D01*
X36232812Y-41227044D01*
X36144814Y-41088381D01*
X36025097Y-40975960D01*
X35881183Y-40896842D01*
X35722114Y-40856000D01*
X35599106Y-40856000D01*
X35477067Y-40871417D01*
X35324371Y-40931874D01*
X35191508Y-41028405D01*
X35086825Y-41154945D01*
X35016900Y-41303543D01*
X34986127Y-41464862D01*
X34890000Y-41464862D01*
X34890000Y-39856000D01*
X34306783Y-39856000D01*
X34238752Y-39865911D01*
X34238748Y-39865913D01*
X34196337Y-39886646D01*
X34126353Y-39898594D01*
X34061019Y-39870808D01*
X34021079Y-39812112D01*
X34015000Y-39773448D01*
X34015000Y-34456000D01*
X35915001Y-34456000D01*
X35915001Y-35245330D01*
X35930444Y-35362629D01*
X35930445Y-35362633D01*
X35990899Y-35508588D01*
X36087074Y-35633925D01*
X36212409Y-35730098D01*
X36314999Y-35772592D01*
X36315000Y-35772592D01*
X36315000Y-34456000D01*
X37815000Y-34456000D01*
X37815000Y-35772592D01*
X37917590Y-35730098D01*
X38042925Y-35633925D01*
X38139100Y-35508588D01*
X38199555Y-35362631D01*
X38214999Y-35245325D01*
X38215000Y-35245316D01*
X38215000Y-34456000D01*
X37815000Y-34456000D01*
X36315000Y-34456000D01*
X35915001Y-34456000D01*
X34015000Y-34456000D01*
X34015000Y-32260132D01*
X34015538Y-32251910D01*
X34029872Y-32143033D01*
X34038382Y-32111270D01*
X34075640Y-32021321D01*
X34092082Y-31992843D01*
X34151351Y-31915603D01*
X34174603Y-31892351D01*
X34251843Y-31833082D01*
X34280321Y-31816640D01*
X34370270Y-31779382D01*
X34402033Y-31770872D01*
X34510909Y-31756538D01*
X34519133Y-31756000D01*
X35863388Y-31756000D01*
X35931509Y-31776002D01*
X35978002Y-31829658D01*
X35988106Y-31899932D01*
X35979797Y-31930217D01*
X35930444Y-32049368D01*
X35915000Y-32166674D01*
X35915000Y-32956000D01*
X38214999Y-32956000D01*
X38214999Y-32166678D01*
X38214998Y-32166669D01*
X38199555Y-32049370D01*
X38199554Y-32049366D01*
X38150203Y-31930217D01*
X38142614Y-31859627D01*
X38174394Y-31796140D01*
X38235453Y-31759914D01*
X38266612Y-31756000D01*
X39510867Y-31756000D01*
X39519090Y-31756538D01*
X39627964Y-31770871D01*
X39659731Y-31779383D01*
X39749675Y-31816639D01*
X39778160Y-31833085D01*
X39855393Y-31892349D01*
X39878650Y-31915606D01*
X39937914Y-31992839D01*
X39954361Y-32021326D01*
X39991615Y-32111265D01*
X40000128Y-32143036D01*
X40014460Y-32251900D01*
X40015000Y-32260132D01*
X40015000Y-34506000D01*
X50264993Y-34506000D01*
X50265000Y-34506000D01*
X50765000Y-34506000D01*
X50765000Y-30867000D01*
X51251201Y-30867000D01*
X51251201Y-32850216D01*
X51261111Y-32918247D01*
X51261112Y-32918248D01*
X51312414Y-33023190D01*
X51395009Y-33105785D01*
X51395011Y-33105786D01*
X51499948Y-33157086D01*
X51499950Y-33157087D01*
X51567982Y-33166999D01*
X52301200Y-33166999D01*
X52301200Y-30867000D01*
X53801200Y-30867000D01*
X53801200Y-33166999D01*
X54534417Y-33166999D01*
X54602447Y-33157088D01*
X54602448Y-33157087D01*
X54707390Y-33105785D01*
X54789985Y-33023190D01*
X54789986Y-33023188D01*
X54841286Y-32918251D01*
X54841287Y-32918249D01*
X54851199Y-32850220D01*
X54851200Y-32850214D01*
X54851200Y-30867000D01*
X53801200Y-30867000D01*
X52301200Y-30867000D01*
X51251201Y-30867000D01*
X50765000Y-30867000D01*
X50765000Y-29367000D01*
X51251200Y-29367000D01*
X52301200Y-29367000D01*
X52301200Y-27067000D01*
X53801200Y-27067000D01*
X53801200Y-29367000D01*
X54851199Y-29367000D01*
X54851199Y-27383783D01*
X54841288Y-27315752D01*
X54841287Y-27315751D01*
X54789985Y-27210809D01*
X54707390Y-27128214D01*
X54707388Y-27128213D01*
X54602451Y-27076913D01*
X54602449Y-27076912D01*
X54534420Y-27067000D01*
X53801200Y-27067000D01*
X52301200Y-27067000D01*
X51567983Y-27067000D01*
X51499952Y-27076911D01*
X51499951Y-27076912D01*
X51395009Y-27128214D01*
X51312414Y-27210809D01*
X51312413Y-27210811D01*
X51261113Y-27315748D01*
X51261112Y-27315750D01*
X51251200Y-27383779D01*
X51251200Y-29367000D01*
X50765000Y-29367000D01*
X50765000Y-27010132D01*
X50765538Y-27001910D01*
X50779872Y-26893033D01*
X50788382Y-26861270D01*
X50825640Y-26771321D01*
X50842082Y-26742843D01*
X50901351Y-26665603D01*
X50924603Y-26642351D01*
X51001843Y-26583082D01*
X51030321Y-26566640D01*
X51120270Y-26529382D01*
X51152033Y-26520872D01*
X51260909Y-26506538D01*
X51269133Y-26506000D01*
X54760867Y-26506000D01*
X54769090Y-26506538D01*
G37*
G04 #@! TD.AperFunction*
M02*
