G04 #@! TF.GenerationSoftware,KiCad,Pcbnew,7.0.8*
G04 #@! TF.CreationDate,2023-11-17T13:56:21+01:00*
G04 #@! TF.ProjectId,shmoergh-dual-rail-psu,73686d6f-6572-4676-982d-6475616c2d72,rev?*
G04 #@! TF.SameCoordinates,Original*
G04 #@! TF.FileFunction,Copper,L4,Bot*
G04 #@! TF.FilePolarity,Positive*
%FSLAX46Y46*%
G04 Gerber Fmt 4.6, Leading zero omitted, Abs format (unit mm)*
G04 Created by KiCad (PCBNEW 7.0.8) date 2023-11-17 13:56:21*
%MOMM*%
%LPD*%
G01*
G04 APERTURE LIST*
G04 #@! TA.AperFunction,ComponentPad*
%ADD10C,6.000000*%
G04 #@! TD*
G04 #@! TA.AperFunction,SMDPad,CuDef*
%ADD11R,2.950000X4.500000*%
G04 #@! TD*
G04 #@! TA.AperFunction,ComponentPad*
%ADD12R,2.600000X2.600000*%
G04 #@! TD*
G04 #@! TA.AperFunction,ComponentPad*
%ADD13C,2.600000*%
G04 #@! TD*
G04 #@! TA.AperFunction,ViaPad*
%ADD14C,0.800000*%
G04 #@! TD*
G04 #@! TA.AperFunction,ViaPad*
%ADD15C,0.600000*%
G04 #@! TD*
G04 #@! TA.AperFunction,ViaPad*
%ADD16C,1.000000*%
G04 #@! TD*
G04 #@! TA.AperFunction,Conductor*
%ADD17C,0.750000*%
G04 #@! TD*
G04 #@! TA.AperFunction,Conductor*
%ADD18C,0.500000*%
G04 #@! TD*
G04 APERTURE END LIST*
D10*
X86487000Y-44577000D03*
X86487000Y-18669000D03*
X22352000Y-18415000D03*
X22479000Y-44450000D03*
D11*
X47583600Y-20131400D03*
D12*
X24765000Y-28556000D03*
D13*
X24765000Y-33556000D03*
D12*
X35640000Y-41506000D03*
D13*
X40640000Y-41506000D03*
D12*
X57865000Y-42418000D03*
D13*
X62865000Y-42418000D03*
X67865000Y-42418000D03*
D14*
X84855000Y-22606000D03*
X87346646Y-31768000D03*
X87346646Y-24148000D03*
X87200646Y-38989000D03*
X87346646Y-22479000D03*
X87256646Y-29256000D03*
X87256646Y-26756000D03*
X87256646Y-36756000D03*
X87256646Y-34256000D03*
X26543000Y-17653000D03*
D15*
X67765000Y-24206000D03*
X67765000Y-23356000D03*
X68615000Y-23356000D03*
X69465000Y-23356000D03*
X69465000Y-24206000D03*
X69465000Y-25056000D03*
X68615000Y-25056000D03*
X67765000Y-25056000D03*
D14*
X56715000Y-25506000D03*
X56890000Y-24206000D03*
X60190000Y-22956000D03*
X63640000Y-21781000D03*
X62590000Y-19356000D03*
X66590000Y-17331000D03*
X78815000Y-27356000D03*
X80790000Y-27881000D03*
X80940000Y-25156000D03*
X80940000Y-24256000D03*
X77515000Y-24256000D03*
X77515000Y-25156000D03*
X68715000Y-32906000D03*
X68815000Y-31756000D03*
X52340000Y-43181000D03*
X30090000Y-43331000D03*
X29765000Y-16256000D03*
X32265000Y-16256000D03*
X34765000Y-16256000D03*
X37265000Y-16256000D03*
X59765000Y-16256000D03*
X62265000Y-16256000D03*
X64765000Y-16256000D03*
X67265000Y-16256000D03*
X69765000Y-16256000D03*
X72265000Y-16256000D03*
X74765000Y-16256000D03*
X77265000Y-16256000D03*
X79765000Y-16256000D03*
X82265000Y-16256000D03*
X20265000Y-26756000D03*
X20265000Y-41021000D03*
X20265000Y-39256000D03*
X20265000Y-36756000D03*
X20265000Y-34256000D03*
X20265000Y-29256000D03*
X20265000Y-24256000D03*
X20265000Y-21756000D03*
X32265000Y-45756000D03*
X34765000Y-45756000D03*
X52265000Y-45756000D03*
X82265000Y-45756000D03*
X39765000Y-45756000D03*
X42265000Y-45756000D03*
X64765000Y-45756000D03*
X59765000Y-45756000D03*
X47265000Y-45756000D03*
X49765000Y-45756000D03*
X54765000Y-45756000D03*
X67265000Y-45756000D03*
X27265000Y-45756000D03*
X37265000Y-45756000D03*
X44765000Y-45756000D03*
X69765000Y-45756000D03*
X57265000Y-45756000D03*
X62265000Y-45756000D03*
X79765000Y-45756000D03*
X29765000Y-45756000D03*
X66915000Y-28706000D03*
X68015000Y-28706000D03*
X66915000Y-29756000D03*
X68015000Y-29756000D03*
X66915000Y-30806000D03*
X68015000Y-30806000D03*
X29765000Y-19256000D03*
X29765000Y-21756000D03*
X29765000Y-24256000D03*
X27265000Y-24256000D03*
X24765000Y-24256000D03*
X27686000Y-21844000D03*
X27265000Y-19256000D03*
X24257000Y-22606000D03*
X24765000Y-36756000D03*
X24765000Y-39256000D03*
X32265000Y-31756000D03*
X57265000Y-19256000D03*
X59765000Y-19256000D03*
X59765000Y-21756000D03*
X57265000Y-21756000D03*
X82265000Y-26756000D03*
X84765000Y-34256000D03*
X84765000Y-36756000D03*
X32265000Y-36756000D03*
X84765000Y-26756000D03*
X84765000Y-29256000D03*
X39765000Y-16256000D03*
X57265000Y-16256000D03*
X54765000Y-16256000D03*
X43815000Y-19506000D03*
X41465000Y-19806000D03*
X41465000Y-17706000D03*
X42765000Y-18756000D03*
X46565000Y-18306000D03*
X48665000Y-18306000D03*
X46565000Y-19506000D03*
X48665000Y-19506000D03*
X48665000Y-20806000D03*
X46565000Y-20806000D03*
X46565000Y-22056000D03*
X48665000Y-22056000D03*
X48865000Y-16606000D03*
X50015000Y-16606000D03*
X38315000Y-28306000D03*
X35815000Y-28306000D03*
X37065000Y-26106000D03*
X37065000Y-30506000D03*
X36165000Y-24356000D03*
X37965000Y-24356000D03*
X37065000Y-22456000D03*
X56715000Y-26706000D03*
X70915000Y-31756000D03*
X46415000Y-44056000D03*
X48115000Y-44056000D03*
X76265000Y-39256000D03*
X77665000Y-36106000D03*
X77665000Y-34256000D03*
X22465000Y-24256000D03*
X22465000Y-22606000D03*
X22465000Y-36756000D03*
X22465000Y-38608000D03*
X24765000Y-41021000D03*
X77665000Y-30906000D03*
X35865000Y-21556000D03*
X33515000Y-20756000D03*
X82823000Y-21862000D03*
X82931000Y-31768000D03*
X82931000Y-29228000D03*
X71501000Y-37592000D03*
X82315000Y-18560000D03*
X85598000Y-40640000D03*
X88392000Y-40640000D03*
X84709000Y-38989000D03*
X27265000Y-16256000D03*
X82931000Y-39116000D03*
X22606000Y-40386000D03*
X82931000Y-36703000D03*
X71373900Y-45720800D03*
X84855000Y-24148000D03*
X73787000Y-39370000D03*
X82823000Y-24148000D03*
D15*
X68615000Y-24206000D03*
D14*
X73787000Y-37592000D03*
X82423000Y-43688000D03*
X76454000Y-37592000D03*
X71501000Y-39370000D03*
X82931000Y-34308000D03*
X84855000Y-31768000D03*
X74965000Y-24456000D03*
X72365000Y-19793500D03*
D16*
X52015000Y-34256000D03*
D14*
X73215000Y-30206000D03*
X72190000Y-30206000D03*
D16*
X53515000Y-34256000D03*
D14*
X72190000Y-29181000D03*
D16*
X52015000Y-35756000D03*
D14*
X73215000Y-29181000D03*
D16*
X53515000Y-35756000D03*
D15*
X71665000Y-24556000D03*
X71665000Y-23756000D03*
X69365000Y-27456000D03*
D17*
X74965000Y-22393500D02*
X72365000Y-19793500D01*
X74965000Y-24456000D02*
X74965000Y-22393500D01*
D18*
X69365000Y-27456000D02*
X69365000Y-26856000D01*
X71665000Y-24556000D02*
X71665000Y-23756000D01*
X69365000Y-26856000D02*
X71665000Y-24556000D01*
G04 #@! TA.AperFunction,Conductor*
G36*
X72858109Y-28772557D02*
G01*
X72882326Y-28777373D01*
X73032106Y-28822808D01*
X73054925Y-28832261D01*
X73192958Y-28906041D01*
X73213490Y-28919759D01*
X73334482Y-29019054D01*
X73351945Y-29036517D01*
X73451238Y-29157507D01*
X73464958Y-29178041D01*
X73538738Y-29316074D01*
X73548191Y-29338894D01*
X73593624Y-29488667D01*
X73598442Y-29512892D01*
X73614696Y-29677915D01*
X73615000Y-29684094D01*
X73615000Y-35552905D01*
X73614696Y-35559084D01*
X73597001Y-35738738D01*
X73592183Y-35762962D01*
X73542482Y-35926808D01*
X73533029Y-35949629D01*
X73452318Y-36100627D01*
X73438595Y-36121165D01*
X73329979Y-36253514D01*
X73312514Y-36270979D01*
X73180165Y-36379595D01*
X73159627Y-36393318D01*
X73008629Y-36474029D01*
X72985808Y-36483482D01*
X72821962Y-36533183D01*
X72797738Y-36538001D01*
X72618085Y-36555696D01*
X72611906Y-36556000D01*
X52268094Y-36556000D01*
X52261915Y-36555696D01*
X52082261Y-36538001D01*
X52058037Y-36533183D01*
X51894191Y-36483482D01*
X51871372Y-36474030D01*
X51823011Y-36448180D01*
X51720372Y-36393318D01*
X51699834Y-36379595D01*
X51567485Y-36270979D01*
X51550020Y-36253514D01*
X51441404Y-36121165D01*
X51427681Y-36100627D01*
X51414064Y-36075153D01*
X51346967Y-35949622D01*
X51337520Y-35926815D01*
X51287815Y-35762959D01*
X51282998Y-35738737D01*
X51265304Y-35559084D01*
X51265000Y-35552905D01*
X51265000Y-34509094D01*
X51265304Y-34502915D01*
X51282998Y-34323262D01*
X51287814Y-34299042D01*
X51337521Y-34135181D01*
X51346965Y-34112380D01*
X51427682Y-33961369D01*
X51441398Y-33940842D01*
X51550025Y-33808479D01*
X51567479Y-33791025D01*
X51699842Y-33682398D01*
X51720369Y-33668682D01*
X51871380Y-33587965D01*
X51894181Y-33578521D01*
X52058042Y-33528814D01*
X52082257Y-33523998D01*
X52214385Y-33510985D01*
X52261915Y-33506304D01*
X52268094Y-33506000D01*
X53760867Y-33506000D01*
X53769090Y-33506538D01*
X53877964Y-33520871D01*
X53909731Y-33529383D01*
X53999675Y-33566639D01*
X54028160Y-33583085D01*
X54105393Y-33642349D01*
X54128650Y-33665606D01*
X54187914Y-33742839D01*
X54204361Y-33771326D01*
X54241615Y-33861265D01*
X54250128Y-33893037D01*
X54265000Y-34006000D01*
X54265000Y-34506000D01*
X70764991Y-34506000D01*
X70765000Y-34506000D01*
X71765000Y-34506000D01*
X71765000Y-32074005D01*
X71771167Y-32035068D01*
X71800674Y-31944255D01*
X71820460Y-31756000D01*
X71800674Y-31567744D01*
X71771167Y-31476930D01*
X71765000Y-31437994D01*
X71765000Y-29684094D01*
X71765304Y-29677915D01*
X71781557Y-29512893D01*
X71781558Y-29512892D01*
X71781557Y-29512888D01*
X71786373Y-29488675D01*
X71831809Y-29338889D01*
X71841261Y-29316074D01*
X71858833Y-29283197D01*
X71915044Y-29178035D01*
X71928756Y-29157513D01*
X72028059Y-29036511D01*
X72045511Y-29019059D01*
X72166513Y-28919756D01*
X72187035Y-28906044D01*
X72325074Y-28832261D01*
X72347889Y-28822809D01*
X72497675Y-28777373D01*
X72521888Y-28772557D01*
X72677654Y-28757216D01*
X72702346Y-28757216D01*
X72858109Y-28772557D01*
G37*
G04 #@! TD.AperFunction*
G04 #@! TA.AperFunction,Conductor*
G36*
X85502566Y-15045462D02*
G01*
X85557104Y-15100000D01*
X85577066Y-15174500D01*
X85557104Y-15249000D01*
X85502566Y-15303538D01*
X85466630Y-15318423D01*
X85403805Y-15335256D01*
X85403784Y-15335263D01*
X85061277Y-15466739D01*
X85061261Y-15466746D01*
X84734354Y-15633314D01*
X84734341Y-15633321D01*
X84426634Y-15833148D01*
X84141490Y-16064054D01*
X83882054Y-16323490D01*
X83651148Y-16608634D01*
X83451321Y-16916341D01*
X83451314Y-16916354D01*
X83284746Y-17243261D01*
X83284739Y-17243277D01*
X83153263Y-17585784D01*
X83153256Y-17585805D01*
X83058297Y-17940197D01*
X83058296Y-17940199D01*
X83000897Y-18302601D01*
X82981696Y-18669000D01*
X83000897Y-19035398D01*
X83058296Y-19397800D01*
X83058297Y-19397802D01*
X83153256Y-19752194D01*
X83153263Y-19752215D01*
X83284739Y-20094722D01*
X83284746Y-20094738D01*
X83451314Y-20421645D01*
X83451321Y-20421658D01*
X83637577Y-20708467D01*
X83651149Y-20729366D01*
X83882051Y-21014506D01*
X84141494Y-21273949D01*
X84208858Y-21328499D01*
X84426634Y-21504851D01*
X84734341Y-21704678D01*
X84734345Y-21704680D01*
X84734348Y-21704682D01*
X85061264Y-21871255D01*
X85061276Y-21871259D01*
X85061277Y-21871260D01*
X85403784Y-22002736D01*
X85403794Y-22002739D01*
X85403801Y-22002742D01*
X85758206Y-22097705D01*
X86120596Y-22155102D01*
X86487000Y-22174304D01*
X86853404Y-22155102D01*
X87215794Y-22097705D01*
X87570199Y-22002742D01*
X87912736Y-21871255D01*
X88239652Y-21704682D01*
X88547366Y-21504851D01*
X88832506Y-21273949D01*
X89091949Y-21014506D01*
X89322851Y-20729366D01*
X89522682Y-20421652D01*
X89689255Y-20094736D01*
X89689266Y-20094707D01*
X89689380Y-20094454D01*
X89689428Y-20094393D01*
X89691026Y-20091259D01*
X89691692Y-20091598D01*
X89737917Y-20034513D01*
X89809921Y-20006871D01*
X89886100Y-20018934D01*
X89946041Y-20067471D01*
X89973683Y-20139475D01*
X89974500Y-20155054D01*
X89974500Y-43090945D01*
X89954538Y-43165445D01*
X89900000Y-43219983D01*
X89825500Y-43239945D01*
X89751000Y-43219983D01*
X89696462Y-43165445D01*
X89689386Y-43151558D01*
X89689259Y-43151274D01*
X89689258Y-43151272D01*
X89689255Y-43151264D01*
X89522682Y-42824348D01*
X89522680Y-42824345D01*
X89522678Y-42824341D01*
X89322851Y-42516634D01*
X89091949Y-42231494D01*
X88832506Y-41972051D01*
X88547366Y-41741149D01*
X88547367Y-41741149D01*
X88547365Y-41741148D01*
X88239658Y-41541321D01*
X88239645Y-41541314D01*
X87912738Y-41374746D01*
X87912722Y-41374739D01*
X87570215Y-41243263D01*
X87570194Y-41243256D01*
X87215802Y-41148297D01*
X87215800Y-41148296D01*
X86853398Y-41090897D01*
X86487000Y-41071696D01*
X86120601Y-41090897D01*
X85758199Y-41148296D01*
X85758197Y-41148297D01*
X85403805Y-41243256D01*
X85403784Y-41243263D01*
X85061277Y-41374739D01*
X85061261Y-41374746D01*
X84734354Y-41541314D01*
X84734341Y-41541321D01*
X84426634Y-41741148D01*
X84141490Y-41972054D01*
X83882054Y-42231490D01*
X83651148Y-42516634D01*
X83451321Y-42824341D01*
X83451314Y-42824354D01*
X83284746Y-43151261D01*
X83284739Y-43151277D01*
X83153263Y-43493784D01*
X83153256Y-43493805D01*
X83058297Y-43848197D01*
X83058296Y-43848199D01*
X83000897Y-44210601D01*
X82981696Y-44577000D01*
X83000897Y-44943398D01*
X83058296Y-45305800D01*
X83058297Y-45305802D01*
X83153256Y-45660194D01*
X83153263Y-45660215D01*
X83284739Y-46002722D01*
X83284746Y-46002738D01*
X83451314Y-46329645D01*
X83451321Y-46329658D01*
X83651148Y-46637365D01*
X83651149Y-46637366D01*
X83882051Y-46922506D01*
X84141494Y-47181949D01*
X84426634Y-47412851D01*
X84734341Y-47612678D01*
X84734354Y-47612685D01*
X84891470Y-47692740D01*
X84948787Y-47744349D01*
X84972621Y-47817702D01*
X84956585Y-47893145D01*
X84904976Y-47950462D01*
X84831623Y-47974296D01*
X84823825Y-47974500D01*
X23869190Y-47974500D01*
X23794690Y-47954538D01*
X23740152Y-47900000D01*
X23720190Y-47825500D01*
X23740152Y-47751000D01*
X23794690Y-47696462D01*
X23815783Y-47686400D01*
X23904736Y-47652255D01*
X24231652Y-47485682D01*
X24539366Y-47285851D01*
X24824506Y-47054949D01*
X25083949Y-46795506D01*
X25314851Y-46510366D01*
X25514682Y-46202652D01*
X25681255Y-45875736D01*
X25812742Y-45533199D01*
X25907705Y-45178794D01*
X25965102Y-44816404D01*
X25984304Y-44450000D01*
X25965102Y-44083596D01*
X25914778Y-43765863D01*
X56064500Y-43765863D01*
X56064502Y-43765888D01*
X56070908Y-43825478D01*
X56070909Y-43825484D01*
X56121202Y-43960329D01*
X56121204Y-43960333D01*
X56207452Y-44075544D01*
X56207455Y-44075547D01*
X56322666Y-44161795D01*
X56322670Y-44161797D01*
X56457517Y-44212091D01*
X56517114Y-44218499D01*
X56517118Y-44218499D01*
X56517127Y-44218500D01*
X59212872Y-44218499D01*
X59272483Y-44212091D01*
X59368447Y-44176298D01*
X59407329Y-44161797D01*
X59407333Y-44161795D01*
X59464938Y-44118671D01*
X59522546Y-44075546D01*
X59585017Y-43992096D01*
X59585451Y-43991516D01*
X62352143Y-43991516D01*
X62353544Y-43992095D01*
X62606077Y-44052723D01*
X62865000Y-44073101D01*
X63123922Y-44052723D01*
X63376452Y-43992096D01*
X63376457Y-43992095D01*
X63377854Y-43991516D01*
X62865000Y-43478660D01*
X62352143Y-43991516D01*
X59585451Y-43991516D01*
X59608795Y-43960333D01*
X59608797Y-43960329D01*
X59657542Y-43829635D01*
X59659091Y-43825483D01*
X59660823Y-43809370D01*
X59665499Y-43765885D01*
X59665499Y-43765882D01*
X59665500Y-43765873D01*
X59665499Y-42418000D01*
X61209898Y-42418000D01*
X61230276Y-42676922D01*
X61290903Y-42929453D01*
X61290906Y-42929462D01*
X61291482Y-42930854D01*
X61291483Y-42930854D01*
X61804338Y-42417999D01*
X61763201Y-42376862D01*
X62211127Y-42376862D01*
X62221439Y-42540766D01*
X62272188Y-42696956D01*
X62360186Y-42835619D01*
X62479903Y-42948040D01*
X62623817Y-43027158D01*
X62782886Y-43068000D01*
X62905894Y-43068000D01*
X63027933Y-43052583D01*
X63180629Y-42992126D01*
X63313492Y-42895595D01*
X63418175Y-42769055D01*
X63488100Y-42620457D01*
X63518873Y-42459138D01*
X63516285Y-42417999D01*
X63925660Y-42417999D01*
X64438516Y-42930854D01*
X64439095Y-42929457D01*
X64439096Y-42929452D01*
X64499723Y-42676922D01*
X64520101Y-42418005D01*
X66059451Y-42418005D01*
X66079615Y-42687090D01*
X66079618Y-42687113D01*
X66139663Y-42950187D01*
X66139665Y-42950194D01*
X66218586Y-43151277D01*
X66238257Y-43201398D01*
X66373185Y-43435102D01*
X66373189Y-43435107D01*
X66419982Y-43493784D01*
X66541439Y-43646085D01*
X66739259Y-43829635D01*
X66962226Y-43981651D01*
X67205359Y-44098738D01*
X67463228Y-44178280D01*
X67730071Y-44218500D01*
X67730074Y-44218500D01*
X67999926Y-44218500D01*
X67999929Y-44218500D01*
X68266772Y-44178280D01*
X68524641Y-44098738D01*
X68767775Y-43981651D01*
X68990741Y-43829635D01*
X69188561Y-43646085D01*
X69356815Y-43435102D01*
X69491743Y-43201398D01*
X69590334Y-42950195D01*
X69590826Y-42948040D01*
X69650381Y-42687113D01*
X69650381Y-42687110D01*
X69650383Y-42687103D01*
X69663158Y-42516634D01*
X69670549Y-42418005D01*
X69670549Y-42417994D01*
X69650384Y-42148909D01*
X69650383Y-42148907D01*
X69650383Y-42148897D01*
X69650381Y-42148891D01*
X69650381Y-42148886D01*
X69590336Y-41885812D01*
X69590334Y-41885805D01*
X69542890Y-41764922D01*
X69491743Y-41634602D01*
X69356815Y-41400898D01*
X69188561Y-41189915D01*
X69094879Y-41102991D01*
X82481844Y-41102991D01*
X82491577Y-41282495D01*
X82491577Y-41282499D01*
X82491578Y-41282501D01*
X82517190Y-41374746D01*
X82539672Y-41455720D01*
X82539672Y-41455721D01*
X82623881Y-41614556D01*
X82623882Y-41614558D01*
X82740262Y-41751571D01*
X82740265Y-41751574D01*
X82815600Y-41808842D01*
X82879022Y-41857055D01*
X82883382Y-41860369D01*
X83046541Y-41935854D01*
X83222113Y-41974500D01*
X83222118Y-41974500D01*
X83356807Y-41974500D01*
X83356816Y-41974500D01*
X83490721Y-41959937D01*
X83598510Y-41923619D01*
X83661083Y-41902536D01*
X83661090Y-41902532D01*
X83815121Y-41809854D01*
X83815120Y-41809854D01*
X83815126Y-41809851D01*
X83945642Y-41686220D01*
X84046529Y-41537423D01*
X84113070Y-41370416D01*
X84142155Y-41193010D01*
X84132422Y-41013499D01*
X84084327Y-40840277D01*
X84000119Y-40681444D01*
X84000117Y-40681442D01*
X84000117Y-40681441D01*
X83883737Y-40544428D01*
X83883736Y-40544427D01*
X83883735Y-40544426D01*
X83807068Y-40486145D01*
X83740620Y-40435632D01*
X83740616Y-40435630D01*
X83577459Y-40360146D01*
X83401887Y-40321500D01*
X83267184Y-40321500D01*
X83267183Y-40321500D01*
X83133275Y-40336063D01*
X83133273Y-40336064D01*
X82962916Y-40393463D01*
X82962909Y-40393467D01*
X82808878Y-40486145D01*
X82747349Y-40544428D01*
X82678358Y-40609780D01*
X82577471Y-40758577D01*
X82577469Y-40758579D01*
X82577469Y-40758581D01*
X82510930Y-40925583D01*
X82481845Y-41102990D01*
X82481844Y-41102991D01*
X69094879Y-41102991D01*
X68990741Y-41006365D01*
X68767775Y-40854349D01*
X68767772Y-40854348D01*
X68767770Y-40854346D01*
X68524650Y-40737266D01*
X68524646Y-40737264D01*
X68524641Y-40737262D01*
X68524633Y-40737259D01*
X68524629Y-40737258D01*
X68266777Y-40657721D01*
X68266773Y-40657720D01*
X67999932Y-40617500D01*
X67999929Y-40617500D01*
X67730071Y-40617500D01*
X67730067Y-40617500D01*
X67463226Y-40657720D01*
X67463222Y-40657721D01*
X67205370Y-40737258D01*
X67205349Y-40737266D01*
X66962227Y-40854348D01*
X66739259Y-41006364D01*
X66541438Y-41189915D01*
X66373189Y-41400892D01*
X66373184Y-41400900D01*
X66238257Y-41634601D01*
X66238255Y-41634606D01*
X66139665Y-41885805D01*
X66139663Y-41885812D01*
X66079618Y-42148886D01*
X66079615Y-42148909D01*
X66059451Y-42417994D01*
X66059451Y-42418005D01*
X64520101Y-42418005D01*
X64520101Y-42418000D01*
X64499723Y-42159077D01*
X64439095Y-41906544D01*
X64438515Y-41905143D01*
X63925660Y-42417999D01*
X63516285Y-42417999D01*
X63508561Y-42295234D01*
X63457812Y-42139044D01*
X63369814Y-42000381D01*
X63250097Y-41887960D01*
X63106183Y-41808842D01*
X62947114Y-41768000D01*
X62824106Y-41768000D01*
X62702067Y-41783417D01*
X62549371Y-41843874D01*
X62416508Y-41940405D01*
X62311825Y-42066945D01*
X62241900Y-42215543D01*
X62211127Y-42376862D01*
X61763201Y-42376862D01*
X61291483Y-41905144D01*
X61290901Y-41906553D01*
X61230276Y-42159077D01*
X61209898Y-42418000D01*
X59665499Y-42418000D01*
X59665499Y-41070128D01*
X59659091Y-41010517D01*
X59641703Y-40963897D01*
X59608797Y-40875670D01*
X59608795Y-40875666D01*
X59585451Y-40844483D01*
X62352144Y-40844483D01*
X62864999Y-41357338D01*
X63377854Y-40844483D01*
X63377854Y-40844482D01*
X63376462Y-40843906D01*
X63376453Y-40843903D01*
X63123922Y-40783276D01*
X62865000Y-40762898D01*
X62606077Y-40783276D01*
X62353553Y-40843901D01*
X62352144Y-40844483D01*
X59585451Y-40844483D01*
X59522547Y-40760455D01*
X59522544Y-40760452D01*
X59407333Y-40674204D01*
X59407329Y-40674202D01*
X59272482Y-40623908D01*
X59212876Y-40617500D01*
X56517136Y-40617500D01*
X56517111Y-40617502D01*
X56457521Y-40623908D01*
X56457515Y-40623909D01*
X56322670Y-40674202D01*
X56322666Y-40674204D01*
X56207455Y-40760452D01*
X56207452Y-40760455D01*
X56121204Y-40875666D01*
X56121202Y-40875670D01*
X56070908Y-41010517D01*
X56064500Y-41070114D01*
X56064500Y-43765863D01*
X25914778Y-43765863D01*
X25907705Y-43721206D01*
X25812742Y-43366801D01*
X25812739Y-43366794D01*
X25812736Y-43366784D01*
X25681260Y-43024277D01*
X25681259Y-43024276D01*
X25681255Y-43024264D01*
X25594431Y-42853863D01*
X33839500Y-42853863D01*
X33839502Y-42853888D01*
X33845908Y-42913478D01*
X33845909Y-42913484D01*
X33896202Y-43048329D01*
X33896204Y-43048333D01*
X33982452Y-43163544D01*
X33982455Y-43163547D01*
X34097666Y-43249795D01*
X34097670Y-43249797D01*
X34232517Y-43300091D01*
X34292114Y-43306499D01*
X34292118Y-43306499D01*
X34292127Y-43306500D01*
X36987872Y-43306499D01*
X37047483Y-43300091D01*
X37143447Y-43264298D01*
X37182329Y-43249797D01*
X37182333Y-43249795D01*
X37295009Y-43165445D01*
X37297546Y-43163546D01*
X37360017Y-43080096D01*
X37360451Y-43079516D01*
X40127143Y-43079516D01*
X40128544Y-43080095D01*
X40381077Y-43140723D01*
X40640000Y-43161101D01*
X40898922Y-43140723D01*
X41151452Y-43080096D01*
X41151457Y-43080095D01*
X41152854Y-43079516D01*
X40640000Y-42566660D01*
X40127143Y-43079516D01*
X37360451Y-43079516D01*
X37383795Y-43048333D01*
X37383797Y-43048329D01*
X37420398Y-42950195D01*
X37434091Y-42913483D01*
X37436014Y-42895595D01*
X37440499Y-42853885D01*
X37440499Y-42853882D01*
X37440500Y-42853873D01*
X37440499Y-41506000D01*
X38984898Y-41506000D01*
X39005276Y-41764922D01*
X39065903Y-42017453D01*
X39065906Y-42017462D01*
X39066482Y-42018854D01*
X39066483Y-42018854D01*
X39579338Y-41505999D01*
X39538201Y-41464862D01*
X39986127Y-41464862D01*
X39996439Y-41628766D01*
X40047188Y-41784956D01*
X40135186Y-41923619D01*
X40254903Y-42036040D01*
X40398817Y-42115158D01*
X40557886Y-42156000D01*
X40680894Y-42156000D01*
X40802933Y-42140583D01*
X40955629Y-42080126D01*
X41088492Y-41983595D01*
X41193175Y-41857055D01*
X41263100Y-41708457D01*
X41293873Y-41547138D01*
X41291285Y-41505999D01*
X41700660Y-41505999D01*
X42213516Y-42018854D01*
X42214095Y-42017457D01*
X42214096Y-42017452D01*
X42274723Y-41764922D01*
X42295101Y-41506000D01*
X42274723Y-41247077D01*
X42214095Y-40994544D01*
X42213515Y-40993143D01*
X41700660Y-41505999D01*
X41291285Y-41505999D01*
X41283561Y-41383234D01*
X41232812Y-41227044D01*
X41144814Y-41088381D01*
X41025097Y-40975960D01*
X40881183Y-40896842D01*
X40722114Y-40856000D01*
X40599106Y-40856000D01*
X40477067Y-40871417D01*
X40324371Y-40931874D01*
X40191508Y-41028405D01*
X40086825Y-41154945D01*
X40016900Y-41303543D01*
X39986127Y-41464862D01*
X39538201Y-41464862D01*
X39066483Y-40993144D01*
X39065901Y-40994553D01*
X39005276Y-41247077D01*
X38984898Y-41506000D01*
X37440499Y-41506000D01*
X37440499Y-40158128D01*
X37434091Y-40098517D01*
X37419588Y-40059633D01*
X37383797Y-39963670D01*
X37383795Y-39963666D01*
X37360451Y-39932483D01*
X40127144Y-39932483D01*
X40639999Y-40445338D01*
X41152854Y-39932483D01*
X41152854Y-39932482D01*
X41151462Y-39931906D01*
X41151453Y-39931903D01*
X40898922Y-39871276D01*
X40640000Y-39850898D01*
X40381077Y-39871276D01*
X40128553Y-39931901D01*
X40127144Y-39932483D01*
X37360451Y-39932483D01*
X37297547Y-39848455D01*
X37297544Y-39848452D01*
X37182333Y-39762204D01*
X37182329Y-39762202D01*
X37047482Y-39711908D01*
X36987876Y-39705500D01*
X34292136Y-39705500D01*
X34292111Y-39705502D01*
X34232521Y-39711908D01*
X34232515Y-39711909D01*
X34097670Y-39762202D01*
X34097666Y-39762204D01*
X33982455Y-39848452D01*
X33982452Y-39848455D01*
X33896204Y-39963666D01*
X33896202Y-39963670D01*
X33845908Y-40098517D01*
X33839500Y-40158114D01*
X33839500Y-42853863D01*
X25594431Y-42853863D01*
X25514682Y-42697348D01*
X25514680Y-42697345D01*
X25514678Y-42697341D01*
X25314851Y-42389634D01*
X25238407Y-42295234D01*
X25083949Y-42104494D01*
X24824506Y-41845051D01*
X24564622Y-41634601D01*
X24539365Y-41614148D01*
X24231658Y-41414321D01*
X24231645Y-41414314D01*
X23904738Y-41247746D01*
X23904722Y-41247739D01*
X23562215Y-41116263D01*
X23562194Y-41116256D01*
X23207802Y-41021297D01*
X23207800Y-41021296D01*
X23158603Y-41013504D01*
X23026599Y-40992596D01*
X22845398Y-40963897D01*
X22479000Y-40944696D01*
X22112601Y-40963897D01*
X21750199Y-41021296D01*
X21750197Y-41021297D01*
X21395805Y-41116256D01*
X21395784Y-41116263D01*
X21053277Y-41247739D01*
X21053261Y-41247746D01*
X20726354Y-41414314D01*
X20726341Y-41414321D01*
X20418634Y-41614148D01*
X20133490Y-41845054D01*
X19874054Y-42104490D01*
X19643148Y-42389634D01*
X19443321Y-42697341D01*
X19443314Y-42697354D01*
X19363564Y-42853873D01*
X19314486Y-42950195D01*
X19307260Y-42964376D01*
X19255651Y-43021693D01*
X19182298Y-43045527D01*
X19106855Y-43029491D01*
X19049538Y-42977882D01*
X19025704Y-42904529D01*
X19025500Y-42896731D01*
X19025500Y-35559118D01*
X50759500Y-35559118D01*
X50759805Y-35571540D01*
X50760719Y-35590111D01*
X50761631Y-35602466D01*
X50781148Y-35800628D01*
X50784787Y-35825168D01*
X50789616Y-35849450D01*
X50794444Y-35873729D01*
X50800479Y-35897821D01*
X50857389Y-36085429D01*
X50865751Y-36108801D01*
X50865751Y-36108799D01*
X50884695Y-36154534D01*
X50895306Y-36176969D01*
X50895310Y-36176976D01*
X50895310Y-36176977D01*
X50920381Y-36223881D01*
X50987718Y-36349858D01*
X51000471Y-36371137D01*
X51027985Y-36412317D01*
X51027985Y-36412316D01*
X51042767Y-36432248D01*
X51042767Y-36432247D01*
X51042775Y-36432258D01*
X51167136Y-36583792D01*
X51183803Y-36602182D01*
X51218817Y-36637196D01*
X51237207Y-36653863D01*
X51388741Y-36778224D01*
X51388752Y-36778232D01*
X51388751Y-36778232D01*
X51403132Y-36788897D01*
X51408676Y-36793009D01*
X51408679Y-36793011D01*
X51408678Y-36793011D01*
X51449838Y-36820513D01*
X51449843Y-36820516D01*
X51449849Y-36820520D01*
X51471136Y-36833279D01*
X51597111Y-36900615D01*
X51644015Y-36925686D01*
X51644016Y-36925686D01*
X51644023Y-36925690D01*
X51666460Y-36936302D01*
X51666462Y-36936303D01*
X51712206Y-36955251D01*
X51712205Y-36955251D01*
X51726116Y-36960228D01*
X51735579Y-36963614D01*
X51735584Y-36963615D01*
X51735591Y-36963618D01*
X51923174Y-37020519D01*
X51947258Y-37026552D01*
X51995820Y-37036210D01*
X52020352Y-37039849D01*
X52020354Y-37039849D01*
X52020365Y-37039851D01*
X52218531Y-37059369D01*
X52230887Y-37060281D01*
X52249459Y-37061195D01*
X52261881Y-37061500D01*
X72618119Y-37061500D01*
X72630541Y-37061195D01*
X72649113Y-37060281D01*
X72661469Y-37059369D01*
X72859634Y-37039851D01*
X72859644Y-37039849D01*
X72859647Y-37039849D01*
X72884179Y-37036210D01*
X72932741Y-37026552D01*
X72956825Y-37020519D01*
X73144421Y-36963614D01*
X73161824Y-36957386D01*
X73167801Y-36955248D01*
X73167798Y-36955249D01*
X73194597Y-36944148D01*
X73213544Y-36936300D01*
X73235979Y-36925689D01*
X73235986Y-36925685D01*
X73235987Y-36925685D01*
X73408848Y-36833287D01*
X73408847Y-36833287D01*
X73408863Y-36833279D01*
X73430150Y-36820520D01*
X73430155Y-36820516D01*
X73430161Y-36820513D01*
X73471321Y-36793011D01*
X73471320Y-36793011D01*
X73471323Y-36793009D01*
X73476866Y-36788897D01*
X73491248Y-36778232D01*
X73491247Y-36778232D01*
X73491258Y-36778224D01*
X73642792Y-36653863D01*
X73661182Y-36637196D01*
X73696196Y-36602182D01*
X73712863Y-36583792D01*
X73837224Y-36432258D01*
X73837232Y-36432247D01*
X73837232Y-36432248D01*
X73852011Y-36412320D01*
X73852011Y-36412321D01*
X73879513Y-36371161D01*
X73879520Y-36371150D01*
X73892279Y-36349863D01*
X73984689Y-36176979D01*
X73995300Y-36154544D01*
X74001369Y-36139891D01*
X74014248Y-36108801D01*
X74016386Y-36102824D01*
X74022614Y-36085421D01*
X74079520Y-35897821D01*
X74085551Y-35873744D01*
X74085554Y-35873732D01*
X74095210Y-35825179D01*
X74095210Y-35825177D01*
X74095212Y-35825168D01*
X74098851Y-35800634D01*
X74118369Y-35602468D01*
X74119281Y-35590112D01*
X74120195Y-35571540D01*
X74120500Y-35559118D01*
X74120500Y-29677881D01*
X74120195Y-29665459D01*
X74119281Y-29646887D01*
X74118369Y-29634531D01*
X74100292Y-29450997D01*
X74097222Y-29430304D01*
X74101674Y-29377452D01*
X74099050Y-29376895D01*
X74100672Y-29369261D01*
X74100674Y-29369256D01*
X74120460Y-29181000D01*
X74100674Y-28992744D01*
X74042179Y-28812716D01*
X73947533Y-28648784D01*
X73947532Y-28648783D01*
X73947530Y-28648779D01*
X73820872Y-28508113D01*
X73667727Y-28396847D01*
X73494805Y-28319857D01*
X73494803Y-28319856D01*
X73374091Y-28294198D01*
X73309648Y-28280500D01*
X73309646Y-28280500D01*
X73120354Y-28280500D01*
X73120350Y-28280500D01*
X73077677Y-28289570D01*
X73010498Y-28288361D01*
X73003846Y-28286695D01*
X72993099Y-28284003D01*
X72993096Y-28284002D01*
X72960878Y-28277595D01*
X72944540Y-28274346D01*
X72920000Y-28270707D01*
X72739543Y-28252934D01*
X72739544Y-28252934D01*
X72733346Y-28252629D01*
X72714755Y-28251716D01*
X72665245Y-28251716D01*
X72640457Y-28252934D01*
X72552820Y-28261565D01*
X72459983Y-28270708D01*
X72459984Y-28270708D01*
X72450837Y-28272065D01*
X72435445Y-28274348D01*
X72386891Y-28284006D01*
X72386882Y-28284008D01*
X72386878Y-28284009D01*
X72386868Y-28284011D01*
X72380956Y-28285491D01*
X72313797Y-28286695D01*
X72284650Y-28280500D01*
X72284646Y-28280500D01*
X72095354Y-28280500D01*
X72095352Y-28280500D01*
X72030909Y-28294198D01*
X71910197Y-28319856D01*
X71910195Y-28319856D01*
X71910194Y-28319857D01*
X71737272Y-28396847D01*
X71584127Y-28508113D01*
X71457469Y-28648779D01*
X71362822Y-28812714D01*
X71362819Y-28812721D01*
X71304325Y-28992745D01*
X71284540Y-29180999D01*
X71298864Y-29317292D01*
X71295217Y-29369062D01*
X71295167Y-29369261D01*
X71293006Y-29377891D01*
X71283348Y-29426445D01*
X71281065Y-29441837D01*
X71279709Y-29450983D01*
X71279707Y-29450994D01*
X71261631Y-29634531D01*
X71261631Y-29634535D01*
X71260719Y-29646890D01*
X71259805Y-29665459D01*
X71259500Y-29677881D01*
X71259500Y-31437991D01*
X71265724Y-31517071D01*
X71271890Y-31556007D01*
X71290409Y-31633142D01*
X71290410Y-31633144D01*
X71298657Y-31658529D01*
X71305132Y-31688992D01*
X71310538Y-31740422D01*
X71310538Y-31771574D01*
X71305132Y-31823006D01*
X71298657Y-31853468D01*
X71290851Y-31877494D01*
X71290408Y-31878860D01*
X71271891Y-31955991D01*
X71271891Y-31955994D01*
X71271890Y-31955994D01*
X71268044Y-31980275D01*
X71267787Y-31981906D01*
X71265724Y-31994930D01*
X71259500Y-32074008D01*
X71259500Y-33851500D01*
X71239538Y-33926000D01*
X71185000Y-33980538D01*
X71110500Y-34000500D01*
X54904807Y-34000500D01*
X54830307Y-33980538D01*
X54775769Y-33926000D01*
X54757082Y-33870949D01*
X54749705Y-33814922D01*
X54749143Y-33810650D01*
X54749083Y-33810353D01*
X54742689Y-33778198D01*
X54737399Y-33758457D01*
X54725608Y-33714450D01*
X54724821Y-33712133D01*
X54724187Y-33710264D01*
X54714969Y-33683108D01*
X54665049Y-33562591D01*
X54650411Y-33532907D01*
X54650408Y-33532901D01*
X54650409Y-33532902D01*
X54617415Y-33475757D01*
X54617414Y-33475756D01*
X54599028Y-33448239D01*
X54599026Y-33448236D01*
X54568259Y-33408140D01*
X54519620Y-33344753D01*
X54497790Y-33319861D01*
X54451138Y-33273209D01*
X54426246Y-33251379D01*
X54322759Y-33171970D01*
X54309096Y-33162841D01*
X54295252Y-33153590D01*
X54295251Y-33153590D01*
X54295244Y-33153585D01*
X54265304Y-33136299D01*
X54238100Y-33120592D01*
X54208412Y-33105951D01*
X54208413Y-33105952D01*
X54208411Y-33105951D01*
X54087889Y-33056029D01*
X54056549Y-33045391D01*
X54056550Y-33045391D01*
X53992824Y-33028315D01*
X53992823Y-33028314D01*
X53960355Y-33021856D01*
X53960356Y-33021856D01*
X53960353Y-33021855D01*
X53960350Y-33021855D01*
X53901098Y-33014054D01*
X53826855Y-33004281D01*
X53823607Y-33003961D01*
X53810361Y-33002657D01*
X53785630Y-33001039D01*
X53769124Y-33000500D01*
X52261881Y-33000500D01*
X52249459Y-33000805D01*
X52230888Y-33001719D01*
X52218534Y-33002631D01*
X52020365Y-33022148D01*
X52020358Y-33022149D01*
X52020356Y-33022149D01*
X51995830Y-33025786D01*
X51947268Y-33035444D01*
X51947269Y-33035444D01*
X51923177Y-33041479D01*
X51910281Y-33045391D01*
X51735569Y-33098389D01*
X51735562Y-33098391D01*
X51735557Y-33098393D01*
X51714435Y-33105951D01*
X51712205Y-33106749D01*
X51666475Y-33125690D01*
X51644035Y-33136303D01*
X51471133Y-33228721D01*
X51471130Y-33228723D01*
X51471131Y-33228722D01*
X51467601Y-33230838D01*
X51449843Y-33241482D01*
X51449842Y-33241483D01*
X51408677Y-33268988D01*
X51408676Y-33268989D01*
X51388758Y-33283761D01*
X51388759Y-33283761D01*
X51388748Y-33283769D01*
X51237201Y-33408140D01*
X51218811Y-33424808D01*
X51183808Y-33459811D01*
X51167140Y-33478201D01*
X51042769Y-33629748D01*
X51042761Y-33629759D01*
X51042761Y-33629758D01*
X51028787Y-33648599D01*
X51027986Y-33649680D01*
X51000482Y-33690843D01*
X50987721Y-33712133D01*
X50895303Y-33885035D01*
X50884690Y-33907475D01*
X50865749Y-33953205D01*
X50865745Y-33953214D01*
X50865745Y-33953216D01*
X50857391Y-33976563D01*
X50857391Y-33976562D01*
X50800476Y-34164184D01*
X50800476Y-34164185D01*
X50794442Y-34188277D01*
X50784786Y-34236840D01*
X50781148Y-34261374D01*
X50761631Y-34459533D01*
X50760719Y-34471888D01*
X50759805Y-34490459D01*
X50759500Y-34502881D01*
X50759500Y-35559118D01*
X19025500Y-35559118D01*
X19025500Y-35129516D01*
X24252143Y-35129516D01*
X24253544Y-35130095D01*
X24506077Y-35190723D01*
X24765000Y-35211101D01*
X25023922Y-35190723D01*
X25276452Y-35130096D01*
X25276457Y-35130095D01*
X25277854Y-35129516D01*
X24765000Y-34616660D01*
X24252143Y-35129516D01*
X19025500Y-35129516D01*
X19025500Y-33556000D01*
X23109898Y-33556000D01*
X23130276Y-33814922D01*
X23190903Y-34067453D01*
X23190906Y-34067462D01*
X23191482Y-34068854D01*
X23191483Y-34068854D01*
X23704338Y-33555999D01*
X23663201Y-33514862D01*
X24111127Y-33514862D01*
X24121439Y-33678766D01*
X24172188Y-33834956D01*
X24260186Y-33973619D01*
X24379903Y-34086040D01*
X24523817Y-34165158D01*
X24682886Y-34206000D01*
X24805894Y-34206000D01*
X24927933Y-34190583D01*
X25080629Y-34130126D01*
X25213492Y-34033595D01*
X25318175Y-33907055D01*
X25388100Y-33758457D01*
X25418873Y-33597138D01*
X25416285Y-33555999D01*
X25825660Y-33555999D01*
X26338516Y-34068854D01*
X26339095Y-34067457D01*
X26339096Y-34067452D01*
X26399723Y-33814922D01*
X26420101Y-33556000D01*
X26399723Y-33297077D01*
X26339095Y-33044544D01*
X26338515Y-33043143D01*
X25825660Y-33555999D01*
X25416285Y-33555999D01*
X25408561Y-33433234D01*
X25357812Y-33277044D01*
X25269814Y-33138381D01*
X25150097Y-33025960D01*
X25006183Y-32946842D01*
X24847114Y-32906000D01*
X24724106Y-32906000D01*
X24602067Y-32921417D01*
X24449371Y-32981874D01*
X24316508Y-33078405D01*
X24211825Y-33204945D01*
X24141900Y-33353543D01*
X24111127Y-33514862D01*
X23663201Y-33514862D01*
X23191483Y-33043144D01*
X23190901Y-33044553D01*
X23130276Y-33297077D01*
X23109898Y-33556000D01*
X19025500Y-33556000D01*
X19025500Y-31982483D01*
X24252144Y-31982483D01*
X24764999Y-32495338D01*
X25277854Y-31982483D01*
X25277854Y-31982482D01*
X25276462Y-31981906D01*
X25276453Y-31981903D01*
X25023922Y-31921276D01*
X24765000Y-31900898D01*
X24506077Y-31921276D01*
X24253553Y-31981901D01*
X24252144Y-31982483D01*
X19025500Y-31982483D01*
X19025500Y-29903863D01*
X22964500Y-29903863D01*
X22964502Y-29903888D01*
X22970908Y-29963478D01*
X22970909Y-29963484D01*
X23021202Y-30098329D01*
X23021204Y-30098333D01*
X23107452Y-30213544D01*
X23107455Y-30213547D01*
X23222666Y-30299795D01*
X23222670Y-30299797D01*
X23357517Y-30350091D01*
X23417114Y-30356499D01*
X23417118Y-30356499D01*
X23417127Y-30356500D01*
X26112872Y-30356499D01*
X26172483Y-30350091D01*
X26268447Y-30314298D01*
X26307329Y-30299797D01*
X26307333Y-30299795D01*
X26364938Y-30256671D01*
X26422546Y-30213546D01*
X26508796Y-30098331D01*
X26559091Y-29963483D01*
X26560823Y-29947370D01*
X26565499Y-29903885D01*
X26565499Y-29903882D01*
X26565500Y-29903873D01*
X26565499Y-27456001D01*
X68559435Y-27456001D01*
X68579631Y-27635252D01*
X68579631Y-27635254D01*
X68579632Y-27635255D01*
X68639211Y-27805522D01*
X68735184Y-27958262D01*
X68862738Y-28085816D01*
X69015478Y-28181789D01*
X69185745Y-28241368D01*
X69275372Y-28251466D01*
X69364999Y-28261565D01*
X69365000Y-28261565D01*
X69365001Y-28261565D01*
X69409813Y-28256515D01*
X69544255Y-28241368D01*
X69714522Y-28181789D01*
X69867262Y-28085816D01*
X69994816Y-27958262D01*
X70090789Y-27805522D01*
X70150368Y-27635255D01*
X70170565Y-27456000D01*
X70150368Y-27276745D01*
X70143768Y-27257885D01*
X70138006Y-27180974D01*
X70171471Y-27111484D01*
X70179036Y-27103330D01*
X71969725Y-25312640D01*
X72010439Y-25283754D01*
X72014510Y-25281793D01*
X72014522Y-25281789D01*
X72167262Y-25185816D01*
X72294816Y-25058262D01*
X72390789Y-24905522D01*
X72450368Y-24735255D01*
X72470565Y-24556000D01*
X72450368Y-24376745D01*
X72441117Y-24350307D01*
X72423861Y-24300990D01*
X72415500Y-24251780D01*
X72415500Y-24060219D01*
X72423861Y-24011009D01*
X72435066Y-23978983D01*
X72450368Y-23935255D01*
X72470565Y-23756000D01*
X72450368Y-23576745D01*
X72390789Y-23406478D01*
X72294816Y-23253738D01*
X72167262Y-23126184D01*
X72014522Y-23030211D01*
X71844255Y-22970632D01*
X71844254Y-22970631D01*
X71844253Y-22970631D01*
X71665001Y-22950435D01*
X71664999Y-22950435D01*
X71485747Y-22970631D01*
X71315477Y-23030211D01*
X71162738Y-23126184D01*
X71035184Y-23253738D01*
X70939211Y-23406477D01*
X70879631Y-23576747D01*
X70859435Y-23755998D01*
X70859435Y-23756001D01*
X70879631Y-23935253D01*
X70879632Y-23935256D01*
X70906139Y-24011009D01*
X70914500Y-24060219D01*
X70914500Y-24183413D01*
X70894538Y-24257913D01*
X70870859Y-24288772D01*
X68880646Y-26278984D01*
X68864269Y-26293137D01*
X68846470Y-26306389D01*
X68813245Y-26345984D01*
X68808862Y-26350768D01*
X68803415Y-26356216D01*
X68803403Y-26356230D01*
X68783059Y-26381959D01*
X68733697Y-26440787D01*
X68728930Y-26448035D01*
X68728684Y-26447873D01*
X68726192Y-26451786D01*
X68726442Y-26451941D01*
X68721890Y-26459320D01*
X68689423Y-26528942D01*
X68654960Y-26597566D01*
X68651992Y-26605720D01*
X68651712Y-26605618D01*
X68650190Y-26609997D01*
X68650472Y-26610091D01*
X68647743Y-26618324D01*
X68641800Y-26647104D01*
X68632207Y-26693565D01*
X68620985Y-26740915D01*
X68614498Y-26768285D01*
X68613492Y-26776899D01*
X68613196Y-26776864D01*
X68612725Y-26781468D01*
X68613023Y-26781494D01*
X68612266Y-26790145D01*
X68614500Y-26866916D01*
X68614500Y-27151780D01*
X68606139Y-27200990D01*
X68579632Y-27276743D01*
X68579631Y-27276746D01*
X68559435Y-27455998D01*
X68559435Y-27456001D01*
X26565499Y-27456001D01*
X26565499Y-27208128D01*
X26559091Y-27148517D01*
X26542233Y-27103317D01*
X26508797Y-27013670D01*
X26508795Y-27013666D01*
X26422547Y-26898455D01*
X26422544Y-26898452D01*
X26307333Y-26812204D01*
X26307329Y-26812202D01*
X26172482Y-26761908D01*
X26112876Y-26755500D01*
X23417136Y-26755500D01*
X23417111Y-26755502D01*
X23357521Y-26761908D01*
X23357515Y-26761909D01*
X23222670Y-26812202D01*
X23222666Y-26812204D01*
X23107455Y-26898452D01*
X23107452Y-26898455D01*
X23021204Y-27013666D01*
X23021202Y-27013670D01*
X22970908Y-27148517D01*
X22964500Y-27208114D01*
X22964500Y-29903863D01*
X19025500Y-29903863D01*
X19025500Y-20217519D01*
X19045462Y-20143019D01*
X19100000Y-20088481D01*
X19174500Y-20068519D01*
X19249000Y-20088481D01*
X19303538Y-20143019D01*
X19307261Y-20149877D01*
X19316310Y-20167639D01*
X19316321Y-20167658D01*
X19516148Y-20475365D01*
X19516149Y-20475366D01*
X19747051Y-20760506D01*
X20006494Y-21019949D01*
X20173613Y-21155279D01*
X20291634Y-21250851D01*
X20599341Y-21450678D01*
X20599345Y-21450680D01*
X20599348Y-21450682D01*
X20926264Y-21617255D01*
X20926276Y-21617259D01*
X20926277Y-21617260D01*
X21268784Y-21748736D01*
X21268794Y-21748739D01*
X21268801Y-21748742D01*
X21623206Y-21843705D01*
X21985596Y-21901102D01*
X22352000Y-21920304D01*
X22718404Y-21901102D01*
X23080794Y-21843705D01*
X23435199Y-21748742D01*
X23777736Y-21617255D01*
X24104652Y-21450682D01*
X24154992Y-21417991D01*
X25204844Y-21417991D01*
X25214577Y-21597495D01*
X25214578Y-21597500D01*
X25262672Y-21770720D01*
X25262672Y-21770721D01*
X25346881Y-21929556D01*
X25346882Y-21929558D01*
X25463262Y-22066571D01*
X25463265Y-22066574D01*
X25539927Y-22124851D01*
X25604979Y-22174303D01*
X25606382Y-22175369D01*
X25769541Y-22250854D01*
X25945113Y-22289500D01*
X25945118Y-22289500D01*
X26079807Y-22289500D01*
X26079816Y-22289500D01*
X26213721Y-22274937D01*
X26297468Y-22246719D01*
X26384083Y-22217536D01*
X26384090Y-22217532D01*
X26538121Y-22124854D01*
X26538120Y-22124854D01*
X26538126Y-22124851D01*
X26668642Y-22001220D01*
X26769529Y-21852423D01*
X26836070Y-21685416D01*
X26865155Y-21508010D01*
X26862046Y-21450678D01*
X26855422Y-21328504D01*
X26855422Y-21328499D01*
X26807327Y-21155277D01*
X26723119Y-20996444D01*
X26723117Y-20996442D01*
X26723117Y-20996441D01*
X26606737Y-20859428D01*
X26606736Y-20859427D01*
X26606735Y-20859426D01*
X26530068Y-20801145D01*
X26463620Y-20750632D01*
X26463616Y-20750630D01*
X26300459Y-20675146D01*
X26124887Y-20636500D01*
X25990184Y-20636500D01*
X25990183Y-20636500D01*
X25856275Y-20651063D01*
X25856273Y-20651064D01*
X25685916Y-20708463D01*
X25685909Y-20708467D01*
X25531878Y-20801145D01*
X25470349Y-20859428D01*
X25401358Y-20924780D01*
X25300471Y-21073577D01*
X25300469Y-21073579D01*
X25300469Y-21073581D01*
X25233930Y-21240583D01*
X25204845Y-21417990D01*
X25204844Y-21417991D01*
X24154992Y-21417991D01*
X24412366Y-21250851D01*
X24697506Y-21019949D01*
X24956949Y-20760506D01*
X25187851Y-20475366D01*
X25387682Y-20167652D01*
X25554255Y-19840736D01*
X25572387Y-19793500D01*
X71459540Y-19793500D01*
X71479325Y-19981754D01*
X71516036Y-20094738D01*
X71537821Y-20161784D01*
X71570000Y-20217519D01*
X71632469Y-20325720D01*
X71759127Y-20466386D01*
X71759129Y-20466388D01*
X71898165Y-20567403D01*
X71915944Y-20582588D01*
X74045859Y-22712503D01*
X74084423Y-22779298D01*
X74089500Y-22817862D01*
X74089500Y-24212831D01*
X74082208Y-24258873D01*
X74079325Y-24267743D01*
X74059540Y-24456000D01*
X74079325Y-24644254D01*
X74137819Y-24824278D01*
X74137821Y-24824284D01*
X74137822Y-24824285D01*
X74232469Y-24988220D01*
X74359127Y-25128886D01*
X74359129Y-25128888D01*
X74512270Y-25240151D01*
X74685197Y-25317144D01*
X74826315Y-25347139D01*
X74870352Y-25356500D01*
X74870354Y-25356500D01*
X75059648Y-25356500D01*
X75099004Y-25348134D01*
X75244803Y-25317144D01*
X75417730Y-25240151D01*
X75570871Y-25128888D01*
X75643195Y-25048563D01*
X75697530Y-24988220D01*
X75697531Y-24988218D01*
X75697533Y-24988216D01*
X75792179Y-24824284D01*
X75850674Y-24644256D01*
X75870460Y-24456000D01*
X75850674Y-24267744D01*
X75847792Y-24258873D01*
X75840500Y-24212831D01*
X75840500Y-22432100D01*
X75840746Y-22426050D01*
X75845339Y-22369652D01*
X75834418Y-22289500D01*
X75834085Y-22287058D01*
X75825073Y-22204184D01*
X75825071Y-22204177D01*
X75823336Y-22196291D01*
X75823431Y-22196269D01*
X75821677Y-22188782D01*
X75821582Y-22188806D01*
X75819632Y-22180968D01*
X75819631Y-22180966D01*
X75819631Y-22180963D01*
X75790880Y-22102706D01*
X75764267Y-22023720D01*
X75764264Y-22023715D01*
X75760874Y-22016386D01*
X75760962Y-22016345D01*
X75757636Y-22009404D01*
X75757549Y-22009448D01*
X75753962Y-22002216D01*
X75753961Y-22002212D01*
X75709059Y-21931963D01*
X75666089Y-21860546D01*
X75666086Y-21860543D01*
X75666085Y-21860541D01*
X75661199Y-21854113D01*
X75661277Y-21854053D01*
X75656540Y-21847992D01*
X75656463Y-21848055D01*
X75651402Y-21841759D01*
X75651400Y-21841756D01*
X75592447Y-21782803D01*
X75581004Y-21770723D01*
X75535132Y-21722295D01*
X75528976Y-21717067D01*
X75529039Y-21716992D01*
X75515200Y-21705556D01*
X73147745Y-19338101D01*
X73124065Y-19307240D01*
X73097533Y-19261284D01*
X72970871Y-19120612D01*
X72817730Y-19009349D01*
X72817729Y-19009348D01*
X72817727Y-19009347D01*
X72644805Y-18932357D01*
X72644803Y-18932356D01*
X72538360Y-18909731D01*
X72459648Y-18893000D01*
X72459646Y-18893000D01*
X72270354Y-18893000D01*
X72270352Y-18893000D01*
X72170392Y-18914247D01*
X72085197Y-18932356D01*
X72085195Y-18932356D01*
X72085194Y-18932357D01*
X71912272Y-19009347D01*
X71759127Y-19120613D01*
X71632469Y-19261279D01*
X71537822Y-19425214D01*
X71537819Y-19425221D01*
X71479325Y-19605245D01*
X71459540Y-19793500D01*
X25572387Y-19793500D01*
X25685742Y-19498199D01*
X25780705Y-19143794D01*
X25838102Y-18781404D01*
X25857304Y-18415000D01*
X25838102Y-18048596D01*
X25780705Y-17686206D01*
X25685742Y-17331801D01*
X25685739Y-17331794D01*
X25685736Y-17331784D01*
X25554260Y-16989277D01*
X25554259Y-16989276D01*
X25554255Y-16989264D01*
X25387682Y-16662348D01*
X25387680Y-16662345D01*
X25387678Y-16662341D01*
X25187851Y-16354634D01*
X25162631Y-16323490D01*
X24956949Y-16069494D01*
X24697506Y-15810051D01*
X24412366Y-15579149D01*
X24412367Y-15579149D01*
X24412365Y-15579148D01*
X24104658Y-15379321D01*
X24104645Y-15379314D01*
X23963231Y-15307260D01*
X23905914Y-15255651D01*
X23882080Y-15182298D01*
X23898116Y-15106855D01*
X23949725Y-15049538D01*
X24023078Y-15025704D01*
X24030876Y-15025500D01*
X85428066Y-15025500D01*
X85502566Y-15045462D01*
G37*
G04 #@! TD.AperFunction*
M02*
