G04 #@! TF.GenerationSoftware,KiCad,Pcbnew,7.0.8*
G04 #@! TF.CreationDate,2023-11-17T13:56:22+01:00*
G04 #@! TF.ProjectId,shmoergh-dual-rail-psu,73686d6f-6572-4676-982d-6475616c2d72,rev?*
G04 #@! TF.SameCoordinates,Original*
G04 #@! TF.FileFunction,Soldermask,Top*
G04 #@! TF.FilePolarity,Negative*
%FSLAX46Y46*%
G04 Gerber Fmt 4.6, Leading zero omitted, Abs format (unit mm)*
G04 Created by KiCad (PCBNEW 7.0.8) date 2023-11-17 13:56:22*
%MOMM*%
%LPD*%
G01*
G04 APERTURE LIST*
G04 Aperture macros list*
%AMRoundRect*
0 Rectangle with rounded corners*
0 $1 Rounding radius*
0 $2 $3 $4 $5 $6 $7 $8 $9 X,Y pos of 4 corners*
0 Add a 4 corners polygon primitive as box body*
4,1,4,$2,$3,$4,$5,$6,$7,$8,$9,$2,$3,0*
0 Add four circle primitives for the rounded corners*
1,1,$1+$1,$2,$3*
1,1,$1+$1,$4,$5*
1,1,$1+$1,$6,$7*
1,1,$1+$1,$8,$9*
0 Add four rect primitives between the rounded corners*
20,1,$1+$1,$2,$3,$4,$5,0*
20,1,$1+$1,$4,$5,$6,$7,0*
20,1,$1+$1,$6,$7,$8,$9,0*
20,1,$1+$1,$8,$9,$2,$3,0*%
G04 Aperture macros list end*
%ADD10C,6.000000*%
%ADD11C,1.152000*%
%ADD12RoundRect,0.200000X-0.275000X0.200000X-0.275000X-0.200000X0.275000X-0.200000X0.275000X0.200000X0*%
%ADD13RoundRect,0.250000X0.325000X0.650000X-0.325000X0.650000X-0.325000X-0.650000X0.325000X-0.650000X0*%
%ADD14R,2.500000X1.900000*%
%ADD15RoundRect,0.200000X-0.200000X0.250000X-0.200000X-0.250000X0.200000X-0.250000X0.200000X0.250000X0*%
%ADD16R,1.550000X0.600000*%
%ADD17RoundRect,0.200000X-0.200000X-0.275000X0.200000X-0.275000X0.200000X0.275000X-0.200000X0.275000X0*%
%ADD18R,2.600000X2.600000*%
%ADD19C,2.600000*%
%ADD20R,2.900000X5.400000*%
%ADD21RoundRect,0.200000X0.275000X-0.200000X0.275000X0.200000X-0.275000X0.200000X-0.275000X-0.200000X0*%
%ADD22RoundRect,0.200000X0.200000X0.275000X-0.200000X0.275000X-0.200000X-0.275000X0.200000X-0.275000X0*%
%ADD23RoundRect,0.225000X0.250000X-0.225000X0.250000X0.225000X-0.250000X0.225000X-0.250000X-0.225000X0*%
%ADD24RoundRect,0.250000X0.650000X-0.325000X0.650000X0.325000X-0.650000X0.325000X-0.650000X-0.325000X0*%
%ADD25RoundRect,0.225000X-0.225000X-0.250000X0.225000X-0.250000X0.225000X0.250000X-0.225000X0.250000X0*%
%ADD26RoundRect,0.225000X-0.250000X0.225000X-0.250000X-0.225000X0.250000X-0.225000X0.250000X0.225000X0*%
%ADD27RoundRect,0.225000X0.225000X0.375000X-0.225000X0.375000X-0.225000X-0.375000X0.225000X-0.375000X0*%
%ADD28RoundRect,0.243750X-0.456250X0.243750X-0.456250X-0.243750X0.456250X-0.243750X0.456250X0.243750X0*%
%ADD29RoundRect,0.250000X0.550000X-1.500000X0.550000X1.500000X-0.550000X1.500000X-0.550000X-1.500000X0*%
%ADD30RoundRect,0.250000X-0.250000X-0.475000X0.250000X-0.475000X0.250000X0.475000X-0.250000X0.475000X0*%
%ADD31RoundRect,0.225000X-0.225000X-0.375000X0.225000X-0.375000X0.225000X0.375000X-0.225000X0.375000X0*%
%ADD32RoundRect,0.225000X0.225000X0.250000X-0.225000X0.250000X-0.225000X-0.250000X0.225000X-0.250000X0*%
%ADD33RoundRect,0.250000X0.250000X0.475000X-0.250000X0.475000X-0.250000X-0.475000X0.250000X-0.475000X0*%
%ADD34RoundRect,0.225000X-0.375000X0.225000X-0.375000X-0.225000X0.375000X-0.225000X0.375000X0.225000X0*%
%ADD35RoundRect,0.200000X0.200000X-0.250000X0.200000X0.250000X-0.200000X0.250000X-0.200000X-0.250000X0*%
%ADD36RoundRect,0.243750X0.243750X0.456250X-0.243750X0.456250X-0.243750X-0.456250X0.243750X-0.456250X0*%
%ADD37RoundRect,0.250000X-0.650000X0.325000X-0.650000X-0.325000X0.650000X-0.325000X0.650000X0.325000X0*%
%ADD38RoundRect,0.062500X0.062500X-0.350000X0.062500X0.350000X-0.062500X0.350000X-0.062500X-0.350000X0*%
%ADD39RoundRect,0.062500X0.350000X-0.062500X0.350000X0.062500X-0.350000X0.062500X-0.350000X-0.062500X0*%
%ADD40RoundRect,0.250000X-1.450000X0.312500X-1.450000X-0.312500X1.450000X-0.312500X1.450000X0.312500X0*%
G04 APERTURE END LIST*
D10*
X86487000Y-44577000D03*
X86487000Y-18669000D03*
X22352000Y-18415000D03*
X22479000Y-44450000D03*
D11*
X26035000Y-21463000D03*
X83312000Y-41148000D03*
D12*
X52465000Y-18218500D03*
X52465000Y-19868500D03*
D13*
X72740000Y-31756000D03*
X69790000Y-31756000D03*
D14*
X79215000Y-20806000D03*
X79215000Y-24906000D03*
D15*
X76665000Y-31756000D03*
X74765000Y-31756000D03*
X75715000Y-33756000D03*
D16*
X50283600Y-22036400D03*
X50283600Y-20766400D03*
X50283600Y-19496400D03*
X50283600Y-18226400D03*
X44883600Y-18226400D03*
X44883600Y-19496400D03*
X44883600Y-20766400D03*
X44883600Y-22036400D03*
D17*
X61052500Y-22956000D03*
X62702500Y-22956000D03*
D18*
X24765000Y-28556000D03*
D19*
X24765000Y-33556000D03*
D20*
X43151200Y-30117000D03*
X53051200Y-30117000D03*
D21*
X68215000Y-19831000D03*
X68215000Y-18181000D03*
D17*
X70927500Y-28006000D03*
X72577500Y-28006000D03*
D22*
X44952500Y-16606000D03*
X43302500Y-16606000D03*
D23*
X66615000Y-19781000D03*
X66615000Y-18231000D03*
D24*
X67415000Y-35281000D03*
X67415000Y-32331000D03*
D25*
X52477500Y-22056000D03*
X54027500Y-22056000D03*
D26*
X71415000Y-18231000D03*
X71415000Y-19781000D03*
D27*
X40365000Y-24356000D03*
X37065000Y-24356000D03*
D28*
X28140000Y-40568500D03*
X28140000Y-42443500D03*
D29*
X37065000Y-33706000D03*
X37065000Y-28306000D03*
D24*
X41465000Y-21631000D03*
X41465000Y-18681000D03*
D23*
X64565000Y-23343500D03*
X64565000Y-21793500D03*
D22*
X48027500Y-16606000D03*
X46377500Y-16606000D03*
D18*
X35640000Y-41506000D03*
D19*
X40640000Y-41506000D03*
D26*
X69365000Y-28018500D03*
X69365000Y-29568500D03*
D30*
X75965000Y-27356000D03*
X77865000Y-27356000D03*
D18*
X57865000Y-42418000D03*
D19*
X62865000Y-42418000D03*
X67865000Y-42418000D03*
D28*
X50365000Y-40568500D03*
X50365000Y-42443500D03*
D31*
X60765000Y-28262800D03*
X64065000Y-28262800D03*
D32*
X65052500Y-19356000D03*
X63502500Y-19356000D03*
D33*
X59540000Y-26056000D03*
X57640000Y-26056000D03*
D21*
X30090000Y-42331000D03*
X30090000Y-40681000D03*
X52340000Y-42331000D03*
X52340000Y-40681000D03*
D34*
X74965000Y-22106000D03*
X74965000Y-25406000D03*
D35*
X37065000Y-21556000D03*
X38965000Y-21556000D03*
X38015000Y-19556000D03*
D12*
X62665000Y-24431000D03*
X62665000Y-26081000D03*
D23*
X61140000Y-26031000D03*
X61140000Y-24481000D03*
D14*
X63265000Y-35128800D03*
X63265000Y-31028800D03*
D17*
X57752500Y-24206000D03*
X59402500Y-24206000D03*
D36*
X74422000Y-45720000D03*
X72547000Y-45720000D03*
D37*
X47265000Y-40081000D03*
X47265000Y-43031000D03*
D21*
X69815000Y-19831000D03*
X69815000Y-18181000D03*
D17*
X50852500Y-16606000D03*
X52502500Y-16606000D03*
D38*
X67365000Y-26143500D03*
X67865000Y-26143500D03*
X68365000Y-26143500D03*
X68865000Y-26143500D03*
X69365000Y-26143500D03*
X69865000Y-26143500D03*
D39*
X70552500Y-25456000D03*
X70552500Y-24956000D03*
X70552500Y-24456000D03*
X70552500Y-23956000D03*
X70552500Y-23456000D03*
X70552500Y-22956000D03*
D38*
X69865000Y-22268500D03*
X69365000Y-22268500D03*
X68865000Y-22268500D03*
X68365000Y-22268500D03*
X67865000Y-22268500D03*
X67365000Y-22268500D03*
D39*
X66677500Y-22956000D03*
X66677500Y-23456000D03*
X66677500Y-23956000D03*
X66677500Y-24456000D03*
X66677500Y-24956000D03*
X66677500Y-25456000D03*
D18*
X68615000Y-24206000D03*
D17*
X76137000Y-45466000D03*
X77787000Y-45466000D03*
D40*
X33547000Y-18708500D03*
X33547000Y-22983500D03*
D12*
X79865000Y-27856000D03*
X79865000Y-29506000D03*
M02*
